<svg width="13" height="14" viewBox="0 0 13 14" fill="none" xmlns="http://www.w3.org/2000/svg">
<g clip-path="url(#clip0_66_118)">
<path d="M11.7001 3.9497C12.0373 3.8306 12.3353 3.62113 12.5614 3.34423C12.7874 3.06732 12.9328 2.73364 12.9817 2.3797C13.0306 2.02577 12.9811 1.66522 12.8386 1.33751C12.6961 1.00981 12.466 0.727576 12.1736 0.521705C11.8813 0.315835 11.5378 0.19426 11.1809 0.170284C10.824 0.146309 10.4673 0.220857 10.15 0.385771C9.83264 0.550685 9.56683 0.799609 9.38165 1.1053C9.19647 1.41099 9.09905 1.76167 9.10005 2.11896C9.10417 2.4519 9.19369 2.77824 9.36005 3.06679L7.21505 5.50777C6.88585 5.37444 6.52594 5.3354 6.17575 5.39503C5.82555 5.45466 5.49893 5.61061 5.23255 5.84536L3.86755 5.05983C3.93446 4.69384 3.89501 4.31637 3.75388 3.97207C3.61274 3.62778 3.37582 3.33106 3.07115 3.11702C2.76648 2.90297 2.4068 2.78057 2.03466 2.76428C1.66252 2.74799 1.29349 2.83849 0.971238 3.02509C0.648982 3.21168 0.386979 3.48656 0.216223 3.81721C0.0454679 4.14785 -0.0268954 4.52042 0.00769401 4.89085C0.0422834 5.26128 0.182378 5.61407 0.411405 5.90747C0.640433 6.20088 0.948809 6.42263 1.30005 6.54649V11.8569H5.4661e-05V13.1553H13.0001V11.8569H11.7001V3.9497ZM7.15005 9.14328C7.52936 9.00935 7.85791 8.76151 8.09064 8.43375C8.32338 8.106 8.44892 7.71436 8.45005 7.31255C8.44594 6.9796 8.35642 6.65327 8.19005 6.36472L10.3351 3.92373H10.4001V11.8569H7.15005V9.14328ZM2.60005 6.54649C2.82612 6.46642 3.03546 6.34537 3.21755 6.18943L4.58905 6.97496C4.50168 7.42754 4.58123 7.89641 4.81302 8.29496C5.0448 8.69352 5.41316 8.99485 5.85005 9.14328V11.8569H2.60005V6.54649Z" fill="#99B2C6"/>
</g>
<defs>
<clipPath id="clip0_66_118">
<rect width="13" height="12.984" fill="white" transform="translate(0 0.171265)"/>
</clipPath>
</defs>
</svg>
