<svg width="20" height="21" viewBox="0 0 20 21" fill="none" xmlns="http://www.w3.org/2000/svg">
<path d="M13.125 15.3853H1.875C1.70924 15.3853 1.55027 15.3195 1.43306 15.2025C1.31585 15.0854 1.25 14.9266 1.25 14.7611V6.64608C1.25 6.48052 1.31585 6.32175 1.43306 6.20468C1.55027 6.08762 1.70924 6.02185 1.875 6.02185H13.125C13.2908 6.02185 13.4497 6.08762 13.5669 6.20468C13.6842 6.32175 13.75 6.48052 13.75 6.64608V14.7611C13.75 14.9266 13.6842 15.0854 13.5669 15.2025C13.4497 15.3195 13.2908 15.3853 13.125 15.3853ZM2.5 14.1368H12.5V7.27031H2.5V14.1368Z" fill="#99B2C6"/>
<path d="M7.49993 11.3278C7.38943 11.33 7.28073 11.2996 7.18743 11.2404L3.43743 9.05561C3.35773 9.01964 3.28649 8.96737 3.22829 8.90217C3.1701 8.83697 3.12625 8.7603 3.09959 8.67712C3.07292 8.59393 3.06403 8.50608 3.07349 8.41925C3.08295 8.33242 3.11055 8.24854 3.15451 8.17303C3.19846 8.09752 3.25779 8.03206 3.32867 7.98089C3.39954 7.92972 3.48038 7.89397 3.56595 7.87596C3.65152 7.85795 3.73993 7.85808 3.82545 7.87633C3.91097 7.89459 3.9917 7.93056 4.06243 7.98194L7.49993 9.97947L10.9374 7.98194C11.0784 7.91829 11.238 7.90915 11.3854 7.95627C11.5328 8.00339 11.6574 8.10342 11.7351 8.23702C11.8129 8.37062 11.8383 8.52827 11.8064 8.67949C11.7745 8.8307 11.6876 8.96472 11.5624 9.05561L7.81243 11.2404C7.71912 11.2996 7.61043 11.33 7.49993 11.3278Z" fill="#99B2C6"/>
<path d="M10.9374 18.5065C9.59769 18.5071 8.28038 18.1632 7.11242 17.5077C7.004 17.4466 6.91634 17.3545 6.86066 17.2433C6.80498 17.1321 6.78383 17.0068 6.79992 16.8835C6.81072 16.7624 6.85669 16.6471 6.93219 16.5517C7.00769 16.4563 7.10943 16.3851 7.22492 16.3466L9.16867 15.7224C9.24703 15.6961 9.32983 15.6856 9.41229 15.6915C9.49475 15.6973 9.57522 15.7195 9.64904 15.7567C9.72287 15.7938 9.78858 15.8452 9.84237 15.9079C9.89616 15.9706 9.93696 16.0434 9.96242 16.1219C9.9937 16.202 10.0081 16.2877 10.0047 16.3736C10.0012 16.4595 9.9801 16.5438 9.94254 16.6211C9.90499 16.6985 9.85184 16.7673 9.78643 16.8231C9.72102 16.879 9.64475 16.9208 9.56242 16.9459L9.21867 17.0583C9.77836 17.2132 10.3566 17.2909 10.9374 17.2892C11.9363 17.2805 12.9201 17.0441 13.8137 16.598C14.7073 16.152 15.4871 15.5081 16.0938 14.7154C16.7004 13.9227 17.1179 13.0022 17.3143 12.0239C17.5108 11.0457 17.481 10.0355 17.2273 9.07049C16.9736 8.10547 16.5026 7.21102 15.8504 6.45534C15.1981 5.69965 14.3817 5.10267 13.4634 4.7099C12.5451 4.31712 11.5491 4.13892 10.5514 4.18887C9.55367 4.23882 8.58054 4.51561 7.70617 4.99814C7.5637 5.0732 7.39773 5.09043 7.24285 5.04623C7.08798 5.00204 6.95617 4.89983 6.87492 4.76093C6.79395 4.61684 6.77348 4.44657 6.818 4.28743C6.86252 4.1283 6.96839 3.99328 7.11242 3.91198C8.15371 3.3237 9.31636 2.98213 10.5107 2.9136C11.7051 2.84507 12.8993 3.05141 14.0012 3.51671C15.1031 3.98202 16.0832 4.69385 16.8661 5.59733C17.649 6.5008 18.2137 7.57179 18.5167 8.7277C18.8196 9.88362 18.8527 11.0936 18.6134 12.2643C18.3742 13.435 17.8689 14.5352 17.1366 15.48C16.4042 16.4249 15.4645 17.1891 14.3897 17.7138C13.3148 18.2386 12.1337 18.5097 10.9374 18.5065Z" fill="#99B2C6"/>
<path d="M8.7501 19.4429C8.65095 19.4424 8.55332 19.4184 8.46529 19.3728C8.37727 19.3272 8.30136 19.2614 8.24385 19.1807L6.9126 17.308C6.81707 17.1737 6.77858 17.0071 6.80551 16.8446C6.83243 16.682 6.9226 16.5367 7.05635 16.4403C7.12315 16.3921 7.19883 16.3576 7.27905 16.3387C7.35927 16.3198 7.44243 16.3169 7.52376 16.3303C7.60508 16.3436 7.68296 16.3729 7.75292 16.4164C7.82287 16.4599 7.88351 16.5169 7.93135 16.5839L9.25635 18.4566C9.35188 18.5909 9.39037 18.7575 9.36345 18.92C9.33652 19.0825 9.24635 19.2278 9.1126 19.3243C9.0071 19.4005 8.88036 19.442 8.7501 19.4429Z" fill="#99B2C6"/>
</svg>
