<svg width="22" height="23" viewBox="0 0 22 23" fill="none" xmlns="http://www.w3.org/2000/svg">
<path d="M14.6666 7.87125H11.9166V6.04018H13.7499C14.2561 6.04018 14.6666 5.6302 14.6666 5.12464C14.6666 4.61908 14.2561 4.20911 13.7499 4.20911H8.24992C7.74374 4.20911 7.33325 4.61908 7.33325 5.12464C7.33325 5.6302 7.74374 6.04018 8.24992 6.04018H10.0833V7.87125H7.33325C4.30037 7.87125 1.83325 10.3353 1.83325 13.3645C1.83325 16.3936 4.30037 18.8577 7.33325 18.8577H14.6666C17.6995 18.8577 20.1666 16.3936 20.1666 13.3645C20.1666 10.3353 17.6995 7.87125 14.6666 7.87125ZM14.6666 17.0266H7.33325C5.31145 17.0266 3.66659 15.3838 3.66659 13.3645C3.66659 11.3452 5.31145 9.70232 7.33325 9.70232H14.6666C16.6884 9.70232 18.3333 11.3452 18.3333 13.3645C18.3333 15.3838 16.6884 17.0266 14.6666 17.0266Z" fill="#99B2C6"/>
<path d="M12.8333 14.28H9.16667C8.66048 14.28 8.25 14.69 8.25 15.1956C8.25 15.7011 8.66048 16.1111 9.16667 16.1111H12.8333C13.3395 16.1111 13.75 15.7011 13.75 15.1956C13.75 14.69 13.3395 14.28 12.8333 14.28Z" fill="#99B2C6"/>
<path d="M8.24992 12.449C8.75618 12.449 9.16659 12.0391 9.16659 11.5335C9.16659 11.0278 8.75618 10.6179 8.24992 10.6179C7.74366 10.6179 7.33325 11.0278 7.33325 11.5335C7.33325 12.0391 7.74366 12.449 8.24992 12.449Z" fill="#99B2C6"/>
<path d="M13.7499 12.449C14.2562 12.449 14.6666 12.0391 14.6666 11.5335C14.6666 11.0278 14.2562 10.6179 13.7499 10.6179C13.2437 10.6179 12.8333 11.0278 12.8333 11.5335C12.8333 12.0391 13.2437 12.449 13.7499 12.449Z" fill="#99B2C6"/>
</svg>
