<svg width="16" height="17" viewBox="0 0 16 17" fill="none" xmlns="http://www.w3.org/2000/svg">
<path fill-rule="evenodd" clip-rule="evenodd" d="M7.87509 16.9608C7.41119 16.9596 6.96643 16.7754 6.63766 16.4484C6.30844 16.1214 6.12396 15.6763 6.12534 15.2125L0.875336 15.2125C0.64325 15.2131 0.420502 15.1212 0.256622 14.957C0.0922852 14.7931 0 14.5706 0 14.3387C0 14.1067 0.0922852 13.8843 0.256622 13.7203C0.420502 13.5561 0.64325 13.4642 0.875336 13.4649V7.34717C0.875336 4.84934 2.20953 2.54126 4.3754 1.29236C6.54126 0.0434477 9.20966 0.0434477 11.3755 1.29236C13.5414 2.54126 14.8756 4.84934 14.8756 7.34717V13.4649C15.1075 13.4643 15.33 13.5562 15.4936 13.7203C15.6579 13.8843 15.7502 14.1067 15.7502 14.3387C15.7502 14.5706 15.6579 14.7931 15.4936 14.957C15.33 15.1211 15.1075 15.2131 14.8756 15.2125H9.62558C9.62558 16.178 8.84189 16.9608 7.87509 16.9608V16.9608ZM7.87494 2.10438C4.97547 2.10438 2.62494 4.45199 2.62494 7.34791V13.4649H13.1249V7.34716C13.1249 4.45124 10.7744 2.10364 7.87494 2.10364V2.10438Z" fill="#464255"/>
</svg>
