<svg width="16" height="18" viewBox="0 0 16 18" fill="none" xmlns="http://www.w3.org/2000/svg">
<path d="M13.7892 2.10776L1.78921 6.35251C1.66731 6.39594 1.55982 6.47581 1.47968 6.58253C1.39954 6.68925 1.35016 6.81827 1.33748 6.95406C1.3248 7.08986 1.34937 7.22665 1.40822 7.34798C1.46707 7.46931 1.5577 7.57001 1.66921 7.63797L5.99988 10.2641V15.5134C5.99985 15.6653 6.04586 15.8131 6.1311 15.935C6.21635 16.057 6.33631 16.1466 6.47326 16.1906C6.6102 16.2347 6.75686 16.2308 6.89155 16.1795C7.02625 16.1283 7.14183 16.0324 7.22121 15.9061L9.54255 12.211L13.6692 14.7126C13.7706 14.774 13.8854 14.8061 14.0021 14.8057C14.1189 14.8053 14.2335 14.7724 14.3345 14.7102C14.4354 14.648 14.5193 14.5588 14.5775 14.4514C14.6358 14.3441 14.6665 14.2224 14.6665 14.0985V2.77913C14.6664 2.66709 14.6413 2.55667 14.5931 2.45696C14.5449 2.35725 14.4752 2.27108 14.3895 2.20555C14.3039 2.14001 14.2048 2.09698 14.1005 2.07998C13.9961 2.06298 13.8894 2.0725 13.7892 2.10776ZM7.33321 10.2181L9.78188 8.3617L8.74455 10.9298L7.33321 13.1767V10.2181ZM13.3332 12.8795L10.1799 10.9673L11.9459 6.59517C12.0026 6.45332 12.0142 6.29569 11.9789 6.14621C11.9436 5.99673 11.8633 5.86356 11.7502 5.7669C11.6371 5.67024 11.4973 5.61537 11.3522 5.61062C11.207 5.60586 11.0644 5.65149 10.9459 5.74056L6.62655 9.01469L3.62588 7.19439L13.3332 3.76038V12.8795Z" fill="#99B2C6"/>
</svg>
