<svg width="20" height="21" viewBox="0 0 20 21" fill="none" xmlns="http://www.w3.org/2000/svg">
<path d="M7.50008 11.681C5.55008 11.681 1.66675 12.6548 1.66675 14.5941V16.0506H13.3334V14.5941C13.3334 12.6548 9.45008 11.681 7.50008 11.681ZM3.61675 14.386C4.31675 13.9032 6.00841 13.3456 7.50008 13.3456C8.99175 13.3456 10.6834 13.9032 11.3834 14.386H3.61675ZM7.50008 10.2245C9.10842 10.2245 10.4167 8.91774 10.4167 7.31139C10.4167 5.70504 9.10842 4.39832 7.50008 4.39832C5.89175 4.39832 4.58341 5.70504 4.58341 7.31139C4.58341 8.91774 5.89175 10.2245 7.50008 10.2245ZM7.50008 6.06293C8.19175 6.06293 8.75008 6.62057 8.75008 7.31139C8.75008 8.0022 8.19175 8.55984 7.50008 8.55984C6.80841 8.55984 6.25008 8.0022 6.25008 7.31139C6.25008 6.62057 6.80841 6.06293 7.50008 6.06293ZM13.3667 11.7309C14.3334 12.4301 15.0001 13.3622 15.0001 14.5941V16.0506H18.3334V14.5941C18.3334 12.9128 15.4167 11.9557 13.3667 11.7309ZM12.5001 10.2245C14.1084 10.2245 15.4167 8.91774 15.4167 7.31139C15.4167 5.70504 14.1084 4.39832 12.5001 4.39832C12.0501 4.39832 11.6334 4.50652 11.2501 4.68962C11.7751 5.43037 12.0834 6.33759 12.0834 7.31139C12.0834 8.28518 11.7751 9.1924 11.2501 9.93315C11.6334 10.1163 12.0501 10.2245 12.5001 10.2245Z" fill="#99B2C6"/>
</svg>
