<svg width="18" height="19" viewBox="0 0 18 19" fill="none" xmlns="http://www.w3.org/2000/svg">
<path fill-rule="evenodd" clip-rule="evenodd" d="M11.9069 14.5709C11.9846 14.5709 12.0475 14.6337 12.0475 14.7114C12.0475 14.789 11.9846 14.8518 11.9069 14.8518H5.47327C5.4548 14.8518 5.43651 14.8482 5.41945 14.8412C5.40238 14.8341 5.38688 14.8238 5.37382 14.8107C5.36076 14.7977 5.35041 14.7822 5.34335 14.7651C5.33629 14.7481 5.33267 14.7298 5.33268 14.7114C5.33268 14.6337 5.39551 14.5709 5.47327 14.5709H11.9069ZM11.9069 15.7033C11.9846 15.7033 12.0475 15.7662 12.0475 15.8438C12.0475 15.9214 11.9846 15.9842 11.9069 15.9842H5.47327C5.4548 15.9843 5.43651 15.9806 5.41945 15.9736C5.40238 15.9665 5.38688 15.9562 5.37382 15.9431C5.36076 15.9301 5.35041 15.9146 5.34335 15.8976C5.33629 15.8805 5.33267 15.8622 5.33268 15.8438C5.33268 15.7662 5.39551 15.7033 5.47327 15.7033H11.9069ZM5.56528 3.47692C5.528 3.47692 5.49225 3.46213 5.46589 3.43581C5.43953 3.40948 5.42472 3.37377 5.42472 3.33654C5.42472 3.29931 5.43953 3.2636 5.46589 3.23728C5.49225 3.21095 5.528 3.19616 5.56528 3.19616H11.9989C12.0173 3.19615 12.0356 3.19977 12.0527 3.20681C12.0697 3.21385 12.0852 3.22419 12.0983 3.23722C12.1113 3.25025 12.1217 3.26572 12.1288 3.28275C12.1358 3.29978 12.1395 3.31804 12.1395 3.33647C12.1395 3.41411 12.0766 3.47692 11.9989 3.47692H5.56528ZM5.56528 4.60935C5.48755 4.60935 5.42462 4.54653 5.42462 4.4689C5.42462 4.39126 5.48751 4.32845 5.56528 4.32845H11.9989C12.0173 4.32843 12.0356 4.33206 12.0527 4.33911C12.0698 4.34616 12.0853 4.35651 12.0983 4.36955C12.1114 4.3826 12.1217 4.39809 12.1288 4.41514C12.1359 4.43218 12.1395 4.45045 12.1395 4.4689C12.1395 4.54653 12.0766 4.60935 11.9989 4.60935H5.56528ZM13.197 16.9497V13.605H4.36719V16.9497H13.197ZM13.197 5.5753V2.23056H4.36719V5.5753H13.197Z" fill="#DCF0FF"/>
<path fill-rule="evenodd" clip-rule="evenodd" d="M5.28388 3.33645C5.28388 3.37334 5.29115 3.40987 5.30529 3.44395C5.31943 3.47803 5.34015 3.509 5.36627 3.53509C5.39239 3.56117 5.4234 3.58186 5.45752 3.59598C5.49165 3.61009 5.52823 3.61735 5.56516 3.61735H11.9988C12.0357 3.61735 12.0722 3.61009 12.1064 3.59597C12.1405 3.58186 12.1715 3.56117 12.1976 3.5351C12.2237 3.50902 12.2444 3.47806 12.2585 3.44399C12.2727 3.40991 12.2799 3.3734 12.2799 3.33652C12.2799 3.29964 12.2727 3.26312 12.2585 3.22905C12.2444 3.19497 12.2237 3.16402 12.1976 3.13794C12.1715 3.11186 12.1405 3.09117 12.1064 3.07706C12.0722 3.06295 12.0357 3.05568 11.9988 3.05568H5.56516C5.40981 3.05568 5.28388 3.18142 5.28388 3.33645ZM5.28388 4.46887C5.28388 4.50576 5.29115 4.5423 5.30529 4.57638C5.31943 4.61046 5.34015 4.64143 5.36627 4.66751C5.39239 4.6936 5.4234 4.71429 5.45752 4.7284C5.49165 4.74252 5.52823 4.74978 5.56516 4.74978H11.9988C12.0357 4.74978 12.0723 4.74252 12.1064 4.7284C12.1405 4.71429 12.1715 4.69359 12.1976 4.66751C12.2237 4.64142 12.2445 4.61046 12.2586 4.57637C12.2727 4.54229 12.28 4.50576 12.28 4.46887C12.28 4.31367 12.1541 4.18797 11.9988 4.18797H5.56516C5.52823 4.18797 5.49165 4.19523 5.45752 4.20934C5.4234 4.22346 5.39239 4.24415 5.36627 4.27023C5.34015 4.29632 5.31943 4.32728 5.30529 4.36137C5.29115 4.39545 5.28388 4.43198 5.28388 4.46887ZM5.28388 9.02372C5.28388 9.06061 5.29115 9.09714 5.30529 9.13122C5.31943 9.16531 5.34015 9.19627 5.36627 9.22236C5.39239 9.24844 5.4234 9.26914 5.45752 9.28325C5.49165 9.29737 5.52823 9.30463 5.56516 9.30462H11.9988C12.0357 9.30462 12.0723 9.29736 12.1064 9.28324C12.1405 9.26912 12.1715 9.24843 12.1976 9.22235C12.2237 9.19626 12.2444 9.16529 12.2586 9.13121C12.2727 9.09713 12.28 9.06061 12.28 9.02372C12.28 8.86887 12.1541 8.74282 11.9988 8.74282H5.56516C5.40981 8.74282 5.28388 8.86887 5.28388 9.02372ZM5.28388 10.1561C5.28388 10.193 5.29115 10.2296 5.30529 10.2637C5.31943 10.2977 5.34015 10.3287 5.36627 10.3548C5.39239 10.3809 5.4234 10.4016 5.45752 10.4157C5.49165 10.4298 5.52823 10.4371 5.56516 10.437H11.9988C12.0357 10.437 12.0723 10.4298 12.1064 10.4157C12.1405 10.4015 12.1715 10.3809 12.1976 10.3548C12.2237 10.3287 12.2444 10.2977 12.2586 10.2636C12.2727 10.2296 12.28 10.193 12.28 10.1561C12.28 10.0013 12.1541 9.87524 11.9988 9.87524H5.56516C5.40981 9.87524 5.28388 10.0013 5.28388 10.1561ZM12.188 15.8438C12.188 15.8069 12.1808 15.7703 12.1666 15.7363C12.1525 15.7022 12.1318 15.6712 12.1056 15.6451C12.0795 15.619 12.0485 15.5984 12.0144 15.5842C11.9803 15.5701 11.9437 15.5629 11.9068 15.5629H5.47316C5.43623 15.5629 5.39965 15.5701 5.36553 15.5842C5.33141 15.5984 5.3004 15.619 5.27429 15.6451C5.24817 15.6712 5.22746 15.7022 5.21333 15.7363C5.1992 15.7704 5.19194 15.8069 5.19195 15.8438C5.19195 15.999 5.3178 16.1247 5.47316 16.1247H11.9068C11.9437 16.1247 11.9803 16.1174 12.0144 16.1033C12.0485 16.0892 12.0795 16.0685 12.1056 16.0424C12.1318 16.0163 12.1525 15.9854 12.1666 15.9513C12.1808 15.9172 12.188 15.8807 12.188 15.8438ZM12.188 14.7113C12.188 14.6745 12.1808 14.6379 12.1666 14.6038C12.1525 14.5698 12.1318 14.5388 12.1056 14.5127C12.0795 14.4866 12.0485 14.4659 12.0144 14.4518C11.9803 14.4377 11.9437 14.4304 11.9068 14.4304H5.47316C5.43623 14.4304 5.39965 14.4377 5.36553 14.4518C5.33141 14.4659 5.3004 14.4866 5.27429 14.5127C5.24817 14.5388 5.22746 14.5698 5.21333 14.6038C5.1992 14.6379 5.19194 14.6745 5.19195 14.7113C5.19195 14.8665 5.3178 14.9922 5.47316 14.9922H11.9068C11.9437 14.9923 11.9803 14.985 12.0144 14.9709C12.0485 14.9568 12.0795 14.9361 12.1056 14.91C12.1318 14.8839 12.1525 14.8529 12.1666 14.8188C12.1808 14.7848 12.188 14.7482 12.188 14.7113ZM3.3988 4.09257C3.42839 4.06185 3.45059 4.02481 3.46371 3.98425C3.47684 3.94369 3.48055 3.90068 3.47456 3.85848C3.46857 3.81627 3.45304 3.77599 3.42914 3.74067C3.40525 3.70535 3.37361 3.67593 3.33664 3.65464L2.45588 3.14698C2.41329 3.12216 2.36487 3.10908 2.31557 3.10906C2.26611 3.10903 2.21753 3.12203 2.17471 3.14675C2.1319 3.17148 2.09638 3.20704 2.07172 3.24986C1.99406 3.38402 2.04012 3.55562 2.17466 3.63329L2.33241 3.72423C0.991652 4.07698 0 5.2982 0 6.7463C0 8.46936 1.4034 9.8711 3.12848 9.8711C3.28384 9.8711 3.40973 9.74539 3.40973 9.5902C3.40973 9.43482 3.2838 9.30929 3.12848 9.30929C1.71355 9.30929 0.5625 8.15963 0.5625 6.7463C0.5625 5.57082 1.35896 4.57769 2.44125 4.27691L2.2885 4.43559C2.18085 4.54756 2.1844 4.72527 2.29641 4.83261C2.32299 4.85824 2.35437 4.87838 2.38876 4.89187C2.42314 4.90536 2.45986 4.91194 2.4968 4.91123C2.53374 4.91052 2.57017 4.90254 2.60402 4.88774C2.63786 4.87294 2.66845 4.85162 2.69402 4.82499L3.3988 4.09257ZM15.6676 9.41179L15.8254 9.32084C15.8888 9.283 15.9348 9.22174 15.9534 9.15031C15.972 9.07888 15.9617 9.003 15.9248 8.93908C15.8879 8.87515 15.8272 8.8283 15.756 8.80866C15.6848 8.78901 15.6086 8.79814 15.5441 8.83407L14.6633 9.34223C14.6264 9.36351 14.5948 9.39289 14.5709 9.42816C14.547 9.46342 14.5315 9.50364 14.5254 9.54578C14.5194 9.588 14.5232 9.63102 14.5363 9.6716C14.5494 9.71217 14.5716 9.74924 14.6012 9.77998L15.306 10.5126C15.4136 10.6242 15.5917 10.6277 15.7037 10.5202C15.8156 10.4129 15.8192 10.2348 15.7115 10.123L15.5588 9.96432C16.6411 10.2649 17.4375 11.2582 17.4375 12.4339C17.4375 13.8469 16.2864 14.9964 14.8715 14.9964C14.7162 14.9964 14.5903 15.1224 14.5903 15.2773C14.5903 15.4325 14.7162 15.5582 14.8715 15.5582C16.5967 15.5582 18 14.1564 18 12.4338C18 10.9855 17.0083 9.76429 15.6676 9.41179ZM13.0562 2.37098V5.43483H4.5077V2.37098H13.0562ZM13.3375 5.99664H4.22638C4.07106 5.99664 3.94513 5.87058 3.94513 5.71573V2.0899C3.94513 1.93488 4.07106 1.80918 4.22638 1.80918H13.3375C13.4928 1.80918 13.6188 1.93488 13.6188 2.0899V5.71573C13.6188 5.87062 13.4928 5.99664 13.3375 5.99664ZM12.6353 8.05811L13.4572 11.1221H4.92855L4.10657 8.05811H12.6353ZM13.8239 11.6839H4.7128C4.65086 11.684 4.59065 11.6635 4.54152 11.6259C4.49239 11.5882 4.45709 11.5354 4.44111 11.4756L3.46837 7.8499C3.45721 7.80827 3.45579 7.76465 3.46421 7.72239C3.47263 7.68013 3.49066 7.64037 3.51693 7.60618C3.54319 7.572 3.57697 7.54431 3.61567 7.52525C3.65436 7.50619 3.69692 7.49628 3.74006 7.49627H12.8511C12.9784 7.49627 13.0898 7.58156 13.1228 7.70463L14.0955 11.3303C14.1067 11.3719 14.1081 11.4155 14.0997 11.4578C14.0913 11.5 14.0732 11.5398 14.047 11.5739C14.0207 11.6081 13.9869 11.6358 13.9482 11.6549C13.9096 11.674 13.867 11.6839 13.8239 11.6839ZM4.5077 16.8092V13.7454H13.0562V16.8092H4.5077ZM4.22641 13.1835H13.3375C13.4929 13.1835 13.6188 13.3096 13.6188 13.4644V17.0903C13.6188 17.1272 13.6115 17.1637 13.5974 17.1978C13.5832 17.2319 13.5625 17.2629 13.5364 17.289C13.5103 17.315 13.4793 17.3357 13.4451 17.3498C13.411 17.364 13.3744 17.3712 13.3375 17.3712H4.22641C4.15182 17.3712 4.08028 17.3416 4.02754 17.2889C3.9748 17.2363 3.94516 17.1648 3.94516 17.0903V13.4645C3.94516 13.3096 4.07109 13.1835 4.22641 13.1835Z" fill="#99B2C6"/>
</svg>
