<svg width="20" height="21" viewBox="0 0 20 21" fill="none" xmlns="http://www.w3.org/2000/svg">
<path d="M13.2112 2.4939C15.889 2.4939 17.4927 4.11809 17.5 6.82997V14.8039C17.5 17.5158 15.9035 19.14 13.2184 19.14H10.8382C10.5329 19.1059 10.3019 18.8447 10.3019 18.5337C10.3019 18.2227 10.5329 17.9615 10.8382 17.9274H13.2112C15.2576 17.9274 16.2881 16.8764 16.2881 14.8039V6.82997C16.2881 4.75747 15.2576 3.70653 13.2112 3.70653H6.78157C4.73512 3.70653 3.69739 4.75747 3.69739 6.82997V14.8039C3.69739 16.8764 4.73512 17.9274 6.78157 17.9274C7.08682 17.9615 7.31788 18.2227 7.31788 18.5337C7.31788 18.8447 7.08682 19.1059 6.78157 19.14C4.10377 19.14 2.5 17.5158 2.5 14.8039V6.82997C2.5 4.11074 4.10377 2.4939 6.78157 2.4939H13.2112ZM12.9935 13.7383C13.3221 13.7383 13.5885 14.0081 13.5885 14.3409C13.5885 14.6738 13.3221 14.9436 12.9935 14.9436H6.98476C6.65611 14.9436 6.3897 14.6738 6.3897 14.3409C6.3897 14.0081 6.65611 13.7383 6.98476 13.7383H12.9935ZM12.9935 10.2106C13.2231 10.185 13.447 10.2946 13.5697 10.4928C13.6925 10.691 13.6925 10.9429 13.5697 11.1411C13.447 11.3393 13.2231 11.4489 12.9935 11.4233H6.98476C6.6795 11.3892 6.44845 11.128 6.44845 10.817C6.44845 10.5059 6.6795 10.2447 6.98476 10.2106H12.9935ZM9.27794 6.69034C9.58319 6.72442 9.81425 6.98564 9.81425 7.29665C9.81425 7.60767 9.58319 7.86888 9.27794 7.90297H6.99202C6.68676 7.86888 6.45571 7.60767 6.45571 7.29665C6.45571 6.98564 6.68676 6.72442 6.99202 6.69034H9.27794Z" fill="#99B2C6"/>
</svg>
