<svg width="18" height="19" viewBox="0 0 18 19" fill="none" xmlns="http://www.w3.org/2000/svg">
<g clip-path="url(#clip0_11_16)">
<path d="M6.86791 16.346V14.0488C6.8679 13.4645 7.34484 12.9897 7.93576 12.9858H10.1003C10.6941 12.9858 11.1754 13.4617 11.1754 14.0488V16.3532C11.1752 16.8492 11.5757 17.2547 12.0773 17.2663H13.5203C14.9588 17.2663 16.125 16.1133 16.125 14.6909V8.15595C16.1173 7.59639 15.8516 7.07093 15.4035 6.72911L10.4683 2.79817C9.6037 2.11371 8.37465 2.11371 7.51006 2.79817L2.59652 6.73625C2.14669 7.07668 1.88054 7.60301 1.875 8.16309V14.6909C1.875 16.1133 3.04116 17.2663 4.47968 17.2663H5.92272C6.43677 17.2663 6.85348 16.8543 6.85348 16.346" stroke="#99B2C6" stroke-width="2.5" stroke-linecap="round" stroke-linejoin="round"/>
</g>
<defs>
<clipPath id="clip0_11_16">
<rect width="18" height="17.9778" fill="white" transform="translate(0 0.786675)"/>
</clipPath>
</defs>
</svg>
