<svg width="12" height="13" viewBox="0 0 12 13" fill="none" xmlns="http://www.w3.org/2000/svg">
<path d="M10.8125 0.182739C10.4 0.182739 10.125 0.467573 10.125 0.894823V3.03107C10.125 3.45833 9.85 3.74316 9.4375 3.74316H2.5625C2.15 3.74316 1.875 3.45833 1.875 3.03107V0.894823C1.875 0.467573 1.6 0.182739 1.1875 0.182739C0.775 0.182739 0.5 0.467573 0.5 0.894823V3.03107C0.5 4.24162 1.39375 5.16733 2.5625 5.16733H9.4375C10.6062 5.16733 11.5 4.24162 11.5 3.03107V0.894823C11.5 0.467573 11.225 0.182739 10.8125 0.182739ZM9.4375 8.01566H2.5625C1.39375 8.01566 0.5 8.94137 0.5 10.1519V12.2882C0.5 12.7154 0.775 13.0002 1.1875 13.0002C1.6 13.0002 1.875 12.7154 1.875 12.2882V10.1519C1.875 9.72466 2.15 9.43983 2.5625 9.43983H9.4375C9.85 9.43983 10.125 9.72466 10.125 10.1519V12.2882C10.125 12.7154 10.4 13.0002 10.8125 13.0002C11.225 13.0002 11.5 12.7154 11.5 12.2882V10.1519C11.5 8.94137 10.6062 8.01566 9.4375 8.01566ZM10.125 7.30358C10.5375 7.30358 10.8125 7.01874 10.8125 6.59149C10.8125 6.16424 10.5375 5.87941 10.125 5.87941H1.875C1.4625 5.87941 1.1875 6.16424 1.1875 6.59149C1.1875 7.01874 1.4625 7.30358 1.875 7.30358H10.125Z" fill="#99B2C6"/>
</svg>
