<svg width="30" height="30" viewBox="0 0 30 30" fill="none" xmlns="http://www.w3.org/2000/svg">
<ellipse cx="15" cy="14.9815" rx="15" ry="14.9815" fill="#94C5FF"/>
<path d="M12.8869 18.527C14.3008 18.4111 15.7213 18.4111 17.1352 18.527C17.9052 18.5726 18.6715 18.6705 19.4294 18.8202C21.0692 19.1578 22.1398 19.7088 22.5987 20.5974C22.9433 21.2909 22.9433 22.1164 22.5987 22.8099C22.1398 23.6985 21.1117 24.285 19.4124 24.5871C18.6551 24.7424 17.8886 24.8433 17.1182 24.8892C16.4045 24.9692 15.6908 24.9692 14.9686 24.9692H13.6686C13.3967 24.9336 13.1333 24.9159 12.8784 24.9159C12.1079 24.8756 11.3413 24.7776 10.5842 24.6226C8.94435 24.3027 7.87376 23.734 7.41493 22.8455C7.23781 22.5013 7.14443 22.1167 7.14292 21.7259C7.13934 21.3326 7.2299 20.9446 7.40643 20.5974C7.85676 19.7088 8.92736 19.1312 10.5842 18.8202C11.3446 18.6684 12.1139 18.5704 12.8869 18.527ZM15.0025 4.99384C17.851 4.99384 20.1601 7.40868 20.1601 10.3875C20.1601 13.3664 17.851 15.7812 15.0025 15.7812C12.1541 15.7812 9.84501 13.3664 9.84501 10.3875C9.84501 7.40868 12.1541 4.99384 15.0025 4.99384Z" fill="#0779FF"/>
</svg>
