<svg width="15" height="15" viewBox="0 0 15 15" fill="none" xmlns="http://www.w3.org/2000/svg">
<path fill-rule="evenodd" clip-rule="evenodd" d="M4.39864 13.9922L3.22594 13.3215C2.77821 13.0666 2.4506 12.644 2.31552 12.1473C2.18044 11.6505 2.24903 11.1204 2.50612 10.6743C2.72361 10.5001 2.78122 10.1934 2.64172 9.95232C2.50223 9.71125 2.20742 9.60796 1.94769 9.70917C0.873448 9.70954 0.00187565 8.84086 0 7.76796V6.57156C0.00633875 5.5019 0.876706 4.63836 1.94768 4.63915C2.20554 4.67407 2.46443 4.58265 2.64301 4.3936C2.72004 4.14621 2.669 3.87679 2.5068 3.67465C2.24952 3.22954 2.18041 2.70031 2.31476 2.20413C2.44482 1.70355 2.7743 1.27791 3.22663 1.02612L4.40818 0.35409C4.81039 0.117915 5.29018 0.0513259 5.74161 0.169102C6.20582 0.285467 6.6041 0.582584 6.84756 0.994157L6.92928 1.1302C7.26979 1.71584 7.71449 1.71514 8.05363 1.1302L8.1299 1.0003C8.3719 0.586487 8.77053 0.287418 9.23587 0.170513C9.69123 0.0521977 10.1751 0.120779 10.5795 0.360981L11.7536 1.03231C12.2007 1.28775 12.5279 1.71032 12.6629 2.20687C12.7979 2.70342 12.7297 3.23323 12.4734 3.67951C12.2564 3.85374 12.199 4.15995 12.3382 4.40078C12.4773 4.64164 12.7715 4.74518 13.0311 4.64472C14.1039 4.6443 14.9748 5.51104 14.9781 6.58252L14.9781 7.77892C14.9748 8.8504 14.1039 9.71714 13.0311 9.71672C12.7732 9.68115 12.514 9.77269 12.3358 9.96228C12.2589 10.2095 12.3099 10.4786 12.472 10.6806C12.729 11.1268 12.7975 11.6569 12.6624 12.1537C12.5273 12.6505 12.1998 13.0732 11.7522 13.3285L10.5706 14.0018C10.159 14.2364 9.67151 14.3 9.21339 14.1787C8.75833 14.0573 8.36791 13.7648 8.12377 13.3625L8.04137 13.2264C7.70087 12.6422 7.25549 12.6422 6.91702 13.2264L6.84211 13.3557C6.5161 13.9024 5.9266 14.2381 5.28941 14.2398C4.97553 14.2393 4.66768 14.1536 4.39864 13.9922V13.9922ZM5.05713 1.46414L3.8749 2.14431C3.72486 2.23004 3.61492 2.3716 3.56913 2.53812C3.52338 2.70264 3.54571 2.87862 3.6311 3.02649C4.08128 3.60889 4.13412 4.40539 3.76483 5.04201C3.39554 5.67867 2.67745 6.02909 1.94764 5.92875C1.77531 5.92672 1.60942 5.9941 1.48744 6.11569C1.36545 6.23729 1.29764 6.40285 1.29931 6.57497L1.29932 7.76796C1.2995 7.9395 1.3679 8.10394 1.48949 8.22512C1.61107 8.3463 1.77587 8.4143 1.94764 8.41409C2.67783 8.31354 3.39635 8.66421 3.76561 9.30138C4.13485 9.93854 4.08143 10.7355 3.63042 11.3178C3.54546 11.4656 3.52338 11.6412 3.56913 11.8055C3.61425 11.9713 3.72253 12.1128 3.87081 12.1999L5.04965 12.8713C5.16008 12.9389 5.29334 12.9588 5.41876 12.9263C5.54808 12.8917 5.65876 12.808 5.72726 12.6931L5.80013 12.5672C6.08274 11.8882 6.74666 11.4458 7.4829 11.4458C8.21915 11.4458 8.88307 11.8883 9.16568 12.5672L9.24127 12.6951C9.30508 12.8075 9.41296 12.8881 9.53887 12.9175C9.66043 12.9514 9.7905 12.9349 9.8998 12.8719L11.0848 12.1918C11.2345 12.1058 11.3442 11.9643 11.3899 11.798C11.4355 11.634 11.4134 11.4585 11.3286 11.311C10.8771 10.7287 10.8234 9.9314 11.1927 9.29399C11.562 8.65653 12.2809 8.30578 13.0113 8.40662C13.1839 8.40903 13.3501 8.34181 13.4724 8.22022C13.5947 8.09858 13.6627 7.93286 13.661 7.76049V6.56405C13.6599 6.20673 13.3691 5.91784 13.0113 5.91858C12.2809 6.01942 11.562 5.66867 11.1927 5.03122C10.8234 4.3938 10.8771 3.59652 11.3286 3.01424C11.4135 2.86641 11.4356 2.69076 11.3898 2.52657C11.3446 2.36064 11.2364 2.21887 11.0882 2.1314L9.90933 1.46007C9.79901 1.39406 9.6668 1.37497 9.54227 1.40702C9.41244 1.43898 9.30099 1.52189 9.23308 1.63692L9.15886 1.76412C8.87694 2.44413 8.21263 2.8875 7.47574 2.8875C6.73885 2.8875 6.07454 2.44413 5.79263 1.76412L5.71635 1.62808C5.62613 1.48419 5.46753 1.39739 5.29753 1.39892C5.21312 1.399 5.13021 1.42126 5.05713 1.46343V1.46414ZM4.78484 7.17283C4.7807 6.08171 5.43555 5.09574 6.44362 4.67529C7.45169 4.25483 8.61413 4.48278 9.38816 5.25275C10.1622 6.02272 10.3951 7.18279 9.97824 8.1913C9.56133 9.1998 8.5768 9.85785 7.48436 9.85814C5.99655 9.86038 4.78798 8.65879 4.78347 7.17283H4.78484ZM6.08279 7.17283C6.08059 7.73916 6.4205 8.25099 6.94378 8.46928C7.46706 8.68752 8.07047 8.56916 8.47223 8.16946C8.874 7.76976 8.99484 7.16755 8.77834 6.64406C8.56184 6.12061 8.0507 5.77911 7.48362 5.77911C6.71122 5.77761 6.08366 6.40137 6.08143 7.17283H6.08279Z" fill="#99B2C6"/>
</svg>
