<svg width="23" height="23" viewBox="0 0 23 23" fill="none" xmlns="http://www.w3.org/2000/svg">
<path d="M18.5886 2.08301C18.4693 2.08294 18.3512 2.10635 18.241 2.1519C18.1308 2.19745 18.0307 2.26425 17.9464 2.34848C17.862 2.43271 17.7951 2.53271 17.7495 2.64277C17.7039 2.75283 17.6805 2.87079 17.6806 2.9899V3.56734C16.9147 4.51568 15.9468 5.28154 14.8473 5.80918C13.7478 6.33681 12.5443 6.61295 11.3245 6.61748H5.87638C5.15417 6.61826 4.46175 6.90516 3.95107 7.41522C3.44038 7.92527 3.15313 8.61683 3.15234 9.33816V11.1519C3.15313 11.8733 3.44038 12.5648 3.95107 13.0749C4.46175 13.5849 5.15417 13.8718 5.87638 13.8726H6.31567L4.13396 18.957C4.07467 19.0949 4.0506 19.2454 4.06391 19.3949C4.07722 19.5444 4.12749 19.6882 4.21021 19.8135C4.29293 19.9388 4.40551 20.0416 4.53784 20.1127C4.67017 20.1838 4.81811 20.221 4.96837 20.2209H8.60042C8.77817 20.221 8.95203 20.1689 9.10038 20.0711C9.24874 19.9733 9.36504 19.8342 9.43484 19.6709L11.908 13.9071C13.0255 13.989 14.1142 14.2989 15.1071 14.8175C16.0999 15.3362 16.9758 16.0526 17.6806 16.9226V17.5002C17.6806 17.7407 17.7762 17.9714 17.9465 18.1415C18.1168 18.3115 18.3477 18.4071 18.5886 18.4071C18.8294 18.4071 19.0603 18.3115 19.2306 18.1415C19.4009 17.9714 19.4966 17.7407 19.4966 17.5002V2.9899C19.4967 2.87079 19.4732 2.75283 19.4276 2.64277C19.382 2.53271 19.3151 2.4327 19.2308 2.34848C19.1465 2.26425 19.0463 2.19745 18.9361 2.1519C18.8259 2.10635 18.7078 2.08294 18.5886 2.08301ZM5.87638 12.0588C5.63561 12.0587 5.40475 11.9631 5.2345 11.793C5.06425 11.623 4.96853 11.3924 4.96837 11.1519V9.33816C4.96853 9.09768 5.06425 8.86711 5.2345 8.69707C5.40475 8.52703 5.63561 8.43143 5.87638 8.43126H6.7844V12.0588H5.87638ZM8.00188 18.4071H6.34546L8.29095 13.8726H9.94737L8.00188 18.4071ZM17.6806 14.3458C15.8902 12.8727 13.6441 12.0645 11.3245 12.0588H8.60042V8.43122H11.3245C13.6442 8.4253 15.8902 7.61697 17.6806 6.14372V14.3458Z" fill="white"/>
</svg>
