<svg width="166" height="21" viewBox="0 0 166 21" fill="none" xmlns="http://www.w3.org/2000/svg">
<path d="M155.683 10.0513C156.073 9.62326 156.519 9.3031 157.026 9.0958C157.528 8.88401 158.087 8.78014 158.697 8.78014C159.308 8.78014 159.867 8.88401 160.369 9.0958C160.867 9.30355 161.309 9.62326 161.686 10.0513C162.465 10.9075 162.855 11.9454 162.855 13.1649C162.855 13.7746 162.76 14.3367 162.565 14.8556C162.375 15.3745 162.089 15.8503 161.712 16.2784C161.335 16.7065 160.893 17.0266 160.395 17.2339C159.892 17.4457 159.334 17.5496 158.723 17.5496C158.112 17.5496 157.553 17.4417 157.051 17.2209C156.545 17.0046 156.098 16.6804 155.709 16.2523C155.319 15.8112 155.024 15.3314 154.829 14.808C154.634 14.289 154.539 13.7225 154.539 13.1127C154.539 12.503 154.635 11.9449 154.829 11.435C155.02 10.9291 155.306 10.4664 155.683 10.0513ZM158.724 5.97779C157.71 5.97779 156.77 6.15091 155.9 6.50121C155.034 6.847 154.241 7.36592 153.526 8.05347C152.811 8.74101 152.274 9.51085 151.91 10.367C151.551 11.2191 151.369 12.1531 151.369 13.1649C151.369 14.1766 151.547 15.111 151.897 15.9627C152.253 16.8189 152.785 17.5887 153.5 18.2763C154.215 18.9638 155.007 19.4827 155.873 19.829C156.744 20.1793 157.684 20.3524 158.697 20.3524C159.711 20.3524 160.668 20.1793 161.526 19.829C162.388 19.4832 163.168 18.9643 163.869 18.2763C164.584 17.5757 165.117 16.7973 165.472 15.9366C165.823 15.0805 166 14.1375 166 13.1127C166 12.0879 165.823 11.171 165.472 10.3279C165.116 9.48027 164.584 8.71493 163.869 8.02738C163.154 7.33984 162.371 6.82542 161.513 6.48772C160.655 6.14597 159.724 5.97734 158.724 5.97734V5.97779ZM150.124 6.15586C150.109 6.15406 150.093 6.15226 150.078 6.15046C149.957 6.13742 149.813 6.13338 149.645 6.13338C147.955 6.13338 146.682 6.91176 145.824 8.46851V6.57585C145.824 6.40363 145.683 6.26288 145.511 6.26288H143.123C142.95 6.26288 142.809 6.40363 142.809 6.57585V19.8056C142.809 19.9778 142.95 20.1186 143.123 20.1186H145.589C145.761 20.1186 145.902 19.9778 145.902 19.8056V13.0871C145.907 11.8721 146.21 10.9421 146.821 10.2892C147.431 9.63631 148.328 9.3031 149.515 9.29905C149.684 9.29905 149.84 9.30355 149.987 9.31614C150.009 9.31794 150.03 9.32019 150.051 9.32244C150.143 9.33233 150.226 9.3058 150.294 9.24419C150.363 9.18259 150.398 9.10344 150.398 9.01126V6.46613C150.398 6.3074 150.281 6.17565 150.124 6.15586ZM133.889 8.6241C134.552 8.6241 135.15 8.75406 135.682 9.00452C136.211 9.25544 136.636 9.61427 136.96 10.0855C137.281 10.5527 137.463 11.1103 137.502 11.7632H130.225C130.325 11.1274 130.546 10.5739 130.879 10.1071C131.217 9.6399 131.646 9.27657 132.161 9.01756C132.677 8.7581 133.253 8.62814 133.889 8.6241ZM140.621 13.8088C140.624 13.7697 140.626 13.7297 140.629 13.6883C140.641 13.5282 140.646 13.3465 140.646 13.1392C140.646 12.0623 140.499 11.0937 140.2 10.233C139.901 9.37235 139.451 8.61151 138.853 7.94959C138.256 7.28813 137.541 6.79484 136.713 6.46613C135.882 6.14192 134.942 5.97734 133.889 5.97734C131.888 5.97734 130.225 6.67793 128.9 8.0791C128.237 8.77968 127.739 9.55357 127.401 10.3971C127.067 11.2448 126.898 12.1657 126.898 13.1649C126.898 14.164 127.071 15.1367 127.422 15.9973C127.769 16.8621 128.288 17.6409 128.977 18.3284C129.679 19.016 130.463 19.5308 131.334 19.8681C132.2 20.2098 133.148 20.3785 134.175 20.3785C135.011 20.3785 135.808 20.2485 136.562 19.9891C137.315 19.7296 137.995 19.3532 138.597 18.8559C139.129 18.4197 139.581 17.8976 139.949 17.2919C140.037 17.1485 139.995 16.9614 139.855 16.8688L138.145 15.737C138.071 15.6884 137.99 15.6731 137.904 15.6925C137.818 15.7114 137.751 15.759 137.705 15.8341C137.351 16.4088 136.907 16.8531 136.367 17.1656C135.744 17.5258 134.993 17.7061 134.123 17.7061C133.057 17.7061 132.122 17.3688 131.316 16.6943C130.913 16.344 130.606 15.9546 130.398 15.5225C130.19 15.0944 130.081 14.6186 130.068 14.0997H140.308C140.472 14.0997 140.608 13.9734 140.621 13.8097L140.621 13.8088ZM124.839 19.8056V11.582C124.839 10.7474 124.727 9.99065 124.506 9.3031C124.285 8.62005 123.956 8.03188 123.518 7.53455C123.081 7.03721 122.54 6.65679 121.89 6.38429C121.244 6.11629 120.495 5.98229 119.642 5.97779C118.797 5.97779 118.026 6.14642 117.329 6.48817C116.632 6.82542 116.017 7.33984 115.484 8.02783V1.83408C115.484 1.66186 115.343 1.52111 115.17 1.52111H112.704C112.532 1.52111 112.391 1.66186 112.391 1.83408V19.806C112.391 19.9783 112.532 20.119 112.704 20.119H115.17C115.343 20.119 115.484 19.9783 115.484 19.806V12.4126C115.488 11.7075 115.618 11.0937 115.878 10.5703C116.138 10.0469 116.51 9.64035 116.987 9.35077C117.463 9.06118 118.026 8.91414 118.68 8.90964C119.365 8.91414 119.932 9.05668 120.387 9.34222C120.842 9.62776 121.184 10.0253 121.409 10.5442C121.634 11.0586 121.747 11.6643 121.747 12.3604V19.8056C121.747 19.9778 121.888 20.1186 122.06 20.1186H124.526C124.699 20.1186 124.84 19.9778 124.84 19.8056H124.839ZM98.9541 12.1009C99.045 11.5042 99.2225 10.9507 99.4824 10.4448C99.7467 9.93893 100.098 9.48027 100.539 9.06523C100.981 8.63714 101.462 8.31698 101.978 8.10968C102.497 7.89788 103.047 7.79401 103.632 7.79401C104.503 7.7985 105.252 7.98017 105.889 8.33451C106.526 8.6893 107.032 9.18664 107.413 9.83102C107.794 10.4754 108.033 11.2322 108.128 12.1014H98.9541V12.1009ZM110.178 13.5098C110.181 13.4014 110.181 13.2791 110.181 13.1388C110.181 12.0879 110.038 11.1409 109.752 10.2888C109.466 9.44115 109.037 8.68885 108.466 8.02694C107.894 7.36547 107.205 6.86814 106.4 6.53088C105.594 6.19768 104.672 6.02905 103.632 6.02905C102.684 6.02905 101.809 6.20622 101.003 6.55652C100.202 6.9113 99.4738 7.44327 98.8243 8.15644C98.1744 8.87007 97.6894 9.64395 97.3646 10.4745C97.0399 11.3091 96.875 12.2044 96.875 13.1644C96.875 14.1245 97.0439 15.089 97.3817 15.9452C97.7195 16.7973 98.2262 17.5757 98.9018 18.2763C99.5774 18.9638 100.331 19.4827 101.167 19.829C101.999 20.1793 102.917 20.3524 103.918 20.3524C104.754 20.3479 105.546 20.2098 106.291 19.9328C107.036 19.6518 107.708 19.2453 108.306 18.7133C108.834 18.2425 109.282 17.6805 109.651 17.0298C109.733 16.8859 109.689 16.7042 109.55 16.6138L108.572 15.974C108.497 15.9249 108.414 15.9106 108.327 15.9317C108.239 15.9528 108.172 16.0036 108.128 16.0814C107.881 16.5167 107.581 16.903 107.222 17.2425C106.785 17.6575 106.282 17.9822 105.719 18.2111C105.152 18.4404 104.546 18.5569 103.892 18.5614C103.216 18.5614 102.592 18.4489 102.021 18.2286C101.449 18.0038 100.929 17.6665 100.462 17.2123C99.9935 16.7582 99.6296 16.2478 99.3743 15.6772C99.1144 15.1106 98.9671 14.4878 98.9279 13.8133H109.864C110.034 13.8133 110.173 13.6784 110.178 13.5098ZM92.3261 1.83363V19.8056C92.3261 19.9778 92.4671 20.1186 92.6396 20.1186H94.066C94.2385 20.1186 94.3794 19.9778 94.3794 19.8056V1.83363C94.3794 1.66141 94.2385 1.52066 94.066 1.52066H92.6396C92.4671 1.52066 92.3261 1.66141 92.3261 1.83363ZM87.6245 14.2805C87.6245 14.9163 87.5204 15.487 87.3169 15.9973C87.1133 16.5118 86.8057 16.9659 86.403 17.3684C86.0004 17.7704 85.541 18.069 85.0212 18.2677C84.506 18.4624 83.934 18.5618 83.3102 18.5618C82.7256 18.5618 82.2099 18.4624 81.7595 18.2677C81.3132 18.0775 80.9628 17.8005 80.7114 17.4376C80.4561 17.0743 80.3259 16.6332 80.3219 16.1228C80.348 15.6686 80.4606 15.2927 80.6682 14.9896C80.8718 14.6825 81.1402 14.4406 81.4695 14.263C81.8032 14.0858 82.1626 13.9603 82.5567 13.8866C82.9553 13.8133 83.3494 13.7787 83.752 13.7872H87.6245V14.28V14.2805ZM83.7782 12.127C83.0503 12.127 82.3662 12.2093 81.7293 12.3779C81.0884 12.5421 80.4908 12.7889 79.9318 13.1132C79.3859 13.4374 78.9788 13.8484 78.7059 14.3457C78.4329 14.843 78.2942 15.4353 78.2942 16.1232V16.2788C78.2942 16.8625 78.3982 17.399 78.6104 17.8918C78.8185 18.3806 79.1387 18.8217 79.5675 19.2107C79.9962 19.5871 80.4944 19.8721 81.0618 20.0628C81.6293 20.2575 82.2572 20.3524 82.9458 20.3524C83.9335 20.3524 84.8168 20.1321 85.5968 19.6864C86.3765 19.2453 87.052 18.5748 87.624 17.68H87.6502V19.806C87.6502 19.9783 87.7911 20.119 87.9636 20.119H89.3121C89.4846 20.119 89.6256 19.9783 89.6256 19.806V11.1674C89.6256 10.7393 89.5909 10.3373 89.526 9.95647C89.4567 9.5801 89.3526 9.22126 89.2099 8.88401C88.7941 7.937 88.1658 7.22338 87.3214 6.74762C86.4769 6.26738 85.4158 6.02995 84.1421 6.02995C81.492 6.02995 79.6355 7.13434 78.573 9.34357C78.5014 9.49241 78.5577 9.67093 78.7018 9.75187L79.8269 10.3837C79.9034 10.4268 79.985 10.4358 80.0692 10.4111C80.1534 10.3864 80.2169 10.3346 80.2579 10.2569C81.1168 8.63264 82.3946 7.82009 84.0903 7.82009C85.2725 7.82009 86.1562 8.09664 86.7453 8.65917C87.3344 9.22126 87.6245 10.0648 87.6245 11.1935V12.1275H83.7782V12.127ZM75.9287 19.8056V11.5559C75.9242 10.4403 75.7166 9.47173 75.3095 8.64118C74.8978 7.81109 74.3001 7.16672 73.5205 6.70401C72.7364 6.24579 71.7924 6.01197 70.679 6.00342C69.6526 6.00342 68.7428 6.23275 67.9501 6.68692C67.1574 7.14513 66.4818 7.83268 65.9229 8.75405V1.83408C65.9229 1.66186 65.7819 1.52111 65.6094 1.52111H64.2091C64.0366 1.52111 63.8957 1.66186 63.8957 1.83408V19.806C63.8957 19.9783 64.0366 20.119 64.2091 20.119H65.6094C65.7819 20.119 65.9229 19.9783 65.9229 19.806V12.2314C65.9229 10.9858 66.3129 9.94792 67.0925 9.11783C67.4826 8.68975 67.924 8.36958 68.418 8.16229C68.9117 7.95049 69.4575 7.84662 70.0552 7.84662C70.8866 7.85112 71.5883 8.02379 72.1603 8.36554C72.7319 8.70729 73.1652 9.19158 73.4597 9.81842C73.7543 10.4453 73.9015 11.1895 73.9015 12.0497V19.806C73.9015 19.9783 74.0425 20.119 74.215 20.119H75.6153C75.7878 20.119 75.9287 19.9783 75.9287 19.806V19.8056ZM45.6949 20.1186H47.4771C47.615 20.1186 47.7321 20.0336 47.7748 19.9027L51.3946 8.85748H51.4208L55.0149 19.9023C55.0577 20.0336 55.1748 20.1186 55.313 20.1186H57.1213C57.2583 20.1186 57.3745 20.0349 57.4182 19.9059L61.8847 6.67613C61.918 6.57765 61.9031 6.47827 61.8423 6.39373C61.7815 6.3092 61.6919 6.26333 61.5879 6.26333H60.1484C60.0097 6.26333 59.8917 6.34922 59.8498 6.48142L56.2548 17.7834H56.2287L52.5053 6.47827C52.4625 6.34787 52.3454 6.26333 52.2076 6.26333H50.6344C50.4966 6.26333 50.3795 6.34787 50.3367 6.47872L46.639 17.7573H46.6128L43.0435 6.48142C43.0016 6.34922 42.8836 6.26288 42.7449 6.26288H41.2536C41.1496 6.26288 41.06 6.30875 40.9992 6.39284C40.9384 6.47738 40.9235 6.5763 40.9564 6.67478L45.3981 19.9045C45.4418 20.0345 45.558 20.1181 45.6954 20.1181L45.6949 20.1186Z" fill="#013A4F"/>
<path fill-rule="evenodd" clip-rule="evenodd" d="M19.8519 19.6236C19.4818 17.8726 20.3837 16.1556 21.9326 15.1983C22.8165 14.6523 23.8248 14.3715 24.8571 14.0132C29.0292 12.5642 33.8457 10.2638 33.6425 1.40289C33.6391 1.2486 33.5656 1.1176 33.4359 1.03396C33.3063 0.950333 33.1565 0.93763 33.0144 0.998501C30.6375 2.01557 26.7462 1.92718 23.2305 2.24847C20.5359 2.49486 17.4107 3.75832 16.8244 6.91301C16.2381 3.75832 13.113 2.49486 10.4183 2.24847C6.90269 1.92718 3.01136 2.01557 0.634435 0.998501C0.492624 0.937895 0.342875 0.950333 0.21297 1.03396C0.0833295 1.1176 0.00977832 1.2486 0.00633887 1.40289C-0.196853 10.2638 4.61943 12.5645 8.79174 14.0132C9.82411 14.3718 10.8324 14.6523 11.7163 15.1983C13.2651 16.1553 14.1671 17.8726 13.7969 19.6236H4.94009C4.81601 19.6236 4.71468 19.725 4.71468 19.8491V20.3392C4.71468 20.4633 4.81601 20.5647 4.94009 20.5647H28.7088C28.8329 20.5647 28.9342 20.4633 28.9342 20.3392V19.8491C28.9342 19.725 28.8329 19.6236 28.7088 19.6236H19.8519ZM5.72746 5.81496C7.22018 6.34533 12.741 5.81072 13.2781 8.64782C9.82702 10.8717 6.09231 8.82303 5.72746 5.81496ZM27.9212 5.81496C27.5563 8.82303 23.8216 10.8715 20.3705 8.64782C20.9073 5.81099 26.4284 6.34533 27.9212 5.81496Z" fill="#013A4F"/>
</svg>
