<svg width="92" height="92" viewBox="0 0 92 92" fill="none" xmlns="http://www.w3.org/2000/svg">
<rect width="92" height="92" rx="46" fill="white"/>
<g clip-path="url(#clip0_1_42)">
<path fill-rule="evenodd" clip-rule="evenodd" d="M39.3414 65.9361C40.1554 62.0955 38.1719 58.3291 34.7658 56.2294C32.8218 55.0319 30.6044 54.4159 28.334 53.6299C19.1589 50.4516 8.56635 45.4059 9.0132 25.9699C9.02077 25.6314 9.18252 25.3441 9.46762 25.1606C9.75272 24.9772 10.0821 24.9493 10.3945 25.0829C15.6218 27.3137 24.1796 27.1199 31.9112 27.8246C37.8374 28.365 44.7101 31.1364 45.9995 38.0561C47.2889 31.1364 54.1617 28.365 60.0878 27.8246C67.82 27.1199 76.3778 27.3137 81.6051 25.0829C81.9176 24.9499 82.2463 24.9772 82.532 25.1606C82.8171 25.3441 82.9783 25.6314 82.9858 25.9699C83.4327 45.4059 72.8407 50.4522 63.665 53.6299C61.3946 54.4165 59.1772 55.0319 57.2333 56.2294C53.8271 58.3286 51.8436 62.0955 52.6576 65.9361H72.1361C72.409 65.9361 72.6319 66.1585 72.6319 66.4307V67.5058C72.6319 67.7781 72.409 68.0004 72.1361 68.0004H19.8641C19.5912 68.0004 19.3683 67.7781 19.3683 67.5058V66.4307C19.3683 66.1585 19.5912 65.9361 19.8641 65.9361H39.342H39.3414ZM70.404 35.6475C67.1212 36.8109 54.9798 35.6382 53.7986 41.8613C61.3882 46.7393 69.6016 42.2456 70.404 35.6475ZM21.5957 35.6475C22.398 42.2456 30.6114 46.7387 38.201 41.8613C37.0204 35.6388 24.8784 36.8109 21.5957 35.6475Z" fill="#013A4F"/>
</g>
<defs>
<clipPath id="clip0_1_42">
<rect width="74" height="43" fill="white" transform="matrix(-1 0 0 1 83 25)"/>
</clipPath>
</defs>
</svg>
