<svg width="32" height="31" viewBox="0 0 32 31" fill="none" xmlns="http://www.w3.org/2000/svg">
<path d="M14.45 23.25H17.55V17.05H23.75V13.95H17.55V7.75H14.45V13.95H8.25V17.05H14.45V23.25ZM16 31C13.8558 31 11.8408 30.5929 9.955 29.7786C8.06917 28.9643 6.42875 27.8602 5.03375 26.4662C3.63875 25.0712 2.53463 23.4308 1.7214 21.545C0.908167 19.6592 0.501033 17.6442 0.5 15.5C0.5 13.3558 0.907133 11.3408 1.7214 9.455C2.53567 7.56917 3.63978 5.92875 5.03375 4.53375C6.42875 3.13875 8.06917 2.03463 9.955 1.2214C11.8408 0.408167 13.8558 0.00103333 16 0C18.1442 0 20.1592 0.407133 22.045 1.2214C23.9308 2.03567 25.5712 3.13978 26.9662 4.53375C28.3612 5.92875 29.4659 7.56917 30.2801 9.455C31.0944 11.3408 31.501 13.3558 31.5 15.5C31.5 17.6442 31.0929 19.6592 30.2786 21.545C29.4643 23.4308 28.3602 25.0712 26.9662 26.4662C25.5712 27.8612 23.9308 28.9659 22.045 29.7801C20.1592 30.5944 18.1442 31.001 16 31Z" fill="#346069"/>
</svg>
