<svg width="20" height="20" viewBox="0 0 20 20" fill="none" xmlns="http://www.w3.org/2000/svg">
<path d="M9 14.5312H11V10.6562H15V8.71875H11V4.84375H9V8.71875H5V10.6562H9V14.5312ZM10 19.375C8.61667 19.375 7.31667 19.1205 6.1 18.6116C4.88333 18.1027 3.825 17.4126 2.925 16.5414C2.025 15.6695 1.31267 14.6443 0.788 13.4656C0.263333 12.287 0.000666667 11.0276 0 9.6875C0 8.34739 0.262667 7.08802 0.788 5.90937C1.31333 4.73073 2.02567 3.70547 2.925 2.83359C3.825 1.96172 4.88333 1.27165 6.1 0.763375C7.31667 0.255104 8.61667 0.000645833 10 0C11.3833 0 12.6833 0.254458 13.9 0.763375C15.1167 1.27229 16.175 1.96236 17.075 2.83359C17.975 3.70547 18.6877 4.73073 19.213 5.90937C19.7383 7.08802 20.0007 8.34739 20 9.6875C20 11.0276 19.7373 12.287 19.212 13.4656C18.6867 14.6443 17.9743 15.6695 17.075 16.5414C16.175 17.4133 15.1167 18.1037 13.9 18.6126C12.6833 19.1215 11.3833 19.3756 10 19.375Z" fill="#346069"/>
</svg>
