<svg width="13" height="14" viewBox="0 0 13 14" fill="none" xmlns="http://www.w3.org/2000/svg">
<path d="M11.7 3.94982C12.0373 3.83072 12.3352 3.62126 12.5613 3.34435C12.7874 3.06744 12.9328 2.73376 12.9817 2.37982C13.0306 2.02589 12.9811 1.66534 12.8385 1.33763C12.696 1.00993 12.466 0.727698 12.1736 0.521827C11.8812 0.315957 11.5378 0.194382 11.1808 0.170406C10.8239 0.146431 10.4673 0.220979 10.1499 0.385893C9.83258 0.550807 9.56677 0.799731 9.38159 1.10542C9.19641 1.41111 9.09899 1.76179 9.09999 2.11908C9.10411 2.45203 9.19363 2.77836 9.35999 3.06691L7.21499 5.5079C6.88578 5.37456 6.52588 5.33552 6.17568 5.39515C5.82549 5.45478 5.49887 5.61073 5.23249 5.84548L3.86749 5.05995C3.9344 4.69396 3.89495 4.31649 3.75382 3.9722C3.61268 3.6279 3.37576 3.33118 3.07109 3.11714C2.76642 2.9031 2.40673 2.78069 2.0346 2.7644C1.66246 2.74811 1.29343 2.83861 0.971177 3.02521C0.648921 3.21181 0.386918 3.48669 0.216162 3.81733C0.0454068 4.14797 -0.0269564 4.52055 0.00763297 4.89098C0.0422224 5.2614 0.182317 5.61419 0.411344 5.9076C0.640372 6.201 0.948748 6.42275 1.29999 6.54661V11.8571H-6.37415e-06V13.1555H13V11.8571H11.7V3.94982ZM7.14999 9.14341C7.5293 9.00947 7.85784 8.76163 8.09058 8.43388C8.32332 8.10612 8.44886 7.71449 8.44999 7.31267C8.44588 6.97972 8.35636 6.65339 8.18999 6.36484L10.335 3.92385H10.4V11.8571H7.14999V9.14341ZM2.59999 6.54661C2.82606 6.46654 3.0354 6.34549 3.21749 6.18955L4.58899 6.97508C4.50162 7.42766 4.58117 7.89653 4.81296 8.29509C5.04474 8.69365 5.4131 8.99497 5.84999 9.14341V11.8571H2.59999V6.54661Z" fill="#2D464B"/>
</svg>
