<svg width="15" height="8" viewBox="0 0 15 8" fill="none" xmlns="http://www.w3.org/2000/svg">
<path d="M3.75 1.6875H10.9375C12.3188 1.6875 13.4375 2.80625 13.4375 4.1875C13.4375 5.56875 12.3188 6.6875 10.9375 6.6875H3.125C2.2625 6.6875 1.5625 5.9875 1.5625 5.125C1.5625 4.2625 2.2625 3.5625 3.125 3.5625H9.6875C10.0312 3.5625 10.3125 3.84375 10.3125 4.1875C10.3125 4.53125 10.0312 4.8125 9.6875 4.8125H3.75V5.75H9.6875C10.55 5.75 11.25 5.05 11.25 4.1875C11.25 3.325 10.55 2.625 9.6875 2.625H3.125C1.74375 2.625 0.625 3.74375 0.625 5.125C0.625 6.50625 1.74375 7.625 3.125 7.625H10.9375C12.8375 7.625 14.375 6.0875 14.375 4.1875C14.375 2.2875 12.8375 0.75 10.9375 0.75H3.75V1.6875Z" fill="#3B7580"/>
</svg>
