<svg width="21" height="19" viewBox="0 0 21 19" fill="none" xmlns="http://www.w3.org/2000/svg">
<path d="M4.13379 6.26856H7.13379C7.41712 6.26856 7.65479 6.17256 7.84679 5.98056C8.03879 5.78856 8.13446 5.55122 8.13379 5.26856C8.13379 4.98522 8.03779 4.74756 7.84579 4.55556C7.65379 4.36356 7.41646 4.26789 7.13379 4.26856H4.13379C3.85046 4.26856 3.61279 4.36456 3.42079 4.55656C3.22879 4.74856 3.13312 4.98589 3.13379 5.26856C3.13379 5.55189 3.22979 5.78956 3.42179 5.98156C3.61379 6.17356 3.85112 6.26922 4.13379 6.26856ZM4.13379 10.2686H7.13379C7.41712 10.2686 7.65479 10.1726 7.84679 9.98056C8.03879 9.78856 8.13446 9.55122 8.13379 9.26856C8.13379 8.98522 8.03779 8.74756 7.84579 8.55556C7.65379 8.36356 7.41646 8.26789 7.13379 8.26856H4.13379C3.85046 8.26856 3.61279 8.36456 3.42079 8.55656C3.22879 8.74856 3.13312 8.98589 3.13379 9.26856C3.13379 9.55189 3.22979 9.78956 3.42179 9.98156C3.61379 10.1736 3.85112 10.2692 4.13379 10.2686ZM4.13379 14.2686H7.13379C7.41712 14.2686 7.65479 14.1726 7.84679 13.9806C8.03879 13.7886 8.13446 13.5512 8.13379 13.2686C8.13379 12.9852 8.03779 12.7476 7.84579 12.5556C7.65379 12.3636 7.41646 12.2679 7.13379 12.2686H4.13379C3.85046 12.2686 3.61279 12.3646 3.42079 12.5566C3.22879 12.7486 3.13312 12.9859 3.13379 13.2686C3.13379 13.5519 3.22979 13.7896 3.42179 13.9816C3.61379 14.1736 3.85112 14.2692 4.13379 14.2686ZM12.6838 11.8436C12.8171 11.8436 12.9421 11.8226 13.0588 11.7806C13.1755 11.7386 13.2838 11.6679 13.3838 11.5686L16.9338 8.01856C17.1505 7.80189 17.2548 7.56422 17.2468 7.30556C17.2388 7.04689 17.1345 6.81789 16.9338 6.61856C16.7338 6.41856 16.4961 6.31856 16.2208 6.31856C15.9455 6.31856 15.7081 6.41856 15.5088 6.61856L12.6838 9.44356L11.9588 8.71856C11.7588 8.51856 11.5255 8.42289 11.2588 8.43156C10.9921 8.44022 10.7588 8.54422 10.5588 8.74356C10.3755 8.94356 10.2795 9.17689 10.2708 9.44356C10.2621 9.71022 10.3581 9.94356 10.5588 10.1436L11.9838 11.5686C12.0838 11.6686 12.1921 11.7396 12.3088 11.7816C12.4255 11.8236 12.5505 11.8442 12.6838 11.8436ZM2.13379 18.2686C1.58379 18.2686 1.11279 18.0726 0.720791 17.6806C0.328791 17.2886 0.133124 16.8179 0.133791 16.2686V2.26856C0.133791 1.71856 0.329791 1.24756 0.721791 0.855556C1.11379 0.463556 1.58446 0.26789 2.13379 0.268556H18.1338C18.6838 0.268556 19.1548 0.464556 19.5468 0.856556C19.9388 1.24856 20.1345 1.71922 20.1338 2.26856V16.2686C20.1338 16.8186 19.9378 17.2896 19.5458 17.6816C19.1538 18.0736 18.6831 18.2692 18.1338 18.2686H2.13379Z" fill="#3B7580"/>
</svg>
