<svg width="43" height="36" viewBox="0 0 43 36" fill="none" xmlns="http://www.w3.org/2000/svg">
<g filter="url(#filter0_d_701_178)">
<path d="M28.0131 6.93942H22.8783V3.52049H26.3015C27.2466 3.52049 28.0131 2.75499 28.0131 1.81103C28.0131 0.86706 27.2466 0.101562 26.3015 0.101562H16.032C15.0869 0.101562 14.3205 0.86706 14.3205 1.81103C14.3205 2.75499 15.0869 3.52049 16.032 3.52049H19.4552V6.93942H14.3205C8.65756 6.93942 4.05103 11.5403 4.05103 17.1962C4.05103 22.8521 8.65756 27.453 14.3205 27.453H28.0131C33.676 27.453 38.2825 22.8521 38.2825 17.1962C38.2825 11.5403 33.676 6.93942 28.0131 6.93942ZM28.0131 24.0341H14.3205C10.5454 24.0341 7.47417 20.9666 7.47417 17.1962C7.47417 13.4258 10.5454 10.3583 14.3205 10.3583H28.0131C31.7881 10.3583 34.8594 13.4258 34.8594 17.1962C34.8594 20.9666 31.7881 24.0341 28.0131 24.0341Z" fill="#3B7580"/>
<path d="M24.5901 18.9058H17.7438C16.7986 18.9058 16.0322 19.6713 16.0322 20.6152C16.0322 21.5592 16.7986 22.3247 17.7438 22.3247H24.5901C25.5352 22.3247 26.3016 21.5592 26.3016 20.6152C26.3016 19.6713 25.5352 18.9058 24.5901 18.9058Z" fill="#3B7580"/>
<path d="M16.032 15.4868C16.9773 15.4868 17.7436 14.7214 17.7436 13.7773C17.7436 12.8332 16.9773 12.0679 16.032 12.0679C15.0868 12.0679 14.3205 12.8332 14.3205 13.7773C14.3205 14.7214 15.0868 15.4868 16.032 15.4868Z" fill="#3B7580"/>
<path d="M26.3015 15.4868C27.2468 15.4868 28.0131 14.7214 28.0131 13.7773C28.0131 12.8332 27.2468 12.0679 26.3015 12.0679C25.3562 12.0679 24.5899 12.8332 24.5899 13.7773C24.5899 14.7214 25.3562 15.4868 26.3015 15.4868Z" fill="#3B7580"/>
</g>
<defs>
<filter id="filter0_d_701_178" x="0.0510254" y="0.101562" width="42.2315" height="35.3516" filterUnits="userSpaceOnUse" color-interpolation-filters="sRGB">
<feFlood flood-opacity="0" result="BackgroundImageFix"/>
<feColorMatrix in="SourceAlpha" type="matrix" values="0 0 0 0 0 0 0 0 0 0 0 0 0 0 0 0 0 0 127 0" result="hardAlpha"/>
<feOffset dy="4"/>
<feGaussianBlur stdDeviation="2"/>
<feComposite in2="hardAlpha" operator="out"/>
<feColorMatrix type="matrix" values="0 0 0 0 0 0 0 0 0 0 0 0 0 0 0 0 0 0 0.25 0"/>
<feBlend mode="normal" in2="BackgroundImageFix" result="effect1_dropShadow_701_178"/>
<feBlend mode="normal" in="SourceGraphic" in2="effect1_dropShadow_701_178" result="shape"/>
</filter>
</defs>
</svg>
