<svg width="20" height="15" viewBox="0 0 20 15" fill="none" xmlns="http://www.w3.org/2000/svg">
<path d="M13.6666 3.87137H10.9166V2.0403H12.75C13.2562 2.0403 13.6666 1.63032 13.6666 1.12476C13.6666 0.619206 13.2562 0.209229 12.75 0.209229H7.24998C6.7438 0.209229 6.33331 0.619206 6.33331 1.12476C6.33331 1.63032 6.7438 2.0403 7.24998 2.0403H9.08331V3.87137H6.33331C3.30043 3.87137 0.833313 6.33545 0.833313 9.36459C0.833313 12.3937 3.30043 14.8578 6.33331 14.8578H13.6666C16.6995 14.8578 19.1666 12.3937 19.1666 9.36459C19.1666 6.33545 16.6995 3.87137 13.6666 3.87137ZM13.6666 13.0267H6.33331C4.31151 13.0267 2.66665 11.3839 2.66665 9.36459C2.66665 7.34529 4.31151 5.70245 6.33331 5.70245H13.6666C15.6884 5.70245 17.3333 7.34529 17.3333 9.36459C17.3333 11.3839 15.6884 13.0267 13.6666 13.0267Z" fill="#2D464B"/>
<path d="M11.8333 10.28H8.16667C7.66048 10.28 7.25 10.69 7.25 11.1956C7.25 11.7011 7.66048 12.1111 8.16667 12.1111H11.8333C12.3395 12.1111 12.75 11.7011 12.75 11.1956C12.75 10.69 12.3395 10.28 11.8333 10.28Z" fill="#2D464B"/>
<path d="M7.24998 8.44899C7.75624 8.44899 8.16665 8.03909 8.16665 7.53346C8.16665 7.02782 7.75624 6.61792 7.24998 6.61792C6.74372 6.61792 6.33331 7.02782 6.33331 7.53346C6.33331 8.03909 6.74372 8.44899 7.24998 8.44899Z" fill="#2D464B"/>
<path d="M12.75 8.44899C13.2562 8.44899 13.6666 8.03909 13.6666 7.53346C13.6666 7.02782 13.2562 6.61792 12.75 6.61792C12.2437 6.61792 11.8333 7.02782 11.8333 7.53346C11.8333 8.03909 12.2437 8.44899 12.75 8.44899Z" fill="#2D464B"/>
</svg>
