<svg width="33" height="32" viewBox="0 0 33 32" fill="none" xmlns="http://www.w3.org/2000/svg">
<path d="M22.5335 24.0818H1.67978C1.37252 24.0818 1.07784 23.9599 0.860569 23.7429C0.643301 23.5259 0.52124 23.2316 0.52124 22.9247V7.88221C0.52124 7.57533 0.643301 7.28101 0.860569 7.06401C1.07784 6.84701 1.37252 6.7251 1.67978 6.7251H22.5335C22.8408 6.7251 23.1355 6.84701 23.3528 7.06401C23.57 7.28101 23.6921 7.57533 23.6921 7.88221V22.9247C23.6921 23.2316 23.57 23.5259 23.3528 23.7429C23.1355 23.9599 22.8408 24.0818 22.5335 24.0818ZM2.83833 21.7676H21.375V9.03933H2.83833V21.7676Z" fill="#3B7580"/>
<path d="M12.1065 16.5606C11.9017 16.5647 11.7002 16.5083 11.5273 16.3986L4.576 12.3487C4.42828 12.2821 4.29622 12.1852 4.18834 12.0643C4.08047 11.9435 3.99919 11.8013 3.94976 11.6471C3.90033 11.4929 3.88385 11.3301 3.90139 11.1691C3.91893 11.0082 3.97009 10.8527 4.05157 10.7127C4.13304 10.5728 4.24303 10.4514 4.3744 10.3566C4.50578 10.2617 4.65562 10.1955 4.81424 10.1621C4.97286 10.1287 5.13674 10.1289 5.29526 10.1628C5.45379 10.1966 5.60344 10.2633 5.73455 10.3585L12.1065 14.0613L18.4785 10.3585C18.7399 10.2405 19.0357 10.2236 19.3089 10.3109C19.5821 10.3983 19.8131 10.5837 19.9572 10.8314C20.1014 11.079 20.1484 11.3712 20.0893 11.6515C20.0301 11.9318 19.869 12.1803 19.6371 12.3487L12.6858 16.3986C12.5128 16.5083 12.3114 16.5647 12.1065 16.5606Z" fill="#3B7580"/>
<path d="M18.4785 29.8672C15.9951 29.8685 13.5532 29.2309 11.3882 28.0159C11.1872 27.9026 11.0247 27.7319 10.9215 27.5257C10.8183 27.3196 10.7791 27.0873 10.8089 26.8588C10.829 26.6343 10.9142 26.4205 11.0541 26.2438C11.1941 26.067 11.3827 25.9349 11.5967 25.8636L15.1998 24.7065C15.3451 24.6578 15.4986 24.6383 15.6514 24.6492C15.8043 24.6601 15.9534 24.7011 16.0903 24.77C16.2271 24.8389 16.3489 24.9342 16.4486 25.0504C16.5483 25.1666 16.624 25.3015 16.6712 25.4471C16.7292 25.5955 16.7558 25.7544 16.7495 25.9136C16.7431 26.0728 16.7039 26.2291 16.6343 26.3725C16.5647 26.5159 16.4662 26.6433 16.3449 26.7469C16.2237 26.8505 16.0823 26.928 15.9297 26.9745L15.2925 27.1827C16.33 27.4699 17.4019 27.6139 18.4785 27.6109C20.3302 27.5947 22.1537 27.1565 23.8101 26.3297C25.4666 25.5029 26.9121 24.3093 28.0367 22.8399C29.1612 21.3705 29.935 19.6641 30.2991 17.8508C30.6633 16.0374 30.6081 14.1649 30.1378 12.3761C29.6675 10.5873 28.7946 8.92926 27.5855 7.52847C26.3764 6.12768 24.863 5.02107 23.1608 4.293C21.4585 3.56492 19.6124 3.23459 17.7629 3.32719C15.9135 3.41978 14.1096 3.93286 12.4888 4.8273C12.2247 4.96644 11.9171 4.99837 11.63 4.91645C11.3429 4.83453 11.0986 4.64507 10.948 4.3876C10.7979 4.12051 10.7599 3.80488 10.8425 3.50989C10.925 3.2149 11.1212 2.96463 11.3882 2.81393C13.3184 1.72346 15.4736 1.0903 17.6875 0.963265C19.9015 0.836231 22.1151 1.21872 24.1576 2.08123C26.2002 2.94375 28.0171 4.26325 29.4684 5.938C30.9196 7.61274 31.9663 9.59799 32.5279 11.7407C33.0895 13.8834 33.1508 16.1262 32.7073 18.2963C32.2638 20.4665 31.3271 22.5058 29.9697 24.2573C28.6122 26.0087 26.8701 27.4253 24.8778 28.398C22.8855 29.3706 20.6961 29.8733 18.4785 29.8672Z" fill="#3B7580"/>
<path d="M14.4239 31.6029C14.2401 31.602 14.0592 31.5575 13.896 31.473C13.7328 31.3885 13.5921 31.2664 13.4855 31.1169L11.0178 27.6455C10.8407 27.3966 10.7694 27.0878 10.8193 26.7865C10.8692 26.4852 11.0363 26.2159 11.2843 26.0371C11.4081 25.9478 11.5484 25.8837 11.6971 25.8487C11.8458 25.8137 11.9999 25.8084 12.1507 25.8332C12.3014 25.8579 12.4458 25.9122 12.5755 25.9929C12.7051 26.0735 12.8175 26.179 12.9062 26.3033L15.3623 29.7746C15.5394 30.0236 15.6108 30.3324 15.5609 30.6336C15.5109 30.9349 15.3438 31.2043 15.0959 31.383C14.9003 31.5244 14.6654 31.6013 14.4239 31.6029Z" fill="#3B7580"/>
</svg>
