<svg width="20" height="21" viewBox="0 0 20 21" fill="none" xmlns="http://www.w3.org/2000/svg">
<path d="M13.125 15.3852H1.875C1.70924 15.3852 1.55027 15.3194 1.43306 15.2023C1.31585 15.0853 1.25 14.9265 1.25 14.7609V6.64596C1.25 6.4804 1.31585 6.32163 1.43306 6.20456C1.55027 6.0875 1.70924 6.02173 1.875 6.02173H13.125C13.2908 6.02173 13.4497 6.0875 13.5669 6.20456C13.6842 6.32163 13.75 6.4804 13.75 6.64596V14.7609C13.75 14.9265 13.6842 15.0853 13.5669 15.2023C13.4497 15.3194 13.2908 15.3852 13.125 15.3852ZM2.5 14.1367H12.5V7.27019H2.5V14.1367Z" fill="#2D464B"/>
<path d="M7.49999 11.3278C7.38949 11.33 7.2808 11.2996 7.18749 11.2404L3.43749 9.05561C3.3578 9.01964 3.28655 8.96737 3.22836 8.90217C3.17016 8.83697 3.12631 8.7603 3.09965 8.67712C3.07298 8.59393 3.06409 8.50608 3.07355 8.41925C3.08301 8.33242 3.11061 8.24854 3.15457 8.17303C3.19852 8.09752 3.25786 8.03206 3.32873 7.98089C3.3996 7.92972 3.48044 7.89397 3.56601 7.87596C3.65158 7.85795 3.73999 7.85808 3.82551 7.87633C3.91103 7.89459 3.99176 7.93056 4.06249 7.98194L7.49999 9.97947L10.9375 7.98194C11.0785 7.91829 11.2381 7.90915 11.3855 7.95627C11.5328 8.00339 11.6574 8.10342 11.7352 8.23702C11.813 8.37062 11.8384 8.52828 11.8065 8.67949C11.7745 8.8307 11.6876 8.96472 11.5625 9.05561L7.81249 11.2404C7.71918 11.2996 7.61049 11.33 7.49999 11.3278Z" fill="#2D464B"/>
<path d="M10.9375 18.5063C9.59775 18.507 8.28044 18.1631 7.11248 17.5076C7.00406 17.4464 6.9164 17.3544 6.86072 17.2432C6.80505 17.1319 6.78389 17.0066 6.79998 16.8833C6.81078 16.7622 6.85675 16.6469 6.93225 16.5516C7.00775 16.4562 7.10949 16.3849 7.22498 16.3465L9.16873 15.7223C9.24709 15.696 9.32989 15.6855 9.41235 15.6913C9.49481 15.6972 9.57528 15.7194 9.6491 15.7565C9.72293 15.7937 9.78864 15.8451 9.84243 15.9078C9.89622 15.9705 9.93702 16.0432 9.96248 16.1218C9.99376 16.2019 10.0081 16.2876 10.0047 16.3735C10.0013 16.4594 9.98016 16.5436 9.94261 16.621C9.90505 16.6984 9.8519 16.7671 9.78649 16.823C9.72108 16.8789 9.64481 16.9207 9.56248 16.9458L9.21873 17.0581C9.77842 17.213 10.3567 17.2907 10.9375 17.2891C11.9364 17.2804 12.9202 17.044 13.8137 16.5979C14.7073 16.1519 15.4872 15.508 16.0938 14.7153C16.7005 13.9226 17.1179 13.002 17.3144 12.0238C17.5108 11.0455 17.481 10.0354 17.2273 9.07037C16.9736 8.10534 16.5027 7.2109 15.8504 6.45522C15.1982 5.69953 14.3817 5.10255 13.4634 4.70977C12.5451 4.317 11.5492 4.1388 10.5514 4.18875C9.55373 4.2387 8.5806 4.51549 7.70623 4.99802C7.56376 5.07308 7.39779 5.0903 7.24292 5.04611C7.08804 5.00192 6.95623 4.89971 6.87498 4.76081C6.79401 4.61672 6.77354 4.44645 6.81806 4.28731C6.86258 4.12817 6.96845 3.99316 7.11248 3.91186C8.15377 3.32358 9.31642 2.98201 10.5108 2.91348C11.7052 2.84495 12.8993 3.05129 14.0012 3.51659C15.1031 3.98189 16.0833 4.69373 16.8662 5.5972C17.6491 6.50068 18.2138 7.57167 18.5167 8.72758C18.8197 9.88349 18.8528 11.0935 18.6135 12.2642C18.3742 13.4349 17.8689 14.5351 17.1366 15.4799C16.4043 16.4248 15.4645 17.189 14.3897 17.7137C13.3149 18.2384 12.1338 18.5096 10.9375 18.5063Z" fill="#2D464B"/>
<path d="M8.74998 19.4426C8.65082 19.4422 8.5532 19.4181 8.46517 19.3726C8.37714 19.327 8.30124 19.2611 8.24373 19.1804L6.91248 17.3077C6.81695 17.1734 6.77846 17.0069 6.80538 16.8443C6.83231 16.6818 6.92248 16.5365 7.05623 16.4401C7.12303 16.3919 7.19871 16.3573 7.27893 16.3384C7.35915 16.3195 7.44231 16.3167 7.52364 16.33C7.60496 16.3434 7.68284 16.3727 7.75279 16.4162C7.82275 16.4597 7.88339 16.5166 7.93123 16.5836L9.25623 18.4563C9.35176 18.5906 9.39025 18.7572 9.36333 18.9197C9.3364 19.0823 9.24623 19.2276 9.11248 19.324C9.00697 19.4003 8.88023 19.4418 8.74998 19.4426Z" fill="#2D464B"/>
</svg>
