<svg width="26" height="19" viewBox="0 0 26 19" fill="none" xmlns="http://www.w3.org/2000/svg">
<path d="M10.1338 15.4375H21.3838V8.3125H10.1338V15.4375ZM2.63379 19C1.94629 19 1.35754 18.7673 0.867541 18.3018C0.377541 17.8363 0.132958 17.2773 0.133791 16.625V2.375C0.133791 1.72188 0.378791 1.16256 0.868791 0.697064C1.35879 0.231564 1.94712 -0.00078965 2.63379 2.01613e-06H22.6338C23.3213 2.01613e-06 23.91 0.232752 24.4 0.698252C24.89 1.16375 25.1346 1.72267 25.1338 2.375V16.625C25.1338 17.2781 24.8888 17.8374 24.3988 18.3029C23.9088 18.7684 23.3205 19.0008 22.6338 19H2.63379ZM2.63379 16.625H22.6338V2.375H2.63379V16.625Z" fill="#3B7580"/>
</svg>
