<svg width="23" height="25" viewBox="0 0 23 25" fill="none" xmlns="http://www.w3.org/2000/svg">
<path d="M21.4865 0.514151L0.784909 7.71412C0.574602 7.78777 0.389169 7.92326 0.250916 8.10427C0.112662 8.28529 0.0274776 8.50413 0.00560843 8.73447C-0.0162607 8.9648 0.0261173 9.19683 0.127645 9.40263C0.229172 9.60843 0.385524 9.77924 0.577893 9.89451L8.04886 14.3489V23.2529C8.04881 23.5104 8.12818 23.7612 8.27524 23.968C8.4223 24.1749 8.62925 24.3269 8.8655 24.4016C9.10175 24.4763 9.35475 24.4696 9.58712 24.3827C9.81948 24.2958 10.0189 24.1331 10.1558 23.9189L14.1604 17.6513L21.2795 21.8945C21.4543 21.9987 21.6524 22.0532 21.8538 22.0525C22.0552 22.0518 22.2529 21.9959 22.4271 21.8904C22.6013 21.785 22.7459 21.6336 22.8464 21.4515C22.947 21.2694 22.9999 21.063 23 20.8529V1.65295C22.9998 1.4629 22.9564 1.27561 22.8733 1.10648C22.7902 0.937343 22.6699 0.791191 22.5221 0.680029C22.3744 0.568867 22.2035 0.495869 22.0234 0.467033C21.8434 0.438196 21.6594 0.454345 21.4865 0.514151ZM10.349 14.2709L14.5733 11.1221L12.7838 15.4781L10.349 19.2893V14.2709ZM20.6998 18.7853L15.2599 15.5417L18.3065 8.12572C18.4044 7.88511 18.4244 7.61774 18.3635 7.36419C18.3025 7.11064 18.164 6.88475 17.9689 6.7208C17.7738 6.55684 17.5327 6.46378 17.2823 6.45571C17.0319 6.44765 16.7858 6.52504 16.5814 6.67613L9.12994 12.2297L3.9534 9.14212L20.6998 3.31734V18.7853Z" fill="#3B7580"/>
</svg>
