<svg width="14" height="15" viewBox="0 0 14 15" fill="none" xmlns="http://www.w3.org/2000/svg">
<path d="M12.7893 0.107755L0.789336 4.35251C0.667428 4.39594 0.559939 4.47581 0.479798 4.58253C0.399657 4.68925 0.350278 4.81827 0.337602 4.95406C0.324925 5.08986 0.34949 5.22665 0.408342 5.34798C0.467194 5.46931 0.557826 5.57001 0.669336 5.63797L5 8.26406V13.5134C4.99997 13.6653 5.04598 13.8131 5.13123 13.935C5.21647 14.057 5.33643 14.1466 5.47338 14.1906C5.61032 14.2347 5.75698 14.2308 5.89168 14.1795C6.02637 14.1283 6.14195 14.0324 6.22134 13.9061L8.54267 10.211L12.6693 12.7126C12.7707 12.774 12.8855 12.8061 13.0023 12.8057C13.119 12.8053 13.2336 12.7724 13.3346 12.7102C13.4356 12.648 13.5194 12.5588 13.5777 12.4514C13.6359 12.3441 13.6666 12.2224 13.6667 12.0985V0.779135C13.6665 0.66709 13.6414 0.556675 13.5932 0.456962C13.5451 0.357249 13.4753 0.271085 13.3897 0.205549C13.304 0.140014 13.205 0.0969773 13.1006 0.0799766C12.9962 0.062976 12.8896 0.0724964 12.7893 0.107755ZM6.33334 8.21808L8.782 6.3617L7.74467 8.92978L6.33334 11.1767V8.21808ZM12.3333 10.8795L9.18 8.96728L10.946 4.59517C11.0027 4.45332 11.0143 4.29569 10.979 4.14621C10.9437 3.99673 10.8634 3.86356 10.7503 3.7669C10.6372 3.67024 10.4975 3.61537 10.3523 3.61062C10.2072 3.60586 10.0645 3.65149 9.946 3.74056L5.62667 7.01469L2.626 5.19439L12.3333 1.76038V10.8795Z" fill="#2D464B"/>
</svg>
