<svg width="21" height="21" viewBox="0 0 21 21" fill="none" xmlns="http://www.w3.org/2000/svg">
<path d="M10.1338 12.7357L2.68132 20.5608C2.40248 20.8536 2.0476 21 1.61668 21C1.18575 21 0.830873 20.8536 0.552039 20.5608C0.273205 20.2681 0.133789 19.8954 0.133789 19.443C0.133789 18.9905 0.273205 18.6179 0.552039 18.3251L8.00451 10.5L0.552039 2.6749C0.273205 2.38213 0.133789 2.00951 0.133789 1.55703C0.133789 1.10456 0.273205 0.731939 0.552039 0.439163C0.830873 0.146387 1.18575 0 1.61668 0C2.0476 0 2.40248 0.146387 2.68132 0.439163L10.1338 8.26426L17.5863 0.439163C17.8651 0.146387 18.22 0 18.6509 0C19.0818 0 19.4367 0.146387 19.7155 0.439163C19.9944 0.731939 20.1338 1.10456 20.1338 1.55703C20.1338 2.00951 19.9944 2.38213 19.7155 2.6749L12.2631 10.5L19.7155 18.3251C19.9944 18.6179 20.1338 18.9905 20.1338 19.443C20.1338 19.8954 19.9944 20.2681 19.7155 20.5608C19.4367 20.8536 19.0818 21 18.6509 21C18.22 21 17.8651 20.8536 17.5863 20.5608L10.1338 12.7357Z" fill="#3B7580"/>
</svg>
