<svg width="24" height="24" viewBox="0 0 24 24" fill="none" xmlns="http://www.w3.org/2000/svg">
<path d="M12 11.4998V19.9998M12 19.9998L15 16.9998M12 19.9998L9.00002 16.9998M8.00002 7.03582C8.74832 7.14283 9.44151 7.4903 9.97502 8.02582M17.5 13.9998C19.019 13.9998 20 12.7688 20 11.2498C20 10.6484 19.8028 10.0637 19.4387 9.58503C19.0746 9.1064 18.5636 8.76033 17.984 8.59982C17.8948 7.47828 17.43 6.41959 16.6647 5.59491C15.8994 4.77024 14.8783 4.22778 13.7665 4.05525C12.6547 3.88271 11.5173 4.09018 10.538 4.64411C9.55874 5.19804 8.79491 6.06606 8.37002 7.10782C7.47544 6.85984 6.519 6.97739 5.71109 7.4346C4.90318 7.89182 4.30999 8.65124 4.06202 9.54582C3.81404 10.4404 3.93159 11.3968 4.3888 12.2047C4.84601 13.0127 5.60544 13.6058 6.50002 13.8538" stroke="black" stroke-width="2" stroke-linecap="round" stroke-linejoin="round"/>
</svg>
