<svg width="18" height="13" viewBox="0 0 18 13" fill="none" xmlns="http://www.w3.org/2000/svg">
<path d="M6.50002 7.68111C4.55002 7.68111 0.666687 8.65491 0.666687 10.5942V12.0507H12.3334V10.5942C12.3334 8.65491 8.45002 7.68111 6.50002 7.68111ZM2.61669 10.3861C3.31669 9.90337 5.00835 9.34573 6.50002 9.34573C7.99169 9.34573 9.68335 9.90337 10.3834 10.3861H2.61669ZM6.50002 6.22458C8.10835 6.22458 9.41669 4.91786 9.41669 3.31151C9.41669 1.70516 8.10835 0.398438 6.50002 0.398438C4.89169 0.398438 3.58335 1.70516 3.58335 3.31151C3.58335 4.91786 4.89169 6.22458 6.50002 6.22458ZM6.50002 2.06305C7.19169 2.06305 7.75002 2.62069 7.75002 3.31151C7.75002 4.00232 7.19169 4.55997 6.50002 4.55997C5.80835 4.55997 5.25002 4.00232 5.25002 3.31151C5.25002 2.62069 5.80835 2.06305 6.50002 2.06305ZM12.3667 7.73105C13.3334 8.43019 14 9.36237 14 10.5942V12.0507H17.3334V10.5942C17.3334 8.91293 14.4167 7.95577 12.3667 7.73105ZM11.5 6.22458C13.1084 6.22458 14.4167 4.91786 14.4167 3.31151C14.4167 1.70516 13.1084 0.398438 11.5 0.398438C11.05 0.398438 10.6334 0.506637 10.25 0.689744C10.775 1.4305 11.0834 2.33771 11.0834 3.31151C11.0834 4.28531 10.775 5.19252 10.25 5.93327C10.6334 6.11638 11.05 6.22458 11.5 6.22458Z" fill="#2D464B"/>
</svg>
