<svg width="26" height="25" viewBox="0 0 26 25" fill="none" xmlns="http://www.w3.org/2000/svg">
<path d="M2.3077 20.3125C2.3077 21.7448 3.28325 22.9167 4.48162 22.9167C4.74391 22.911 5.00226 22.8543 5.24097 22.75C5.47969 22.6457 5.69377 22.496 5.8702 22.3099C5.9675 22.2059 6.08562 22.1218 6.21754 22.0624C6.34946 22.0031 6.49249 21.9697 6.63812 21.9644C6.78374 21.9591 6.929 21.9819 7.06525 22.0315C7.20149 22.0811 7.32594 22.1564 7.4312 22.253C7.53646 22.3496 7.62037 22.4655 7.67795 22.5938C7.73553 22.7221 7.76561 22.8601 7.76638 22.9998C7.76715 23.1395 7.73861 23.2778 7.68246 23.4067C7.6263 23.5356 7.54368 23.6523 7.4395 23.75C7.06147 24.1406 6.60406 24.4531 6.09539 24.668C5.58672 24.883 5.03753 24.996 4.48162 25C2.08352 25 0.133789 22.8971 0.133789 20.3125C0.133789 17.7279 2.08352 15.625 4.48162 15.625C5.03753 15.629 5.58672 15.742 6.09539 15.957C6.60406 16.1719 7.06147 16.4844 7.4395 16.875C7.54368 16.9727 7.6263 17.0894 7.68246 17.2183C7.73861 17.3472 7.76715 17.4855 7.76638 17.6252C7.76561 17.7649 7.73553 17.9029 7.67795 18.0312C7.62037 18.1595 7.53646 18.2754 7.4312 18.372C7.32594 18.4686 7.20149 18.5439 7.06525 18.5935C6.929 18.6431 6.78374 18.6659 6.63812 18.6606C6.49249 18.6553 6.34946 18.6219 6.21754 18.5626C6.08562 18.5032 5.9675 18.4191 5.8702 18.3151C5.69397 18.1288 5.47993 17.9789 5.24117 17.8745C5.00242 17.7702 4.74396 17.7137 4.48162 17.7083C3.28325 17.7083 2.3077 18.8802 2.3077 20.3125ZM13.1229 19.181C12.5794 19.0299 12.0169 18.875 11.7031 18.681C11.5319 18.5755 11.536 18.5508 11.5509 18.4336C11.5529 18.3389 11.5787 18.2461 11.626 18.1629C11.6733 18.0798 11.7407 18.0087 11.8226 17.9557C12.4476 17.5495 13.9082 17.7305 14.5169 17.8828C14.7959 17.9531 15.0925 17.9143 15.3415 17.775C15.5906 17.6357 15.7717 17.4073 15.8451 17.14C15.9184 16.8727 15.8779 16.5884 15.7326 16.3497C15.5872 16.111 15.3488 15.9375 15.0699 15.8672C14.7819 15.7956 12.2167 15.1875 10.6093 16.2266C10.2689 16.4452 9.98294 16.7329 9.77161 17.0693C9.56028 17.4057 9.4288 17.7826 9.38651 18.1732C9.11477 20.2409 11.2398 20.8307 12.5115 21.1823C14.1515 21.6367 14.2955 21.8229 14.2479 22.1706C14.2058 22.4844 14.0767 22.6055 13.9572 22.6823C13.3322 23.0807 11.896 22.8854 11.3009 22.7292C11.0246 22.6589 10.7305 22.6958 10.4824 22.8319C10.2343 22.9679 10.0521 23.1922 9.97522 23.456C9.89839 23.7199 9.93312 24.0022 10.0719 24.2417C10.2107 24.4812 10.4423 24.6587 10.7167 24.7357C11.3901 24.9048 12.083 24.9923 12.7792 24.9961C13.5713 24.9961 14.4504 24.8659 15.1555 24.4154C15.5036 24.1937 15.7961 23.9009 16.012 23.5581C16.2279 23.2152 16.3618 22.8307 16.4042 22.4323C16.7099 20.1823 14.4653 19.5534 13.1229 19.181ZM21.8186 19.181C21.2751 19.0299 20.7126 18.875 20.3987 18.681C20.2289 18.5755 20.2316 18.5508 20.2466 18.4336C20.2486 18.3389 20.2743 18.2461 20.3216 18.1629C20.3689 18.0798 20.4364 18.0087 20.5183 17.9557C21.1433 17.5495 22.6025 17.7305 23.2112 17.8828C23.4901 17.9531 23.7868 17.9143 24.0358 17.775C24.2849 17.6357 24.466 17.4073 24.5394 17.14C24.6127 16.8727 24.5722 16.5884 24.4269 16.3497C24.2815 16.111 24.0431 15.9375 23.7642 15.8672C23.4775 15.7956 20.911 15.1875 19.3036 16.2266C18.9647 16.446 18.6801 16.7341 18.47 17.0705C18.2599 17.4068 18.1294 17.7832 18.0876 18.1732C17.8159 20.2409 19.9422 20.8307 21.2126 21.1823C22.8512 21.6367 22.9952 21.8229 22.949 22.1706C22.9069 22.4844 22.7778 22.6055 22.6569 22.6823C22.0319 23.0807 20.5971 22.8854 20.002 22.7292C19.7238 22.6549 19.4262 22.6896 19.1747 22.8256C18.9233 22.9616 18.7384 23.1878 18.661 23.4544C18.5835 23.721 18.6197 24.0062 18.7616 24.2472C18.9035 24.4882 19.1396 24.6653 19.4178 24.7396C20.0916 24.9087 20.785 24.9962 21.4816 25C22.2724 25 23.1528 24.8698 23.858 24.4193C24.2058 24.1976 24.4981 23.9047 24.7138 23.5618C24.9294 23.219 25.0631 22.8345 25.1053 22.4362C25.4055 20.1823 23.161 19.5534 21.8172 19.181H21.8186ZM1.22075 11.4583V2.08333C1.22075 1.5308 1.44978 1.0009 1.85747 0.610194C2.26516 0.219494 2.8181 3.22082e-07 3.39466 3.22082e-07H16.4381C16.5809 -0.000107277 16.7223 0.0267456 16.8543 0.0790249C16.9862 0.131304 17.1061 0.207985 17.2072 0.304688L24.8159 7.59635C24.9168 7.69316 24.9968 7.80808 25.0513 7.93453C25.1059 8.06098 25.1339 8.1965 25.1338 8.33333V11.4583C25.1338 11.7346 25.0193 11.9996 24.8154 12.1949C24.6116 12.3903 24.3351 12.5 24.0468 12.5H2.3077C2.01942 12.5 1.74295 12.3903 1.53911 12.1949C1.33526 11.9996 1.22075 11.7346 1.22075 11.4583ZM16.4381 8.33333H22.4164L16.4381 2.60417V8.33333Z" fill="#3B7580"/>
</svg>
