<svg width="18" height="17" viewBox="0 0 18 17" fill="none" xmlns="http://www.w3.org/2000/svg">
<path fill-rule="evenodd" clip-rule="evenodd" d="M5.28388 2.33657C5.28388 2.37346 5.29115 2.40999 5.30529 2.44407C5.31943 2.47816 5.34015 2.50913 5.36627 2.53521C5.39239 2.56129 5.4234 2.58198 5.45752 2.5961C5.49165 2.61021 5.52823 2.61748 5.56516 2.61747H11.9988C12.0357 2.61747 12.0722 2.61021 12.1064 2.5961C12.1405 2.58198 12.1715 2.5613 12.1976 2.53522C12.2237 2.50914 12.2444 2.47818 12.2585 2.44411C12.2727 2.41004 12.2799 2.37352 12.2799 2.33664C12.2799 2.29976 12.2727 2.26324 12.2585 2.22917C12.2444 2.1951 12.2237 2.16414 12.1976 2.13806C12.1715 2.11198 12.1405 2.0913 12.1064 2.07718C12.0722 2.06307 12.0357 2.05581 11.9988 2.05581H5.56516C5.40981 2.05581 5.28388 2.18155 5.28388 2.33657ZM5.28388 3.469C5.28388 3.50589 5.29115 3.54242 5.30529 3.5765C5.31943 3.61058 5.34015 3.64155 5.36627 3.66764C5.39239 3.69372 5.4234 3.71441 5.45752 3.72853C5.49165 3.74264 5.52823 3.7499 5.56516 3.7499H11.9988C12.0357 3.7499 12.0723 3.74264 12.1064 3.72852C12.1405 3.71441 12.1715 3.69372 12.1976 3.66763C12.2237 3.64155 12.2445 3.61058 12.2586 3.5765C12.2727 3.54241 12.28 3.50588 12.28 3.469C12.28 3.3138 12.1541 3.18809 11.9988 3.18809H5.56516C5.52823 3.18809 5.49165 3.19535 5.45752 3.20946C5.4234 3.22358 5.39239 3.24427 5.36627 3.27035C5.34015 3.29644 5.31943 3.32741 5.30529 3.36149C5.29115 3.39557 5.28388 3.4321 5.28388 3.469ZM5.28388 8.02384C5.28388 8.06073 5.29115 8.09726 5.30529 8.13135C5.31943 8.16543 5.34015 8.1964 5.36627 8.22248C5.39239 8.24857 5.4234 8.26926 5.45752 8.28337C5.49165 8.29749 5.52823 8.30475 5.56516 8.30474H11.9988C12.0357 8.30474 12.0723 8.29748 12.1064 8.28336C12.1405 8.26924 12.1715 8.24855 12.1976 8.22247C12.2237 8.19638 12.2444 8.16542 12.2586 8.13134C12.2727 8.09726 12.28 8.06073 12.28 8.02384C12.28 7.86899 12.1541 7.74294 11.9988 7.74294H5.56516C5.40981 7.74294 5.28388 7.86899 5.28388 8.02384ZM5.28388 9.15627C5.28388 9.19316 5.29115 9.22969 5.30529 9.26377C5.31943 9.29786 5.34015 9.32882 5.36627 9.35491C5.39239 9.38099 5.4234 9.40168 5.45752 9.4158C5.49165 9.42991 5.52823 9.43718 5.56516 9.43717H11.9988C12.0357 9.43717 12.0723 9.4299 12.1064 9.41579C12.1405 9.40167 12.1715 9.38098 12.1976 9.35489C12.2237 9.32881 12.2444 9.29784 12.2586 9.26376C12.2727 9.22968 12.28 9.19315 12.28 9.15627C12.28 9.00142 12.1541 8.87536 11.9988 8.87536H5.56516C5.40981 8.87536 5.28388 9.00142 5.28388 9.15627ZM12.188 14.8439C12.188 14.807 12.1808 14.7705 12.1666 14.7364C12.1525 14.7023 12.1318 14.6713 12.1056 14.6453C12.0795 14.6192 12.0485 14.5985 12.0144 14.5844C11.9803 14.5702 11.9437 14.563 11.9068 14.563H5.47316C5.43623 14.563 5.39965 14.5702 5.36553 14.5844C5.33141 14.5985 5.3004 14.6192 5.27429 14.6453C5.24817 14.6713 5.22746 14.7023 5.21333 14.7364C5.1992 14.7705 5.19194 14.807 5.19195 14.8439C5.19195 14.9991 5.3178 15.1248 5.47316 15.1248H11.9068C11.9437 15.1248 11.9803 15.1175 12.0144 15.1034C12.0485 15.0893 12.0795 15.0686 12.1056 15.0425C12.1318 15.0164 12.1525 14.9855 12.1666 14.9514C12.1808 14.9173 12.188 14.8808 12.188 14.8439ZM12.188 13.7115C12.188 13.6746 12.1808 13.638 12.1666 13.604C12.1525 13.5699 12.1318 13.5389 12.1056 13.5128C12.0795 13.4867 12.0485 13.466 12.0144 13.4519C11.9803 13.4378 11.9437 13.4306 11.9068 13.4306H5.47316C5.43623 13.4306 5.39965 13.4378 5.36553 13.4519C5.33141 13.4661 5.3004 13.4867 5.27429 13.5128C5.24817 13.5389 5.22746 13.5699 5.21333 13.604C5.1992 13.638 5.19194 13.6746 5.19195 13.7115C5.19195 13.8667 5.3178 13.9924 5.47316 13.9924H11.9068C11.9437 13.9924 11.9803 13.9851 12.0144 13.971C12.0485 13.9569 12.0795 13.9362 12.1056 13.9101C12.1318 13.884 12.1525 13.8531 12.1666 13.819C12.1808 13.7849 12.188 13.7484 12.188 13.7115ZM3.3988 3.09269C3.42839 3.06197 3.45059 3.02493 3.46371 2.98437C3.47684 2.94381 3.48055 2.9008 3.47456 2.8586C3.46857 2.8164 3.45304 2.77611 3.42914 2.74079C3.40525 2.70548 3.37361 2.67606 3.33664 2.65476L2.45588 2.1471C2.41329 2.12228 2.36487 2.1092 2.31557 2.10918C2.26611 2.10915 2.21753 2.12216 2.17471 2.14688C2.1319 2.1716 2.09638 2.20716 2.07172 2.24998C1.99406 2.38415 2.04012 2.55574 2.17466 2.63341L2.33241 2.72436C0.991652 3.0771 0 4.29833 0 5.74642C0 7.46948 1.4034 8.87122 3.12848 8.87122C3.28384 8.87122 3.40973 8.74552 3.40973 8.59032C3.40973 8.43494 3.2838 8.30941 3.12848 8.30941C1.71355 8.30941 0.5625 7.15975 0.5625 5.74642C0.5625 4.57094 1.35896 3.57781 2.44125 3.27703L2.2885 3.43571C2.18085 3.54768 2.1844 3.72539 2.29641 3.83273C2.32299 3.85836 2.35437 3.8785 2.38876 3.89199C2.42314 3.90548 2.45986 3.91206 2.4968 3.91136C2.53374 3.91065 2.57017 3.90266 2.60402 3.88787C2.63786 3.87306 2.66845 3.85174 2.69402 3.82511L3.3988 3.09269ZM15.6676 8.41191L15.8254 8.32097C15.8888 8.28312 15.9348 8.22186 15.9534 8.15043C15.972 8.079 15.9617 8.00312 15.9248 7.9392C15.8879 7.87527 15.8272 7.82842 15.756 7.80878C15.6848 7.78913 15.6086 7.79826 15.5441 7.8342L14.6633 8.34235C14.6264 8.36363 14.5948 8.39302 14.5709 8.42828C14.547 8.46354 14.5315 8.50376 14.5254 8.5459C14.5194 8.58812 14.5232 8.63114 14.5363 8.67172C14.5494 8.7123 14.5716 8.74936 14.6012 8.7801L15.306 9.5127C15.4136 9.62432 15.5917 9.6278 15.7037 9.52032C15.8156 9.41298 15.8192 9.23492 15.7115 9.12312L15.5588 8.96445C16.6411 9.26505 17.4375 10.2584 17.4375 11.434C17.4375 12.847 16.2864 13.9965 14.8715 13.9965C14.7162 13.9965 14.5903 14.1225 14.5903 14.2774C14.5903 14.4326 14.7162 14.5583 14.8715 14.5583C16.5967 14.5583 18 13.1565 18 11.434C18 9.9856 17.0083 8.76441 15.6676 8.41191ZM13.0562 1.3711V4.43495H4.5077V1.3711H13.0562ZM13.3375 4.99676H4.22638C4.07106 4.99676 3.94513 4.8707 3.94513 4.71585V1.09002C3.94513 0.935001 4.07106 0.809298 4.22638 0.809298H13.3375C13.4928 0.809298 13.6188 0.935001 13.6188 1.09002V4.71585C13.6188 4.87074 13.4928 4.99676 13.3375 4.99676ZM12.6353 7.05824L13.4572 10.1223H4.92855L4.10657 7.05824H12.6353ZM13.8239 10.6841H4.7128C4.65086 10.6841 4.59065 10.6637 4.54152 10.626C4.49239 10.5883 4.45709 10.5355 4.44111 10.4757L3.46837 6.85002C3.45721 6.8084 3.45579 6.76477 3.46421 6.72251C3.47263 6.68025 3.49066 6.64049 3.51693 6.60631C3.54319 6.57212 3.57697 6.54443 3.61567 6.52537C3.65436 6.50631 3.69692 6.4964 3.74006 6.49639H12.8511C12.9784 6.49639 13.0898 6.58168 13.1228 6.70475L14.0955 10.3304C14.1067 10.372 14.1081 10.4156 14.0997 10.4579C14.0913 10.5001 14.0732 10.5399 14.047 10.5741C14.0207 10.6082 13.9869 10.6359 13.9482 10.655C13.9096 10.6741 13.867 10.684 13.8239 10.6841ZM4.5077 15.8094V12.7455H13.0562V15.8094H4.5077ZM4.22641 12.1837H13.3375C13.4929 12.1837 13.6188 12.3097 13.6188 12.4646V16.0904C13.6188 16.1273 13.6115 16.1639 13.5974 16.1979C13.5832 16.232 13.5625 16.263 13.5364 16.2891C13.5103 16.3152 13.4793 16.3359 13.4451 16.35C13.411 16.3641 13.3744 16.3713 13.3375 16.3713H4.22641C4.15182 16.3713 4.08028 16.3417 4.02754 16.2891C3.9748 16.2364 3.94516 16.1649 3.94516 16.0904V12.4646C3.94516 12.3097 4.07109 12.1837 4.22641 12.1837Z" fill="#2D464B"/>
</svg>
