<svg width="26" height="23" viewBox="0 0 26 23" fill="none" xmlns="http://www.w3.org/2000/svg">
<path fill-rule="evenodd" clip-rule="evenodd" d="M7.63228 2.61222C7.63228 2.66438 7.64279 2.71602 7.66321 2.7642C7.68363 2.81239 7.71356 2.85617 7.75129 2.89304C7.78902 2.92992 7.83381 2.95917 7.8831 2.97912C7.9324 2.99907 7.98523 3.00934 8.03859 3.00933H17.3316C17.3849 3.00933 17.4377 2.99907 17.487 2.97911C17.5363 2.95916 17.581 2.92992 17.6188 2.89305C17.6565 2.85619 17.6864 2.81242 17.7068 2.76425C17.7272 2.71609 17.7377 2.66446 17.7377 2.61232C17.7377 2.56019 17.7272 2.50856 17.7068 2.46039C17.6864 2.41223 17.6565 2.36846 17.6188 2.33159C17.581 2.29473 17.5363 2.26548 17.487 2.24553C17.4377 2.22558 17.3849 2.21531 17.3316 2.21531H8.03859C7.81418 2.21531 7.63228 2.39307 7.63228 2.61222ZM7.63228 4.21313C7.63228 4.26528 7.64279 4.31693 7.66321 4.36511C7.68363 4.41329 7.71356 4.45707 7.75129 4.49395C7.78902 4.53082 7.83381 4.56007 7.8831 4.58003C7.9324 4.59998 7.98523 4.61025 8.03859 4.61024H17.3316C17.3849 4.61025 17.4377 4.59998 17.487 4.58002C17.5363 4.56007 17.5811 4.53082 17.6188 4.49394C17.6566 4.45706 17.6865 4.41328 17.7069 4.3651C17.7273 4.31692 17.7378 4.26528 17.7378 4.21313C17.7378 3.99373 17.556 3.81602 17.3316 3.81602H8.03859C7.98523 3.81601 7.9324 3.82628 7.8831 3.84623C7.83381 3.86619 7.78902 3.89544 7.75129 3.93231C7.71356 3.96919 7.68363 4.01297 7.66321 4.06115C7.64279 4.10933 7.63228 4.16098 7.63228 4.21313ZM7.63228 10.6523C7.63228 10.7045 7.64279 10.7561 7.66321 10.8043C7.68363 10.8525 7.71356 10.8962 7.75129 10.9331C7.78902 10.97 7.83381 10.9992 7.8831 11.0192C7.9324 11.0392 7.98523 11.0494 8.03859 11.0494H17.3316C17.3849 11.0494 17.4377 11.0391 17.487 11.0192C17.5363 10.9992 17.5811 10.97 17.6188 10.9331C17.6565 10.8962 17.6865 10.8524 17.7069 10.8043C17.7273 10.7561 17.7378 10.7044 17.7378 10.6523C17.7378 10.4334 17.556 10.2552 17.3316 10.2552H8.03859C7.81418 10.2552 7.63228 10.4334 7.63228 10.6523ZM7.63228 12.2532C7.63228 12.3054 7.64279 12.357 7.66321 12.4052C7.68363 12.4534 7.71356 12.4971 7.75129 12.534C7.78902 12.5709 7.83381 12.6002 7.8831 12.6201C7.9324 12.6401 7.98523 12.6503 8.03859 12.6503H17.3316C17.3849 12.6503 17.4377 12.64 17.487 12.6201C17.5363 12.6001 17.5811 12.5709 17.6188 12.534C17.6565 12.4971 17.6865 12.4534 17.7069 12.4052C17.7273 12.357 17.7378 12.3054 17.7378 12.2532C17.7378 12.0343 17.556 11.8561 17.3316 11.8561H8.03859C7.81418 11.8561 7.63228 12.0343 7.63228 12.2532ZM17.605 20.2938C17.605 20.2416 17.5945 20.19 17.5741 20.1418C17.5536 20.0936 17.5237 20.0498 17.486 20.013C17.4482 19.9761 17.4035 19.9468 17.3542 19.9269C17.3049 19.9069 17.252 19.8967 17.1987 19.8967H7.90569C7.85234 19.8967 7.79951 19.9069 7.75023 19.9269C7.70094 19.9468 7.65615 19.9761 7.61843 20.013C7.58071 20.0498 7.55079 20.0936 7.53038 20.1418C7.50997 20.19 7.49948 20.2416 7.49949 20.2938C7.49949 20.5132 7.68129 20.6909 7.90569 20.6909H17.1987C17.252 20.6909 17.3049 20.6806 17.3542 20.6607C17.4035 20.6407 17.4482 20.6115 17.486 20.5746C17.5237 20.5377 17.5536 20.4939 17.5741 20.4458C17.5945 20.3976 17.605 20.3459 17.605 20.2938ZM17.605 18.6929C17.605 18.6407 17.5945 18.5891 17.5741 18.5409C17.5536 18.4927 17.5237 18.4489 17.486 18.4121C17.4482 18.3752 17.4035 18.3459 17.3542 18.326C17.3049 18.306 17.252 18.2958 17.1987 18.2958H7.90569C7.85234 18.2958 7.79951 18.306 7.75023 18.326C7.70094 18.3459 7.65615 18.3752 7.61843 18.4121C7.58071 18.4489 7.55079 18.4927 7.53038 18.5409C7.50997 18.5891 7.49948 18.6407 7.49949 18.6929C7.49949 18.9123 7.68129 19.09 7.90569 19.09H17.1987C17.252 19.09 17.3049 19.0797 17.3542 19.0598C17.4035 19.0398 17.4482 19.0106 17.486 18.9737C17.5237 18.9368 17.5536 18.893 17.5741 18.8449C17.5945 18.7967 17.605 18.745 17.605 18.6929ZM4.90939 3.68115C4.95213 3.63772 4.98419 3.58536 5.00315 3.52802C5.02211 3.47068 5.02747 3.40988 5.01882 3.35022C5.01016 3.29055 4.98773 3.2336 4.95321 3.18367C4.9187 3.13375 4.87301 3.09216 4.81961 3.06205L3.54738 2.34437C3.48587 2.30929 3.41593 2.29079 3.34471 2.29076C3.27328 2.29072 3.2031 2.30911 3.14126 2.34406C3.07942 2.37901 3.0281 2.42928 2.99249 2.48981C2.88032 2.67948 2.94684 2.92207 3.14118 3.03187L3.36904 3.16044C1.43239 3.65911 0 5.38555 0 7.43271C0 9.8686 2.02714 11.8502 4.51893 11.8502C4.74333 11.8502 4.92518 11.6725 4.92518 11.4531C4.92518 11.2335 4.74328 11.056 4.51893 11.056C2.47513 11.056 0.812502 9.43073 0.812502 7.43271C0.812502 5.77095 1.96295 4.36696 3.52626 3.94175L3.30561 4.16607C3.15012 4.32437 3.15525 4.57559 3.31704 4.72734C3.35543 4.76357 3.40076 4.79204 3.45043 4.81112C3.5001 4.83019 3.55314 4.83949 3.60649 4.83849C3.65985 4.83749 3.71248 4.82621 3.76137 4.80528C3.81025 4.78436 3.85443 4.75422 3.89137 4.71657L4.90939 3.68115ZM22.631 11.2009L22.8589 11.0723C22.9506 11.0188 23.017 10.9322 23.0439 10.8313C23.0707 10.7303 23.0559 10.623 23.0025 10.5326C22.9492 10.4423 22.8616 10.376 22.7587 10.3483C22.6558 10.3205 22.5459 10.3334 22.4526 10.3842L21.1803 11.1026C21.127 11.1327 21.0814 11.1742 21.0469 11.224C21.0124 11.2739 20.99 11.3308 20.9812 11.3903C20.9726 11.45 20.9779 11.5108 20.9969 11.5682C21.0158 11.6256 21.0479 11.678 21.0906 11.7214L22.1087 12.7571C22.2641 12.9149 22.5213 12.9198 22.6831 12.7679C22.8448 12.6161 22.8499 12.3644 22.6944 12.2063L22.4739 11.982C24.0372 12.407 25.1875 13.8112 25.1875 15.4732C25.1875 17.4708 23.5249 19.0958 21.4811 19.0958C21.2568 19.0958 21.0749 19.274 21.0749 19.4929C21.0749 19.7123 21.2568 19.89 21.4811 19.89C23.973 19.89 26 17.9084 26 15.4732C26.0001 13.4256 24.5676 11.6992 22.631 11.2009ZM18.859 1.24735V5.5787H6.51113V1.24735H18.859ZM19.2653 6.37292H6.10478C5.88043 6.37292 5.69853 6.19472 5.69853 5.97581V0.849989C5.69853 0.630833 5.88043 0.453125 6.10478 0.453125H19.2653C19.4897 0.453125 19.6716 0.630833 19.6716 0.849989V5.97581C19.6716 6.19477 19.4897 6.37292 19.2653 6.37292ZM18.251 9.28723L19.4383 13.6188H7.11904L5.93172 9.28723H18.251ZM19.9678 14.413H6.80739C6.71792 14.4131 6.63095 14.3842 6.55998 14.3309C6.48902 14.2777 6.43804 14.203 6.41495 14.1185L5.00988 8.99287C4.99376 8.93403 4.9917 8.87235 5.00386 8.81261C5.01602 8.75287 5.04208 8.69666 5.08002 8.64833C5.11795 8.60001 5.16675 8.56086 5.22264 8.53392C5.27853 8.50697 5.34001 8.49296 5.40232 8.49295H18.5628C18.7466 8.49295 18.9076 8.61353 18.9552 8.78751L20.3602 13.9131C20.3763 13.9719 20.3784 14.0336 20.3663 14.0933C20.3541 14.153 20.328 14.2092 20.2901 14.2575C20.2522 14.3059 20.2034 14.345 20.1475 14.372C20.0916 14.399 20.0302 14.413 19.9678 14.413ZM6.51113 21.6587V17.3273H18.859V21.6587H6.51113ZM6.10483 16.533H19.2653C19.4897 16.533 19.6716 16.7112 19.6716 16.9301V22.056C19.6716 22.1082 19.6611 22.1598 19.6407 22.208C19.6203 22.2562 19.5904 22.3 19.5526 22.3368C19.5149 22.3737 19.4701 22.403 19.4208 22.4229C19.3715 22.4429 19.3187 22.4531 19.2653 22.4531H6.10483C5.99709 22.4531 5.89376 22.4113 5.81757 22.3368C5.74138 22.2623 5.69858 22.1613 5.69858 22.056V16.9302C5.69858 16.7112 5.88048 16.533 6.10483 16.533Z" fill="#3B7580"/>
</svg>
