<svg width="35" height="35" viewBox="0 0 35 35" fill="none" xmlns="http://www.w3.org/2000/svg">
<g clip-path="url(#clip0_137_3534)">
<path d="M17.4999 20.4173C19.1107 20.4173 20.4166 19.1115 20.4166 17.5007C20.4166 15.8898 19.1107 14.584 17.4999 14.584C15.8891 14.584 14.5833 15.8898 14.5833 17.5007C14.5833 19.1115 15.8891 20.4173 17.4999 20.4173Z" stroke="#2D464B" stroke-width="3" stroke-linecap="round" stroke-linejoin="round"/>
<path d="M17.5001 27.7077C11.6667 27.7077 6.80612 24.3054 2.91675 17.4993C6.80612 10.6933 11.6667 7.29102 17.5001 7.29102C23.3334 7.29102 28.194 10.6933 32.0834 17.4993C31.4709 18.5727 30.8322 19.5614 30.1715 20.4641" stroke="#2D464B" stroke-width="3" stroke-linecap="round" stroke-linejoin="round"/>
<path d="M21.875 27.7077L24.7917 30.6243L30.625 24.791" stroke="#2D464B" stroke-width="3" stroke-linecap="round" stroke-linejoin="round"/>
</g>
<defs>
<clipPath id="clip0_137_3534">
<rect width="35" height="35" fill="white"/>
</clipPath>
</defs>
</svg>
