<svg width="16" height="18" viewBox="0 0 16 18" fill="none" xmlns="http://www.w3.org/2000/svg">
<path d="M11.2112 0.493896C13.889 0.493896 15.4927 2.11809 15.5 4.82997V12.8039C15.5 15.5158 13.9035 17.14 11.2184 17.14H8.83817C8.53292 17.1059 8.30186 16.8447 8.30186 16.5337C8.30186 16.2227 8.53292 15.9615 8.83817 15.9274H11.2112C13.2576 15.9274 14.2881 14.8764 14.2881 12.8039V4.82997C14.2881 2.75747 13.2576 1.70653 11.2112 1.70653H4.78157C2.73512 1.70653 1.69739 2.75747 1.69739 4.82997V12.8039C1.69739 14.8764 2.73512 15.9274 4.78157 15.9274C5.08682 15.9615 5.31788 16.2227 5.31788 16.5337C5.31788 16.8447 5.08682 17.1059 4.78157 17.14C2.10377 17.14 0.5 15.5158 0.5 12.8039V4.82997C0.5 2.11074 2.10377 0.493896 4.78157 0.493896H11.2112ZM10.9935 11.7383C11.3221 11.7383 11.5885 12.0081 11.5885 12.3409C11.5885 12.6738 11.3221 12.9436 10.9935 12.9436H4.98476C4.65611 12.9436 4.3897 12.6738 4.3897 12.3409C4.3897 12.0081 4.65611 11.7383 4.98476 11.7383H10.9935ZM10.9935 8.21064C11.2231 8.185 11.447 8.29463 11.5697 8.49283C11.6925 8.69103 11.6925 8.94288 11.5697 9.14108C11.447 9.33928 11.2231 9.44891 10.9935 9.42327H4.98476C4.6795 9.38918 4.44845 9.12797 4.44845 8.81696C4.44845 8.50594 4.6795 8.24473 4.98476 8.21064H10.9935ZM7.27794 4.69034C7.58319 4.72442 7.81425 4.98564 7.81425 5.29665C7.81425 5.60767 7.58319 5.86888 7.27794 5.90297H4.99202C4.68676 5.86888 4.45571 5.60767 4.45571 5.29665C4.45571 4.98564 4.68676 4.72442 4.99202 4.69034H7.27794Z" fill="#2D464B"/>
</svg>
