<svg width="30" height="33" viewBox="0 0 30 33" fill="none" xmlns="http://www.w3.org/2000/svg">
<path d="M21.1012 0.619629C26.189 0.619629 29.2362 3.7094 29.25 8.86834V24.0376C29.25 29.1965 26.2166 32.2863 21.115 32.2863H16.5925C16.0125 32.2215 15.5735 31.7245 15.5735 31.1329C15.5735 30.5412 16.0125 30.0443 16.5925 29.9795H21.1012C24.9895 29.9795 26.9474 27.9802 26.9474 24.0376V8.86834C26.9474 4.92574 24.9895 2.92647 21.1012 2.92647H8.88498C4.99673 2.92647 3.02504 4.92574 3.02504 8.86834V24.0376C3.02504 27.9802 4.99673 29.9795 8.88498 29.9795C9.46496 30.0443 9.90396 30.5412 9.90396 31.1329C9.90396 31.7245 9.46496 32.2215 8.88498 32.2863C3.79717 32.2863 0.75 29.1965 0.75 24.0376V8.86834C0.75 3.69542 3.79717 0.619629 8.88498 0.619629H21.1012ZM20.6876 22.0104C21.312 22.0104 21.8182 22.5236 21.8182 23.1568C21.8182 23.7899 21.312 24.3032 20.6876 24.3032H9.27104C8.64662 24.3032 8.14042 23.7899 8.14042 23.1568C8.14042 22.5236 8.64662 22.0104 9.27104 22.0104H20.6876ZM20.6876 15.2995C21.1239 15.2508 21.5493 15.4593 21.7825 15.8364C22.0157 16.2134 22.0157 16.6925 21.7825 17.0696C21.5493 17.4466 21.1239 17.6552 20.6876 17.6064H9.27104C8.69106 17.5415 8.25206 17.0446 8.25206 16.453C8.25206 15.8613 8.69106 15.3644 9.27104 15.2995H20.6876ZM13.6281 8.60271C14.2081 8.66755 14.6471 9.16447 14.6471 9.75613C14.6471 10.3478 14.2081 10.8447 13.6281 10.9095H9.28483C8.70485 10.8447 8.26585 10.3478 8.26585 9.75613C8.26585 9.16447 8.70485 8.66755 9.28483 8.60271H13.6281Z" fill="#3B7580"/>
</svg>
