<svg width="18" height="18" viewBox="0 0 18 18" fill="none" xmlns="http://www.w3.org/2000/svg">
<path d="M6.86791 15.3459V13.0486C6.8679 12.4643 7.34484 11.9896 7.93576 11.9857H10.1003C10.6941 11.9857 11.1754 12.4616 11.1754 13.0486V15.353C11.1752 15.8491 11.5757 16.2545 12.0773 16.2662H13.5203C14.9588 16.2662 16.125 15.1131 16.125 13.6907V7.1558C16.1173 6.59623 15.8516 6.07077 15.4035 5.72896L10.4683 1.79801C9.6037 1.11355 8.37465 1.11355 7.51006 1.79801L2.59652 5.73609C2.14669 6.07652 1.88054 6.60285 1.875 7.16293V13.6907C1.875 15.1131 3.04116 16.2662 4.47968 16.2662H5.92272C6.43677 16.2662 6.85348 15.8541 6.85348 15.3459" stroke="#2D464B" stroke-width="2.5" stroke-linecap="round" stroke-linejoin="round"/>
</svg>
