<svg width="22" height="22" viewBox="0 0 22 22" fill="none" xmlns="http://www.w3.org/2000/svg">
<path d="M18.0682 3.61064C16.2041 1.76253 13.6717 0.711914 11.0467 0.711914H10.9533C8.32834 0.711914 5.79586 1.76253 3.93178 3.61064V3.61064C2.06433 5.46209 1 7.99655 1 10.6262V10.6262C1 13.2559 2.06433 15.7904 3.93178 17.6418V17.6418C5.79586 19.4899 8.32834 20.5406 10.9533 20.5406H11.0467C13.6717 20.5406 16.2041 19.4899 18.0682 17.6418V17.6418C19.9357 15.7904 21 13.2559 21 10.6262V10.6262C21 7.99655 19.9357 5.46209 18.0682 3.61064V3.61064ZM11 16.4647C10.2 16.4647 9.55556 15.8257 9.55556 15.0326C9.55556 14.2395 10.2 13.6005 11 13.6005C11.8 13.6005 12.4444 14.2395 12.4444 15.0326C12.4444 15.8257 11.8 16.4647 11 16.4647ZM12.1111 10.6167C12.1111 11.2304 11.6137 11.7278 11 11.7278V11.7278C10.3864 11.7278 9.88889 11.2304 9.88889 10.6167V4.79732C9.88889 4.18367 10.3864 3.68621 11 3.68621V3.68621C11.6137 3.68621 12.1111 4.18367 12.1111 4.79732V10.6167Z" stroke="black" stroke-opacity="0.5"/>
</svg>
