<svg width="16" height="20" viewBox="0 0 16 20" fill="none" xmlns="http://www.w3.org/2000/svg">
<path d="M8 13C8.55 13 9.021 12.804 9.413 12.412C9.805 12.02 10.0007 11.5493 10 11C10 10.45 9.804 9.979 9.412 9.587C9.02 9.195 8.54934 8.99934 8 9C7.45 9 6.979 9.196 6.587 9.588C6.195 9.98 5.99934 10.4507 6 11C6 11.55 6.196 12.021 6.588 12.413C6.98 12.805 7.45067 13.0007 8 13ZM13.6 18L10.025 14.425C9.74167 14.6083 9.429 14.75 9.087 14.85C8.745 14.95 8.38267 15 8 15C6.9 15 5.95834 14.6083 5.175 13.825C4.39167 13.0417 4 12.1 4 11C4 9.9 4.39167 8.95834 5.175 8.175C5.95834 7.39167 6.9 7 8 7C9.1 7 10.0417 7.39167 10.825 8.175C11.6083 8.95834 12 9.9 12 11C12 11.3833 11.95 11.7417 11.85 12.075C11.75 12.4083 11.6083 12.7167 11.425 13L14 15.575V6.725L10.05 2H2V18H13.6ZM2 20C1.45 20 0.979002 19.804 0.587002 19.412C0.195002 19.02 -0.000664969 18.5493 1.69779e-06 18V2C1.69779e-06 1.45 0.196001 0.979002 0.588001 0.587002C0.980001 0.195002 1.45067 -0.000664969 2 1.69779e-06H10.075C10.375 1.69779e-06 10.6583 0.0626683 10.925 0.188002C11.1917 0.313335 11.4167 0.492335 11.6 0.725002L15.525 5.45C15.6583 5.63334 15.771 5.83334 15.863 6.05C15.955 6.26667 16.0007 6.49167 16 6.725V18C16 18.55 15.804 19.021 15.412 19.413C15.02 19.805 14.5493 20.0007 14 20H2Z" fill="#3B7580"/>
</svg>
