<svg width="35" height="35" viewBox="0 0 35 35" fill="none" xmlns="http://www.w3.org/2000/svg">
<g clip-path="url(#clip0_137_3563)">
<path d="M8.02087 7.29102H26.9792C27.1892 7.36467 27.3796 7.48543 27.5358 7.64403C27.6919 7.80262 27.8097 7.99486 27.8801 8.20601C27.9504 8.41715 27.9716 8.64161 27.9418 8.86217C27.912 9.08274 27.8322 9.29357 27.7084 9.47852L20.4167 17.4993V27.7077L14.5834 23.3327V17.4993L7.2917 9.47852C7.16788 9.29357 7.08802 9.08274 7.05826 8.86217C7.0285 8.64161 7.04962 8.41715 7.12 8.20601C7.19038 7.99486 7.30816 7.80262 7.46431 7.64403C7.62046 7.48543 7.81084 7.36467 8.02087 7.29102Z" stroke="#2D464B" stroke-width="3" stroke-linecap="round" stroke-linejoin="round"/>
</g>
<defs>
<clipPath id="clip0_137_3563">
<rect width="35" height="35" fill="white"/>
</clipPath>
</defs>
</svg>
