<svg width="12" height="13" viewBox="0 0 12 13" fill="none" xmlns="http://www.w3.org/2000/svg">
<path d="M10.8125 0.182617C10.4 0.182617 10.125 0.467451 10.125 0.894701V3.03095C10.125 3.4582 9.85 3.74304 9.4375 3.74304H2.5625C2.15 3.74304 1.875 3.4582 1.875 3.03095V0.894701C1.875 0.467451 1.6 0.182617 1.1875 0.182617C0.775 0.182617 0.5 0.467451 0.5 0.894701V3.03095C0.5 4.2415 1.39375 5.1672 2.5625 5.1672H9.4375C10.6063 5.1672 11.5 4.2415 11.5 3.03095V0.894701C11.5 0.467451 11.225 0.182617 10.8125 0.182617ZM9.4375 8.01554H2.5625C1.39375 8.01554 0.5 8.94125 0.5 10.1518V12.288C0.5 12.7153 0.775 13.0001 1.1875 13.0001C1.6 13.0001 1.875 12.7153 1.875 12.288V10.1518C1.875 9.72454 2.15 9.43971 2.5625 9.43971H9.4375C9.85 9.43971 10.125 9.72454 10.125 10.1518V12.288C10.125 12.7153 10.4 13.0001 10.8125 13.0001C11.225 13.0001 11.5 12.7153 11.5 12.288V10.1518C11.5 8.94125 10.6063 8.01554 9.4375 8.01554ZM10.125 7.30346C10.5375 7.30346 10.8125 7.01862 10.8125 6.59137C10.8125 6.16412 10.5375 5.87929 10.125 5.87929H1.875C1.4625 5.87929 1.1875 6.16412 1.1875 6.59137C1.1875 7.01862 1.4625 7.30346 1.875 7.30346H10.125Z" fill="#2D464B"/>
</svg>
