<svg width="21" height="26" viewBox="0 0 21 26" fill="none" xmlns="http://www.w3.org/2000/svg">
<path d="M19.6875 0.453125C18.9 0.453125 18.375 1.00868 18.375 1.84201V6.00868C18.375 6.84201 17.85 7.39757 17.0625 7.39757H3.9375C3.15 7.39757 2.625 6.84201 2.625 6.00868V1.84201C2.625 1.00868 2.1 0.453125 1.3125 0.453125C0.525 0.453125 0 1.00868 0 1.84201V6.00868C0 8.36979 1.70625 10.1753 3.9375 10.1753H17.0625C19.2938 10.1753 21 8.36979 21 6.00868V1.84201C21 1.00868 20.475 0.453125 19.6875 0.453125ZM17.0625 15.7309H3.9375C1.70625 15.7309 0 17.5365 0 19.8976V24.0642C0 24.8976 0.525 25.4531 1.3125 25.4531C2.1 25.4531 2.625 24.8976 2.625 24.0642V19.8976C2.625 19.0642 3.15 18.5087 3.9375 18.5087H17.0625C17.85 18.5087 18.375 19.0642 18.375 19.8976V24.0642C18.375 24.8976 18.9 25.4531 19.6875 25.4531C20.475 25.4531 21 24.8976 21 24.0642V19.8976C21 17.5365 19.2938 15.7309 17.0625 15.7309ZM18.375 14.342C19.1625 14.342 19.6875 13.7865 19.6875 12.9531C19.6875 12.1198 19.1625 11.5642 18.375 11.5642H2.625C1.8375 11.5642 1.3125 12.1198 1.3125 12.9531C1.3125 13.7865 1.8375 14.342 2.625 14.342H18.375Z" fill="#3B7580"/>
</svg>
