<svg width="21" height="19" viewBox="0 0 21 19" fill="none" xmlns="http://www.w3.org/2000/svg">
<path d="M15 17L16.8 18.77C17.3 19.27 18 18.87 18 18.28V14L20.8 10.6C20.9114 10.4514 20.9793 10.2748 20.996 10.0898C21.0126 9.90484 20.9775 9.71889 20.8944 9.55279C20.8114 9.38668 20.6837 9.24698 20.5257 9.14935C20.3678 9.05171 20.1857 9 20 9H13C12.2 9 11.7 10 12.2 10.6L15 14V17ZM13 16H0V13C0 10.3 5.3 9 8 9C8.6 9 9.3 9.1 10.1 9.2C9.9 9.8 10 10.5 10.2 11.1C9.5 11 8.7 10.9 8 10.9C5 10.9 1.9 12.4 1.9 13V14.1H12.5L13 14.7V16ZM8 0C5.8 0 4 1.8 4 4C4 6.2 5.8 8 8 8C10.2 8 12 6.2 12 4C12 1.8 10.2 0 8 0ZM8 6C6.9 6 6 5.1 6 4C6 2.9 6.9 2 8 2C9.1 2 10 2.9 10 4C10 5.1 9.1 6 8 6Z" fill="#3B7580"/>
</svg>
