<?xml version="1.0" standalone="no"?>
<!DOCTYPE svg PUBLIC "-//W3C//DTD SVG 20010904//EN"
 "http://www.w3.org/TR/2001/REC-SVG-20010904/DTD/svg10.dtd">
<svg version="1.0" xmlns="http://www.w3.org/2000/svg"
 width="3000.000000pt" height="1000.000000pt" viewBox="0 0 3000.000000 1000.000000"
 preserveAspectRatio="xMidYMid meet">

<g transform="translate(0.000000,1000.000000) scale(0.100000,-0.100000)"
fill="#000000" stroke="none">
<path d="M0 5000 l0 -5000 15000 0 15000 0 0 5000 0 5000 -15000 0 -15000 0 0
-5000z m18365 1650 c149 -32 265 -73 410 -145 467 -233 792 -656 902 -1174 24
-112 27 -148 27 -326 0 -146 -4 -224 -16 -290 -101 -536 -433 -981 -913 -1220
-146 -73 -260 -113 -415 -147 -92 -20 -133 -22 -335 -22 -262 0 -346 13 -544
83 -567 203 -974 668 -1103 1263 -19 89 -22 133 -22 328 0 249 12 333 75 522
199 597 721 1043 1338 1143 132 22 466 13 596 -15z m3980 5 c181 -34 420 -128
575 -227 421 -269 708 -709 775 -1188 29 -209 15 -463 -36 -662 -102 -400
-376 -774 -739 -1006 -153 -97 -386 -190 -575 -228 -139 -28 -513 -26 -648 4
-647 143 -1156 636 -1303 1261 -224 954 411 1899 1381 2056 121 19 445 14 570
-10z m-19287 -51 c109 -36 197 -136 221 -250 7 -39 11 -231 11 -596 l0 -538
795 0 794 0 3 573 3 572 26 55 c36 77 82 126 153 163 l61 32 188 3 187 4 0
-1622 0 -1622 -187 4 -188 3 -61 32 c-71 37 -117 86 -153 163 l-26 55 -3 518
-3 517 -794 0 -795 0 0 -483 c0 -324 -4 -503 -11 -541 -24 -114 -112 -214
-221 -250 -38 -12 -91 -16 -219 -16 l-169 0 0 1620 0 1620 169 0 c128 0 181
-4 219 -16z m4736 -189 c56 -110 173 -339 260 -510 87 -170 196 -382 241 -470
45 -88 142 -277 215 -420 178 -350 345 -676 445 -870 213 -413 385 -752 385
-758 0 -4 -152 -7 -339 -7 l-338 0 -439 125 c-241 69 -444 125 -451 125 -10 0
-13 61 -13 285 0 157 3 285 8 285 4 0 131 -36 282 -79 151 -43 277 -77 279
-75 5 4 -641 1299 -662 1328 -12 16 -50 -55 -350 -655 -185 -370 -335 -674
-334 -675 1 -2 127 33 280 77 153 43 282 79 288 79 6 0 8 -106 7 -281 l-3
-282 -450 -128 -450 -129 -343 0 -343 0 167 328 c91 180 201 395 244 477 42
83 139 272 215 420 76 149 175 342 220 430 45 88 147 286 225 440 78 154 177
348 220 430 42 83 139 272 215 420 76 149 143 276 148 283 6 7 23 12 39 10 27
-3 37 -17 132 -203z m3686 191 c516 -78 860 -454 911 -993 43 -470 -178 -899
-569 -1101 -48 -24 -86 -48 -85 -53 2 -4 103 -142 226 -306 123 -164 302 -404
397 -533 l172 -235 -258 -3 c-290 -3 -356 5 -464 59 -90 46 -156 113 -272 277
-58 81 -214 302 -348 492 -134 190 -307 435 -385 545 l-141 200 350 5 c334 5
354 7 416 29 129 45 217 123 282 248 47 90 62 158 61 273 -3 299 -137 496
-372 546 -51 10 -168 14 -518 14 l-453 0 -2 -1217 -3 -1218 -26 -56 c-36 -76
-86 -129 -156 -165 -57 -29 -61 -29 -245 -32 l-188 -4 0 1621 0 1621 788 0
c632 0 806 -3 882 -14z m3503 -18 c185 -51 369 -153 503 -280 270 -255 398
-611 355 -985 -49 -416 -281 -726 -657 -876 -222 -89 -301 -99 -846 -104
l-457 -5 -3 -351 -3 -352 -27 -57 c-32 -69 -97 -136 -163 -169 -47 -22 -62
-24 -242 -27 l-193 -4 0 1622 0 1621 818 -3 817 -3 98 -27z m9651 -15 c28 -26
80 -74 117 -107 36 -34 164 -151 284 -261 120 -110 285 -261 365 -335 80 -75
253 -234 385 -355 132 -121 245 -224 251 -230 6 -5 58 -53 115 -106 57 -52
189 -174 293 -270 104 -96 206 -189 227 -207 l39 -33 2 848 3 848 33 67 c37
76 82 120 162 157 52 24 66 26 238 29 l182 4 0 -1621 0 -1621 -35 0 c-30 0
-50 14 -153 108 -65 59 -203 183 -308 277 -104 93 -211 190 -239 216 -96 88
-191 174 -270 245 -105 93 -266 238 -510 459 -478 433 -670 605 -677 605 -5 0
-8 -371 -8 -824 0 -917 4 -864 -70 -962 -30 -40 -56 -61 -107 -86 l-67 -33
-183 -3 -183 -3 0 1620 0 1621 31 0 c24 0 45 -12 83 -47z"/>
<path d="M17886 6089 c-101 -15 -176 -38 -272 -83 -125 -59 -203 -114 -307
-215 -144 -140 -249 -319 -303 -515 -32 -113 -43 -312 -25 -436 52 -351 289
-678 606 -835 146 -73 237 -96 398 -102 154 -6 247 7 374 52 230 82 437 257
570 480 226 380 206 848 -52 1210 -131 184 -346 343 -550 408 -128 42 -303 56
-439 36z"/>
<path d="M21885 6090 c-378 -59 -721 -352 -853 -730 -143 -411 -33 -856 291
-1167 200 -192 400 -280 663 -290 138 -6 222 4 329 37 308 94 586 363 705 682
223 600 -137 1288 -758 1449 -89 23 -285 33 -377 19z"/>
<path d="M13880 5491 l0 -581 458 0 c379 0 468 3 517 15 226 59 365 260 367
530 1 246 -115 445 -321 550 -117 59 -110 58 -583 62 l-438 4 0 -580z"/>
</g>
</svg>
