<svg width="35" height="35" viewBox="0 0 35 35" fill="none" xmlns="http://www.w3.org/2000/svg">
<g clip-path="url(#clip0_137_3548)">
<path d="M13.1251 16.0417C16.3467 16.0417 18.9584 13.43 18.9584 10.2083C18.9584 6.98667 16.3467 4.375 13.1251 4.375C9.90342 4.375 7.29175 6.98667 7.29175 10.2083C7.29175 13.43 9.90342 16.0417 13.1251 16.0417Z" stroke="#2D464B" stroke-width="3" stroke-linecap="round" stroke-linejoin="round"/>
<path d="M4.375 30.625V27.7083C4.375 26.1612 4.98958 24.6775 6.08354 23.5835C7.17751 22.4896 8.66124 21.875 10.2083 21.875H16.0417C17.5888 21.875 19.0725 22.4896 20.1665 23.5835C21.2604 24.6775 21.875 26.1612 21.875 27.7083V30.625" stroke="#2D464B" stroke-width="3" stroke-linecap="round" stroke-linejoin="round"/>
<path d="M23.3333 4.56445C24.588 4.88573 25.7002 5.61548 26.4944 6.63866C27.2886 7.66184 27.7197 8.92025 27.7197 10.2155C27.7197 11.5107 27.2886 12.7692 26.4944 13.7923C25.7002 14.8155 24.588 15.5453 23.3333 15.8665" stroke="#2D464B" stroke-width="3" stroke-linecap="round" stroke-linejoin="round"/>
<path d="M30.625 30.625V27.7083C30.6176 26.4209 30.1845 25.172 29.3931 24.1564C28.6017 23.1408 27.4966 22.4156 26.25 22.0938" stroke="#2D464B" stroke-width="3" stroke-linecap="round" stroke-linejoin="round"/>
</g>
<defs>
<clipPath id="clip0_137_3548">
<rect width="35" height="35" fill="white"/>
</clipPath>
</defs>
</svg>
