<svg width="30" height="30" viewBox="0 0 30 30" fill="none" xmlns="http://www.w3.org/2000/svg">
<ellipse cx="15" cy="14.9815" rx="15" ry="14.9815" fill="#3B7580" fill-opacity="0.3"/>
<path d="M12.8869 18.527C14.3009 18.4111 15.7213 18.4111 17.1353 18.527C17.9053 18.5727 18.6716 18.6706 19.4294 18.8202C21.0693 19.1579 22.1399 19.7088 22.5987 20.5974C22.9433 21.2909 22.9433 22.1165 22.5987 22.81C22.1399 23.6986 21.1118 24.285 19.4124 24.5871C18.6552 24.7424 17.8887 24.8434 17.1183 24.8893C16.4046 24.9692 15.6908 24.9692 14.9686 24.9692H13.6686C13.3967 24.9337 13.1333 24.9159 12.8784 24.9159C12.108 24.8756 11.3413 24.7776 10.5843 24.6227C8.94441 24.3028 7.87382 23.7341 7.41499 22.8455C7.23787 22.5013 7.14449 22.1168 7.14299 21.7259C7.1394 21.3326 7.22996 20.9447 7.40649 20.5974C7.85682 19.7088 8.92742 19.1313 10.5843 18.8202C11.3447 18.6685 12.1139 18.5705 12.8869 18.527ZM15.0026 4.9939C17.851 4.9939 20.1601 7.40874 20.1601 10.3876C20.1601 13.3665 17.851 15.7813 15.0026 15.7813C12.1542 15.7813 9.84507 13.3665 9.84507 10.3876C9.84507 7.40874 12.1542 4.9939 15.0026 4.9939Z" fill="#3B7580"/>
</svg>
