<svg width="18" height="22" viewBox="0 0 18 22" fill="none" xmlns="http://www.w3.org/2000/svg">
<path d="M18 10C18 15.55 14.16 20.74 9 22C3.84 20.74 0 15.55 0 10V4L9 0L18 4V10ZM9 20C12.75 19 16 14.54 16 10.22V5.3L9 2.18L2 5.3V10.22C2 14.54 5.25 19 9 20ZM9 7.89C10.6 7.89 11.89 9.18 11.89 10.78C11.89 12.38 10.6 13.67 9 13.67C7.4 13.67 6.11 12.37 6.11 10.78C6.11 9.19 7.41 7.89 9 7.89ZM9 5L10.38 7C9.96 6.82 9.5 6.73 9 6.73C8.5 6.73 8.05 6.82 7.62 7L9 5ZM4 7.89L6.4 7.69C6.06 8 5.74 8.34 5.5 8.76C5.25 9.18 5.1 9.62 5 10.08L4 7.89ZM4 13.67L5.03 11.5C5.11 11.93 5.27 12.38 5.5 12.8C5.75 13.23 6.06 13.59 6.4 13.88L4 13.67ZM14 7.89L13 10.08C12.9 9.62 12.74 9.18 12.5 8.76C12.26 8.34 11.95 8 11.6 7.68L14 7.89ZM14 13.67L11.6 13.87C11.94 13.58 12.25 13.22 12.5 12.8C12.74 12.38 12.89 11.93 12.97 11.5L14 13.67ZM9 16.55L7.61 14.57C8.04 14.72 8.5 14.82 9 14.82C9.5 14.82 9.95 14.72 10.37 14.57L9 16.55Z" fill="#3B7580"/>
</svg>
