<svg width="20" height="27" viewBox="0 0 20 27" fill="none" xmlns="http://www.w3.org/2000/svg">
<path fill-rule="evenodd" clip-rule="evenodd" d="M10 5.83333C10.442 5.83333 10.8659 5.65774 11.1785 5.34518C11.4911 5.03262 11.6667 4.60869 11.6667 4.16667C11.6667 3.72464 11.4911 3.30072 11.1785 2.98816C10.8659 2.67559 10.442 2.5 10 2.5C9.55797 2.5 9.13405 2.67559 8.82149 2.98816C8.50893 3.30072 8.33333 3.72464 8.33333 4.16667C8.33333 4.60869 8.50893 5.03262 8.82149 5.34518C9.13405 5.65774 9.55797 5.83333 10 5.83333ZM10 8.68569e-08C10.9605 -0.000195959 11.8917 0.331486 12.6358 0.938912C13.3798 1.54634 13.8912 2.3922 14.0833 3.33333H18.3333C18.7754 3.33333 19.1993 3.50893 19.5118 3.82149C19.8244 4.13405 20 4.55797 20 5V25C20 25.442 19.8244 25.8659 19.5118 26.1785C19.1993 26.4911 18.7754 26.6667 18.3333 26.6667H1.66667C1.22464 26.6667 0.800716 26.4911 0.488155 26.1785C0.175595 25.8659 0 25.442 0 25V5C0 4.55797 0.175595 4.13405 0.488155 3.82149C0.800716 3.50893 1.22464 3.33333 1.66667 3.33333H5.91667C6.10878 2.3922 6.62015 1.54634 7.36425 0.938912C8.10834 0.331486 9.03946 -0.000195959 10 8.68569e-08ZM8.33333 8.33333H14.1667V5.83333H17.5V24.1667H2.5V5.83333H5.83333V8.33333H8.33333ZM14.2167 13.8C14.3395 13.6856 14.438 13.5476 14.5063 13.3942C14.5746 13.2409 14.6114 13.0754 14.6143 12.9075C14.6173 12.7397 14.5864 12.573 14.5235 12.4173C14.4607 12.2617 14.3671 12.1203 14.2484 12.0016C14.1297 11.8829 13.9883 11.7893 13.8327 11.7265C13.677 11.6636 13.5103 11.6327 13.3425 11.6357C13.1746 11.6386 13.0091 11.6754 12.8558 11.7437C12.7024 11.812 12.5644 11.9105 12.45 12.0333L9.16667 15.3167L8.38333 14.5333C8.14637 14.3125 7.83296 14.1923 7.50913 14.198C7.18529 14.2038 6.87632 14.3349 6.6473 14.564C6.41827 14.793 6.28709 15.102 6.28137 15.4258C6.27566 15.7496 6.39587 16.063 6.61667 16.3L8.28333 17.9667C8.51771 18.2007 8.83541 18.3322 9.16667 18.3322C9.49792 18.3322 9.81562 18.2007 10.05 17.9667L14.2167 13.8Z" fill="#3B7580"/>
</svg>
