<svg width="20" height="19" viewBox="0 0 20 19" fill="none" xmlns="http://www.w3.org/2000/svg">
<path d="M0 15.2017V1.09351C0 0.695589 0.153684 0.392445 0.461053 0.184079C0.768421 -0.0242879 1.09719 -0.0557603 1.44737 0.0896621L15.0526 5.9771H14.7368C14.1228 5.9771 13.5439 6.04945 13 6.19415C12.4561 6.33885 11.9298 6.53781 11.4211 6.79103L2.10526 2.72137V6.51972L8.42105 8.14758L2.10526 9.77545V13.5738L7.78947 11.0777C7.64912 11.4937 7.54386 11.9051 7.47368 12.3117C7.40351 12.7183 7.36842 13.139 7.36842 13.5738V13.6281L1.47368 16.2055C1.12281 16.3502 0.789474 16.3184 0.473684 16.11C0.157895 15.9016 0 15.5989 0 15.2017ZM14.7368 19C13.2807 19 12.0393 18.4708 11.0126 17.4123C9.98596 16.3538 9.47298 15.0743 9.47368 13.5738C9.47368 12.0725 9.98702 10.7927 11.0137 9.73421C12.0404 8.67573 13.2814 8.14686 14.7368 8.14758C16.193 8.14758 17.4344 8.67682 18.4611 9.73529C19.4877 10.7938 20.0007 12.0733 20 13.5738C20 15.075 19.4867 16.3549 18.46 17.4134C17.4333 18.4718 16.1923 19.0007 14.7368 19ZM16.8421 15.7443C16.9474 15.6358 17 15.5091 17 15.3644C17 15.2197 16.9474 15.0931 16.8421 14.9846L15.2632 13.3567V10.8607C15.2632 10.716 15.2105 10.5894 15.1053 10.4809C15 10.3723 14.8772 10.3181 14.7368 10.3181C14.5965 10.3181 14.4737 10.3723 14.3684 10.4809C14.2632 10.5894 14.2105 10.716 14.2105 10.8607V13.4653C14.2105 13.5738 14.2281 13.6733 14.2632 13.7637C14.2982 13.8541 14.3596 13.9446 14.4474 14.035L16.1053 15.7443C16.2105 15.8528 16.3333 15.9071 16.4737 15.9071C16.614 15.9071 16.7368 15.8528 16.8421 15.7443ZM2.10526 11.0777V2.72137V13.5738V11.0777Z" fill="#3B7580"/>
</svg>
