<svg width="17" height="23" viewBox="0 0 17 23" fill="none" xmlns="http://www.w3.org/2000/svg">
<path d="M4.33333 15.833H1.83333C1.61232 15.833 1.40036 15.9208 1.24408 16.0771C1.0878 16.2334 1 16.4453 1 16.6663V18.333C1 18.554 1.0878 18.766 1.24408 18.9223C1.40036 19.0785 1.61232 19.1663 1.83333 19.1663H3.5C3.72101 19.1663 3.93298 19.2541 4.08926 19.4104C4.24554 19.5667 4.33333 19.7787 4.33333 19.9997V21.6663C4.33333 21.8874 4.24554 22.0993 4.08926 22.2556C3.93298 22.4119 3.72101 22.4997 3.5 22.4997H1M10.1667 22.4997H6.83333V15.833H10.1667M7.66667 19.1663H9.33333M12.6667 16.6663C12.6667 16.4453 12.7545 16.2334 12.9107 16.0771C13.067 15.9208 13.279 15.833 13.5 15.833H15.1667C15.3877 15.833 15.5996 15.9208 15.7559 16.0771C15.9122 16.2334 16 16.4453 16 16.6663V21.6663C16 21.8874 15.9122 22.0993 15.7559 22.2556C15.5996 22.4119 15.3877 22.4997 15.1667 22.4997H13.5C13.279 22.4997 13.067 22.4119 12.9107 22.2556C12.7545 22.0993 12.6667 21.8874 12.6667 21.6663V16.6663Z" stroke="#3B7580" stroke-linecap="round" stroke-linejoin="round"/>
<path d="M4.73767 13.3333C4.47378 13.3333 4.2585 13.2292 4.09184 13.0208C3.92517 12.8125 3.87656 12.5833 3.946 12.3333L4.52934 10H2.67517C2.39739 10 2.17517 9.89222 2.0085 9.67667C1.84184 9.46111 1.79322 9.22167 1.86267 8.95833C1.90434 8.76389 2.00156 8.61111 2.15434 8.5C2.30711 8.38889 2.48072 8.33333 2.67517 8.33333H4.946L5.77934 5H3.5085C3.23072 5 3.0085 4.89222 2.84184 4.67667C2.67517 4.46111 2.62656 4.22167 2.696 3.95833C2.73767 3.76389 2.83489 3.61111 2.98767 3.5C3.14045 3.38889 3.31406 3.33333 3.5085 3.33333H6.196L6.8835 0.604167C6.92517 0.423611 7.01545 0.277778 7.15434 0.166667C7.29322 0.0555554 7.45989 0 7.65434 0C7.91822 0 8.1335 0.104167 8.30017 0.3125C8.46684 0.520833 8.51545 0.75 8.446 1L7.86267 3.33333H11.196L11.8835 0.604167C11.9252 0.423611 12.0154 0.277778 12.1543 0.166667C12.2932 0.0555554 12.4599 0 12.6543 0C12.9182 0 13.1335 0.104167 13.3002 0.3125C13.4668 0.520833 13.5154 0.75 13.446 1L12.8627 3.33333H14.7168C14.9946 3.33333 15.2168 3.44083 15.3835 3.65583C15.5502 3.87083 15.5988 4.11056 15.5293 4.375C15.4877 4.56944 15.3904 4.72222 15.2377 4.83333C15.0849 4.94444 14.9113 5 14.7168 5H12.446L11.6127 8.33333H13.8835C14.1613 8.33333 14.3835 8.44111 14.5502 8.65667C14.7168 8.87222 14.7654 9.11167 14.696 9.375C14.6543 9.56944 14.5571 9.72222 14.4043 9.83333C14.2516 9.94444 14.0779 10 13.8835 10H11.196L10.5085 12.7292C10.4668 12.9097 10.3766 13.0556 10.2377 13.1667C10.0988 13.2778 9.93211 13.3333 9.73767 13.3333C9.47378 13.3333 9.2585 13.2292 9.09184 13.0208C8.92517 12.8125 8.87656 12.5833 8.946 12.3333L9.52934 10H6.196L5.5085 12.7292C5.46684 12.9097 5.37656 13.0556 5.23767 13.1667C5.09878 13.2778 4.93211 13.3333 4.73767 13.3333ZM6.61267 8.33333H9.946L10.7793 5H7.446L6.61267 8.33333Z" fill="#3B7580"/>
</svg>
