<svg width="15" height="16" viewBox="0 0 15 16" fill="none" xmlns="http://www.w3.org/2000/svg">
<path fill-rule="evenodd" clip-rule="evenodd" d="M4.39864 14.8014L3.22594 14.1307C2.77821 13.8758 2.4506 13.4532 2.31552 12.9565C2.18044 12.4597 2.24903 11.9297 2.50612 11.4835C2.72361 11.3093 2.78122 11.0026 2.64172 10.7615C2.50223 10.5205 2.20742 10.4172 1.94769 10.5184C0.873448 10.5187 0.00187565 9.65006 0 8.57717V7.38076C0.00633875 6.31111 0.876706 5.44757 1.94768 5.44836C2.20554 5.48327 2.46443 5.39186 2.64301 5.2028C2.72004 4.95542 2.669 4.68599 2.5068 4.48386C2.24952 4.03874 2.18041 3.50952 2.31476 3.01334C2.44482 2.51276 2.7743 2.08711 3.22663 1.83533L4.40818 1.16329C4.81039 0.927119 5.29018 0.86053 5.74161 0.978306C6.20582 1.09467 6.6041 1.39179 6.84756 1.80336L6.92928 1.9394C7.26979 2.52505 7.71449 2.52434 8.05363 1.9394L8.1299 1.80951C8.3719 1.39569 8.77053 1.09662 9.23587 0.979718C9.69123 0.861402 10.1751 0.929983 10.5795 1.17019L11.7536 1.84151C12.2007 2.09695 12.5279 2.51952 12.6629 3.01608C12.7979 3.51263 12.7297 4.04243 12.4734 4.48871C12.2564 4.66295 12.199 4.96916 12.3382 5.20998C12.4773 5.45085 12.7715 5.55439 13.0311 5.45392C14.1039 5.45351 14.9748 6.32024 14.9781 7.39172L14.9781 8.58813C14.9748 9.65961 14.1039 10.5263 13.0311 10.5259C12.7732 10.4904 12.514 10.5819 12.3358 10.7715C12.2589 11.0187 12.3099 11.2878 12.472 11.4898C12.729 11.936 12.7975 12.4661 12.6624 12.9629C12.5273 13.4597 12.1998 13.8824 11.7522 14.1377L10.5706 14.811C10.159 15.0456 9.67151 15.1092 9.21339 14.9879C8.75833 14.8665 8.36791 14.574 8.12377 14.1717L8.04137 14.0356C7.70087 13.4514 7.25549 13.4514 6.91702 14.0356L6.84211 14.1649C6.5161 14.7116 5.9266 15.0473 5.28941 15.049C4.97553 15.0485 4.66768 14.9629 4.39864 14.8014V14.8014ZM5.05713 2.27334L3.8749 2.95352C3.72486 3.03924 3.61492 3.18081 3.56913 3.34732C3.52338 3.51184 3.54571 3.68782 3.6311 3.83569C4.08128 4.4181 4.13412 5.21459 3.76483 5.85121C3.39554 6.48788 2.67745 6.8383 1.94764 6.73796C1.77531 6.73592 1.60942 6.8033 1.48744 6.9249C1.36545 7.04649 1.29764 7.21205 1.29931 7.38417L1.29932 8.57717C1.2995 8.7487 1.3679 8.91314 1.48949 9.03432C1.61107 9.1555 1.77587 9.2235 1.94764 9.2233C2.67783 9.12275 3.39635 9.47342 3.76561 10.1106C4.13485 10.7477 4.08143 11.5447 3.63042 12.127C3.54546 12.2748 3.52338 12.4504 3.56913 12.6147C3.61425 12.7805 3.72253 12.9221 3.87081 13.0091L5.04965 13.6805C5.16008 13.7481 5.29334 13.768 5.41876 13.7355C5.54808 13.7009 5.65876 13.6172 5.72726 13.5023L5.80013 13.3764C6.08274 12.6974 6.74666 12.255 7.4829 12.255C8.21915 12.255 8.88307 12.6975 9.16568 13.3764L9.24127 13.5043C9.30508 13.6167 9.41296 13.6973 9.53887 13.7267C9.66043 13.7606 9.7905 13.7441 9.8998 13.6811L11.0848 13.001C11.2345 12.915 11.3442 12.7735 11.3899 12.6072C11.4355 12.4432 11.4134 12.2677 11.3286 12.1202C10.8771 11.5379 10.8234 10.7406 11.1927 10.1032C11.562 9.46574 12.2809 9.11498 13.0113 9.21582C13.1839 9.21823 13.3501 9.15102 13.4724 9.02942C13.5947 8.90779 13.6627 8.74206 13.661 8.56969V7.37325C13.6599 7.01594 13.3691 6.72704 13.0113 6.72779C12.2809 6.82863 11.562 6.47787 11.1927 5.84042C10.8234 5.20301 10.8771 4.40573 11.3286 3.82345C11.4135 3.67561 11.4356 3.49997 11.3898 3.33578C11.3446 3.16985 11.2364 3.02807 11.0882 2.9406L9.90933 2.26928C9.79901 2.20327 9.6668 2.18417 9.54227 2.21622C9.41244 2.24819 9.30099 2.33109 9.23308 2.44613L9.15886 2.57333C8.87694 3.25333 8.21263 3.6967 7.47574 3.6967C6.73885 3.6967 6.07454 3.25333 5.79263 2.57333L5.71635 2.43728C5.62613 2.2934 5.46753 2.20659 5.29753 2.20813C5.21312 2.20821 5.13021 2.23046 5.05713 2.27264V2.27334ZM4.78484 7.98203C4.7807 6.89091 5.43555 5.90495 6.44362 5.48449C7.45169 5.06403 8.61413 5.29199 9.38816 6.06195C10.1622 6.83192 10.3951 7.99199 9.97824 9.0005C9.56133 10.009 8.5768 10.6671 7.48436 10.6673C5.99655 10.6696 4.78798 9.46799 4.78347 7.98203H4.78484ZM6.08279 7.98203C6.08059 8.54837 6.4205 9.0602 6.94378 9.27848C7.46706 9.49672 8.07047 9.37836 8.47223 8.97867C8.874 8.57897 8.99484 7.97676 8.77834 7.45326C8.56184 6.92981 8.0507 6.58831 7.48362 6.58831C6.71122 6.58682 6.08366 7.21057 6.08143 7.98203H6.08279Z" fill="#3B7580"/>
</svg>
