<svg width="16" height="16" viewBox="0 0 16 16" fill="none" xmlns="http://www.w3.org/2000/svg">
<g clip-path="url(#clip0_439_2828)">
<path d="M4.66673 6.66722H6.66673V4.66722L4.3334 2.33389C5.07982 1.9774 5.9184 1.86109 6.73366 2.00097C7.54893 2.14085 8.30078 2.53003 8.88568 3.11494C9.47059 3.69984 9.85977 4.45169 9.99965 5.26695C10.1395 6.08222 10.0232 6.9208 9.66673 7.66722L13.6667 11.6672C13.9319 11.9324 14.0809 12.2921 14.0809 12.6672C14.0809 13.0423 13.9319 13.402 13.6667 13.6672C13.4015 13.9324 13.0418 14.0814 12.6667 14.0814C12.2917 14.0814 11.9319 13.9324 11.6667 13.6672L7.66673 9.66722C6.92031 10.0237 6.08173 10.14 5.26647 10.0001C4.4512 9.86026 3.69935 9.47108 3.11445 8.88617C2.52954 8.30127 2.14036 7.54942 2.00048 6.73415C1.8606 5.91889 1.97691 5.08031 2.3334 4.33389L4.66673 6.66722Z" stroke="rgba(45, 70, 75, 1)" stroke-width="1.33333" stroke-linecap="round" stroke-linejoin="round"/>
</g>
<defs>
<clipPath id="clip0_439_2828">
<rect width="16" height="16" rx="5" fill="white"/>
</clipPath>
</defs>
</svg>
