<svg width="20" height="20" viewBox="0 0 20 20" fill="none" xmlns="http://www.w3.org/2000/svg">
<path d="M10 20C4.45312 20 0 15.485 0 10C0 4.45312 4.45312 0 10 0C15.5469 0 20 4.45312 20 10C20 15.485 15.5469 20 10 20ZM10 1.68C5.42 1.68 1.67625 5.42 1.67625 10.0006C1.67625 14.5812 5.42 18.3244 10 18.3244C14.58 18.3244 18.3237 14.5806 18.3237 10.0006C18.3237 5.42062 14.58 1.68 10 1.68ZM14.9056 10.9669H7.67875C7.52563 10.9677 7.3784 10.9079 7.26925 10.8005C7.1601 10.6931 7.0979 10.5469 7.09625 10.3937V9.55062C7.09625 9.225 7.35313 8.96813 7.67875 8.96813H14.9669C15.2894 8.96813 15.5463 9.22875 15.5463 9.55062V10.3875C15.4844 10.71 15.2238 10.9669 14.905 10.9669H14.9056ZM13.0338 7.74063H5.74188C5.58865 7.74179 5.44124 7.68208 5.33201 7.57462C5.22279 7.46715 5.1607 7.32072 5.15938 7.1675V6.32438C5.15938 6.06375 5.42 5.80688 5.74188 5.80688H13.03C13.2906 5.80688 13.5475 6.0675 13.5475 6.32438V7.16125C13.5475 7.48375 13.2913 7.74063 13.0338 7.74063ZM5.7425 12.2594H13.0344C13.3569 12.2594 13.6137 12.5162 13.6137 12.8387V13.6756C13.6144 13.8292 13.5541 13.9768 13.4461 14.086C13.3381 14.1952 13.1911 14.2571 13.0375 14.2581H5.7425C5.42 14.1931 5.16313 13.9356 5.16313 13.6137V12.7738C5.16 12.5169 5.42 12.2594 5.7425 12.2594Z" fill="#3B7580"/>
</svg>
