<svg width="17" height="21" viewBox="0 0 17 21" fill="none" xmlns="http://www.w3.org/2000/svg">
<path d="M5.375 14.666H5.38542" stroke="#2D464B" stroke-width="1.5" stroke-linecap="round" stroke-linejoin="round"/>
<path d="M5.37565 3.20898H3.29232C2.73978 3.20898 2.20988 3.42848 1.81918 3.81918C1.42848 4.20988 1.20898 4.73978 1.20898 5.29232V17.7923C1.20898 18.3449 1.42848 18.8748 1.81918 19.2655C2.20988 19.6562 2.73978 19.8757 3.29232 19.8757H13.709C14.2615 19.8757 14.7914 19.6562 15.1821 19.2655C15.5728 18.8748 15.7923 18.3449 15.7923 17.7923V5.29232C15.7923 4.73978 15.5728 4.20988 15.1821 3.81918C14.7914 3.42848 14.2615 3.20898 13.709 3.20898H11.6257" stroke="#2D464B" stroke-width="1.5" stroke-linecap="round" stroke-linejoin="round"/>
<path d="M9.54167 1.125H7.45833C6.30774 1.125 5.375 2.05774 5.375 3.20833C5.375 4.35893 6.30774 5.29167 7.45833 5.29167H9.54167C10.6923 5.29167 11.625 4.35893 11.625 3.20833C11.625 2.05774 10.6923 1.125 9.54167 1.125Z" stroke="#2D464B" stroke-width="1.5" stroke-linecap="round" stroke-linejoin="round"/>
<path d="M5.375 10.5H5.38542" stroke="#2D464B" stroke-width="1.5" stroke-linecap="round" stroke-linejoin="round"/>
<path d="M9.54102 10.5H11.6243" stroke="#2D464B" stroke-width="1.5" stroke-linecap="round" stroke-linejoin="round"/>
<path d="M9.54102 14.666H11.6243" stroke="#2D464B" stroke-width="1.5" stroke-linecap="round" stroke-linejoin="round"/>
</svg>
