<svg width="17" height="19" viewBox="0 0 17 19" fill="none" xmlns="http://www.w3.org/2000/svg">
<path d="M15.5884 0.0832521C15.4692 0.0831842 15.3511 0.106595 15.2409 0.152147C15.1307 0.197698 15.0306 0.264497 14.9462 0.348724C14.8619 0.43295 14.795 0.532952 14.7494 0.643012C14.7038 0.753072 14.6804 0.871032 14.6804 0.990146V1.56758C13.9146 2.51592 12.9467 3.28179 11.8472 3.80942C10.7477 4.33706 9.54419 4.61319 8.32434 4.61772H2.87626C2.15404 4.61851 1.46163 4.9054 0.950945 5.41546C0.440259 5.92552 0.15301 6.61707 0.152222 7.3384V9.15219C0.15301 9.87352 0.440259 10.5651 0.950945 11.0751C1.46163 11.5852 2.15404 11.8721 2.87626 11.8729H3.31555L1.13384 16.9573C1.07455 17.0952 1.05048 17.2456 1.06379 17.3951C1.0771 17.5446 1.12737 17.6885 1.21009 17.8138C1.29281 17.939 1.40538 18.0419 1.53771 18.113C1.67004 18.1841 1.81798 18.2212 1.96825 18.2211H5.6003C5.77805 18.2212 5.95191 18.1692 6.10026 18.0714C6.24861 17.9736 6.36492 17.8344 6.43472 17.6711L8.90792 11.9073C10.0254 11.9893 11.1141 12.2991 12.107 12.8178C13.0998 13.3364 13.9757 14.0529 14.6804 14.9228V15.5004C14.6804 15.741 14.7761 15.9716 14.9464 16.1417C15.1167 16.3118 15.3476 16.4073 15.5884 16.4073C15.8293 16.4073 16.0602 16.3118 16.2305 16.1417C16.4008 15.9716 16.4965 15.741 16.4965 15.5004V0.990146C16.4965 0.871031 16.4731 0.753071 16.4275 0.643011C16.3819 0.53295 16.315 0.432948 16.2307 0.348721C16.1463 0.264494 16.0462 0.197696 15.936 0.152144C15.8258 0.106593 15.7077 0.083183 15.5884 0.0832521ZM2.87626 10.0591C2.63549 10.0589 2.40463 9.96332 2.23438 9.79328C2.06413 9.62324 1.96841 9.39266 1.96825 9.15219V7.3384C1.96841 7.09793 2.06413 6.86735 2.23438 6.69731C2.40463 6.52727 2.63549 6.43167 2.87626 6.43151H3.78427V10.0591H2.87626ZM5.00176 16.4073H3.34534L5.29083 11.8729H6.94725L5.00176 16.4073ZM14.6804 12.3461C12.8901 10.8729 10.644 10.0648 8.32434 10.059H5.6003V6.43146H8.32434C10.6441 6.42554 12.8901 5.61721 14.6804 4.14397V12.3461Z" fill="#2D464B"/>
</svg>
