<svg width="15" height="15" viewBox="0 0 15 15" fill="none" xmlns="http://www.w3.org/2000/svg">
<g clip-path="url(#clip0_501_1265)">
<path d="M6.875 1.875L12.5 7.5C12.6537 7.67188 12.7387 7.8944 12.7387 8.125C12.7387 8.3556 12.6537 8.57812 12.5 8.75L8.75 12.5C8.57812 12.6537 8.3556 12.7387 8.125 12.7387C7.8944 12.7387 7.67188 12.6537 7.5 12.5L1.875 6.875V4.375C1.875 3.71196 2.13839 3.07607 2.60723 2.60723C3.07607 2.13839 3.71196 1.875 4.375 1.875H6.875Z" stroke="#2D464B" stroke-linecap="round" stroke-linejoin="round"/>
<path d="M5.625 6.875C6.31536 6.875 6.875 6.31536 6.875 5.625C6.875 4.93464 6.31536 4.375 5.625 4.375C4.93464 4.375 4.375 4.93464 4.375 5.625C4.375 6.31536 4.93464 6.875 5.625 6.875Z" stroke="#2D464B" stroke-linecap="round" stroke-linejoin="round"/>
</g>
<defs>
<clipPath id="clip0_501_1265">
<rect width="15" height="15" fill="white"/>
</clipPath>
</defs>
</svg>
