<svg width="25" height="19" viewBox="0 0 25 19" fill="none" xmlns="http://www.w3.org/2000/svg">
<path d="M15.9091 0C14.7036 0 13.5474 0.500445 12.695 1.39124C11.8425 2.28204 11.3636 3.49022 11.3636 4.75C11.3636 6.00978 11.8425 7.21796 12.695 8.10876C13.5474 8.99956 14.7036 9.5 15.9091 9.5C17.1146 9.5 18.2708 8.99956 19.1232 8.10876C19.9756 7.21796 20.4545 6.00978 20.4545 4.75C20.4545 3.49022 19.9756 2.28204 19.1232 1.39124C18.2708 0.500445 17.1146 0 15.9091 0ZM15.9091 2.25625C16.2225 2.25625 16.5328 2.32075 16.8223 2.44608C17.1118 2.5714 17.3749 2.75509 17.5965 2.98665C17.8181 3.21822 17.9939 3.49313 18.1138 3.79568C18.2337 4.09824 18.2955 4.42252 18.2955 4.75C18.2955 5.07748 18.2337 5.40176 18.1138 5.70432C17.9939 6.00687 17.8181 6.28178 17.5965 6.51335C17.3749 6.74491 17.1118 6.9286 16.8223 7.05393C16.5328 7.17925 16.2225 7.24375 15.9091 7.24375C15.5957 7.24375 15.2854 7.17925 14.9959 7.05393C14.7063 6.9286 14.4433 6.74491 14.2217 6.51335C14.0001 6.28178 13.8243 6.00687 13.7044 5.70432C13.5845 5.40176 13.5227 5.07748 13.5227 4.75C13.5227 4.08862 13.7741 3.45432 14.2217 2.98665C14.6692 2.51898 15.2762 2.25625 15.9091 2.25625ZM3.40909 3.5625V7.125H0V9.5H3.40909V13.0625H5.68182V9.5H9.09091V7.125H5.68182V3.5625H3.40909ZM15.9091 10.6875C12.875 10.6875 6.81818 12.2669 6.81818 15.4375V19H25V15.4375C25 12.2669 18.9432 10.6875 15.9091 10.6875ZM15.9091 12.9437C19.2841 12.9437 22.8409 14.6775 22.8409 15.4375V16.7437H8.97727V15.4375C8.97727 14.6775 12.5 12.9437 15.9091 12.9437Z" fill="#3B7580"/>
</svg>
