<svg width="21" height="21" viewBox="0 0 21 21" fill="none" xmlns="http://www.w3.org/2000/svg">
<path d="M9.54109 21V19.0822C7.54338 18.8584 5.82918 18.0316 4.39849 16.6015C2.96781 15.1715 2.14091 13.4573 1.91781 11.4589H0V9.54109H1.91781C2.14155 7.54338 2.96877 5.82918 4.39945 4.39849C5.83014 2.96781 7.54402 2.14091 9.54109 1.91781V0H11.4589V1.91781C13.4566 2.14155 15.1708 2.96877 16.6015 4.39945C18.0322 5.83014 18.8591 7.54402 19.0822 9.54109H21V11.4589H19.0822C18.8584 13.4566 18.0316 15.1708 16.6015 16.6015C15.1715 18.0322 13.4573 18.8591 11.4589 19.0822V21H9.54109ZM10.5 17.2123C12.3539 17.2123 13.9361 16.5571 15.2466 15.2466C16.5571 13.9361 17.2123 12.3539 17.2123 10.5C17.2123 8.64612 16.5571 7.06393 15.2466 5.75342C13.9361 4.44292 12.3539 3.78767 10.5 3.78767C8.64612 3.78767 7.06393 4.44292 5.75342 5.75342C4.44292 7.06393 3.78767 8.64612 3.78767 10.5C3.78767 12.3539 4.44292 13.9361 5.75342 15.2466C7.06393 16.5571 8.64612 17.2123 10.5 17.2123ZM10.5 14.3356C9.4452 14.3356 8.54224 13.96 7.7911 13.2089C7.03995 12.4578 6.66438 11.5548 6.66438 10.5C6.66438 9.4452 7.03995 8.54224 7.7911 7.7911C8.54224 7.03995 9.4452 6.66438 10.5 6.66438C11.5548 6.66438 12.4578 7.03995 13.2089 7.7911C13.96 8.54224 14.3356 9.4452 14.3356 10.5C14.3356 11.5548 13.96 12.4578 13.2089 13.2089C12.4578 13.96 11.5548 14.3356 10.5 14.3356Z" fill="#3B7580"/>
</svg>
