<svg width="133" height="111" viewBox="0 0 133 111" fill="none" xmlns="http://www.w3.org/2000/svg">
<g clip-path="url(#clip0_101_194)">
<path d="M137.617 -8.84082H4.38272C1.96221 -8.84082 0 -6.89682 0 -4.49877V106.658C0 109.056 1.96221 111 4.38272 111H137.617C140.038 111 142 109.056 142 106.658V-4.49877C142 -6.89682 140.038 -8.84082 137.617 -8.84082Z" fill="#F3F3F3"/>
<path d="M133.234 8.52734H8.76529C7.79709 8.52734 7.01221 9.30495 7.01221 10.2642V38.0533C7.01221 39.0125 7.79709 39.7901 8.76529 39.7901H133.234C134.203 39.7901 134.988 39.0125 134.988 38.0533V10.2642C134.988 9.30495 134.203 8.52734 133.234 8.52734Z" fill="#FAFAFD"/>
<path d="M133.234 46.7375H96.4196C95.4514 46.7375 94.6665 47.5152 94.6665 48.4744V70.1846C94.6665 71.1439 95.4514 71.9215 96.4196 71.9215H133.234C134.203 71.9215 134.987 71.1439 134.987 70.1846V48.4744C134.987 47.5152 134.203 46.7375 133.234 46.7375Z" fill="#FAFAFD"/>
<path d="M133.234 78.8687H96.4196C95.4514 78.8687 94.6665 79.6463 94.6665 80.6055V102.316C94.6665 103.275 95.4514 104.053 96.4196 104.053H133.234C134.203 104.053 134.987 103.275 134.987 102.316V80.6055C134.987 79.6463 134.203 78.8687 133.234 78.8687Z" fill="#FAFAFD"/>
<path d="M35.0616 46.7375H8.76529C7.79709 46.7375 7.01221 47.5152 7.01221 48.4744V51.948C7.01221 52.9072 7.79709 53.6848 8.76529 53.6848H35.0616C36.0298 53.6848 36.8147 52.9072 36.8147 51.948V48.4744C36.8147 47.5152 36.0298 46.7375 35.0616 46.7375Z" fill="#FAFAFD"/>
<path d="M35.0616 78.8687H8.76529C7.79709 78.8687 7.01221 79.6463 7.01221 80.6055V84.0791C7.01221 85.0383 7.79709 85.8159 8.76529 85.8159H35.0616C36.0298 85.8159 36.8147 85.0383 36.8147 84.0791V80.6055C36.8147 79.6463 36.0298 78.8687 35.0616 78.8687Z" fill="#FAFAFD"/>
<path d="M87.7436 56.29H9.20357C7.99331 56.29 7.01221 57.262 7.01221 58.4611C7.01221 59.6601 7.99331 60.6321 9.20357 60.6321H87.7436C88.9538 60.6321 89.9349 59.6601 89.9349 58.4611C89.9349 57.262 88.9538 56.29 87.7436 56.29Z" fill="#FAFAFD"/>
<path d="M87.7436 88.4211H9.20357C7.99331 88.4211 7.01221 89.3931 7.01221 90.5922C7.01221 91.7912 7.99331 92.7632 9.20357 92.7632H87.7436C88.9538 92.7632 89.9349 91.7912 89.9349 90.5922C89.9349 89.3931 88.9538 88.4211 87.7436 88.4211Z" fill="#FAFAFD"/>
<path d="M75.8208 63.2373H9.20357C7.99331 63.2373 7.01221 64.2093 7.01221 65.4083C7.01221 66.6074 7.99331 67.5794 9.20357 67.5794H75.8208C77.0311 67.5794 78.0122 66.6074 78.0122 65.4083C78.0122 64.2093 77.0311 63.2373 75.8208 63.2373Z" fill="#FAFAFD"/>
<path d="M75.8208 95.3684H9.20357C7.99331 95.3684 7.01221 96.3404 7.01221 97.5394C7.01221 98.7385 7.99331 99.7105 9.20357 99.7105H75.8208C77.0311 99.7105 78.0122 98.7385 78.0122 97.5394C78.0122 96.3404 77.0311 95.3684 75.8208 95.3684Z" fill="#FAFAFD"/>
<path d="M44.2653 102.316H9.20356C7.99331 102.316 7.01221 103.288 7.01221 104.487C7.01221 105.686 7.99331 106.658 9.20356 106.658H44.2653C45.4755 106.658 46.4566 105.686 46.4566 104.487C46.4566 103.288 45.4755 102.316 44.2653 102.316Z" fill="#FAFAFD"/>
<path d="M0 -4.49877C0 -6.89681 1.96221 -8.84082 4.38272 -8.84082H137.617C140.037 -8.84082 142 -6.89681 142 -4.49877V1.58011H0V-4.49877Z" fill="#EFF0F7"/>
<path d="M120.086 17.6458H21.9135C20.7033 17.6458 19.7222 18.6178 19.7222 19.8168V91.8949C19.7222 93.0939 20.7033 94.0659 21.9135 94.0659H120.086C121.297 94.0659 122.278 93.0939 122.278 91.8949V19.8168C122.278 18.6178 121.297 17.6458 120.086 17.6458Z" fill="#DBE6FC" stroke="#C3D6FE"/>
<path d="M88.0672 71.1338H53.9326C51.4276 71.1338 49.397 73.1456 49.397 75.6273C49.397 78.109 51.4276 80.1208 53.9326 80.1208H88.0672C90.5721 80.1208 92.6028 78.109 92.6028 75.6273C92.6028 73.1456 90.5721 71.1338 88.0672 71.1338Z" fill="#013A4F"/>
<path d="M112.453 56.1555H29.5475C28.5793 56.1555 27.7944 56.9331 27.7944 57.8923V63.4057C27.7944 64.3649 28.5793 65.1425 29.5475 65.1425H112.453C113.421 65.1425 114.206 64.3649 114.206 63.4057V57.8923C114.206 56.9331 113.421 56.1555 112.453 56.1555Z" fill="white"/>
<path d="M89.324 47.1682H52.6757C51.9495 47.1682 51.3608 47.7514 51.3608 48.4708C51.3608 49.1902 51.9495 49.7734 52.6757 49.7734H89.324C90.0502 49.7734 90.6388 49.1902 90.6388 48.4708C90.6388 47.7514 90.0502 47.1682 89.324 47.1682Z" fill="white"/>
<path d="M99.36 38.7803H42.6398C41.6716 38.7803 40.8867 39.5579 40.8867 40.5171C40.8867 41.4763 41.6716 42.2539 42.6398 42.2539H99.36C100.328 42.2539 101.113 41.4763 101.113 40.5171C101.113 39.5579 100.328 38.7803 99.36 38.7803Z" fill="white"/>
<path d="M84.0875 31.5908H57.9132C57.1871 31.5908 56.5984 32.174 56.5984 32.8934C56.5984 33.6129 57.1871 34.1961 57.9132 34.1961H84.0875C84.8136 34.1961 85.4023 33.6129 85.4023 32.8934C85.4023 32.174 84.8136 31.5908 84.0875 31.5908Z" fill="white"/>
</g>
<defs>
<clipPath id="clip0_101_194">
<rect width="133" height="111" fill="white"/>
</clipPath>
</defs>
</svg>
