<svg width="133" height="105" viewBox="0 0 133 105" fill="none" xmlns="http://www.w3.org/2000/svg">
<g clip-path="url(#clip0_101_195)">
<path d="M128.895 0.336182H4.10494C1.83784 0.336182 0 2.03399 0 4.12835V101.208C0 103.302 1.83784 105 4.10494 105H128.895C131.162 105 133 103.302 133 101.208V4.12835C133 2.03399 131.162 0.336182 128.895 0.336182Z" fill="#F3F3F3"/>
<path d="M124.79 15.5049H8.20985C7.30301 15.5049 6.56787 16.184 6.56787 17.0218V41.2916C6.56787 42.1294 7.30301 42.8085 8.20985 42.8085H124.79C125.697 42.8085 126.432 42.1294 126.432 41.2916V17.0218C126.432 16.184 125.697 15.5049 124.79 15.5049Z" fill="#FAFAFD"/>
<path d="M124.79 48.876H90.3087C89.4019 48.876 88.6667 49.5551 88.6667 50.3928V69.3537C88.6667 70.1914 89.4019 70.8706 90.3087 70.8706H124.79C125.697 70.8706 126.432 70.1914 126.432 69.3537V50.3928C126.432 49.5551 125.697 48.876 124.79 48.876Z" fill="#FAFAFD"/>
<path d="M124.79 76.938H90.3087C89.4019 76.938 88.6667 77.6171 88.6667 78.4549V97.4157C88.6667 98.2535 89.4019 98.9326 90.3087 98.9326H124.79C125.697 98.9326 126.432 98.2535 126.432 97.4157V78.4549C126.432 77.6171 125.697 76.938 124.79 76.938Z" fill="#FAFAFD"/>
<path d="M32.8395 48.876H8.20985C7.30301 48.876 6.56787 49.5551 6.56787 50.3928V53.4266C6.56787 54.2643 7.30301 54.9435 8.20985 54.9435H32.8395C33.7463 54.9435 34.4815 54.2643 34.4815 53.4266V50.3928C34.4815 49.5551 33.7463 48.876 32.8395 48.876Z" fill="#FAFAFD"/>
<path d="M32.8395 76.938H8.20985C7.30301 76.938 6.56787 77.6171 6.56787 78.4549V81.4886C6.56787 82.3263 7.30301 83.0055 8.20985 83.0055H32.8395C33.7463 83.0055 34.4815 82.3263 34.4815 81.4886V78.4549C34.4815 77.6171 33.7463 76.938 32.8395 76.938Z" fill="#FAFAFD"/>
<path d="M82.1825 57.2188H8.62034C7.48679 57.2188 6.56787 58.0677 6.56787 59.1148C6.56787 60.162 7.48679 61.0109 8.62034 61.0109H82.1825C83.316 61.0109 84.2349 60.162 84.2349 59.1148C84.2349 58.0677 83.316 57.2188 82.1825 57.2188Z" fill="#FAFAFD"/>
<path d="M82.1825 85.2808H8.62034C7.48679 85.2808 6.56787 86.1297 6.56787 87.1768C6.56787 88.224 7.48679 89.0729 8.62034 89.0729H82.1825C83.316 89.0729 84.2349 88.224 84.2349 87.1768C84.2349 86.1297 83.316 85.2808 82.1825 85.2808Z" fill="#FAFAFD"/>
<path d="M71.0154 63.2861H8.62034C7.48679 63.2861 6.56787 64.135 6.56787 65.1822C6.56787 66.2294 7.48679 67.0783 8.62034 67.0783H71.0154C72.1489 67.0783 73.0679 66.2294 73.0679 65.1822C73.0679 64.135 72.1489 63.2861 71.0154 63.2861Z" fill="#FAFAFD"/>
<path d="M71.0154 91.3484H8.62034C7.48679 91.3484 6.56787 92.1973 6.56787 93.2445C6.56787 94.2917 7.48679 95.1406 8.62034 95.1406H71.0154C72.1489 95.1406 73.0679 94.2917 73.0679 93.2445C73.0679 92.1973 72.1489 91.3484 71.0154 91.3484Z" fill="#FAFAFD"/>
<path d="M41.4598 97.4158H8.62034C7.48679 97.4158 6.56787 98.2647 6.56787 99.3119C6.56787 100.359 7.48679 101.208 8.62034 101.208H41.4598C42.5934 101.208 43.5123 100.359 43.5123 99.3119C43.5123 98.2647 42.5934 97.4158 41.4598 97.4158Z" fill="#FAFAFD"/>
<path d="M0 4.12835C0 2.034 1.83785 0.336182 4.10494 0.336182H128.895C131.162 0.336182 133 2.034 133 4.12835V9.43739H0V4.12835Z" fill="#EFF0F7"/>
<path fill-rule="evenodd" clip-rule="evenodd" d="M9.03078 4.88674C9.03078 5.72449 8.29566 6.40361 7.3888 6.40361C6.48196 6.40361 5.74683 5.72449 5.74683 4.88674C5.74683 4.049 6.48196 3.36987 7.3888 3.36987C8.29566 3.36987 9.03078 4.049 9.03078 4.88674ZM14.7777 4.88674C14.7777 5.72449 14.0426 6.40361 13.1357 6.40361C12.2289 6.40361 11.4937 5.72449 11.4937 4.88674C11.4937 4.049 12.2289 3.36987 13.1357 3.36987C14.0426 3.36987 14.7777 4.049 14.7777 4.88674ZM18.8826 6.40361C19.7895 6.40361 20.5246 5.72449 20.5246 4.88674C20.5246 4.049 19.7895 3.36987 18.8826 3.36987C17.9758 3.36987 17.2407 4.049 17.2407 4.88674C17.2407 5.72449 17.9758 6.40361 18.8826 6.40361Z" fill="#D1D3DA"/>
<path d="M120.685 68.2161H12.3149C11.1814 68.2161 10.2625 69.065 10.2625 70.1122V92.8652C10.2625 93.9124 11.1814 94.7613 12.3149 94.7613H120.685C121.819 94.7613 122.738 93.9124 122.738 92.8652V70.1122C122.738 69.065 121.819 68.2161 120.685 68.2161Z" fill="#DBE6FC" stroke="#C3D6FE"/>
<path d="M112.475 77.6965H96.8764C94.6093 77.6965 92.7715 79.3943 92.7715 81.4887C92.7715 83.5831 94.6093 85.2809 96.8764 85.2809H112.475C114.742 85.2809 116.58 83.5831 116.58 81.4887C116.58 79.3943 114.742 77.6965 112.475 77.6965Z" fill="#013A4F"/>
<path d="M36.1234 74.6628H18.0617C17.6083 74.6628 17.2407 75.0024 17.2407 75.4213V87.5562C17.2407 87.9751 17.6083 88.3147 18.0617 88.3147H36.1234C36.5769 88.3147 36.9444 87.9751 36.9444 87.5562V75.4213C36.9444 75.0024 36.5769 74.6628 36.1234 74.6628Z" stroke="white" stroke-width="2"/>
<path d="M29.9661 78.4548H29.9743" stroke="white" stroke-width="1.5" stroke-linecap="round" stroke-linejoin="round"/>
<path d="M34.4814 84.5225H20.5247" stroke="white" stroke-width="1.5" stroke-linecap="round" stroke-linejoin="round"/>
<path d="M20.5247 84.5225L24.2191 80.7303C24.5936 80.3974 25.0183 80.2222 25.4506 80.2222C25.8829 80.2222 26.3076 80.3974 26.6821 80.7303L30.787 84.5225" stroke="white" stroke-width="1.5" stroke-linecap="round" stroke-linejoin="round"/>
<path d="M29.145 83.0056L29.966 82.2472C30.3405 81.9142 30.7652 81.739 31.1975 81.739C31.6298 81.739 32.0545 81.9142 32.429 82.2472L34.4814 84.5225" stroke="white" stroke-width="1.5" stroke-linecap="round" stroke-linejoin="round"/>
<path d="M76.6064 81.4888H42.2808C41.6007 81.4888 41.0493 81.9981 41.0493 82.6264C41.0493 83.2547 41.6007 83.7641 42.2808 83.7641H76.6064C77.2865 83.7641 77.8379 83.2547 77.8379 82.6264C77.8379 81.9981 77.2865 81.4888 76.6064 81.4888Z" fill="white"/>
<path d="M88.2561 86.0393H42.2808C41.6007 86.0393 41.0493 86.5487 41.0493 87.177C41.0493 87.8053 41.6007 88.3146 42.2808 88.3146H88.2561C88.9362 88.3146 89.4876 87.8053 89.4876 87.177C89.4876 86.5487 88.9362 86.0393 88.2561 86.0393Z" fill="white"/>
<path d="M66.4999 74.6628H42.6913C41.7845 74.6628 41.0493 75.342 41.0493 76.1797V77.6966C41.0493 78.5343 41.7845 79.2134 42.6913 79.2134H66.4999C67.4068 79.2134 68.1419 78.5343 68.1419 77.6966V76.1797C68.1419 75.342 67.4068 74.6628 66.4999 74.6628Z" fill="white"/>
</g>
<defs>
<clipPath id="clip0_101_195">
<rect width="133" height="105" fill="white"/>
</clipPath>
</defs>
</svg>
