<svg width="133" height="114" viewBox="0 0 133 114" fill="none" xmlns="http://www.w3.org/2000/svg">
<g clip-path="url(#clip0_101_196)">
<path d="M128.895 0H4.10494C1.83784 0 0 1.84926 0 4.13043V109.87C0 112.151 1.83784 114 4.10494 114H128.895C131.162 114 133 112.151 133 109.87V4.13043C133 1.84926 131.162 0 128.895 0Z" fill="#F3F3F3"/>
<path d="M124.79 16.5217H8.20985C7.30301 16.5217 6.56787 17.2614 6.56787 18.1739V44.6087C6.56787 45.5212 7.30301 46.2609 8.20985 46.2609H124.79C125.697 46.2609 126.432 45.5212 126.432 44.6087V18.1739C126.432 17.2614 125.697 16.5217 124.79 16.5217Z" fill="#FAFAFD"/>
<path d="M124.79 52.8696H90.3087C89.4019 52.8696 88.6667 53.6093 88.6667 54.5218V75.174C88.6667 76.0864 89.4019 76.8261 90.3087 76.8261H124.79C125.697 76.8261 126.432 76.0864 126.432 75.174V54.5218C126.432 53.6093 125.697 52.8696 124.79 52.8696Z" fill="#FAFAFD"/>
<path d="M124.79 83.4348H90.3087C89.4019 83.4348 88.6667 84.1745 88.6667 85.087V105.739C88.6667 106.652 89.4019 107.391 90.3087 107.391H124.79C125.697 107.391 126.432 106.652 126.432 105.739V85.087C126.432 84.1745 125.697 83.4348 124.79 83.4348Z" fill="#FAFAFD"/>
<path d="M32.8395 52.8696H8.20985C7.30301 52.8696 6.56787 53.6093 6.56787 54.5218V57.8262C6.56787 58.7386 7.30301 59.4783 8.20985 59.4783H32.8395C33.7463 59.4783 34.4815 58.7386 34.4815 57.8262V54.5218C34.4815 53.6093 33.7463 52.8696 32.8395 52.8696Z" fill="#FAFAFD"/>
<path d="M32.8395 83.4348H8.20985C7.30301 83.4348 6.56787 84.1745 6.56787 85.087V88.3913C6.56787 89.3038 7.30301 90.0435 8.20985 90.0435H32.8395C33.7463 90.0435 34.4815 89.3038 34.4815 88.3913V85.087C34.4815 84.1745 33.7463 83.4348 32.8395 83.4348Z" fill="#FAFAFD"/>
<path d="M82.1825 61.9565H8.62034C7.48679 61.9565 6.56787 62.8812 6.56787 64.0218C6.56787 65.1623 7.48679 66.087 8.62034 66.087H82.1825C83.316 66.087 84.2349 65.1623 84.2349 64.0218C84.2349 62.8812 83.316 61.9565 82.1825 61.9565Z" fill="#FAFAFD"/>
<path d="M82.1825 92.5217H8.62034C7.48679 92.5217 6.56787 93.4464 6.56787 94.5869C6.56787 95.7275 7.48679 96.6522 8.62034 96.6522H82.1825C83.316 96.6522 84.2349 95.7275 84.2349 94.5869C84.2349 93.4464 83.316 92.5217 82.1825 92.5217Z" fill="#FAFAFD"/>
<path d="M71.0154 68.5654H8.62034C7.48679 68.5654 6.56787 69.4901 6.56787 70.6306C6.56787 71.7712 7.48679 72.6959 8.62034 72.6959H71.0154C72.1489 72.6959 73.0679 71.7712 73.0679 70.6306C73.0679 69.4901 72.1489 68.5654 71.0154 68.5654Z" fill="#FAFAFD"/>
<path d="M71.0154 99.1306H8.62034C7.48679 99.1306 6.56787 100.055 6.56787 101.196C6.56787 102.336 7.48679 103.261 8.62034 103.261H71.0154C72.1489 103.261 73.0679 102.336 73.0679 101.196C73.0679 100.055 72.1489 99.1306 71.0154 99.1306Z" fill="#FAFAFD"/>
<path d="M41.4598 105.739H8.62034C7.48679 105.739 6.56787 106.664 6.56787 107.804C6.56787 108.945 7.48679 109.869 8.62034 109.869H41.4598C42.5934 109.869 43.5123 108.945 43.5123 107.804C43.5123 106.664 42.5934 105.739 41.4598 105.739Z" fill="#FAFAFD"/>
<path d="M0.821045 4.13052C0.821045 2.30558 2.29132 0.826172 4.105 0.826172H128.895C130.709 0.826172 132.179 2.30558 132.179 4.13052V9.91313H0.821045V4.13052Z" fill="#EFF0F7"/>
<path fill-rule="evenodd" clip-rule="evenodd" d="M9.03078 4.95662C9.03078 5.86909 8.29566 6.60879 7.3888 6.60879C6.48196 6.60879 5.74683 5.86909 5.74683 4.95662C5.74683 4.04415 6.48196 3.30444 7.3888 3.30444C8.29566 3.30444 9.03078 4.04415 9.03078 4.95662ZM14.7777 4.95662C14.7777 5.86909 14.0426 6.60879 13.1357 6.60879C12.2289 6.60879 11.4937 5.86909 11.4937 4.95662C11.4937 4.04415 12.2289 3.30444 13.1357 3.30444C14.0426 3.30444 14.7777 4.04415 14.7777 4.95662ZM18.8826 6.60879C19.7895 6.60879 20.5246 5.86909 20.5246 4.95662C20.5246 4.04415 19.7895 3.30444 18.8826 3.30444C17.9758 3.30444 17.2407 4.04415 17.2407 4.95662C17.2407 5.86909 17.9758 6.60879 18.8826 6.60879Z" fill="#D1D3DA"/>
<path d="M123.969 34.2827H67.321C66.1875 34.2827 65.2686 35.2073 65.2686 36.3479V104.913C65.2686 106.054 66.1875 106.978 67.321 106.978H123.969C125.103 106.978 126.022 106.054 126.022 104.913V36.3479C126.022 35.2073 125.103 34.2827 123.969 34.2827Z" fill="#DBE6FC" stroke="#C3D6FE"/>
<path d="M104.257 85.1638H87.0323C84.6861 85.1638 82.7842 87.0776 82.7842 89.4383C82.7842 91.7991 84.6861 93.7128 87.0323 93.7128H104.257C106.603 93.7128 108.505 91.7991 108.505 89.4383C108.505 87.0776 106.603 85.1638 104.257 85.1638Z" fill="#013A4F"/>
<path d="M119.724 70.9155H71.5663C70.6595 70.9155 69.9243 71.6552 69.9243 72.5677V77.8124C69.9243 78.7248 70.6595 79.4645 71.5663 79.4645H119.724C120.631 79.4645 121.366 78.7248 121.366 77.8124V72.5677C121.366 71.6552 120.631 70.9155 119.724 70.9155Z" fill="white"/>
<path d="M105.92 62.3665H85.3692C84.5871 62.3665 83.9531 63.0044 83.9531 63.7913C83.9531 64.5782 84.5871 65.2161 85.3692 65.2161H105.92C106.702 65.2161 107.336 64.5782 107.336 63.7913C107.336 63.0044 106.702 62.3665 105.92 62.3665Z" fill="white"/>
<path d="M112.156 54.3872H79.1346C78.3525 54.3872 77.7185 55.0251 77.7185 55.812C77.7185 56.599 78.3525 57.2369 79.1346 57.2369H112.156C112.938 57.2369 113.572 56.599 113.572 55.812C113.572 55.0251 112.938 54.3872 112.156 54.3872Z" fill="white"/>
<path d="M103.086 47.5479H88.2044C87.5787 47.5479 87.0715 48.0582 87.0715 48.6877V48.6877C87.0715 49.3173 87.5787 49.8276 88.2044 49.8276H103.086C103.712 49.8276 104.219 49.3173 104.219 48.6877C104.219 48.0582 103.712 47.5479 103.086 47.5479Z" fill="white"/>
</g>
<defs>
<clipPath id="clip0_101_196">
<rect width="133" height="114" fill="white"/>
</clipPath>
</defs>
</svg>
