<svg width="133" height="113" viewBox="0 0 133 113" fill="none" xmlns="http://www.w3.org/2000/svg">
<g clip-path="url(#clip0_101_192)">
<path d="M128.895 0H4.10494C1.83784 0 0 1.83304 0 4.0942V108.906C0 111.167 1.83784 113 4.10494 113H128.895C131.162 113 133 111.167 133 108.906V4.0942C133 1.83304 131.162 0 128.895 0Z" fill="#F3F3F3"/>
<path d="M124.79 16.3767H8.20985C7.30301 16.3767 6.56787 17.1099 6.56787 18.0144V44.2173C6.56787 45.1218 7.30301 45.855 8.20985 45.855H124.79C125.697 45.855 126.432 45.1218 126.432 44.2173V18.0144C126.432 17.1099 125.697 16.3767 124.79 16.3767Z" fill="#FAFAFD"/>
<path d="M124.79 52.4058H90.3087C89.4019 52.4058 88.6667 53.139 88.6667 54.0434V74.5145C88.6667 75.4189 89.4019 76.1521 90.3087 76.1521H124.79C125.697 76.1521 126.432 75.4189 126.432 74.5145V54.0434C126.432 53.139 125.697 52.4058 124.79 52.4058Z" fill="#FAFAFD"/>
<path d="M124.79 82.7029H90.3087C89.4019 82.7029 88.6667 83.4361 88.6667 84.3406V104.812C88.6667 105.716 89.4019 106.449 90.3087 106.449H124.79C125.697 106.449 126.432 105.716 126.432 104.812V84.3406C126.432 83.4361 125.697 82.7029 124.79 82.7029Z" fill="#FAFAFD"/>
<path d="M32.8395 52.4058H8.20985C7.30301 52.4058 6.56787 53.139 6.56787 54.0434V57.3188C6.56787 58.2233 7.30301 58.9565 8.20985 58.9565H32.8395C33.7463 58.9565 34.4815 58.2233 34.4815 57.3188V54.0434C34.4815 53.139 33.7463 52.4058 32.8395 52.4058Z" fill="#FAFAFD"/>
<path d="M32.8395 82.7029H8.20985C7.30301 82.7029 6.56787 83.4361 6.56787 84.3406V87.6159C6.56787 88.5204 7.30301 89.2536 8.20985 89.2536H32.8395C33.7463 89.2536 34.4815 88.5204 34.4815 87.6159V84.3406C34.4815 83.4361 33.7463 82.7029 32.8395 82.7029Z" fill="#FAFAFD"/>
<path d="M82.1825 61.4131H8.62034C7.48679 61.4131 6.56787 62.3296 6.56787 63.4602C6.56787 64.5908 7.48679 65.5073 8.62034 65.5073H82.1825C83.316 65.5073 84.2349 64.5908 84.2349 63.4602C84.2349 62.3296 83.316 61.4131 82.1825 61.4131Z" fill="#FAFAFD"/>
<path d="M82.1825 91.7102H8.62034C7.48679 91.7102 6.56787 92.6267 6.56787 93.7573C6.56787 94.8879 7.48679 95.8044 8.62034 95.8044H82.1825C83.316 95.8044 84.2349 94.8879 84.2349 93.7573C84.2349 92.6267 83.316 91.7102 82.1825 91.7102Z" fill="#FAFAFD"/>
<path d="M71.0154 67.9639H8.62034C7.48679 67.9639 6.56787 68.8804 6.56787 70.011C6.56787 71.1416 7.48679 72.0581 8.62034 72.0581H71.0154C72.1489 72.0581 73.0679 71.1416 73.0679 70.011C73.0679 68.8804 72.1489 67.9639 71.0154 67.9639Z" fill="#FAFAFD"/>
<path d="M71.0154 98.2607H8.62034C7.48679 98.2607 6.56787 99.1773 6.56787 100.308C6.56787 101.438 7.48679 102.355 8.62034 102.355H71.0154C72.1489 102.355 73.0679 101.438 73.0679 100.308C73.0679 99.1773 72.1489 98.2607 71.0154 98.2607Z" fill="#FAFAFD"/>
<path d="M41.4598 104.812H8.62034C7.48679 104.812 6.56787 105.728 6.56787 106.859C6.56787 107.989 7.48679 108.906 8.62034 108.906H41.4598C42.5934 108.906 43.5123 107.989 43.5123 106.859C43.5123 105.728 42.5934 104.812 41.4598 104.812Z" fill="#FAFAFD"/>
<path d="M0 4.0942C0 1.83304 1.83785 0 4.10494 0H128.895C131.162 0 133 1.83304 133 4.0942V9.82609H0V4.0942Z" fill="#EFF0F7"/>
<path fill-rule="evenodd" clip-rule="evenodd" d="M9.03078 4.91307C9.03078 5.81754 8.29566 6.55075 7.3888 6.55075C6.48196 6.55075 5.74683 5.81754 5.74683 4.91307C5.74683 4.00861 6.48196 3.27539 7.3888 3.27539C8.29566 3.27539 9.03078 4.00861 9.03078 4.91307ZM14.7777 4.91307C14.7777 5.81754 14.0426 6.55075 13.1357 6.55075C12.2289 6.55075 11.4937 5.81754 11.4937 4.91307C11.4937 4.00861 12.2289 3.27539 13.1357 3.27539C14.0426 3.27539 14.7777 4.00861 14.7777 4.91307ZM18.8826 6.55075C19.7895 6.55075 20.5246 5.81754 20.5246 4.91307C20.5246 4.00861 19.7895 3.27539 18.8826 3.27539C17.9758 3.27539 17.2407 4.00861 17.2407 4.91307C17.2407 5.81754 17.9758 6.55075 18.8826 6.55075Z" fill="#D1D3DA"/>
<path d="M129.716 12.6921H3.28391C2.15037 12.6921 1.23145 13.6087 1.23145 14.7392V29.4784C1.23145 30.609 2.15037 31.5255 3.28391 31.5255H129.716C130.85 31.5255 131.768 30.609 131.768 29.4784V14.7392C131.768 13.6087 130.85 12.6921 129.716 12.6921Z" fill="#DBE6FC" stroke="#C3D6FE"/>
<path d="M121.59 17.1956H103.528C101.261 17.1956 99.4233 19.0286 99.4233 21.2898C99.4233 23.5509 101.261 25.384 103.528 25.384H121.59C123.857 25.384 125.695 23.5509 125.695 21.2898C125.695 19.0286 123.857 17.1956 121.59 17.1956Z" fill="#013A4F"/>
<path d="M78.4141 18.0144H38.2237C37.5435 18.0144 36.9922 18.5643 36.9922 19.2427C36.9922 19.921 37.5435 20.4709 38.2237 20.4709H78.4141C79.0943 20.4709 79.6456 19.921 79.6456 19.2427C79.6456 18.5643 79.0943 18.0144 78.4141 18.0144Z" fill="white"/>
<path d="M91.921 22.9275H38.2237C37.5435 22.9275 36.9922 23.4774 36.9922 24.1558C36.9922 24.8341 37.5435 25.384 38.2237 25.384H91.921C92.6011 25.384 93.1525 24.8341 93.1525 24.1558C93.1525 23.4774 92.6011 22.9275 91.921 22.9275Z" fill="white"/>
<path d="M25.4506 18.8333H9.03089C8.12405 18.8333 7.38892 19.5665 7.38892 20.4709V22.1086C7.38892 23.0131 8.12405 23.7463 9.03089 23.7463H25.4506C26.3575 23.7463 27.0926 23.0131 27.0926 22.1086V20.4709C27.0926 19.5665 26.3575 18.8333 25.4506 18.8333Z" fill="white"/>
</g>
<defs>
<clipPath id="clip0_101_192">
<rect width="133" height="113" fill="white"/>
</clipPath>
</defs>
</svg>
