<svg width="133" height="113" viewBox="0 0 133 113" fill="none" xmlns="http://www.w3.org/2000/svg">
<g clip-path="url(#clip0_101_193)">
<path d="M128.895 0H4.10494C1.83784 0 0 1.83304 0 4.0942V108.906C0 111.167 1.83784 113 4.10494 113H128.895C131.162 113 133 111.167 133 108.906V4.0942C133 1.83304 131.162 0 128.895 0Z" fill="#F3F3F3"/>
<path d="M124.79 16.3767H8.20985C7.30301 16.3767 6.56787 17.1099 6.56787 18.0144V44.2173C6.56787 45.1218 7.30301 45.855 8.20985 45.855H124.79C125.697 45.855 126.432 45.1218 126.432 44.2173V18.0144C126.432 17.1099 125.697 16.3767 124.79 16.3767Z" fill="#FAFAFD"/>
<path d="M124.79 52.4058H90.3085C89.4016 52.4058 88.6665 53.139 88.6665 54.0434V74.5145C88.6665 75.4189 89.4016 76.1521 90.3085 76.1521H124.79C125.697 76.1521 126.432 75.4189 126.432 74.5145V54.0434C126.432 53.139 125.697 52.4058 124.79 52.4058Z" fill="#FAFAFD"/>
<path d="M124.79 82.7029H90.3085C89.4016 82.7029 88.6665 83.4361 88.6665 84.3406V104.812C88.6665 105.716 89.4016 106.449 90.3085 106.449H124.79C125.697 106.449 126.432 105.716 126.432 104.812V84.3406C126.432 83.4361 125.697 82.7029 124.79 82.7029Z" fill="#FAFAFD"/>
<path d="M32.8395 52.4058H8.20985C7.30301 52.4058 6.56787 53.139 6.56787 54.0434V57.3188C6.56787 58.2233 7.30301 58.9565 8.20985 58.9565H32.8395C33.7463 58.9565 34.4814 58.2233 34.4814 57.3188V54.0434C34.4814 53.139 33.7463 52.4058 32.8395 52.4058Z" fill="#FAFAFD"/>
<path d="M32.8395 82.7029H8.20985C7.30301 82.7029 6.56787 83.4361 6.56787 84.3406V87.6159C6.56787 88.5204 7.30301 89.2536 8.20985 89.2536H32.8395C33.7463 89.2536 34.4814 88.5204 34.4814 87.6159V84.3406C34.4814 83.4361 33.7463 82.7029 32.8395 82.7029Z" fill="#FAFAFD"/>
<path d="M82.1825 61.4131H8.62034C7.48679 61.4131 6.56787 62.3296 6.56787 63.4602C6.56787 64.5908 7.48679 65.5073 8.62034 65.5073H82.1825C83.316 65.5073 84.2349 64.5908 84.2349 63.4602C84.2349 62.3296 83.316 61.4131 82.1825 61.4131Z" fill="#FAFAFD"/>
<path d="M82.1825 91.7102H8.62034C7.48679 91.7102 6.56787 92.6267 6.56787 93.7573C6.56787 94.8879 7.48679 95.8044 8.62034 95.8044H82.1825C83.316 95.8044 84.2349 94.8879 84.2349 93.7573C84.2349 92.6267 83.316 91.7102 82.1825 91.7102Z" fill="#FAFAFD"/>
<path d="M71.0154 67.9639H8.62034C7.48679 67.9639 6.56787 68.8804 6.56787 70.011C6.56787 71.1416 7.48679 72.0581 8.62034 72.0581H71.0154C72.1489 72.0581 73.0679 71.1416 73.0679 70.011C73.0679 68.8804 72.1489 67.9639 71.0154 67.9639Z" fill="#FAFAFD"/>
<path d="M71.0154 98.2607H8.62034C7.48679 98.2607 6.56787 99.1773 6.56787 100.308C6.56787 101.438 7.48679 102.355 8.62034 102.355H71.0154C72.1489 102.355 73.0679 101.438 73.0679 100.308C73.0679 99.1773 72.1489 98.2607 71.0154 98.2607Z" fill="#FAFAFD"/>
<path d="M41.4598 104.812H8.62034C7.48679 104.812 6.56787 105.728 6.56787 106.859C6.56787 107.989 7.48679 108.906 8.62034 108.906H41.4598C42.5934 108.906 43.5123 107.989 43.5123 106.859C43.5123 105.728 42.5934 104.812 41.4598 104.812Z" fill="#FAFAFD"/>
<path d="M0 4.0942C0 1.83304 1.83785 0 4.10494 0H128.895C131.162 0 133 1.83304 133 4.0942V9.82609H0V4.0942Z" fill="#EFF0F7"/>
<path fill-rule="evenodd" clip-rule="evenodd" d="M9.03102 4.91307C9.03102 5.81754 8.29591 6.55075 7.38905 6.55075C6.48221 6.55075 5.74707 5.81754 5.74707 4.91307C5.74707 4.00861 6.48221 3.27539 7.38905 3.27539C8.29591 3.27539 9.03102 4.00861 9.03102 4.91307ZM14.7779 4.91307C14.7779 5.81754 14.0428 6.55075 13.136 6.55075C12.2291 6.55075 11.494 5.81754 11.494 4.91307C11.494 4.00861 12.2291 3.27539 13.136 3.27539C14.0428 3.27539 14.7779 4.00861 14.7779 4.91307ZM18.8829 6.55075C19.7897 6.55075 20.5248 5.81754 20.5248 4.91307C20.5248 4.00861 19.7897 3.27539 18.8829 3.27539C17.976 3.27539 17.2409 4.00861 17.2409 4.91307C17.2409 5.81754 17.976 6.55075 18.8829 6.55075Z" fill="#D1D3DA"/>
<path d="M127.253 13.5107H5.74681C4.61326 13.5107 3.69434 14.4273 3.69434 15.5578V107.268C3.69434 108.399 4.61326 109.315 5.74681 109.315H127.253C128.387 109.315 129.305 108.399 129.305 107.268V15.5578C129.305 14.4273 128.387 13.5107 127.253 13.5107Z" fill="#DBE6FC" stroke="#C3D6FE"/>
<path d="M77.1728 88.4348H55.8271C53.56 88.4348 51.7222 90.2679 51.7222 92.529C51.7222 94.7902 53.56 96.6232 55.8271 96.6232H77.1728C79.4399 96.6232 81.2777 94.7902 81.2777 92.529C81.2777 90.2679 79.4399 88.4348 77.1728 88.4348Z" fill="#013A4F"/>
<path d="M94.414 74.5144H38.5868C37.68 74.5144 36.9448 75.2476 36.9448 76.1521V81.0651C36.9448 81.9696 37.68 82.7028 38.5868 82.7028H94.414C95.3208 82.7028 96.0559 81.9696 96.0559 81.0651V76.1521C96.0559 75.2476 95.3208 74.5144 94.414 74.5144Z" fill="white"/>
<path d="M81.2964 65.9136H51.7046C50.9226 65.9136 50.2886 66.5459 50.2886 67.3259C50.2886 68.1059 50.9226 68.7383 51.7046 68.7383H81.2964C82.0784 68.7383 82.7124 68.1059 82.7124 67.3259C82.7124 66.5459 82.0784 65.9136 81.2964 65.9136Z" fill="white"/>
<path d="M89.9426 58.0044H43.0581C42.2761 58.0044 41.6421 58.6367 41.6421 59.4167C41.6421 60.1968 42.2761 60.8291 43.0581 60.8291H89.9426C90.7247 60.8291 91.3586 60.1968 91.3586 59.4167C91.3586 58.6367 90.7247 58.0044 89.9426 58.0044Z" fill="white"/>
<path d="M76.352 26.2029H56.6483C55.7415 26.2029 55.0063 26.9361 55.0063 27.8406V29.4782C55.0063 30.3827 55.7415 31.1159 56.6483 31.1159H76.352C77.2589 31.1159 77.994 30.3827 77.994 29.4782V27.8406C77.994 26.9361 77.2589 26.2029 76.352 26.2029Z" fill="white"/>
<path d="M75.5307 36.8479H57.4689C57.0155 36.8479 56.6479 37.2145 56.6479 37.6667V50.7682C56.6479 51.2204 57.0155 51.587 57.4689 51.587H75.5307C75.9841 51.587 76.3517 51.2204 76.3517 50.7682V37.6667C76.3517 37.2145 75.9841 36.8479 75.5307 36.8479Z" stroke="white" stroke-width="2"/>
<path d="M69.373 40.9421H69.3813" stroke="white" stroke-width="1.5" stroke-linecap="round" stroke-linejoin="round"/>
<path d="M73.8889 47.4927H59.9321" stroke="white" stroke-width="1.5" stroke-linecap="round" stroke-linejoin="round"/>
<path d="M59.9321 47.4928L63.6266 43.3986C64.001 43.0392 64.4257 42.8501 64.8581 42.8501C65.2904 42.8501 65.7151 43.0392 66.0895 43.3986L70.1945 47.4928" stroke="white" stroke-width="1.5" stroke-linecap="round" stroke-linejoin="round"/>
<path d="M68.5527 45.8549L69.3737 45.0361C69.7482 44.6767 70.1729 44.4875 70.6052 44.4875C71.0375 44.4875 71.4622 44.6767 71.8367 45.0361L73.8892 47.4926" stroke="white" stroke-width="1.5" stroke-linecap="round" stroke-linejoin="round"/>
</g>
<defs>
<clipPath id="clip0_101_193">
<rect width="133" height="113" fill="white"/>
</clipPath>
</defs>
</svg>
