<svg width="6" height="5" viewBox="0 0 6 5" fill="none" xmlns="http://www.w3.org/2000/svg">
<path d="M5.49277 0.31827C5.45558 0.280779 5.41134 0.251021 5.3626 0.230714C5.31386 0.210406 5.26157 0.199951 5.20877 0.199951C5.15596 0.199951 5.10368 0.210406 5.05494 0.230714C5.00619 0.251021 4.96195 0.280779 4.92477 0.31827L1.94477 3.30227L0.692769 2.04627C0.65416 2.00897 0.608584 1.97965 0.558642 1.95997C0.5087 1.94029 0.45537 1.93063 0.401698 1.93156C0.348026 1.93249 0.295062 1.94398 0.24583 1.96538C0.196599 1.98678 0.152064 2.01766 0.114769 2.05627C0.0774735 2.09488 0.0481479 2.14046 0.0284664 2.1904C0.00878477 2.24034 -0.000867419 2.29367 6.11674e-05 2.34734C0.000989754 2.40101 0.0124809 2.45398 0.0338783 2.50321C0.0552757 2.55244 0.0861603 2.59698 0.124769 2.63427L1.66077 4.17027C1.69795 4.20776 1.74219 4.23752 1.79094 4.25783C1.83968 4.27813 1.89196 4.28859 1.94477 4.28859C1.99757 4.28859 2.04986 4.27813 2.0986 4.25783C2.14734 4.23752 2.19158 4.20776 2.22877 4.17027L5.49277 0.906271C5.53337 0.868814 5.56577 0.823353 5.58794 0.772753C5.6101 0.722153 5.62154 0.667511 5.62154 0.612271C5.62154 0.55703 5.6101 0.502388 5.58794 0.451788C5.56577 0.401188 5.53337 0.355727 5.49277 0.31827Z" fill="#004DA7"/>
</svg>
