<svg width="40" height="40" viewBox="0 0 40 40" fill="none" xmlns="http://www.w3.org/2000/svg">
<path d="M27.5 12.5C27.5 14.4891 26.7098 16.3968 25.3033 17.8033C23.8968 19.2098 21.9891 20 20 20C18.0109 20 16.1032 19.2098 14.6967 17.8033C13.2902 16.3968 12.5 14.4891 12.5 12.5C12.5 10.5109 13.2902 8.60322 14.6967 7.1967C16.1032 5.79018 18.0109 5 20 5C21.9891 5 23.8968 5.79018 25.3033 7.1967C26.7098 8.60322 27.5 10.5109 27.5 12.5ZM20 17.5C21.3261 17.5 22.5979 16.9732 23.5355 16.0355C24.4732 15.0979 25 13.8261 25 12.5C25 11.1739 24.4732 9.90215 23.5355 8.96447C22.5979 8.02678 21.3261 7.5 20 7.5C18.6739 7.5 17.4021 8.02678 16.4645 8.96447C15.5268 9.90215 15 11.1739 15 12.5C15 13.8261 15.5268 15.0979 16.4645 16.0355C17.4021 16.9732 18.6739 17.5 20 17.5ZM20.64 35C20.3532 34.1882 20.1611 33.3459 20.0675 32.49H7.5C7.5025 31.875 7.885 30.025 9.58 28.33C11.21 26.7 14.2775 25 20 25C20.65 25 21.2675 25.0225 21.85 25.0625C22.415 24.21 23.09 23.4375 23.86 22.7675C22.6925 22.595 21.41 22.5 20 22.5C7.5 22.5 5 30 5 32.5C5 35 7.5 35 7.5 35H20.64Z" fill="#2D464B"/>
<path d="M31.25 40C33.5706 40 35.7962 39.0781 37.4372 37.4372C39.0781 35.7962 40 33.5706 40 31.25C40 28.9294 39.0781 26.7038 37.4372 25.0628C35.7962 23.4219 33.5706 22.5 31.25 22.5C28.9294 22.5 26.7038 23.4219 25.0628 25.0628C23.4219 26.7038 22.5 28.9294 22.5 31.25C22.5 33.5706 23.4219 35.7962 25.0628 37.4372C26.7038 39.0781 28.9294 40 31.25 40ZM29.635 27.865L31.25 29.4825L32.865 27.865C33.0997 27.6303 33.4181 27.4984 33.75 27.4984C34.0819 27.4984 34.4003 27.6303 34.635 27.865C34.8697 28.0997 35.0016 28.4181 35.0016 28.75C35.0016 29.0819 34.8697 29.4003 34.635 29.635L33.0175 31.25L34.635 32.865C34.8697 33.0997 35.0016 33.4181 35.0016 33.75C35.0016 34.0819 34.8697 34.4003 34.635 34.635C34.4003 34.8697 34.0819 35.0016 33.75 35.0016C33.4181 35.0016 33.0997 34.8697 32.865 34.635L31.25 33.0175L29.635 34.635C29.4003 34.8697 29.0819 35.0016 28.75 35.0016C28.4181 35.0016 28.0997 34.8697 27.865 34.635C27.6303 34.4003 27.4984 34.0819 27.4984 33.75C27.4984 33.4181 27.6303 33.0997 27.865 32.865L29.4825 31.25L27.865 29.635C27.6303 29.4003 27.4984 29.0819 27.4984 28.75C27.4984 28.4181 27.6303 28.0997 27.865 27.865C28.0997 27.6303 28.4181 27.4984 28.75 27.4984C29.0819 27.4984 29.4003 27.6303 29.635 27.865Z" fill="#2D464B"/>
</svg>
