<svg width="40" height="40" viewBox="0 0 40 40" fill="none" xmlns="http://www.w3.org/2000/svg">
<g clip-path="url(#clip0_685_4893)">
<path d="M16.6004 3.33398C16.9668 3.33398 17.3181 3.47954 17.5772 3.73862C17.8363 3.9977 17.9819 4.3491 17.9819 4.7155V9.32054C17.9819 9.68694 17.8363 10.0383 17.5772 10.2974C17.3181 10.5565 16.9668 10.702 16.6004 10.702C16.234 10.702 15.8826 10.5565 15.6235 10.2974C15.3644 10.0383 15.2188 9.68694 15.2188 9.32054V4.7155C15.2188 4.3491 15.3644 3.9977 15.6235 3.73862C15.8826 3.47954 16.234 3.33398 16.6004 3.33398ZM7.79552 6.96276C8.05455 6.70404 8.40569 6.55873 8.77179 6.55873C9.13789 6.55873 9.48902 6.70404 9.74806 6.96276L12.9716 10.1863C13.1073 10.3128 13.2162 10.4653 13.2917 10.6347C13.3672 10.8042 13.4078 10.9871 13.4111 11.1726C13.4143 11.3581 13.3802 11.5424 13.3107 11.7144C13.2413 11.8864 13.1378 12.0427 13.0067 12.1739C12.8755 12.3051 12.7192 12.4085 12.5472 12.478C12.3752 12.5475 12.1909 12.5816 12.0054 12.5783C11.8199 12.575 11.637 12.5344 11.4675 12.4589C11.298 12.3834 11.1455 12.2746 11.019 12.1388L7.79552 8.91529C7.53681 8.65626 7.39149 8.30513 7.39149 7.93902C7.39149 7.57292 7.53681 7.22179 7.79552 6.96276ZM25.4052 6.96276C25.6639 7.22179 25.8092 7.57292 25.8092 7.93902C25.8092 8.30513 25.6639 8.65626 25.4052 8.91529L22.1817 12.1388C22.0552 12.2746 21.9027 12.3834 21.7332 12.4589C21.5637 12.5344 21.3808 12.575 21.1953 12.5783C21.0098 12.5816 20.8256 12.5475 20.6535 12.478C20.4815 12.4085 20.3252 12.3051 20.1941 12.1739C20.0629 12.0427 19.9595 11.8864 19.89 11.7144C19.8205 11.5424 19.7864 11.3581 19.7896 11.1726C19.7929 10.9871 19.8335 10.8042 19.909 10.6347C19.9845 10.4653 20.0934 10.3128 20.2291 10.1863L23.4527 6.96276C23.7117 6.70404 24.0628 6.55873 24.4289 6.55873C24.795 6.55873 25.1462 6.70404 25.4052 6.96276ZM4.16675 15.7676C4.16675 15.4012 4.3123 15.0498 4.57138 14.7907C4.83047 14.5316 5.18186 14.3861 5.54826 14.3861H10.1533C10.5197 14.3861 10.8711 14.5316 11.1302 14.7907C11.3893 15.0498 11.5348 15.4012 11.5348 15.7676C11.5348 16.134 11.3893 16.4854 11.1302 16.7445C10.8711 17.0036 10.5197 17.1491 10.1533 17.1491H5.54826C5.18186 17.1491 4.83047 17.0036 4.57138 16.7445C4.3123 16.4854 4.16675 16.134 4.16675 15.7676ZM19.2289 15.2813C17.654 13.9293 15.2188 15.0492 15.2188 17.1252V37.8921C15.2188 40.1209 17.9727 41.1745 19.4592 39.513L24.2742 34.1288C24.7826 33.5615 25.4973 33.2262 26.258 33.1949L33.3314 32.9112C35.5363 32.8228 36.4904 30.0764 34.8142 28.6378L19.2308 15.2813H19.2289ZM17.9819 37.0189V17.8509L32.3717 30.1851L26.1457 30.4337C25.4001 30.4639 24.6681 30.6434 23.9932 30.9617C23.3183 31.2801 22.7142 31.7306 22.2167 32.2868L17.9819 37.0189Z" fill="#2D464B"/>
</g>
<defs>
<clipPath id="clip0_685_4893">
<rect width="40" height="40" fill="white"/>
</clipPath>
</defs>
</svg>
