<svg width="26" height="17" viewBox="0 0 26 17" fill="none" xmlns="http://www.w3.org/2000/svg">
<path d="M13.0088 16.0083C12.7796 15.7486 12.665 15.4181 12.665 15.0167C12.665 14.6153 12.7796 14.2847 13.0088 14.025L16.6338 9.91667H1.38379C1.02963 9.91667 0.732543 9.78067 0.492543 9.50867C0.252543 9.23667 0.13296 8.90044 0.133793 8.5C0.133793 8.09861 0.253793 7.76192 0.493793 7.48992C0.733793 7.21792 1.03046 7.08239 1.38379 7.08333H16.6338L13.0088 2.975C12.7796 2.71528 12.665 2.38473 12.665 1.98334C12.665 1.58195 12.7796 1.25139 13.0088 0.991671C13.238 0.731949 13.5296 0.602088 13.8838 0.602088C14.238 0.602088 14.5296 0.731949 14.7588 0.991671L20.5088 7.50833C20.6338 7.65 20.7225 7.80347 20.775 7.96875C20.8275 8.13403 20.8534 8.31111 20.8525 8.5C20.8525 8.68889 20.8263 8.86597 20.7738 9.03125C20.7213 9.19653 20.633 9.35 20.5088 9.49167L14.7588 16.0083C14.5296 16.2681 14.238 16.3979 13.8838 16.3979C13.5296 16.3979 13.238 16.2681 13.0088 16.0083ZM23.8838 17C23.5296 17 23.2325 16.864 22.9925 16.592C22.7525 16.32 22.633 15.9838 22.6338 15.5833V1.41667C22.6338 1.01528 22.7538 0.678588 22.9938 0.406588C23.2338 0.134588 23.5305 -0.000939542 23.8838 4.90195e-06C24.238 4.90195e-06 24.535 0.136005 24.775 0.408005C25.015 0.680005 25.1346 1.01623 25.1338 1.41667V15.5833C25.1338 15.9847 25.0138 16.3214 24.7738 16.5934C24.5338 16.8654 24.2371 17.0009 23.8838 17Z" fill="#3B7580"/>
</svg>
