<svg width="250" height="107" viewBox="0 0 250 107" fill="none" xmlns="http://www.w3.org/2000/svg">
<path d="M0.842171 104.778C0.483022 104.242 0.224941 103.632 0.0951704 102.976L0.585664 102.879C0.529517 102.595 0.5 102.301 0.5 102V100.99H0V98.9688H0.5V96.9479H0V94.9271H0.5V92.9063H0V90.8854H0.5V88.8646H0V86.8438H0.5V84.8229H0V82.8021H0.5V80.7812H0V78.7604H0.5V76.7396H0V74.7187H0.5V72.6979H0V70.6771H0.5V68.6562H0V66.6354H0.5V64.6146H0V62.5937H0.5V60.5729H0V58.5521H0.5V56.5312H0V54.5104H0.5V52.4896H0V50.4688H0.5V48.4479H0V46.4271H0.5V44.4063H0V42.3854H0.5V40.3646H0V38.3438H0.5V36.3229H0V34.3021H0.5V32.2813H0V30.2604H0.5V28.2396H0V26.2188H0.5V24.1979H0V22.1771H0.5V20.1563H0V18.1354H0.5V16.1146H0V14.0938H0.5V12.0729H0V10.0521H0.5V8.03125H0V6.01042H0.5V5C0.5 4.69883 0.529517 4.40504 0.585664 4.12122L0.0951702 4.02419C0.224941 3.36822 0.483023 2.75838 0.842173 2.22192L1.25766 2.50008C1.58634 2.00913 2.00913 1.58634 2.50008 1.25766L2.22192 0.842173C2.75838 0.483023 3.36822 0.224942 4.02419 0.0951702L4.12122 0.585664C4.40504 0.529517 4.69883 0.5 5 0.5H6V0H8V0.5H10V0H12V0.5H14V0H16V0.5H18V0H20V0.5H22V0H24V0.5H26V0H28V0.5H30V0H32V0.5H34V0H36V0.5H38V0H40V0.5H42V0H44V0.5H46V0H48V0.5H50V0H52V0.5H54V0H56V0.5H58V0H60V0.5H62V0H64V0.5H66V0H68V0.5H70V0H72V0.5H74V0H76V0.5H78V0H80V0.5H82V0H84V0.5H86V0H88V0.5H90V0H92V0.5H94V0H96V0.5H98V0H100V0.5H102V0H104V0.5H106V0H108V0.5H110V0H112V0.5H114V0H116V0.5H118V0H120V0.5H122V0H124V0.5H126V0H128V0.5H130V0H132V0.5H134V0H136V0.5H138V0H140V0.5H142V0H144V0.5H146V0H148V0.5H150V0H152V0.5H154V0H156V0.5H158V0H160V0.5H162V0H164V0.5H166V0H168V0.5H170V0H172V0.5H174V0H176V0.5H178V0H180V0.5H182V0H184V0.5H186V0H188V0.5H190V0H192V0.5H194V0H196V0.5H198V0H200V0.5H202V0H204V0.5H206V0H208V0.5H210V0H212V0.5H214V0H216V0.5H218V0H220V0.5H222V0H224V0.5H226V0H228V0.5H230V0H232V0.5H234V0H236V0.5H238V0H240V0.5H242V0H244V0.5H245C245.301 0.5 245.595 0.529517 245.879 0.585664L245.976 0.0951694C246.632 0.224941 247.242 0.483023 247.778 0.842174L247.5 1.25766C247.991 1.58634 248.414 2.00913 248.742 2.50008L249.158 2.22192C249.517 2.75838 249.775 3.36822 249.905 4.02419L249.414 4.12122C249.47 4.40504 249.5 4.69883 249.5 5V6.0104H250V8.03123H249.5V10.0521H250V12.0729H249.5V14.0937H250V16.1146H249.5V18.1354H250V20.1563H249.5V22.1771H250V24.1979H249.5V26.2188H250V28.2396H249.5V30.2604H250V32.2813H249.5V34.3021H250V36.3229H249.5V38.3438H250V40.3646H249.5V42.3854H250V44.4063H249.5V46.4271H250V48.4479H249.5V50.4688H250V52.4896H249.5V54.5104H250V56.5313H249.5V58.5521H250V60.5729H249.5V62.5938H250V64.6146H249.5V66.6354H250V68.6562H249.5V70.6771H250V72.6979H249.5V74.7188H250V76.7396H249.5V78.7604H250V80.7813H249.5V82.8021H250V84.8229H249.5V86.8438H250V88.8646H249.5V90.8854H250V92.9063H249.5V94.9271H250V96.9479H249.5V98.9688H250V100.99H249.5V102C249.5 102.301 249.47 102.595 249.414 102.879L249.905 102.976C249.775 103.632 249.517 104.242 249.158 104.778L248.742 104.5C248.414 104.991 247.991 105.414 247.5 105.742L247.778 106.158C247.242 106.517 246.632 106.775 245.976 106.905L245.879 106.414C245.595 106.47 245.301 106.5 245 106.5H244V107H242V106.5H240V107H238V106.5H236V107H234V106.5H232V107H230V106.5H228V107H226V106.5H224V107H222V106.5H220V107H218V106.5H216V107H214V106.5H212V107H210V106.5H208V107H206V106.5H204V107H202V106.5H200V107H198V106.5H196V107H194V106.5H192V107H190V106.5H188V107H186V106.5H184V107H182V106.5H180V107H178V106.5H176V107H174V106.5H172V107H170V106.5H168V107H166V106.5H164V107H162V106.5H160V107H158V106.5H156V107H154V106.5H152V107H150V106.5H148V107H146V106.5H144V107H142V106.5H140V107H138V106.5H136V107H134V106.5H132V107H130V106.5H128V107H126V106.5H124V107H122V106.5H120V107H118V106.5H116V107H114V106.5H112V107H110V106.5H108V107H106V106.5H104V107H102V106.5H100V107H98V106.5H96V107H94V106.5H92V107H90V106.5H88V107H86V106.5H84V107H82V106.5H80V107H78V106.5H76V107H74V106.5H72V107H70V106.5H68V107H66V106.5H64V107H62V106.5H60V107H58V106.5H56V107H54V106.5H52V107H50V106.5H48V107H46V106.5H44V107H42V106.5H40V107H38V106.5H36V107H34V106.5H32V107H30V106.5H28V107H26V106.5H24V107H22V106.5H20V107H18V106.5H16V107H14V106.5H12V107H10V106.5H8V107H6V106.5H5C4.69882 106.5 4.40504 106.47 4.12122 106.414L4.02418 106.905C3.36821 106.775 2.75838 106.517 2.22192 106.158L2.50008 105.742C2.00913 105.414 1.58634 104.991 1.25766 104.5L0.842171 104.778Z" fill="white" stroke="#99B2C6" stroke-dasharray="2 2"/>
<g clip-path="url(#clip0_251_4752)">
<path d="M114.003 23.3125C114.003 22.55 114.306 21.8187 114.845 21.2796C115.384 20.7404 116.115 20.4375 116.878 20.4375H134.128C134.89 20.4375 135.622 20.7404 136.161 21.2796C136.7 21.8187 137.003 22.55 137.003 23.3125V37.6875C137.003 38.45 136.7 39.1813 136.161 39.7204C135.622 40.2596 134.89 40.5625 134.128 40.5625H116.878C116.115 40.5625 115.384 40.2596 114.845 39.7204C114.306 39.1813 114.003 38.45 114.003 37.6875V23.3125ZM115.44 36.25V37.6875C115.44 38.0687 115.592 38.4344 115.861 38.704C116.131 38.9735 116.497 39.125 116.878 39.125H134.128C134.509 39.125 134.875 38.9735 135.144 38.704C135.414 38.4344 135.565 38.0687 135.565 37.6875V32.6562L130.136 29.8574C130.001 29.7899 129.849 29.7665 129.7 29.7905C129.551 29.8145 129.413 29.8847 129.307 29.9911L123.973 35.3243L120.15 32.777C120.012 32.6851 119.846 32.6437 119.681 32.66C119.516 32.6762 119.362 32.7491 119.244 32.8661L115.44 36.25ZM122.628 26.9062C122.628 26.3344 122.401 25.7859 121.996 25.3816C121.592 24.9772 121.044 24.75 120.472 24.75C119.9 24.75 119.351 24.9772 118.947 25.3816C118.543 25.7859 118.315 26.3344 118.315 26.9062C118.315 27.4781 118.543 28.0266 118.947 28.4309C119.351 28.8353 119.9 29.0625 120.472 29.0625C121.044 29.0625 121.592 28.8353 121.996 28.4309C122.401 28.0266 122.628 27.4781 122.628 26.9062Z" fill="#2D464B"/>
</g>
<path d="M68.12 86.1C67.54 86.1 67.0533 86.0133 66.66 85.84C66.2667 85.66 65.9633 85.43 65.75 85.15C65.5433 84.8633 65.4333 84.56 65.42 84.24C65.42 84.1867 65.44 84.14 65.48 84.1C65.5267 84.0533 65.58 84.03 65.64 84.03H66.15C66.23 84.03 66.29 84.05 66.33 84.09C66.37 84.13 66.3967 84.1767 66.41 84.23C66.4433 84.39 66.5233 84.55 66.65 84.71C66.7833 84.8633 66.9667 84.9933 67.2 85.1C67.44 85.2 67.7467 85.25 68.12 85.25C68.6933 85.25 69.1133 85.15 69.38 84.95C69.6533 84.7433 69.79 84.47 69.79 84.13C69.79 83.8967 69.7167 83.71 69.57 83.57C69.43 83.4233 69.2133 83.2933 68.92 83.18C68.6267 83.0667 68.2467 82.9433 67.78 82.81C67.2933 82.67 66.89 82.5167 66.57 82.35C66.25 82.1833 66.01 81.9767 65.85 81.73C65.6967 81.4833 65.62 81.17 65.62 80.79C65.62 80.43 65.7167 80.11 65.91 79.83C66.1033 79.5433 66.38 79.3167 66.74 79.15C67.1067 78.9833 67.55 78.9 68.07 78.9C68.4833 78.9 68.8433 78.9567 69.15 79.07C69.4633 79.1767 69.7233 79.3233 69.93 79.51C70.1367 79.69 70.2933 79.8867 70.4 80.1C70.5067 80.3067 70.5633 80.51 70.57 80.71C70.57 80.7567 70.5533 80.8033 70.52 80.85C70.4867 80.89 70.4333 80.91 70.36 80.91H69.83C69.7833 80.91 69.7333 80.8967 69.68 80.87C69.6333 80.8433 69.5967 80.7933 69.57 80.72C69.53 80.4467 69.3767 80.2167 69.11 80.03C68.8433 79.8433 68.4967 79.75 68.07 79.75C67.6367 79.75 67.2833 79.8333 67.01 80C66.7433 80.1667 66.61 80.4267 66.61 80.78C66.61 81.0067 66.6733 81.1967 66.8 81.35C66.9267 81.4967 67.1267 81.6267 67.4 81.74C67.6733 81.8533 68.03 81.9733 68.47 82.1C69.0033 82.2467 69.44 82.4033 69.78 82.57C70.12 82.73 70.37 82.9333 70.53 83.18C70.6967 83.42 70.78 83.73 70.78 84.11C70.78 84.53 70.67 84.89 70.45 85.19C70.23 85.4833 69.92 85.71 69.52 85.87C69.1267 86.0233 68.66 86.1 68.12 86.1ZM73.9007 86.1C73.474 86.1 73.1107 86.0067 72.8107 85.82C72.5174 85.6267 72.294 85.36 72.1407 85.02C71.9874 84.68 71.9107 84.29 71.9107 83.85V81.03C71.9107 80.9633 71.9307 80.91 71.9707 80.87C72.0174 80.8233 72.074 80.8 72.1407 80.8H72.6407C72.7074 80.8 72.7607 80.8233 72.8007 80.87C72.8474 80.91 72.8707 80.9633 72.8707 81.03V83.8C72.8707 84.7933 73.304 85.29 74.1707 85.29C74.584 85.29 74.914 85.16 75.1607 84.9C75.414 84.6333 75.5407 84.2667 75.5407 83.8V81.03C75.5407 80.9633 75.5607 80.91 75.6007 80.87C75.6474 80.8233 75.704 80.8 75.7707 80.8H76.2607C76.334 80.8 76.3907 80.8233 76.4307 80.87C76.4707 80.91 76.4907 80.9633 76.4907 81.03V85.77C76.4907 85.8367 76.4707 85.8933 76.4307 85.94C76.3907 85.98 76.334 86 76.2607 86H75.8007C75.734 86 75.6774 85.98 75.6307 85.94C75.5907 85.8933 75.5707 85.8367 75.5707 85.77V85.33C75.3907 85.5633 75.1707 85.75 74.9107 85.89C74.6574 86.03 74.3207 86.1 73.9007 86.1ZM78.2163 87.9C78.1497 87.9 78.093 87.8767 78.0463 87.83C78.0063 87.79 77.9863 87.7367 77.9863 87.67V81.03C77.9863 80.9633 78.0063 80.91 78.0463 80.87C78.093 80.8233 78.1497 80.8 78.2163 80.8H78.6763C78.743 80.8 78.7963 80.8233 78.8363 80.87C78.883 80.91 78.9063 80.9633 78.9063 81.03V81.47C79.0663 81.25 79.2797 81.0667 79.5463 80.92C79.813 80.7733 80.1463 80.7 80.5463 80.7C80.9197 80.7 81.2363 80.7633 81.4963 80.89C81.763 81.0167 81.9797 81.19 82.1463 81.41C82.3197 81.63 82.4497 81.88 82.5363 82.16C82.623 82.44 82.6697 82.74 82.6763 83.06C82.683 83.1667 82.6863 83.28 82.6863 83.4C82.6863 83.52 82.683 83.6333 82.6763 83.74C82.6697 84.0533 82.623 84.3533 82.5363 84.64C82.4497 84.92 82.3197 85.17 82.1463 85.39C81.9797 85.6033 81.763 85.7767 81.4963 85.91C81.2363 86.0367 80.9197 86.1 80.5463 86.1C80.1597 86.1 79.833 86.03 79.5663 85.89C79.3063 85.7433 79.093 85.5633 78.9263 85.35V87.67C78.9263 87.7367 78.9063 87.79 78.8663 87.83C78.8263 87.8767 78.7697 87.9 78.6963 87.9H78.2163ZM80.3363 85.29C80.683 85.29 80.953 85.2167 81.1463 85.07C81.3463 84.9167 81.4897 84.72 81.5763 84.48C81.663 84.2333 81.713 83.97 81.7263 83.69C81.733 83.4967 81.733 83.3033 81.7263 83.11C81.713 82.83 81.663 82.57 81.5763 82.33C81.4897 82.0833 81.3463 81.8867 81.1463 81.74C80.953 81.5867 80.683 81.51 80.3363 81.51C80.0097 81.51 79.743 81.5867 79.5363 81.74C79.3363 81.8933 79.1863 82.09 79.0863 82.33C78.993 82.5633 78.9397 82.8033 78.9263 83.05C78.9197 83.1567 78.9163 83.2833 78.9163 83.43C78.9163 83.5767 78.9197 83.7067 78.9263 83.82C78.933 84.0533 78.9863 84.2833 79.0863 84.51C79.193 84.7367 79.3497 84.9233 79.5563 85.07C79.763 85.2167 80.023 85.29 80.3363 85.29ZM84.1734 87.9C84.1067 87.9 84.05 87.8767 84.0034 87.83C83.9634 87.79 83.9434 87.7367 83.9434 87.67V81.03C83.9434 80.9633 83.9634 80.91 84.0034 80.87C84.05 80.8233 84.1067 80.8 84.1734 80.8H84.6334C84.7 80.8 84.7534 80.8233 84.7934 80.87C84.84 80.91 84.8634 80.9633 84.8634 81.03V81.47C85.0234 81.25 85.2367 81.0667 85.5034 80.92C85.77 80.7733 86.1034 80.7 86.5034 80.7C86.8767 80.7 87.1934 80.7633 87.4534 80.89C87.72 81.0167 87.9367 81.19 88.1034 81.41C88.2767 81.63 88.4067 81.88 88.4934 82.16C88.58 82.44 88.6267 82.74 88.6334 83.06C88.64 83.1667 88.6434 83.28 88.6434 83.4C88.6434 83.52 88.64 83.6333 88.6334 83.74C88.6267 84.0533 88.58 84.3533 88.4934 84.64C88.4067 84.92 88.2767 85.17 88.1034 85.39C87.9367 85.6033 87.72 85.7767 87.4534 85.91C87.1934 86.0367 86.8767 86.1 86.5034 86.1C86.1167 86.1 85.79 86.03 85.5234 85.89C85.2634 85.7433 85.05 85.5633 84.8834 85.35V87.67C84.8834 87.7367 84.8634 87.79 84.8234 87.83C84.7834 87.8767 84.7267 87.9 84.6534 87.9H84.1734ZM86.2934 85.29C86.64 85.29 86.91 85.2167 87.1034 85.07C87.3034 84.9167 87.4467 84.72 87.5334 84.48C87.62 84.2333 87.67 83.97 87.6834 83.69C87.69 83.4967 87.69 83.3033 87.6834 83.11C87.67 82.83 87.62 82.57 87.5334 82.33C87.4467 82.0833 87.3034 81.8867 87.1034 81.74C86.91 81.5867 86.64 81.51 86.2934 81.51C85.9667 81.51 85.7 81.5867 85.4934 81.74C85.2934 81.8933 85.1434 82.09 85.0434 82.33C84.95 82.5633 84.8967 82.8033 84.8834 83.05C84.8767 83.1567 84.8734 83.2833 84.8734 83.43C84.8734 83.5767 84.8767 83.7067 84.8834 83.82C84.89 84.0533 84.9434 84.2833 85.0434 84.51C85.15 84.7367 85.3067 84.9233 85.5134 85.07C85.72 85.2167 85.98 85.29 86.2934 85.29ZM92.0204 86.1C91.5137 86.1 91.0904 86.0033 90.7504 85.81C90.4104 85.6167 90.1504 85.35 89.9704 85.01C89.7904 84.6633 89.6904 84.27 89.6704 83.83C89.6637 83.7167 89.6604 83.5733 89.6604 83.4C89.6604 83.22 89.6637 83.0767 89.6704 82.97C89.6904 82.5233 89.7904 82.13 89.9704 81.79C90.1571 81.45 90.4204 81.1833 90.7604 80.99C91.1004 80.7967 91.5204 80.7 92.0204 80.7C92.5204 80.7 92.9404 80.7967 93.2804 80.99C93.6204 81.1833 93.8804 81.45 94.0604 81.79C94.2471 82.13 94.3504 82.5233 94.3704 82.97C94.3771 83.0767 94.3804 83.22 94.3804 83.4C94.3804 83.5733 94.3771 83.7167 94.3704 83.83C94.3504 84.27 94.2504 84.6633 94.0704 85.01C93.8904 85.35 93.6304 85.6167 93.2904 85.81C92.9504 86.0033 92.5271 86.1 92.0204 86.1ZM92.0204 85.33C92.4337 85.33 92.7637 85.2 93.0104 84.94C93.2571 84.6733 93.3904 84.2867 93.4104 83.78C93.4171 83.68 93.4204 83.5533 93.4204 83.4C93.4204 83.2467 93.4171 83.12 93.4104 83.02C93.3904 82.5133 93.2571 82.13 93.0104 81.87C92.7637 81.6033 92.4337 81.47 92.0204 81.47C91.6071 81.47 91.2737 81.6033 91.0204 81.87C90.7737 82.13 90.6437 82.5133 90.6304 83.02C90.6237 83.12 90.6204 83.2467 90.6204 83.4C90.6204 83.5533 90.6237 83.68 90.6304 83.78C90.6437 84.2867 90.7737 84.6733 91.0204 84.94C91.2737 85.2 91.6071 85.33 92.0204 85.33ZM95.8626 86C95.7959 86 95.7392 85.98 95.6926 85.94C95.6526 85.8933 95.6326 85.8367 95.6326 85.77V81.04C95.6326 80.9733 95.6526 80.9167 95.6926 80.87C95.7392 80.8233 95.7959 80.8 95.8626 80.8H96.3226C96.3892 80.8 96.4459 80.8233 96.4926 80.87C96.5392 80.9167 96.5626 80.9733 96.5626 81.04V81.48C96.6959 81.2533 96.8792 81.0833 97.1126 80.97C97.3459 80.8567 97.6259 80.8 97.9526 80.8H98.3526C98.4192 80.8 98.4726 80.8233 98.5126 80.87C98.5526 80.91 98.5726 80.9633 98.5726 81.03V81.44C98.5726 81.5067 98.5526 81.56 98.5126 81.6C98.4726 81.64 98.4192 81.66 98.3526 81.66H97.7526C97.3926 81.66 97.1092 81.7667 96.9026 81.98C96.6959 82.1867 96.5926 82.47 96.5926 82.83V85.77C96.5926 85.8367 96.5692 85.8933 96.5226 85.94C96.4759 85.98 96.4192 86 96.3526 86H95.8626ZM101.461 86C101.088 86 100.785 85.93 100.551 85.79C100.318 85.6433 100.148 85.44 100.041 85.18C99.9347 84.9133 99.8814 84.6 99.8814 84.24V81.6H99.1014C99.0347 81.6 98.9781 81.58 98.9314 81.54C98.8914 81.4933 98.8714 81.4367 98.8714 81.37V81.03C98.8714 80.9633 98.8914 80.91 98.9314 80.87C98.9781 80.8233 99.0347 80.8 99.1014 80.8H99.8814V79.13C99.8814 79.0633 99.9014 79.01 99.9414 78.97C99.9881 78.9233 100.045 78.9 100.111 78.9H100.581C100.648 78.9 100.701 78.9233 100.741 78.97C100.788 79.01 100.811 79.0633 100.811 79.13V80.8H102.051C102.118 80.8 102.171 80.8233 102.211 80.87C102.258 80.91 102.281 80.9633 102.281 81.03V81.37C102.281 81.4367 102.258 81.4933 102.211 81.54C102.171 81.58 102.118 81.6 102.051 81.6H100.811V84.17C100.811 84.4833 100.865 84.73 100.971 84.91C101.078 85.09 101.268 85.18 101.541 85.18H102.151C102.218 85.18 102.271 85.2033 102.311 85.25C102.358 85.29 102.381 85.3433 102.381 85.41V85.77C102.381 85.8367 102.358 85.8933 102.311 85.94C102.271 85.98 102.218 86 102.151 86H101.461ZM105.138 86.1C104.764 86.1 104.444 86.0533 104.178 85.96C103.911 85.8667 103.694 85.7533 103.528 85.62C103.361 85.4867 103.234 85.3533 103.148 85.22C103.068 85.0867 103.024 84.98 103.018 84.9C103.011 84.8267 103.034 84.77 103.088 84.73C103.141 84.69 103.194 84.67 103.248 84.67H103.688C103.728 84.67 103.758 84.6767 103.778 84.69C103.804 84.6967 103.838 84.7233 103.878 84.77C103.964 84.8633 104.061 84.9567 104.168 85.05C104.274 85.1433 104.404 85.22 104.558 85.28C104.718 85.34 104.914 85.37 105.148 85.37C105.488 85.37 105.768 85.3067 105.988 85.18C106.208 85.0467 106.318 84.8533 106.318 84.6C106.318 84.4333 106.271 84.3 106.178 84.2C106.091 84.1 105.931 84.01 105.698 83.93C105.471 83.85 105.158 83.7667 104.758 83.68C104.358 83.5867 104.041 83.4733 103.808 83.34C103.574 83.2 103.408 83.0367 103.308 82.85C103.208 82.6567 103.158 82.44 103.158 82.2C103.158 81.9533 103.231 81.7167 103.378 81.49C103.524 81.2567 103.738 81.0667 104.018 80.92C104.304 80.7733 104.661 80.7 105.088 80.7C105.434 80.7 105.731 80.7433 105.978 80.83C106.224 80.9167 106.428 81.0267 106.588 81.16C106.748 81.2867 106.868 81.4133 106.948 81.54C107.028 81.6667 107.071 81.7733 107.078 81.86C107.084 81.9267 107.064 81.9833 107.018 82.03C106.971 82.07 106.918 82.09 106.858 82.09H106.438C106.391 82.09 106.351 82.08 106.318 82.06C106.291 82.04 106.264 82.0167 106.238 81.99C106.171 81.9033 106.091 81.8167 105.998 81.73C105.911 81.6433 105.794 81.5733 105.648 81.52C105.508 81.46 105.321 81.43 105.088 81.43C104.754 81.43 104.504 81.5 104.338 81.64C104.171 81.78 104.088 81.9567 104.088 82.17C104.088 82.2967 104.124 82.41 104.198 82.51C104.271 82.61 104.411 82.7 104.618 82.78C104.824 82.86 105.131 82.9467 105.538 83.04C105.978 83.1267 106.324 83.2433 106.578 83.39C106.831 83.5367 107.011 83.7067 107.118 83.9C107.224 84.0933 107.278 84.3167 107.278 84.57C107.278 84.85 107.194 85.1067 107.028 85.34C106.868 85.5733 106.628 85.76 106.308 85.9C105.994 86.0333 105.604 86.1 105.138 86.1ZM113.096 86.1C112.756 86.1 112.433 86.06 112.126 85.98C111.826 85.8933 111.556 85.7633 111.316 85.59C111.083 85.41 110.896 85.1867 110.756 84.92C110.616 84.6533 110.54 84.34 110.526 83.98C110.526 83.92 110.546 83.87 110.586 83.83C110.626 83.7833 110.68 83.76 110.746 83.76H111.286C111.36 83.76 111.416 83.7833 111.456 83.83C111.503 83.87 111.533 83.9233 111.546 83.99C111.573 84.29 111.66 84.5333 111.806 84.72C111.953 84.9 112.14 85.0333 112.366 85.12C112.593 85.2067 112.843 85.25 113.116 85.25C113.623 85.25 114.01 85.0833 114.276 84.75C114.543 84.4167 114.676 83.9733 114.676 83.42V79.87H111.126C111.06 79.87 111.003 79.85 110.956 79.81C110.916 79.7633 110.896 79.7067 110.896 79.64V79.23C110.896 79.1633 110.916 79.11 110.956 79.07C111.003 79.0233 111.06 79 111.126 79H115.436C115.51 79 115.566 79.0233 115.606 79.07C115.653 79.11 115.676 79.1667 115.676 79.24V83.44C115.676 83.98 115.573 84.45 115.366 84.85C115.16 85.25 114.866 85.56 114.486 85.78C114.106 85.9933 113.643 86.1 113.096 86.1ZM117.584 86C117.511 86 117.454 85.98 117.414 85.94C117.374 85.8933 117.354 85.8367 117.354 85.77V79.24C117.354 79.1667 117.374 79.11 117.414 79.07C117.454 79.0233 117.511 79 117.584 79H120.124C120.618 79 121.044 79.08 121.404 79.24C121.771 79.4 122.054 79.64 122.254 79.96C122.454 80.2733 122.554 80.6667 122.554 81.14C122.554 81.6133 122.454 82.0067 122.254 82.32C122.054 82.6333 121.771 82.87 121.404 83.03C121.044 83.19 120.618 83.27 120.124 83.27H118.354V85.77C118.354 85.8367 118.331 85.8933 118.284 85.94C118.244 85.98 118.188 86 118.114 86H117.584ZM118.344 82.43H120.074C120.568 82.43 120.938 82.32 121.184 82.1C121.431 81.88 121.554 81.56 121.554 81.14C121.554 80.7267 121.434 80.4067 121.194 80.18C120.954 79.9533 120.581 79.84 120.074 79.84H118.344V82.43ZM126.31 86.1C125.724 86.1 125.224 85.99 124.81 85.77C124.404 85.55 124.09 85.24 123.87 84.84C123.657 84.44 123.537 83.97 123.51 83.43C123.504 83.1367 123.5 82.8267 123.5 82.5C123.5 82.1667 123.504 81.85 123.51 81.55C123.537 81.01 123.657 80.5433 123.87 80.15C124.09 79.7567 124.407 79.45 124.82 79.23C125.234 79.01 125.73 78.9 126.31 78.9C126.784 78.9 127.194 78.9667 127.54 79.1C127.887 79.2333 128.17 79.4033 128.39 79.61C128.617 79.81 128.784 80.02 128.89 80.24C129.004 80.46 129.064 80.6533 129.07 80.82C129.077 80.88 129.06 80.93 129.02 80.97C128.98 81.0033 128.927 81.02 128.86 81.02H128.27C128.204 81.02 128.154 81.0067 128.12 80.98C128.094 80.9533 128.067 80.9067 128.04 80.84C127.98 80.6667 127.88 80.4967 127.74 80.33C127.607 80.1633 127.424 80.0267 127.19 79.92C126.964 79.8067 126.67 79.75 126.31 79.75C125.784 79.75 125.357 79.8933 125.03 80.18C124.71 80.4667 124.537 80.94 124.51 81.6C124.49 82.1933 124.49 82.7867 124.51 83.38C124.537 84.0467 124.714 84.5267 125.04 84.82C125.367 85.1067 125.794 85.25 126.32 85.25C126.674 85.25 126.987 85.1867 127.26 85.06C127.54 84.9267 127.76 84.7233 127.92 84.45C128.08 84.1767 128.16 83.83 128.16 83.41V82.99H126.66C126.594 82.99 126.537 82.97 126.49 82.93C126.45 82.8833 126.43 82.8233 126.43 82.75V82.43C126.43 82.3567 126.45 82.3 126.49 82.26C126.537 82.2133 126.594 82.19 126.66 82.19H128.92C128.994 82.19 129.05 82.2133 129.09 82.26C129.13 82.3 129.15 82.3567 129.15 82.43V83.39C129.15 83.9367 129.037 84.4133 128.81 84.82C128.59 85.2267 128.267 85.5433 127.84 85.77C127.414 85.99 126.904 86.1 126.31 86.1ZM135.028 86.1C134.522 86.1 134.098 86.0033 133.758 85.81C133.418 85.6167 133.158 85.35 132.978 85.01C132.798 84.6633 132.698 84.27 132.678 83.83C132.672 83.7167 132.668 83.5733 132.668 83.4C132.668 83.22 132.672 83.0767 132.678 82.97C132.698 82.5233 132.798 82.13 132.978 81.79C133.165 81.45 133.428 81.1833 133.768 80.99C134.108 80.7967 134.528 80.7 135.028 80.7C135.528 80.7 135.948 80.7967 136.288 80.99C136.628 81.1833 136.888 81.45 137.068 81.79C137.255 82.13 137.358 82.5233 137.378 82.97C137.385 83.0767 137.388 83.22 137.388 83.4C137.388 83.5733 137.385 83.7167 137.378 83.83C137.358 84.27 137.258 84.6633 137.078 85.01C136.898 85.35 136.638 85.6167 136.298 85.81C135.958 86.0033 135.535 86.1 135.028 86.1ZM135.028 85.33C135.442 85.33 135.772 85.2 136.018 84.94C136.265 84.6733 136.398 84.2867 136.418 83.78C136.425 83.68 136.428 83.5533 136.428 83.4C136.428 83.2467 136.425 83.12 136.418 83.02C136.398 82.5133 136.265 82.13 136.018 81.87C135.772 81.6033 135.442 81.47 135.028 81.47C134.615 81.47 134.282 81.6033 134.028 81.87C133.782 82.13 133.652 82.5133 133.638 83.02C133.632 83.12 133.628 83.2467 133.628 83.4C133.628 83.5533 133.632 83.68 133.638 83.78C133.652 84.2867 133.782 84.6733 134.028 84.94C134.282 85.2 134.615 85.33 135.028 85.33ZM138.87 86C138.804 86 138.747 85.98 138.7 85.94C138.66 85.8933 138.64 85.8367 138.64 85.77V81.04C138.64 80.9733 138.66 80.9167 138.7 80.87C138.747 80.8233 138.804 80.8 138.87 80.8H139.33C139.397 80.8 139.454 80.8233 139.5 80.87C139.547 80.9167 139.57 80.9733 139.57 81.04V81.48C139.704 81.2533 139.887 81.0833 140.12 80.97C140.354 80.8567 140.634 80.8 140.96 80.8H141.36C141.427 80.8 141.48 80.8233 141.52 80.87C141.56 80.91 141.58 80.9633 141.58 81.03V81.44C141.58 81.5067 141.56 81.56 141.52 81.6C141.48 81.64 141.427 81.66 141.36 81.66H140.76C140.4 81.66 140.117 81.7667 139.91 81.98C139.704 82.1867 139.6 82.47 139.6 82.83V85.77C139.6 85.8367 139.577 85.8933 139.53 85.94C139.484 85.98 139.427 86 139.36 86H138.87ZM145.016 86C144.943 86 144.886 85.98 144.846 85.94C144.806 85.8933 144.786 85.8367 144.786 85.77V79.24C144.786 79.1667 144.806 79.11 144.846 79.07C144.886 79.0233 144.943 79 145.016 79H147.556C148.049 79 148.476 79.08 148.836 79.24C149.203 79.4 149.486 79.64 149.686 79.96C149.886 80.2733 149.986 80.6667 149.986 81.14C149.986 81.6133 149.886 82.0067 149.686 82.32C149.486 82.6333 149.203 82.87 148.836 83.03C148.476 83.19 148.049 83.27 147.556 83.27H145.786V85.77C145.786 85.8367 145.763 85.8933 145.716 85.94C145.676 85.98 145.619 86 145.546 86H145.016ZM145.776 82.43H147.506C147.999 82.43 148.369 82.32 148.616 82.1C148.863 81.88 148.986 81.56 148.986 81.14C148.986 80.7267 148.866 80.4067 148.626 80.18C148.386 79.9533 148.013 79.84 147.506 79.84H145.776V82.43ZM151.432 86C151.359 86 151.302 85.98 151.262 85.94C151.222 85.8933 151.202 85.8367 151.202 85.77V79.24C151.202 79.1667 151.222 79.11 151.262 79.07C151.302 79.0233 151.359 79 151.432 79H151.892C151.972 79 152.032 79.02 152.072 79.06C152.112 79.0933 152.135 79.12 152.142 79.14L155.462 84.24V79.24C155.462 79.1667 155.482 79.11 155.522 79.07C155.562 79.0233 155.619 79 155.692 79H156.172C156.245 79 156.302 79.0233 156.342 79.07C156.389 79.11 156.412 79.1667 156.412 79.24V85.76C156.412 85.8267 156.389 85.8833 156.342 85.93C156.302 85.9767 156.249 86 156.182 86H155.702C155.629 86 155.572 85.98 155.532 85.94C155.499 85.9 155.475 85.8733 155.462 85.86L152.152 80.81V85.77C152.152 85.8367 152.129 85.8933 152.082 85.94C152.042 85.98 151.985 86 151.912 86H151.432ZM160.685 86.1C160.099 86.1 159.599 85.99 159.185 85.77C158.779 85.55 158.465 85.24 158.245 84.84C158.032 84.44 157.912 83.97 157.885 83.43C157.879 83.1367 157.875 82.8267 157.875 82.5C157.875 82.1667 157.879 81.85 157.885 81.55C157.912 81.01 158.032 80.5433 158.245 80.15C158.465 79.7567 158.782 79.45 159.195 79.23C159.609 79.01 160.105 78.9 160.685 78.9C161.159 78.9 161.569 78.9667 161.915 79.1C162.262 79.2333 162.545 79.4033 162.765 79.61C162.992 79.81 163.159 80.02 163.265 80.24C163.379 80.46 163.439 80.6533 163.445 80.82C163.452 80.88 163.435 80.93 163.395 80.97C163.355 81.0033 163.302 81.02 163.235 81.02H162.645C162.579 81.02 162.529 81.0067 162.495 80.98C162.469 80.9533 162.442 80.9067 162.415 80.84C162.355 80.6667 162.255 80.4967 162.115 80.33C161.982 80.1633 161.799 80.0267 161.565 79.92C161.339 79.8067 161.045 79.75 160.685 79.75C160.159 79.75 159.732 79.8933 159.405 80.18C159.085 80.4667 158.912 80.94 158.885 81.6C158.865 82.1933 158.865 82.7867 158.885 83.38C158.912 84.0467 159.089 84.5267 159.415 84.82C159.742 85.1067 160.169 85.25 160.695 85.25C161.049 85.25 161.362 85.1867 161.635 85.06C161.915 84.9267 162.135 84.7233 162.295 84.45C162.455 84.1767 162.535 83.83 162.535 83.41V82.99H161.035C160.969 82.99 160.912 82.97 160.865 82.93C160.825 82.8833 160.805 82.8233 160.805 82.75V82.43C160.805 82.3567 160.825 82.3 160.865 82.26C160.912 82.2133 160.969 82.19 161.035 82.19H163.295C163.369 82.19 163.425 82.2133 163.465 82.26C163.505 82.3 163.525 82.3567 163.525 82.43V83.39C163.525 83.9367 163.412 84.4133 163.185 84.82C162.965 85.2267 162.642 85.5433 162.215 85.77C161.789 85.99 161.279 86.1 160.685 86.1ZM167.838 86C167.771 86 167.714 85.98 167.668 85.94C167.628 85.8933 167.608 85.8367 167.608 85.77V81.6H166.758C166.691 81.6 166.634 81.58 166.588 81.54C166.548 81.4933 166.528 81.4367 166.528 81.37V81.03C166.528 80.9633 166.548 80.91 166.588 80.87C166.634 80.8233 166.691 80.8 166.758 80.8H167.608V80.3C167.608 79.96 167.664 79.6633 167.778 79.41C167.891 79.15 168.071 78.95 168.318 78.81C168.571 78.67 168.908 78.6 169.328 78.6H170.868C170.934 78.6 170.988 78.6233 171.028 78.67C171.074 78.71 171.098 78.7633 171.098 78.83V79.17C171.098 79.2367 171.074 79.2933 171.028 79.34C170.988 79.38 170.934 79.4 170.868 79.4H169.348C169.034 79.4 168.821 79.4833 168.708 79.65C168.594 79.81 168.538 80.0433 168.538 80.35V80.8H170.868C170.934 80.8 170.988 80.8233 171.028 80.87C171.074 80.91 171.098 80.9633 171.098 81.03V85.77C171.098 85.8367 171.074 85.8933 171.028 85.94C170.988 85.98 170.934 86 170.868 86H170.408C170.334 86 170.278 85.98 170.238 85.94C170.198 85.8933 170.178 85.8367 170.178 85.77V81.6H168.538V85.77C168.538 85.8367 168.514 85.8933 168.468 85.94C168.428 85.98 168.374 86 168.308 86H167.838ZM172.816 86C172.749 86 172.693 85.98 172.646 85.94C172.606 85.8933 172.586 85.8367 172.586 85.77V79.13C172.586 79.0633 172.606 79.01 172.646 78.97C172.693 78.9233 172.749 78.9 172.816 78.9H173.286C173.359 78.9 173.416 78.9233 173.456 78.97C173.496 79.01 173.516 79.0633 173.516 79.13V85.77C173.516 85.8367 173.496 85.8933 173.456 85.94C173.416 85.98 173.359 86 173.286 86H172.816ZM177.078 86.1C176.391 86.1 175.844 85.89 175.438 85.47C175.031 85.0433 174.808 84.4633 174.768 83.73C174.761 83.6433 174.758 83.5333 174.758 83.4C174.758 83.26 174.761 83.1467 174.768 83.06C174.794 82.5867 174.904 82.1733 175.098 81.82C175.291 81.46 175.554 81.1833 175.888 80.99C176.228 80.7967 176.624 80.7 177.078 80.7C177.584 80.7 178.008 80.8067 178.348 81.02C178.694 81.2333 178.958 81.5367 179.138 81.93C179.318 82.3233 179.408 82.7833 179.408 83.31V83.48C179.408 83.5533 179.384 83.61 179.338 83.65C179.298 83.69 179.244 83.71 179.178 83.71H175.718C175.718 83.7167 175.718 83.73 175.718 83.75C175.718 83.77 175.718 83.7867 175.718 83.8C175.731 84.0733 175.791 84.33 175.898 84.57C176.004 84.8033 176.158 84.9933 176.358 85.14C176.558 85.2867 176.798 85.36 177.078 85.36C177.318 85.36 177.518 85.3233 177.678 85.25C177.838 85.1767 177.968 85.0967 178.068 85.01C178.168 84.9167 178.234 84.8467 178.268 84.8C178.328 84.7133 178.374 84.6633 178.408 84.65C178.441 84.63 178.494 84.62 178.568 84.62H179.048C179.114 84.62 179.168 84.64 179.208 84.68C179.254 84.7133 179.274 84.7633 179.268 84.83C179.261 84.93 179.208 85.0533 179.108 85.2C179.008 85.34 178.864 85.48 178.678 85.62C178.491 85.76 178.264 85.8767 177.998 85.97C177.731 86.0567 177.424 86.1 177.078 86.1ZM175.718 83.02H178.458V82.99C178.458 82.69 178.401 82.4233 178.288 82.19C178.181 81.9567 178.024 81.7733 177.818 81.64C177.611 81.5 177.364 81.43 177.078 81.43C176.791 81.43 176.544 81.5 176.338 81.64C176.138 81.7733 175.984 81.9567 175.878 82.19C175.771 82.4233 175.718 82.69 175.718 82.99V83.02ZM182.403 86.1C182.03 86.1 181.71 86.0533 181.443 85.96C181.177 85.8667 180.96 85.7533 180.793 85.62C180.627 85.4867 180.5 85.3533 180.413 85.22C180.333 85.0867 180.29 84.98 180.283 84.9C180.277 84.8267 180.3 84.77 180.353 84.73C180.407 84.69 180.46 84.67 180.513 84.67H180.953C180.993 84.67 181.023 84.6767 181.043 84.69C181.07 84.6967 181.103 84.7233 181.143 84.77C181.23 84.8633 181.327 84.9567 181.433 85.05C181.54 85.1433 181.67 85.22 181.823 85.28C181.983 85.34 182.18 85.37 182.413 85.37C182.753 85.37 183.033 85.3067 183.253 85.18C183.473 85.0467 183.583 84.8533 183.583 84.6C183.583 84.4333 183.537 84.3 183.443 84.2C183.357 84.1 183.197 84.01 182.963 83.93C182.737 83.85 182.423 83.7667 182.023 83.68C181.623 83.5867 181.307 83.4733 181.073 83.34C180.84 83.2 180.673 83.0367 180.573 82.85C180.473 82.6567 180.423 82.44 180.423 82.2C180.423 81.9533 180.497 81.7167 180.643 81.49C180.79 81.2567 181.003 81.0667 181.283 80.92C181.57 80.7733 181.927 80.7 182.353 80.7C182.7 80.7 182.997 80.7433 183.243 80.83C183.49 80.9167 183.693 81.0267 183.853 81.16C184.013 81.2867 184.133 81.4133 184.213 81.54C184.293 81.6667 184.337 81.7733 184.343 81.86C184.35 81.9267 184.33 81.9833 184.283 82.03C184.237 82.07 184.183 82.09 184.123 82.09H183.703C183.657 82.09 183.617 82.08 183.583 82.06C183.557 82.04 183.53 82.0167 183.503 81.99C183.437 81.9033 183.357 81.8167 183.263 81.73C183.177 81.6433 183.06 81.5733 182.913 81.52C182.773 81.46 182.587 81.43 182.353 81.43C182.02 81.43 181.77 81.5 181.603 81.64C181.437 81.78 181.353 81.9567 181.353 82.17C181.353 82.2967 181.39 82.41 181.463 82.51C181.537 82.61 181.677 82.7 181.883 82.78C182.09 82.86 182.397 82.9467 182.803 83.04C183.243 83.1267 183.59 83.2433 183.843 83.39C184.097 83.5367 184.277 83.7067 184.383 83.9C184.49 84.0933 184.543 84.3167 184.543 84.57C184.543 84.85 184.46 85.1067 184.293 85.34C184.133 85.5733 183.893 85.76 183.573 85.9C183.26 86.0333 182.87 86.1 182.403 86.1Z" fill="#9FA3AD"/>
<path d="M55.1 63C55.0267 63 54.97 62.98 54.93 62.94C54.89 62.8933 54.87 62.8367 54.87 62.77V56.24C54.87 56.1667 54.89 56.11 54.93 56.07C54.97 56.0233 55.0267 56 55.1 56H57.37C58.0567 56 58.61 56.1033 59.03 56.31C59.45 56.5167 59.7567 56.8233 59.95 57.23C60.1433 57.63 60.2433 58.1233 60.25 58.71C60.2567 59.01 60.26 59.2733 60.26 59.5C60.26 59.7267 60.2567 59.9867 60.25 60.28C60.2367 60.8933 60.1333 61.4033 59.94 61.81C59.7533 62.21 59.4533 62.51 59.04 62.71C58.6333 62.9033 58.0933 63 57.42 63H55.1ZM55.85 62.15H57.37C57.83 62.15 58.1967 62.0867 58.47 61.96C58.7433 61.8333 58.94 61.63 59.06 61.35C59.1867 61.07 59.2533 60.7 59.26 60.24C59.2733 60.04 59.28 59.8667 59.28 59.72C59.28 59.5667 59.28 59.4167 59.28 59.27C59.28 59.1167 59.2733 58.9433 59.26 58.75C59.2467 58.1033 59.0933 57.6267 58.8 57.32C58.5067 57.0067 58.0133 56.85 57.32 56.85H55.85V62.15ZM61.8645 63C61.7979 63 61.7412 62.98 61.6945 62.94C61.6545 62.8933 61.6345 62.8367 61.6345 62.77V58.04C61.6345 57.9733 61.6545 57.9167 61.6945 57.87C61.7412 57.8233 61.7979 57.8 61.8645 57.8H62.3245C62.3912 57.8 62.4479 57.8233 62.4945 57.87C62.5412 57.9167 62.5645 57.9733 62.5645 58.04V58.48C62.6979 58.2533 62.8812 58.0833 63.1145 57.97C63.3479 57.8567 63.6279 57.8 63.9545 57.8H64.3545C64.4212 57.8 64.4745 57.8233 64.5145 57.87C64.5545 57.91 64.5745 57.9633 64.5745 58.03V58.44C64.5745 58.5067 64.5545 58.56 64.5145 58.6C64.4745 58.64 64.4212 58.66 64.3545 58.66H63.7545C63.3945 58.66 63.1112 58.7667 62.9045 58.98C62.6979 59.1867 62.5945 59.47 62.5945 59.83V62.77C62.5945 62.8367 62.5712 62.8933 62.5245 62.94C62.4779 62.98 62.4212 63 62.3545 63H61.8645ZM67.4657 63.1C66.959 63.1 66.5357 63.0033 66.1957 62.81C65.8557 62.6167 65.5957 62.35 65.4157 62.01C65.2357 61.6633 65.1357 61.27 65.1157 60.83C65.109 60.7167 65.1057 60.5733 65.1057 60.4C65.1057 60.22 65.109 60.0767 65.1157 59.97C65.1357 59.5233 65.2357 59.13 65.4157 58.79C65.6024 58.45 65.8657 58.1833 66.2057 57.99C66.5457 57.7967 66.9657 57.7 67.4657 57.7C67.9657 57.7 68.3857 57.7967 68.7257 57.99C69.0657 58.1833 69.3257 58.45 69.5057 58.79C69.6924 59.13 69.7957 59.5233 69.8157 59.97C69.8224 60.0767 69.8257 60.22 69.8257 60.4C69.8257 60.5733 69.8224 60.7167 69.8157 60.83C69.7957 61.27 69.6957 61.6633 69.5157 62.01C69.3357 62.35 69.0757 62.6167 68.7357 62.81C68.3957 63.0033 67.9724 63.1 67.4657 63.1ZM67.4657 62.33C67.879 62.33 68.209 62.2 68.4557 61.94C68.7024 61.6733 68.8357 61.2867 68.8557 60.78C68.8624 60.68 68.8657 60.5533 68.8657 60.4C68.8657 60.2467 68.8624 60.12 68.8557 60.02C68.8357 59.5133 68.7024 59.13 68.4557 58.87C68.209 58.6033 67.879 58.47 67.4657 58.47C67.0524 58.47 66.719 58.6033 66.4657 58.87C66.219 59.13 66.089 59.5133 66.0757 60.02C66.069 60.12 66.0657 60.2467 66.0657 60.4C66.0657 60.5533 66.069 60.68 66.0757 60.78C66.089 61.2867 66.219 61.6733 66.4657 61.94C66.719 62.2 67.0524 62.33 67.4657 62.33ZM71.3179 64.9C71.2512 64.9 71.1946 64.8767 71.1479 64.83C71.1079 64.79 71.0879 64.7367 71.0879 64.67V58.03C71.0879 57.9633 71.1079 57.91 71.1479 57.87C71.1946 57.8233 71.2512 57.8 71.3179 57.8H71.7779C71.8446 57.8 71.8979 57.8233 71.9379 57.87C71.9846 57.91 72.0079 57.9633 72.0079 58.03V58.47C72.1679 58.25 72.3812 58.0667 72.6479 57.92C72.9146 57.7733 73.2479 57.7 73.6479 57.7C74.0212 57.7 74.3379 57.7633 74.5979 57.89C74.8646 58.0167 75.0812 58.19 75.2479 58.41C75.4212 58.63 75.5512 58.88 75.6379 59.16C75.7246 59.44 75.7712 59.74 75.7779 60.06C75.7846 60.1667 75.7879 60.28 75.7879 60.4C75.7879 60.52 75.7846 60.6333 75.7779 60.74C75.7712 61.0533 75.7246 61.3533 75.6379 61.64C75.5512 61.92 75.4212 62.17 75.2479 62.39C75.0812 62.6033 74.8646 62.7767 74.5979 62.91C74.3379 63.0367 74.0212 63.1 73.6479 63.1C73.2612 63.1 72.9346 63.03 72.6679 62.89C72.4079 62.7433 72.1946 62.5633 72.0279 62.35V64.67C72.0279 64.7367 72.0079 64.79 71.9679 64.83C71.9279 64.8767 71.8712 64.9 71.7979 64.9H71.3179ZM73.4379 62.29C73.7846 62.29 74.0546 62.2167 74.2479 62.07C74.4479 61.9167 74.5912 61.72 74.6779 61.48C74.7646 61.2333 74.8146 60.97 74.8279 60.69C74.8346 60.4967 74.8346 60.3033 74.8279 60.11C74.8146 59.83 74.7646 59.57 74.6779 59.33C74.5912 59.0833 74.4479 58.8867 74.2479 58.74C74.0546 58.5867 73.7846 58.51 73.4379 58.51C73.1112 58.51 72.8446 58.5867 72.6379 58.74C72.4379 58.8933 72.2879 59.09 72.1879 59.33C72.0946 59.5633 72.0412 59.8033 72.0279 60.05C72.0212 60.1567 72.0179 60.2833 72.0179 60.43C72.0179 60.5767 72.0212 60.7067 72.0279 60.82C72.0346 61.0533 72.0879 61.2833 72.1879 61.51C72.2946 61.7367 72.4512 61.9233 72.6579 62.07C72.8646 62.2167 73.1246 62.29 73.4379 62.29ZM80.1227 64.9C80.0693 64.9 80.0227 64.88 79.9827 64.84C79.9427 64.8 79.9227 64.7533 79.9227 64.7C79.9227 64.6733 79.926 64.6467 79.9327 64.62C79.9393 64.5933 79.9527 64.56 79.9727 64.52L80.7427 62.69L78.8327 58.18C78.7993 58.1 78.7827 58.0433 78.7827 58.01C78.7827 57.95 78.8027 57.9 78.8427 57.86C78.8827 57.82 78.9327 57.8 78.9927 57.8H79.4827C79.5493 57.8 79.6027 57.8167 79.6427 57.85C79.6827 57.8833 79.7093 57.9233 79.7227 57.97L81.2427 61.61L82.8027 57.97C82.8227 57.9233 82.8493 57.8833 82.8827 57.85C82.9227 57.8167 82.9793 57.8 83.0527 57.8H83.5227C83.5827 57.8 83.6327 57.82 83.6727 57.86C83.7127 57.9 83.7327 57.9467 83.7327 58C83.7327 58.0333 83.716 58.0933 83.6827 58.18L80.8427 64.73C80.8227 64.7767 80.7927 64.8167 80.7527 64.85C80.7193 64.8833 80.666 64.9 80.5927 64.9H80.1227ZM86.6747 63.1C86.168 63.1 85.7447 63.0033 85.4047 62.81C85.0647 62.6167 84.8047 62.35 84.6247 62.01C84.4447 61.6633 84.3447 61.27 84.3247 60.83C84.318 60.7167 84.3147 60.5733 84.3147 60.4C84.3147 60.22 84.318 60.0767 84.3247 59.97C84.3447 59.5233 84.4447 59.13 84.6247 58.79C84.8114 58.45 85.0747 58.1833 85.4147 57.99C85.7547 57.7967 86.1747 57.7 86.6747 57.7C87.1747 57.7 87.5947 57.7967 87.9347 57.99C88.2747 58.1833 88.5347 58.45 88.7147 58.79C88.9014 59.13 89.0047 59.5233 89.0247 59.97C89.0314 60.0767 89.0347 60.22 89.0347 60.4C89.0347 60.5733 89.0314 60.7167 89.0247 60.83C89.0047 61.27 88.9047 61.6633 88.7247 62.01C88.5447 62.35 88.2847 62.6167 87.9447 62.81C87.6047 63.0033 87.1814 63.1 86.6747 63.1ZM86.6747 62.33C87.088 62.33 87.418 62.2 87.6647 61.94C87.9114 61.6733 88.0447 61.2867 88.0647 60.78C88.0714 60.68 88.0747 60.5533 88.0747 60.4C88.0747 60.2467 88.0714 60.12 88.0647 60.02C88.0447 59.5133 87.9114 59.13 87.6647 58.87C87.418 58.6033 87.088 58.47 86.6747 58.47C86.2614 58.47 85.928 58.6033 85.6747 58.87C85.428 59.13 85.298 59.5133 85.2847 60.02C85.278 60.12 85.2747 60.2467 85.2747 60.4C85.2747 60.5533 85.278 60.68 85.2847 60.78C85.298 61.2867 85.428 61.6733 85.6747 61.94C85.928 62.2 86.2614 62.33 86.6747 62.33ZM92.2269 63.1C91.8002 63.1 91.4369 63.0067 91.1369 62.82C90.8435 62.6267 90.6202 62.36 90.4669 62.02C90.3135 61.68 90.2369 61.29 90.2369 60.85V58.03C90.2369 57.9633 90.2569 57.91 90.2969 57.87C90.3435 57.8233 90.4002 57.8 90.4669 57.8H90.9669C91.0335 57.8 91.0869 57.8233 91.1269 57.87C91.1735 57.91 91.1969 57.9633 91.1969 58.03V60.8C91.1969 61.7933 91.6302 62.29 92.4969 62.29C92.9102 62.29 93.2402 62.16 93.4869 61.9C93.7402 61.6333 93.8669 61.2667 93.8669 60.8V58.03C93.8669 57.9633 93.8869 57.91 93.9269 57.87C93.9735 57.8233 94.0302 57.8 94.0969 57.8H94.5869C94.6602 57.8 94.7169 57.8233 94.7569 57.87C94.7969 57.91 94.8169 57.9633 94.8169 58.03V62.77C94.8169 62.8367 94.7969 62.8933 94.7569 62.94C94.7169 62.98 94.6602 63 94.5869 63H94.1269C94.0602 63 94.0035 62.98 93.9569 62.94C93.9169 62.8933 93.8969 62.8367 93.8969 62.77V62.33C93.7169 62.5633 93.4969 62.75 93.2369 62.89C92.9835 63.03 92.6469 63.1 92.2269 63.1ZM96.5325 63C96.4658 63 96.4092 62.98 96.3625 62.94C96.3225 62.8933 96.3025 62.8367 96.3025 62.77V58.04C96.3025 57.9733 96.3225 57.9167 96.3625 57.87C96.4092 57.8233 96.4658 57.8 96.5325 57.8H96.9925C97.0592 57.8 97.1158 57.8233 97.1625 57.87C97.2092 57.9167 97.2325 57.9733 97.2325 58.04V58.48C97.3658 58.2533 97.5492 58.0833 97.7825 57.97C98.0158 57.8567 98.2958 57.8 98.6225 57.8H99.0225C99.0892 57.8 99.1425 57.8233 99.1825 57.87C99.2225 57.91 99.2425 57.9633 99.2425 58.03V58.44C99.2425 58.5067 99.2225 58.56 99.1825 58.6C99.1425 58.64 99.0892 58.66 99.0225 58.66H98.4225C98.0625 58.66 97.7792 58.7667 97.5725 58.98C97.3658 59.1867 97.2625 59.47 97.2625 59.83V62.77C97.2625 62.8367 97.2392 62.8933 97.1925 62.94C97.1458 62.98 97.0892 63 97.0225 63H96.5325ZM102.558 63C102.491 63 102.435 62.98 102.388 62.94C102.348 62.8933 102.328 62.8367 102.328 62.77V56.13C102.328 56.0633 102.348 56.01 102.388 55.97C102.435 55.9233 102.491 55.9 102.558 55.9H103.028C103.101 55.9 103.158 55.9233 103.198 55.97C103.238 56.01 103.258 56.0633 103.258 56.13V62.77C103.258 62.8367 103.238 62.8933 103.198 62.94C103.158 62.98 103.101 63 103.028 63H102.558ZM106.88 63.1C106.373 63.1 105.95 63.0033 105.61 62.81C105.27 62.6167 105.01 62.35 104.83 62.01C104.65 61.6633 104.55 61.27 104.53 60.83C104.523 60.7167 104.52 60.5733 104.52 60.4C104.52 60.22 104.523 60.0767 104.53 59.97C104.55 59.5233 104.65 59.13 104.83 58.79C105.016 58.45 105.28 58.1833 105.62 57.99C105.96 57.7967 106.38 57.7 106.88 57.7C107.38 57.7 107.8 57.7967 108.14 57.99C108.48 58.1833 108.74 58.45 108.92 58.79C109.106 59.13 109.21 59.5233 109.23 59.97C109.236 60.0767 109.24 60.22 109.24 60.4C109.24 60.5733 109.236 60.7167 109.23 60.83C109.21 61.27 109.11 61.6633 108.93 62.01C108.75 62.35 108.49 62.6167 108.15 62.81C107.81 63.0033 107.386 63.1 106.88 63.1ZM106.88 62.33C107.293 62.33 107.623 62.2 107.87 61.94C108.116 61.6733 108.25 61.2867 108.27 60.78C108.276 60.68 108.28 60.5533 108.28 60.4C108.28 60.2467 108.276 60.12 108.27 60.02C108.25 59.5133 108.116 59.13 107.87 58.87C107.623 58.6033 107.293 58.47 106.88 58.47C106.466 58.47 106.133 58.6033 105.88 58.87C105.633 59.13 105.503 59.5133 105.49 60.02C105.483 60.12 105.48 60.2467 105.48 60.4C105.48 60.5533 105.483 60.68 105.49 60.78C105.503 61.2867 105.633 61.6733 105.88 61.94C106.133 62.2 106.466 62.33 106.88 62.33ZM112.622 65.2C112.169 65.2 111.795 65.14 111.502 65.02C111.215 64.9 110.989 64.7533 110.822 64.58C110.662 64.4133 110.545 64.2433 110.472 64.07C110.405 63.9033 110.369 63.77 110.362 63.67C110.355 63.6033 110.375 63.5467 110.422 63.5C110.475 63.4533 110.532 63.43 110.592 63.43H111.072C111.132 63.43 111.182 63.4433 111.222 63.47C111.262 63.4967 111.295 63.5533 111.322 63.64C111.362 63.74 111.422 63.85 111.502 63.97C111.582 64.0967 111.705 64.2033 111.872 64.29C112.039 64.3833 112.272 64.43 112.572 64.43C112.885 64.43 113.149 64.3867 113.362 64.3C113.575 64.22 113.735 64.0733 113.842 63.86C113.955 63.6533 114.012 63.3667 114.012 63V62.32C113.852 62.5267 113.642 62.7 113.382 62.84C113.122 62.9733 112.795 63.04 112.402 63.04C112.029 63.04 111.709 62.9767 111.442 62.85C111.175 62.7167 110.955 62.54 110.782 62.32C110.615 62.0933 110.489 61.8367 110.402 61.55C110.322 61.2633 110.275 60.9633 110.262 60.65C110.255 60.4633 110.255 60.28 110.262 60.1C110.275 59.7867 110.322 59.4867 110.402 59.2C110.489 58.9133 110.615 58.6567 110.782 58.43C110.955 58.2033 111.175 58.0267 111.442 57.9C111.709 57.7667 112.029 57.7 112.402 57.7C112.802 57.7 113.132 57.7767 113.392 57.93C113.659 58.0767 113.875 58.2567 114.042 58.47V58.04C114.042 57.9733 114.062 57.9167 114.102 57.87C114.149 57.8233 114.205 57.8 114.272 57.8H114.732C114.799 57.8 114.855 57.8233 114.902 57.87C114.949 57.9167 114.972 57.9733 114.972 58.04V62.89C114.972 63.3367 114.895 63.7333 114.742 64.08C114.595 64.4267 114.349 64.7 114.002 64.9C113.662 65.1 113.202 65.2 112.622 65.2ZM112.602 62.24C112.935 62.24 113.202 62.1633 113.402 62.01C113.609 61.8567 113.759 61.6633 113.852 61.43C113.952 61.1967 114.005 60.96 114.012 60.72C114.019 60.6267 114.022 60.5133 114.022 60.38C114.022 60.24 114.019 60.1233 114.012 60.03C114.005 59.79 113.952 59.5533 113.852 59.32C113.759 59.0867 113.609 58.8933 113.402 58.74C113.202 58.5867 112.935 58.51 112.602 58.51C112.269 58.51 112.002 58.5867 111.802 58.74C111.602 58.8867 111.459 59.0833 111.372 59.33C111.285 59.57 111.235 59.83 111.222 60.11C111.215 60.2833 111.215 60.46 111.222 60.64C111.235 60.92 111.285 61.1833 111.372 61.43C111.459 61.67 111.602 61.8667 111.802 62.02C112.002 62.1667 112.269 62.24 112.602 62.24ZM118.589 63.1C118.082 63.1 117.659 63.0033 117.319 62.81C116.979 62.6167 116.719 62.35 116.539 62.01C116.359 61.6633 116.259 61.27 116.239 60.83C116.232 60.7167 116.229 60.5733 116.229 60.4C116.229 60.22 116.232 60.0767 116.239 59.97C116.259 59.5233 116.359 59.13 116.539 58.79C116.725 58.45 116.989 58.1833 117.329 57.99C117.669 57.7967 118.089 57.7 118.589 57.7C119.089 57.7 119.509 57.7967 119.849 57.99C120.189 58.1833 120.449 58.45 120.629 58.79C120.815 59.13 120.919 59.5233 120.939 59.97C120.945 60.0767 120.949 60.22 120.949 60.4C120.949 60.5733 120.945 60.7167 120.939 60.83C120.919 61.27 120.819 61.6633 120.639 62.01C120.459 62.35 120.199 62.6167 119.859 62.81C119.519 63.0033 119.095 63.1 118.589 63.1ZM118.589 62.33C119.002 62.33 119.332 62.2 119.579 61.94C119.825 61.6733 119.959 61.2867 119.979 60.78C119.985 60.68 119.989 60.5533 119.989 60.4C119.989 60.2467 119.985 60.12 119.979 60.02C119.959 59.5133 119.825 59.13 119.579 58.87C119.332 58.6033 119.002 58.47 118.589 58.47C118.175 58.47 117.842 58.6033 117.589 58.87C117.342 59.13 117.212 59.5133 117.199 60.02C117.192 60.12 117.189 60.2467 117.189 60.4C117.189 60.5533 117.192 60.68 117.199 60.78C117.212 61.2867 117.342 61.6733 117.589 61.94C117.842 62.2 118.175 62.33 118.589 62.33ZM124.892 63C124.825 63 124.769 62.98 124.722 62.94C124.682 62.8933 124.662 62.8367 124.662 62.77V56.13C124.662 56.0633 124.682 56.01 124.722 55.97C124.769 55.9233 124.825 55.9 124.892 55.9H125.392C125.465 55.9 125.522 55.9233 125.562 55.97C125.602 56.01 125.622 56.0633 125.622 56.13V58.46C125.802 58.2333 126.022 58.05 126.282 57.91C126.542 57.77 126.872 57.7 127.272 57.7C127.705 57.7 128.072 57.7967 128.372 57.99C128.679 58.1767 128.909 58.44 129.062 58.78C129.222 59.1133 129.302 59.5033 129.302 59.95V62.77C129.302 62.8367 129.282 62.8933 129.242 62.94C129.202 62.98 129.145 63 129.072 63H128.572C128.505 63 128.449 62.98 128.402 62.94C128.362 62.8933 128.342 62.8367 128.342 62.77V60C128.342 59.5333 128.229 59.17 128.002 58.91C127.775 58.6433 127.442 58.51 127.002 58.51C126.589 58.51 126.255 58.6433 126.002 58.91C125.749 59.17 125.622 59.5333 125.622 60V62.77C125.622 62.8367 125.602 62.8933 125.562 62.94C125.522 62.98 125.465 63 125.392 63H124.892ZM132.816 63.1C132.129 63.1 131.583 62.89 131.176 62.47C130.769 62.0433 130.546 61.4633 130.506 60.73C130.499 60.6433 130.496 60.5333 130.496 60.4C130.496 60.26 130.499 60.1467 130.506 60.06C130.533 59.5867 130.643 59.1733 130.836 58.82C131.029 58.46 131.293 58.1833 131.626 57.99C131.966 57.7967 132.363 57.7 132.816 57.7C133.323 57.7 133.746 57.8067 134.086 58.02C134.433 58.2333 134.696 58.5367 134.876 58.93C135.056 59.3233 135.146 59.7833 135.146 60.31V60.48C135.146 60.5533 135.123 60.61 135.076 60.65C135.036 60.69 134.983 60.71 134.916 60.71H131.456C131.456 60.7167 131.456 60.73 131.456 60.75C131.456 60.77 131.456 60.7867 131.456 60.8C131.469 61.0733 131.529 61.33 131.636 61.57C131.743 61.8033 131.896 61.9933 132.096 62.14C132.296 62.2867 132.536 62.36 132.816 62.36C133.056 62.36 133.256 62.3233 133.416 62.25C133.576 62.1767 133.706 62.0967 133.806 62.01C133.906 61.9167 133.973 61.8467 134.006 61.8C134.066 61.7133 134.113 61.6633 134.146 61.65C134.179 61.63 134.233 61.62 134.306 61.62H134.786C134.853 61.62 134.906 61.64 134.946 61.68C134.993 61.7133 135.013 61.7633 135.006 61.83C134.999 61.93 134.946 62.0533 134.846 62.2C134.746 62.34 134.603 62.48 134.416 62.62C134.229 62.76 134.003 62.8767 133.736 62.97C133.469 63.0567 133.163 63.1 132.816 63.1ZM131.456 60.02H134.196V59.99C134.196 59.69 134.139 59.4233 134.026 59.19C133.919 58.9567 133.763 58.7733 133.556 58.64C133.349 58.5 133.103 58.43 132.816 58.43C132.529 58.43 132.283 58.5 132.076 58.64C131.876 58.7733 131.723 58.9567 131.616 59.19C131.509 59.4233 131.456 59.69 131.456 59.99V60.02ZM136.572 63C136.505 63 136.448 62.98 136.402 62.94C136.362 62.8933 136.342 62.8367 136.342 62.77V58.04C136.342 57.9733 136.362 57.9167 136.402 57.87C136.448 57.8233 136.505 57.8 136.572 57.8H137.032C137.098 57.8 137.155 57.8233 137.202 57.87C137.248 57.9167 137.272 57.9733 137.272 58.04V58.48C137.405 58.2533 137.588 58.0833 137.822 57.97C138.055 57.8567 138.335 57.8 138.662 57.8H139.062C139.128 57.8 139.182 57.8233 139.222 57.87C139.262 57.91 139.282 57.9633 139.282 58.03V58.44C139.282 58.5067 139.262 58.56 139.222 58.6C139.182 58.64 139.128 58.66 139.062 58.66H138.462C138.102 58.66 137.818 58.7667 137.612 58.98C137.405 59.1867 137.302 59.47 137.302 59.83V62.77C137.302 62.8367 137.278 62.8933 137.232 62.94C137.185 62.98 137.128 63 137.062 63H136.572ZM142.113 63.1C141.426 63.1 140.879 62.89 140.473 62.47C140.066 62.0433 139.843 61.4633 139.803 60.73C139.796 60.6433 139.793 60.5333 139.793 60.4C139.793 60.26 139.796 60.1467 139.803 60.06C139.829 59.5867 139.939 59.1733 140.133 58.82C140.326 58.46 140.589 58.1833 140.923 57.99C141.263 57.7967 141.659 57.7 142.113 57.7C142.619 57.7 143.043 57.8067 143.383 58.02C143.729 58.2333 143.993 58.5367 144.173 58.93C144.353 59.3233 144.443 59.7833 144.443 60.31V60.48C144.443 60.5533 144.419 60.61 144.373 60.65C144.333 60.69 144.279 60.71 144.213 60.71H140.753C140.753 60.7167 140.753 60.73 140.753 60.75C140.753 60.77 140.753 60.7867 140.753 60.8C140.766 61.0733 140.826 61.33 140.933 61.57C141.039 61.8033 141.193 61.9933 141.393 62.14C141.593 62.2867 141.833 62.36 142.113 62.36C142.353 62.36 142.553 62.3233 142.713 62.25C142.873 62.1767 143.003 62.0967 143.103 62.01C143.203 61.9167 143.269 61.8467 143.303 61.8C143.363 61.7133 143.409 61.6633 143.443 61.65C143.476 61.63 143.529 61.62 143.603 61.62H144.083C144.149 61.62 144.203 61.64 144.243 61.68C144.289 61.7133 144.309 61.7633 144.303 61.83C144.296 61.93 144.243 62.0533 144.143 62.2C144.043 62.34 143.899 62.48 143.713 62.62C143.526 62.76 143.299 62.8767 143.033 62.97C142.766 63.0567 142.459 63.1 142.113 63.1ZM140.753 60.02H143.493V59.99C143.493 59.69 143.436 59.4233 143.323 59.19C143.216 58.9567 143.059 58.7733 142.853 58.64C142.646 58.5 142.399 58.43 142.113 58.43C141.826 58.43 141.579 58.5 141.373 58.64C141.173 58.7733 141.019 58.9567 140.913 59.19C140.806 59.4233 140.753 59.69 140.753 59.99V60.02ZM145.568 63.75C145.515 63.75 145.472 63.73 145.438 63.69C145.412 63.65 145.402 63.6 145.408 63.54L145.638 62.11C145.652 62.03 145.678 61.9633 145.718 61.91C145.765 61.85 145.832 61.82 145.918 61.82H146.588C146.635 61.82 146.672 61.8367 146.698 61.87C146.732 61.9033 146.748 61.9433 146.748 61.99C146.748 62.0433 146.735 62.0967 146.708 62.15L146.188 63.52C146.162 63.5867 146.125 63.64 146.078 63.68C146.038 63.7267 145.978 63.75 145.898 63.75H145.568ZM152.71 63.1C152.203 63.1 151.78 63.0033 151.44 62.81C151.1 62.6167 150.84 62.35 150.66 62.01C150.48 61.6633 150.38 61.27 150.36 60.83C150.353 60.7167 150.35 60.5733 150.35 60.4C150.35 60.22 150.353 60.0767 150.36 59.97C150.38 59.5233 150.48 59.13 150.66 58.79C150.847 58.45 151.11 58.1833 151.45 57.99C151.79 57.7967 152.21 57.7 152.71 57.7C153.21 57.7 153.63 57.7967 153.97 57.99C154.31 58.1833 154.57 58.45 154.75 58.79C154.937 59.13 155.04 59.5233 155.06 59.97C155.067 60.0767 155.07 60.22 155.07 60.4C155.07 60.5733 155.067 60.7167 155.06 60.83C155.04 61.27 154.94 61.6633 154.76 62.01C154.58 62.35 154.32 62.6167 153.98 62.81C153.64 63.0033 153.217 63.1 152.71 63.1ZM152.71 62.33C153.123 62.33 153.453 62.2 153.7 61.94C153.947 61.6733 154.08 61.2867 154.1 60.78C154.107 60.68 154.11 60.5533 154.11 60.4C154.11 60.2467 154.107 60.12 154.1 60.02C154.08 59.5133 153.947 59.13 153.7 58.87C153.453 58.6033 153.123 58.47 152.71 58.47C152.297 58.47 151.963 58.6033 151.71 58.87C151.463 59.13 151.333 59.5133 151.32 60.02C151.313 60.12 151.31 60.2467 151.31 60.4C151.31 60.5533 151.313 60.68 151.32 60.78C151.333 61.2867 151.463 61.6733 151.71 61.94C151.963 62.2 152.297 62.33 152.71 62.33ZM156.552 63C156.485 63 156.429 62.98 156.382 62.94C156.342 62.8933 156.322 62.8367 156.322 62.77V58.04C156.322 57.9733 156.342 57.9167 156.382 57.87C156.429 57.8233 156.485 57.8 156.552 57.8H157.012C157.079 57.8 157.135 57.8233 157.182 57.87C157.229 57.9167 157.252 57.9733 157.252 58.04V58.48C157.385 58.2533 157.569 58.0833 157.802 57.97C158.035 57.8567 158.315 57.8 158.642 57.8H159.042C159.109 57.8 159.162 57.8233 159.202 57.87C159.242 57.91 159.262 57.9633 159.262 58.03V58.44C159.262 58.5067 159.242 58.56 159.202 58.6C159.162 58.64 159.109 58.66 159.042 58.66H158.442C158.082 58.66 157.799 58.7667 157.592 58.98C157.385 59.1867 157.282 59.47 157.282 59.83V62.77C157.282 62.8367 157.259 62.8933 157.212 62.94C157.165 62.98 157.109 63 157.042 63H156.552ZM164.908 63.1C164.508 63.1 164.174 63.03 163.908 62.89C163.641 62.7433 163.428 62.5633 163.268 62.35V62.77C163.268 62.8367 163.244 62.8933 163.198 62.94C163.158 62.98 163.104 63 163.038 63H162.578C162.511 63 162.454 62.98 162.408 62.94C162.368 62.8933 162.348 62.8367 162.348 62.77V56.13C162.348 56.0633 162.368 56.01 162.408 55.97C162.454 55.9233 162.511 55.9 162.578 55.9H163.058C163.131 55.9 163.188 55.9233 163.228 55.97C163.268 56.01 163.288 56.0633 163.288 56.13V58.43C163.454 58.2233 163.668 58.05 163.928 57.91C164.194 57.77 164.521 57.7 164.908 57.7C165.281 57.7 165.598 57.7667 165.858 57.9C166.124 58.0267 166.341 58.2033 166.508 58.43C166.681 58.6567 166.811 58.9133 166.898 59.2C166.984 59.4867 167.031 59.7867 167.038 60.1C167.044 60.2067 167.048 60.3067 167.048 60.4C167.048 60.4933 167.044 60.5933 167.038 60.7C167.031 61.02 166.984 61.3233 166.898 61.61C166.811 61.8967 166.681 62.1533 166.508 62.38C166.341 62.6 166.124 62.7767 165.858 62.91C165.598 63.0367 165.281 63.1 164.908 63.1ZM164.698 62.29C165.044 62.29 165.314 62.2167 165.508 62.07C165.708 61.9167 165.851 61.72 165.938 61.48C166.024 61.2333 166.074 60.97 166.088 60.69C166.094 60.4967 166.094 60.3033 166.088 60.11C166.074 59.83 166.024 59.57 165.938 59.33C165.851 59.0833 165.708 58.8867 165.508 58.74C165.314 58.5867 165.044 58.51 164.698 58.51C164.384 58.51 164.124 58.5833 163.918 58.73C163.711 58.8767 163.554 59.0633 163.448 59.29C163.348 59.5167 163.294 59.7467 163.288 59.98C163.281 60.0867 163.278 60.2167 163.278 60.37C163.278 60.5167 163.281 60.6433 163.288 60.75C163.301 60.9967 163.354 61.24 163.448 61.48C163.548 61.7133 163.698 61.9067 163.898 62.06C164.104 62.2133 164.371 62.29 164.698 62.29ZM168.515 63C168.448 63 168.392 62.98 168.345 62.94C168.305 62.8933 168.285 62.8367 168.285 62.77V58.04C168.285 57.9733 168.305 57.9167 168.345 57.87C168.392 57.8233 168.448 57.8 168.515 57.8H168.975C169.042 57.8 169.098 57.8233 169.145 57.87C169.192 57.9167 169.215 57.9733 169.215 58.04V58.48C169.348 58.2533 169.532 58.0833 169.765 57.97C169.998 57.8567 170.278 57.8 170.605 57.8H171.005C171.072 57.8 171.125 57.8233 171.165 57.87C171.205 57.91 171.225 57.9633 171.225 58.03V58.44C171.225 58.5067 171.205 58.56 171.165 58.6C171.125 58.64 171.072 58.66 171.005 58.66H170.405C170.045 58.66 169.762 58.7667 169.555 58.98C169.348 59.1867 169.245 59.47 169.245 59.83V62.77C169.245 62.8367 169.222 62.8933 169.175 62.94C169.128 62.98 169.072 63 169.005 63H168.515ZM174.116 63.1C173.609 63.1 173.186 63.0033 172.846 62.81C172.506 62.6167 172.246 62.35 172.066 62.01C171.886 61.6633 171.786 61.27 171.766 60.83C171.759 60.7167 171.756 60.5733 171.756 60.4C171.756 60.22 171.759 60.0767 171.766 59.97C171.786 59.5233 171.886 59.13 172.066 58.79C172.253 58.45 172.516 58.1833 172.856 57.99C173.196 57.7967 173.616 57.7 174.116 57.7C174.616 57.7 175.036 57.7967 175.376 57.99C175.716 58.1833 175.976 58.45 176.156 58.79C176.343 59.13 176.446 59.5233 176.466 59.97C176.473 60.0767 176.476 60.22 176.476 60.4C176.476 60.5733 176.473 60.7167 176.466 60.83C176.446 61.27 176.346 61.6633 176.166 62.01C175.986 62.35 175.726 62.6167 175.386 62.81C175.046 63.0033 174.623 63.1 174.116 63.1ZM174.116 62.33C174.529 62.33 174.859 62.2 175.106 61.94C175.353 61.6733 175.486 61.2867 175.506 60.78C175.513 60.68 175.516 60.5533 175.516 60.4C175.516 60.2467 175.513 60.12 175.506 60.02C175.486 59.5133 175.353 59.13 175.106 58.87C174.859 58.6033 174.529 58.47 174.116 58.47C173.703 58.47 173.369 58.6033 173.116 58.87C172.869 59.13 172.739 59.5133 172.726 60.02C172.719 60.12 172.716 60.2467 172.716 60.4C172.716 60.5533 172.719 60.68 172.726 60.78C172.739 61.2867 172.869 61.6733 173.116 61.94C173.369 62.2 173.703 62.33 174.116 62.33ZM178.972 63C178.885 63 178.818 62.98 178.772 62.94C178.725 62.8933 178.685 62.83 178.652 62.75L177.232 58.11C177.218 58.0767 177.212 58.0433 177.212 58.01C177.212 57.95 177.232 57.9 177.272 57.86C177.318 57.82 177.368 57.8 177.422 57.8H177.862C177.935 57.8 177.992 57.82 178.032 57.86C178.072 57.9 178.098 57.9367 178.112 57.97L179.222 61.74L180.412 58.01C180.425 57.9633 180.452 57.9167 180.492 57.87C180.538 57.8233 180.605 57.8 180.692 57.8H181.032C181.118 57.8 181.185 57.8233 181.232 57.87C181.278 57.9167 181.305 57.9633 181.312 58.01L182.502 61.74L183.612 57.97C183.618 57.9367 183.642 57.9 183.682 57.86C183.722 57.82 183.778 57.8 183.852 57.8H184.292C184.352 57.8 184.402 57.82 184.442 57.86C184.482 57.9 184.502 57.95 184.502 58.01C184.502 58.0433 184.495 58.0767 184.482 58.11L183.062 62.75C183.042 62.83 183.005 62.8933 182.952 62.94C182.905 62.98 182.835 63 182.742 63H182.352C182.265 63 182.192 62.98 182.132 62.94C182.078 62.8933 182.042 62.83 182.022 62.75L180.862 59.17L179.702 62.75C179.675 62.83 179.635 62.8933 179.582 62.94C179.528 62.98 179.455 63 179.362 63H178.972ZM187.282 63.1C186.909 63.1 186.589 63.0533 186.322 62.96C186.056 62.8667 185.839 62.7533 185.672 62.62C185.506 62.4867 185.379 62.3533 185.292 62.22C185.212 62.0867 185.169 61.98 185.162 61.9C185.156 61.8267 185.179 61.77 185.232 61.73C185.286 61.69 185.339 61.67 185.392 61.67H185.832C185.872 61.67 185.902 61.6767 185.922 61.69C185.949 61.6967 185.982 61.7233 186.022 61.77C186.109 61.8633 186.206 61.9567 186.312 62.05C186.419 62.1433 186.549 62.22 186.702 62.28C186.862 62.34 187.059 62.37 187.292 62.37C187.632 62.37 187.912 62.3067 188.132 62.18C188.352 62.0467 188.462 61.8533 188.462 61.6C188.462 61.4333 188.416 61.3 188.322 61.2C188.236 61.1 188.076 61.01 187.842 60.93C187.616 60.85 187.302 60.7667 186.902 60.68C186.502 60.5867 186.186 60.4733 185.952 60.34C185.719 60.2 185.552 60.0367 185.452 59.85C185.352 59.6567 185.302 59.44 185.302 59.2C185.302 58.9533 185.376 58.7167 185.522 58.49C185.669 58.2567 185.882 58.0667 186.162 57.92C186.449 57.7733 186.806 57.7 187.232 57.7C187.579 57.7 187.876 57.7433 188.122 57.83C188.369 57.9167 188.572 58.0267 188.732 58.16C188.892 58.2867 189.012 58.4133 189.092 58.54C189.172 58.6667 189.216 58.7733 189.222 58.86C189.229 58.9267 189.209 58.9833 189.162 59.03C189.116 59.07 189.062 59.09 189.002 59.09H188.582C188.536 59.09 188.496 59.08 188.462 59.06C188.436 59.04 188.409 59.0167 188.382 58.99C188.316 58.9033 188.236 58.8167 188.142 58.73C188.056 58.6433 187.939 58.5733 187.792 58.52C187.652 58.46 187.466 58.43 187.232 58.43C186.899 58.43 186.649 58.5 186.482 58.64C186.316 58.78 186.232 58.9567 186.232 59.17C186.232 59.2967 186.269 59.41 186.342 59.51C186.416 59.61 186.556 59.7 186.762 59.78C186.969 59.86 187.276 59.9467 187.682 60.04C188.122 60.1267 188.469 60.2433 188.722 60.39C188.976 60.5367 189.156 60.7067 189.262 60.9C189.369 61.0933 189.422 61.3167 189.422 61.57C189.422 61.85 189.339 62.1067 189.172 62.34C189.012 62.5733 188.772 62.76 188.452 62.9C188.139 63.0333 187.749 63.1 187.282 63.1ZM192.65 63.1C191.963 63.1 191.417 62.89 191.01 62.47C190.603 62.0433 190.38 61.4633 190.34 60.73C190.333 60.6433 190.33 60.5333 190.33 60.4C190.33 60.26 190.333 60.1467 190.34 60.06C190.367 59.5867 190.477 59.1733 190.67 58.82C190.863 58.46 191.127 58.1833 191.46 57.99C191.8 57.7967 192.197 57.7 192.65 57.7C193.157 57.7 193.58 57.8067 193.92 58.02C194.267 58.2333 194.53 58.5367 194.71 58.93C194.89 59.3233 194.98 59.7833 194.98 60.31V60.48C194.98 60.5533 194.957 60.61 194.91 60.65C194.87 60.69 194.817 60.71 194.75 60.71H191.29C191.29 60.7167 191.29 60.73 191.29 60.75C191.29 60.77 191.29 60.7867 191.29 60.8C191.303 61.0733 191.363 61.33 191.47 61.57C191.577 61.8033 191.73 61.9933 191.93 62.14C192.13 62.2867 192.37 62.36 192.65 62.36C192.89 62.36 193.09 62.3233 193.25 62.25C193.41 62.1767 193.54 62.0967 193.64 62.01C193.74 61.9167 193.807 61.8467 193.84 61.8C193.9 61.7133 193.947 61.6633 193.98 61.65C194.013 61.63 194.067 61.62 194.14 61.62H194.62C194.687 61.62 194.74 61.64 194.78 61.68C194.827 61.7133 194.847 61.7633 194.84 61.83C194.833 61.93 194.78 62.0533 194.68 62.2C194.58 62.34 194.437 62.48 194.25 62.62C194.063 62.76 193.837 62.8767 193.57 62.97C193.303 63.0567 192.997 63.1 192.65 63.1ZM191.29 60.02H194.03V59.99C194.03 59.69 193.973 59.4233 193.86 59.19C193.753 58.9567 193.597 58.7733 193.39 58.64C193.183 58.5 192.937 58.43 192.65 58.43C192.363 58.43 192.117 58.5 191.91 58.64C191.71 58.7733 191.557 58.9567 191.45 59.19C191.343 59.4233 191.29 59.69 191.29 59.99V60.02Z" fill="#3B7580"/>
<defs>
<clipPath id="clip0_251_4752">
<rect width="23" height="23" fill="white" transform="translate(114 19)"/>
</clipPath>
</defs>
</svg>
