<svg width="250" height="107" viewBox="0 0 250 107" fill="none" xmlns="http://www.w3.org/2000/svg">
<path d="M0.842171 104.778C0.483022 104.242 0.224941 103.632 0.0951704 102.976L0.585664 102.879C0.529517 102.595 0.5 102.301 0.5 102V100.99H0V98.9688H0.5V96.9479H0V94.9271H0.5V92.9063H0V90.8854H0.5V88.8646H0V86.8438H0.5V84.8229H0V82.8021H0.5V80.7812H0V78.7604H0.5V76.7396H0V74.7187H0.5V72.6979H0V70.6771H0.5V68.6562H0V66.6354H0.5V64.6146H0V62.5937H0.5V60.5729H0V58.5521H0.5V56.5312H0V54.5104H0.5V52.4896H0V50.4688H0.5V48.4479H0V46.4271H0.5V44.4063H0V42.3854H0.5V40.3646H0V38.3438H0.5V36.3229H0V34.3021H0.5V32.2813H0V30.2604H0.5V28.2396H0V26.2188H0.5V24.1979H0V22.1771H0.5V20.1563H0V18.1354H0.5V16.1146H0V14.0938H0.5V12.0729H0V10.0521H0.5V8.03125H0V6.01042H0.5V5C0.5 4.69883 0.529517 4.40504 0.585664 4.12122L0.0951702 4.02419C0.224941 3.36822 0.483023 2.75838 0.842173 2.22192L1.25766 2.50008C1.58634 2.00913 2.00913 1.58634 2.50008 1.25766L2.22192 0.842173C2.75838 0.483023 3.36822 0.224942 4.02419 0.0951702L4.12122 0.585664C4.40504 0.529517 4.69883 0.5 5 0.5H6V0H8V0.5H10V0H12V0.5H14V0H16V0.5H18V0H20V0.5H22V0H24V0.5H26V0H28V0.5H30V0H32V0.5H34V0H36V0.5H38V0H40V0.5H42V0H44V0.5H46V0H48V0.5H50V0H52V0.5H54V0H56V0.5H58V0H60V0.5H62V0H64V0.5H66V0H68V0.5H70V0H72V0.5H74V0H76V0.5H78V0H80V0.5H82V0H84V0.5H86V0H88V0.5H90V0H92V0.5H94V0H96V0.5H98V0H100V0.5H102V0H104V0.5H106V0H108V0.5H110V0H112V0.5H114V0H116V0.5H118V0H120V0.5H122V0H124V0.5H126V0H128V0.5H130V0H132V0.5H134V0H136V0.5H138V0H140V0.5H142V0H144V0.5H146V0H148V0.5H150V0H152V0.5H154V0H156V0.5H158V0H160V0.5H162V0H164V0.5H166V0H168V0.5H170V0H172V0.5H174V0H176V0.5H178V0H180V0.5H182V0H184V0.5H186V0H188V0.5H190V0H192V0.5H194V0H196V0.5H198V0H200V0.5H202V0H204V0.5H206V0H208V0.5H210V0H212V0.5H214V0H216V0.5H218V0H220V0.5H222V0H224V0.5H226V0H228V0.5H230V0H232V0.5H234V0H236V0.5H238V0H240V0.5H242V0H244V0.5H245C245.301 0.5 245.595 0.529517 245.879 0.585664L245.976 0.0951694C246.632 0.224941 247.242 0.483023 247.778 0.842174L247.5 1.25766C247.991 1.58634 248.414 2.00913 248.742 2.50008L249.158 2.22192C249.517 2.75838 249.775 3.36822 249.905 4.02419L249.414 4.12122C249.47 4.40504 249.5 4.69883 249.5 5V6.0104H250V8.03123H249.5V10.0521H250V12.0729H249.5V14.0937H250V16.1146H249.5V18.1354H250V20.1563H249.5V22.1771H250V24.1979H249.5V26.2188H250V28.2396H249.5V30.2604H250V32.2813H249.5V34.3021H250V36.3229H249.5V38.3438H250V40.3646H249.5V42.3854H250V44.4063H249.5V46.4271H250V48.4479H249.5V50.4688H250V52.4896H249.5V54.5104H250V56.5313H249.5V58.5521H250V60.5729H249.5V62.5938H250V64.6146H249.5V66.6354H250V68.6562H249.5V70.6771H250V72.6979H249.5V74.7188H250V76.7396H249.5V78.7604H250V80.7813H249.5V82.8021H250V84.8229H249.5V86.8438H250V88.8646H249.5V90.8854H250V92.9063H249.5V94.9271H250V96.9479H249.5V98.9688H250V100.99H249.5V102C249.5 102.301 249.47 102.595 249.414 102.879L249.905 102.976C249.775 103.632 249.517 104.242 249.158 104.778L248.742 104.5C248.414 104.991 247.991 105.414 247.5 105.742L247.778 106.158C247.242 106.517 246.632 106.775 245.976 106.905L245.879 106.414C245.595 106.47 245.301 106.5 245 106.5H244V107H242V106.5H240V107H238V106.5H236V107H234V106.5H232V107H230V106.5H228V107H226V106.5H224V107H222V106.5H220V107H218V106.5H216V107H214V106.5H212V107H210V106.5H208V107H206V106.5H204V107H202V106.5H200V107H198V106.5H196V107H194V106.5H192V107H190V106.5H188V107H186V106.5H184V107H182V106.5H180V107H178V106.5H176V107H174V106.5H172V107H170V106.5H168V107H166V106.5H164V107H162V106.5H160V107H158V106.5H156V107H154V106.5H152V107H150V106.5H148V107H146V106.5H144V107H142V106.5H140V107H138V106.5H136V107H134V106.5H132V107H130V106.5H128V107H126V106.5H124V107H122V106.5H120V107H118V106.5H116V107H114V106.5H112V107H110V106.5H108V107H106V106.5H104V107H102V106.5H100V107H98V106.5H96V107H94V106.5H92V107H90V106.5H88V107H86V106.5H84V107H82V106.5H80V107H78V106.5H76V107H74V106.5H72V107H70V106.5H68V107H66V106.5H64V107H62V106.5H60V107H58V106.5H56V107H54V106.5H52V107H50V106.5H48V107H46V106.5H44V107H42V106.5H40V107H38V106.5H36V107H34V106.5H32V107H30V106.5H28V107H26V106.5H24V107H22V106.5H20V107H18V106.5H16V107H14V106.5H12V107H10V106.5H8V107H6V106.5H5C4.69882 106.5 4.40504 106.47 4.12122 106.414L4.02418 106.905C3.36821 106.775 2.75838 106.517 2.22192 106.158L2.50008 105.742C2.00913 105.414 1.58634 104.991 1.25766 104.5L0.842171 104.778Z" fill="white" stroke="#99B2C6" stroke-dasharray="2 2"/>
<g clip-path="url(#clip0_251_4753)">
<path d="M121.003 23.3125C121.003 22.55 121.306 21.8187 121.845 21.2796C122.384 20.7404 123.115 20.4375 123.878 20.4375H141.128C141.89 20.4375 142.622 20.7404 143.161 21.2796C143.7 21.8187 144.003 22.55 144.003 23.3125V37.6875C144.003 38.45 143.7 39.1813 143.161 39.7204C142.622 40.2596 141.89 40.5625 141.128 40.5625H123.878C123.115 40.5625 122.384 40.2596 121.845 39.7204C121.306 39.1813 121.003 38.45 121.003 37.6875V23.3125ZM122.44 36.25V37.6875C122.44 38.0687 122.592 38.4344 122.861 38.704C123.131 38.9735 123.497 39.125 123.878 39.125H141.128C141.509 39.125 141.875 38.9735 142.144 38.704C142.414 38.4344 142.565 38.0687 142.565 37.6875V32.6562L137.136 29.8574C137.001 29.7899 136.849 29.7665 136.7 29.7905C136.551 29.8145 136.413 29.8847 136.307 29.9911L130.973 35.3243L127.15 32.777C127.012 32.6851 126.846 32.6437 126.681 32.66C126.516 32.6762 126.362 32.7491 126.244 32.8661L122.44 36.25ZM129.628 26.9062C129.628 26.3344 129.401 25.7859 128.996 25.3816C128.592 24.9772 128.044 24.75 127.472 24.75C126.9 24.75 126.351 24.9772 125.947 25.3816C125.543 25.7859 125.315 26.3344 125.315 26.9062C125.315 27.4781 125.543 28.0266 125.947 28.4309C126.351 28.8353 126.9 29.0625 127.472 29.0625C128.044 29.0625 128.592 28.8353 128.996 28.4309C129.401 28.0266 129.628 27.4781 129.628 26.9062Z" fill="#2D464B"/>
</g>
<path d="M75.12 86.1C74.54 86.1 74.0533 86.0133 73.66 85.84C73.2667 85.66 72.9633 85.43 72.75 85.15C72.5433 84.8633 72.4333 84.56 72.42 84.24C72.42 84.1867 72.44 84.14 72.48 84.1C72.5267 84.0533 72.58 84.03 72.64 84.03H73.15C73.23 84.03 73.29 84.05 73.33 84.09C73.37 84.13 73.3967 84.1767 73.41 84.23C73.4433 84.39 73.5233 84.55 73.65 84.71C73.7833 84.8633 73.9667 84.9933 74.2 85.1C74.44 85.2 74.7467 85.25 75.12 85.25C75.6933 85.25 76.1133 85.15 76.38 84.95C76.6533 84.7433 76.79 84.47 76.79 84.13C76.79 83.8967 76.7167 83.71 76.57 83.57C76.43 83.4233 76.2133 83.2933 75.92 83.18C75.6267 83.0667 75.2467 82.9433 74.78 82.81C74.2933 82.67 73.89 82.5167 73.57 82.35C73.25 82.1833 73.01 81.9767 72.85 81.73C72.6967 81.4833 72.62 81.17 72.62 80.79C72.62 80.43 72.7167 80.11 72.91 79.83C73.1033 79.5433 73.38 79.3167 73.74 79.15C74.1067 78.9833 74.55 78.9 75.07 78.9C75.4833 78.9 75.8433 78.9567 76.15 79.07C76.4633 79.1767 76.7233 79.3233 76.93 79.51C77.1367 79.69 77.2933 79.8867 77.4 80.1C77.5067 80.3067 77.5633 80.51 77.57 80.71C77.57 80.7567 77.5533 80.8033 77.52 80.85C77.4867 80.89 77.4333 80.91 77.36 80.91H76.83C76.7833 80.91 76.7333 80.8967 76.68 80.87C76.6333 80.8433 76.5967 80.7933 76.57 80.72C76.53 80.4467 76.3767 80.2167 76.11 80.03C75.8433 79.8433 75.4967 79.75 75.07 79.75C74.6367 79.75 74.2833 79.8333 74.01 80C73.7433 80.1667 73.61 80.4267 73.61 80.78C73.61 81.0067 73.6733 81.1967 73.8 81.35C73.9267 81.4967 74.1267 81.6267 74.4 81.74C74.6733 81.8533 75.03 81.9733 75.47 82.1C76.0033 82.2467 76.44 82.4033 76.78 82.57C77.12 82.73 77.37 82.9333 77.53 83.18C77.6967 83.42 77.78 83.73 77.78 84.11C77.78 84.53 77.67 84.89 77.45 85.19C77.23 85.4833 76.92 85.71 76.52 85.87C76.1267 86.0233 75.66 86.1 75.12 86.1ZM80.9007 86.1C80.474 86.1 80.1107 86.0067 79.8107 85.82C79.5174 85.6267 79.294 85.36 79.1407 85.02C78.9874 84.68 78.9107 84.29 78.9107 83.85V81.03C78.9107 80.9633 78.9307 80.91 78.9707 80.87C79.0174 80.8233 79.074 80.8 79.1407 80.8H79.6407C79.7074 80.8 79.7607 80.8233 79.8007 80.87C79.8474 80.91 79.8707 80.9633 79.8707 81.03V83.8C79.8707 84.7933 80.304 85.29 81.1707 85.29C81.584 85.29 81.914 85.16 82.1607 84.9C82.414 84.6333 82.5407 84.2667 82.5407 83.8V81.03C82.5407 80.9633 82.5607 80.91 82.6007 80.87C82.6474 80.8233 82.704 80.8 82.7707 80.8H83.2607C83.334 80.8 83.3907 80.8233 83.4307 80.87C83.4707 80.91 83.4907 80.9633 83.4907 81.03V85.77C83.4907 85.8367 83.4707 85.8933 83.4307 85.94C83.3907 85.98 83.334 86 83.2607 86H82.8007C82.734 86 82.6774 85.98 82.6307 85.94C82.5907 85.8933 82.5707 85.8367 82.5707 85.77V85.33C82.3907 85.5633 82.1707 85.75 81.9107 85.89C81.6574 86.03 81.3207 86.1 80.9007 86.1ZM85.2163 87.9C85.1497 87.9 85.093 87.8767 85.0463 87.83C85.0063 87.79 84.9863 87.7367 84.9863 87.67V81.03C84.9863 80.9633 85.0063 80.91 85.0463 80.87C85.093 80.8233 85.1497 80.8 85.2163 80.8H85.6763C85.743 80.8 85.7963 80.8233 85.8363 80.87C85.883 80.91 85.9063 80.9633 85.9063 81.03V81.47C86.0663 81.25 86.2797 81.0667 86.5463 80.92C86.813 80.7733 87.1463 80.7 87.5463 80.7C87.9197 80.7 88.2363 80.7633 88.4963 80.89C88.763 81.0167 88.9797 81.19 89.1463 81.41C89.3197 81.63 89.4497 81.88 89.5363 82.16C89.623 82.44 89.6697 82.74 89.6763 83.06C89.683 83.1667 89.6863 83.28 89.6863 83.4C89.6863 83.52 89.683 83.6333 89.6763 83.74C89.6697 84.0533 89.623 84.3533 89.5363 84.64C89.4497 84.92 89.3197 85.17 89.1463 85.39C88.9797 85.6033 88.763 85.7767 88.4963 85.91C88.2363 86.0367 87.9197 86.1 87.5463 86.1C87.1597 86.1 86.833 86.03 86.5663 85.89C86.3063 85.7433 86.093 85.5633 85.9263 85.35V87.67C85.9263 87.7367 85.9063 87.79 85.8663 87.83C85.8263 87.8767 85.7697 87.9 85.6963 87.9H85.2163ZM87.3363 85.29C87.683 85.29 87.953 85.2167 88.1463 85.07C88.3463 84.9167 88.4897 84.72 88.5763 84.48C88.663 84.2333 88.713 83.97 88.7263 83.69C88.733 83.4967 88.733 83.3033 88.7263 83.11C88.713 82.83 88.663 82.57 88.5763 82.33C88.4897 82.0833 88.3463 81.8867 88.1463 81.74C87.953 81.5867 87.683 81.51 87.3363 81.51C87.0097 81.51 86.743 81.5867 86.5363 81.74C86.3363 81.8933 86.1863 82.09 86.0863 82.33C85.993 82.5633 85.9397 82.8033 85.9263 83.05C85.9197 83.1567 85.9163 83.2833 85.9163 83.43C85.9163 83.5767 85.9197 83.7067 85.9263 83.82C85.933 84.0533 85.9863 84.2833 86.0863 84.51C86.193 84.7367 86.3497 84.9233 86.5563 85.07C86.763 85.2167 87.023 85.29 87.3363 85.29ZM91.1734 87.9C91.1067 87.9 91.05 87.8767 91.0034 87.83C90.9634 87.79 90.9434 87.7367 90.9434 87.67V81.03C90.9434 80.9633 90.9634 80.91 91.0034 80.87C91.05 80.8233 91.1067 80.8 91.1734 80.8H91.6334C91.7 80.8 91.7534 80.8233 91.7934 80.87C91.84 80.91 91.8634 80.9633 91.8634 81.03V81.47C92.0234 81.25 92.2367 81.0667 92.5034 80.92C92.77 80.7733 93.1034 80.7 93.5034 80.7C93.8767 80.7 94.1934 80.7633 94.4534 80.89C94.72 81.0167 94.9367 81.19 95.1034 81.41C95.2767 81.63 95.4067 81.88 95.4934 82.16C95.58 82.44 95.6267 82.74 95.6334 83.06C95.64 83.1667 95.6434 83.28 95.6434 83.4C95.6434 83.52 95.64 83.6333 95.6334 83.74C95.6267 84.0533 95.58 84.3533 95.4934 84.64C95.4067 84.92 95.2767 85.17 95.1034 85.39C94.9367 85.6033 94.72 85.7767 94.4534 85.91C94.1934 86.0367 93.8767 86.1 93.5034 86.1C93.1167 86.1 92.79 86.03 92.5234 85.89C92.2634 85.7433 92.05 85.5633 91.8834 85.35V87.67C91.8834 87.7367 91.8634 87.79 91.8234 87.83C91.7834 87.8767 91.7267 87.9 91.6534 87.9H91.1734ZM93.2934 85.29C93.64 85.29 93.91 85.2167 94.1034 85.07C94.3034 84.9167 94.4467 84.72 94.5334 84.48C94.62 84.2333 94.67 83.97 94.6834 83.69C94.69 83.4967 94.69 83.3033 94.6834 83.11C94.67 82.83 94.62 82.57 94.5334 82.33C94.4467 82.0833 94.3034 81.8867 94.1034 81.74C93.91 81.5867 93.64 81.51 93.2934 81.51C92.9667 81.51 92.7 81.5867 92.4934 81.74C92.2934 81.8933 92.1434 82.09 92.0434 82.33C91.95 82.5633 91.8967 82.8033 91.8834 83.05C91.8767 83.1567 91.8734 83.2833 91.8734 83.43C91.8734 83.5767 91.8767 83.7067 91.8834 83.82C91.89 84.0533 91.9434 84.2833 92.0434 84.51C92.15 84.7367 92.3067 84.9233 92.5134 85.07C92.72 85.2167 92.98 85.29 93.2934 85.29ZM99.0204 86.1C98.5137 86.1 98.0904 86.0033 97.7504 85.81C97.4104 85.6167 97.1504 85.35 96.9704 85.01C96.7904 84.6633 96.6904 84.27 96.6704 83.83C96.6637 83.7167 96.6604 83.5733 96.6604 83.4C96.6604 83.22 96.6637 83.0767 96.6704 82.97C96.6904 82.5233 96.7904 82.13 96.9704 81.79C97.1571 81.45 97.4204 81.1833 97.7604 80.99C98.1004 80.7967 98.5204 80.7 99.0204 80.7C99.5204 80.7 99.9404 80.7967 100.28 80.99C100.62 81.1833 100.88 81.45 101.06 81.79C101.247 82.13 101.35 82.5233 101.37 82.97C101.377 83.0767 101.38 83.22 101.38 83.4C101.38 83.5733 101.377 83.7167 101.37 83.83C101.35 84.27 101.25 84.6633 101.07 85.01C100.89 85.35 100.63 85.6167 100.29 85.81C99.9504 86.0033 99.5271 86.1 99.0204 86.1ZM99.0204 85.33C99.4337 85.33 99.7637 85.2 100.01 84.94C100.257 84.6733 100.39 84.2867 100.41 83.78C100.417 83.68 100.42 83.5533 100.42 83.4C100.42 83.2467 100.417 83.12 100.41 83.02C100.39 82.5133 100.257 82.13 100.01 81.87C99.7637 81.6033 99.4337 81.47 99.0204 81.47C98.6071 81.47 98.2737 81.6033 98.0204 81.87C97.7737 82.13 97.6437 82.5133 97.6304 83.02C97.6237 83.12 97.6204 83.2467 97.6204 83.4C97.6204 83.5533 97.6237 83.68 97.6304 83.78C97.6437 84.2867 97.7737 84.6733 98.0204 84.94C98.2737 85.2 98.6071 85.33 99.0204 85.33ZM102.863 86C102.796 86 102.739 85.98 102.693 85.94C102.653 85.8933 102.633 85.8367 102.633 85.77V81.04C102.633 80.9733 102.653 80.9167 102.693 80.87C102.739 80.8233 102.796 80.8 102.863 80.8H103.323C103.389 80.8 103.446 80.8233 103.493 80.87C103.539 80.9167 103.563 80.9733 103.563 81.04V81.48C103.696 81.2533 103.879 81.0833 104.113 80.97C104.346 80.8567 104.626 80.8 104.953 80.8H105.353C105.419 80.8 105.473 80.8233 105.513 80.87C105.553 80.91 105.573 80.9633 105.573 81.03V81.44C105.573 81.5067 105.553 81.56 105.513 81.6C105.473 81.64 105.419 81.66 105.353 81.66H104.753C104.393 81.66 104.109 81.7667 103.903 81.98C103.696 82.1867 103.593 82.47 103.593 82.83V85.77C103.593 85.8367 103.569 85.8933 103.523 85.94C103.476 85.98 103.419 86 103.353 86H102.863ZM108.461 86C108.088 86 107.785 85.93 107.551 85.79C107.318 85.6433 107.148 85.44 107.041 85.18C106.935 84.9133 106.881 84.6 106.881 84.24V81.6H106.101C106.035 81.6 105.978 81.58 105.931 81.54C105.891 81.4933 105.871 81.4367 105.871 81.37V81.03C105.871 80.9633 105.891 80.91 105.931 80.87C105.978 80.8233 106.035 80.8 106.101 80.8H106.881V79.13C106.881 79.0633 106.901 79.01 106.941 78.97C106.988 78.9233 107.045 78.9 107.111 78.9H107.581C107.648 78.9 107.701 78.9233 107.741 78.97C107.788 79.01 107.811 79.0633 107.811 79.13V80.8H109.051C109.118 80.8 109.171 80.8233 109.211 80.87C109.258 80.91 109.281 80.9633 109.281 81.03V81.37C109.281 81.4367 109.258 81.4933 109.211 81.54C109.171 81.58 109.118 81.6 109.051 81.6H107.811V84.17C107.811 84.4833 107.865 84.73 107.971 84.91C108.078 85.09 108.268 85.18 108.541 85.18H109.151C109.218 85.18 109.271 85.2033 109.311 85.25C109.358 85.29 109.381 85.3433 109.381 85.41V85.77C109.381 85.8367 109.358 85.8933 109.311 85.94C109.271 85.98 109.218 86 109.151 86H108.461ZM112.138 86.1C111.764 86.1 111.444 86.0533 111.178 85.96C110.911 85.8667 110.694 85.7533 110.528 85.62C110.361 85.4867 110.234 85.3533 110.148 85.22C110.068 85.0867 110.024 84.98 110.018 84.9C110.011 84.8267 110.034 84.77 110.088 84.73C110.141 84.69 110.194 84.67 110.248 84.67H110.688C110.728 84.67 110.758 84.6767 110.778 84.69C110.804 84.6967 110.838 84.7233 110.878 84.77C110.964 84.8633 111.061 84.9567 111.168 85.05C111.274 85.1433 111.404 85.22 111.558 85.28C111.718 85.34 111.914 85.37 112.148 85.37C112.488 85.37 112.768 85.3067 112.988 85.18C113.208 85.0467 113.318 84.8533 113.318 84.6C113.318 84.4333 113.271 84.3 113.178 84.2C113.091 84.1 112.931 84.01 112.698 83.93C112.471 83.85 112.158 83.7667 111.758 83.68C111.358 83.5867 111.041 83.4733 110.808 83.34C110.574 83.2 110.408 83.0367 110.308 82.85C110.208 82.6567 110.158 82.44 110.158 82.2C110.158 81.9533 110.231 81.7167 110.378 81.49C110.524 81.2567 110.738 81.0667 111.018 80.92C111.304 80.7733 111.661 80.7 112.088 80.7C112.434 80.7 112.731 80.7433 112.978 80.83C113.224 80.9167 113.428 81.0267 113.588 81.16C113.748 81.2867 113.868 81.4133 113.948 81.54C114.028 81.6667 114.071 81.7733 114.078 81.86C114.084 81.9267 114.064 81.9833 114.018 82.03C113.971 82.07 113.918 82.09 113.858 82.09H113.438C113.391 82.09 113.351 82.08 113.318 82.06C113.291 82.04 113.264 82.0167 113.238 81.99C113.171 81.9033 113.091 81.8167 112.998 81.73C112.911 81.6433 112.794 81.5733 112.648 81.52C112.508 81.46 112.321 81.43 112.088 81.43C111.754 81.43 111.504 81.5 111.338 81.64C111.171 81.78 111.088 81.9567 111.088 82.17C111.088 82.2967 111.124 82.41 111.198 82.51C111.271 82.61 111.411 82.7 111.618 82.78C111.824 82.86 112.131 82.9467 112.538 83.04C112.978 83.1267 113.324 83.2433 113.578 83.39C113.831 83.5367 114.011 83.7067 114.118 83.9C114.224 84.0933 114.278 84.3167 114.278 84.57C114.278 84.85 114.194 85.1067 114.028 85.34C113.868 85.5733 113.628 85.76 113.308 85.9C112.994 86.0333 112.604 86.1 112.138 86.1ZM120.096 86.1C119.756 86.1 119.433 86.06 119.126 85.98C118.826 85.8933 118.556 85.7633 118.316 85.59C118.083 85.41 117.896 85.1867 117.756 84.92C117.616 84.6533 117.54 84.34 117.526 83.98C117.526 83.92 117.546 83.87 117.586 83.83C117.626 83.7833 117.68 83.76 117.746 83.76H118.286C118.36 83.76 118.416 83.7833 118.456 83.83C118.503 83.87 118.533 83.9233 118.546 83.99C118.573 84.29 118.66 84.5333 118.806 84.72C118.953 84.9 119.14 85.0333 119.366 85.12C119.593 85.2067 119.843 85.25 120.116 85.25C120.623 85.25 121.01 85.0833 121.276 84.75C121.543 84.4167 121.676 83.9733 121.676 83.42V79.87H118.126C118.06 79.87 118.003 79.85 117.956 79.81C117.916 79.7633 117.896 79.7067 117.896 79.64V79.23C117.896 79.1633 117.916 79.11 117.956 79.07C118.003 79.0233 118.06 79 118.126 79H122.436C122.51 79 122.566 79.0233 122.606 79.07C122.653 79.11 122.676 79.1667 122.676 79.24V83.44C122.676 83.98 122.573 84.45 122.366 84.85C122.16 85.25 121.866 85.56 121.486 85.78C121.106 85.9933 120.643 86.1 120.096 86.1ZM124.584 86C124.511 86 124.454 85.98 124.414 85.94C124.374 85.8933 124.354 85.8367 124.354 85.77V79.24C124.354 79.1667 124.374 79.11 124.414 79.07C124.454 79.0233 124.511 79 124.584 79H127.124C127.618 79 128.044 79.08 128.404 79.24C128.771 79.4 129.054 79.64 129.254 79.96C129.454 80.2733 129.554 80.6667 129.554 81.14C129.554 81.6133 129.454 82.0067 129.254 82.32C129.054 82.6333 128.771 82.87 128.404 83.03C128.044 83.19 127.618 83.27 127.124 83.27H125.354V85.77C125.354 85.8367 125.331 85.8933 125.284 85.94C125.244 85.98 125.188 86 125.114 86H124.584ZM125.344 82.43H127.074C127.568 82.43 127.938 82.32 128.184 82.1C128.431 81.88 128.554 81.56 128.554 81.14C128.554 80.7267 128.434 80.4067 128.194 80.18C127.954 79.9533 127.581 79.84 127.074 79.84H125.344V82.43ZM133.31 86.1C132.724 86.1 132.224 85.99 131.81 85.77C131.404 85.55 131.09 85.24 130.87 84.84C130.657 84.44 130.537 83.97 130.51 83.43C130.504 83.1367 130.5 82.8267 130.5 82.5C130.5 82.1667 130.504 81.85 130.51 81.55C130.537 81.01 130.657 80.5433 130.87 80.15C131.09 79.7567 131.407 79.45 131.82 79.23C132.234 79.01 132.73 78.9 133.31 78.9C133.784 78.9 134.194 78.9667 134.54 79.1C134.887 79.2333 135.17 79.4033 135.39 79.61C135.617 79.81 135.784 80.02 135.89 80.24C136.004 80.46 136.064 80.6533 136.07 80.82C136.077 80.88 136.06 80.93 136.02 80.97C135.98 81.0033 135.927 81.02 135.86 81.02H135.27C135.204 81.02 135.154 81.0067 135.12 80.98C135.094 80.9533 135.067 80.9067 135.04 80.84C134.98 80.6667 134.88 80.4967 134.74 80.33C134.607 80.1633 134.424 80.0267 134.19 79.92C133.964 79.8067 133.67 79.75 133.31 79.75C132.784 79.75 132.357 79.8933 132.03 80.18C131.71 80.4667 131.537 80.94 131.51 81.6C131.49 82.1933 131.49 82.7867 131.51 83.38C131.537 84.0467 131.714 84.5267 132.04 84.82C132.367 85.1067 132.794 85.25 133.32 85.25C133.674 85.25 133.987 85.1867 134.26 85.06C134.54 84.9267 134.76 84.7233 134.92 84.45C135.08 84.1767 135.16 83.83 135.16 83.41V82.99H133.66C133.594 82.99 133.537 82.97 133.49 82.93C133.45 82.8833 133.43 82.8233 133.43 82.75V82.43C133.43 82.3567 133.45 82.3 133.49 82.26C133.537 82.2133 133.594 82.19 133.66 82.19H135.92C135.994 82.19 136.05 82.2133 136.09 82.26C136.13 82.3 136.15 82.3567 136.15 82.43V83.39C136.15 83.9367 136.037 84.4133 135.81 84.82C135.59 85.2267 135.267 85.5433 134.84 85.77C134.414 85.99 133.904 86.1 133.31 86.1ZM142.028 86.1C141.522 86.1 141.098 86.0033 140.758 85.81C140.418 85.6167 140.158 85.35 139.978 85.01C139.798 84.6633 139.698 84.27 139.678 83.83C139.672 83.7167 139.668 83.5733 139.668 83.4C139.668 83.22 139.672 83.0767 139.678 82.97C139.698 82.5233 139.798 82.13 139.978 81.79C140.165 81.45 140.428 81.1833 140.768 80.99C141.108 80.7967 141.528 80.7 142.028 80.7C142.528 80.7 142.948 80.7967 143.288 80.99C143.628 81.1833 143.888 81.45 144.068 81.79C144.255 82.13 144.358 82.5233 144.378 82.97C144.385 83.0767 144.388 83.22 144.388 83.4C144.388 83.5733 144.385 83.7167 144.378 83.83C144.358 84.27 144.258 84.6633 144.078 85.01C143.898 85.35 143.638 85.6167 143.298 85.81C142.958 86.0033 142.535 86.1 142.028 86.1ZM142.028 85.33C142.442 85.33 142.772 85.2 143.018 84.94C143.265 84.6733 143.398 84.2867 143.418 83.78C143.425 83.68 143.428 83.5533 143.428 83.4C143.428 83.2467 143.425 83.12 143.418 83.02C143.398 82.5133 143.265 82.13 143.018 81.87C142.772 81.6033 142.442 81.47 142.028 81.47C141.615 81.47 141.282 81.6033 141.028 81.87C140.782 82.13 140.652 82.5133 140.638 83.02C140.632 83.12 140.628 83.2467 140.628 83.4C140.628 83.5533 140.632 83.68 140.638 83.78C140.652 84.2867 140.782 84.6733 141.028 84.94C141.282 85.2 141.615 85.33 142.028 85.33ZM145.87 86C145.804 86 145.747 85.98 145.7 85.94C145.66 85.8933 145.64 85.8367 145.64 85.77V81.04C145.64 80.9733 145.66 80.9167 145.7 80.87C145.747 80.8233 145.804 80.8 145.87 80.8H146.33C146.397 80.8 146.454 80.8233 146.5 80.87C146.547 80.9167 146.57 80.9733 146.57 81.04V81.48C146.704 81.2533 146.887 81.0833 147.12 80.97C147.354 80.8567 147.634 80.8 147.96 80.8H148.36C148.427 80.8 148.48 80.8233 148.52 80.87C148.56 80.91 148.58 80.9633 148.58 81.03V81.44C148.58 81.5067 148.56 81.56 148.52 81.6C148.48 81.64 148.427 81.66 148.36 81.66H147.76C147.4 81.66 147.117 81.7667 146.91 81.98C146.704 82.1867 146.6 82.47 146.6 82.83V85.77C146.6 85.8367 146.577 85.8933 146.53 85.94C146.484 85.98 146.427 86 146.36 86H145.87ZM152.016 86C151.943 86 151.886 85.98 151.846 85.94C151.806 85.8933 151.786 85.8367 151.786 85.77V79.24C151.786 79.1667 151.806 79.11 151.846 79.07C151.886 79.0233 151.943 79 152.016 79H154.556C155.049 79 155.476 79.08 155.836 79.24C156.203 79.4 156.486 79.64 156.686 79.96C156.886 80.2733 156.986 80.6667 156.986 81.14C156.986 81.6133 156.886 82.0067 156.686 82.32C156.486 82.6333 156.203 82.87 155.836 83.03C155.476 83.19 155.049 83.27 154.556 83.27H152.786V85.77C152.786 85.8367 152.763 85.8933 152.716 85.94C152.676 85.98 152.619 86 152.546 86H152.016ZM152.776 82.43H154.506C154.999 82.43 155.369 82.32 155.616 82.1C155.863 81.88 155.986 81.56 155.986 81.14C155.986 80.7267 155.866 80.4067 155.626 80.18C155.386 79.9533 155.013 79.84 154.506 79.84H152.776V82.43ZM158.432 86C158.359 86 158.302 85.98 158.262 85.94C158.222 85.8933 158.202 85.8367 158.202 85.77V79.24C158.202 79.1667 158.222 79.11 158.262 79.07C158.302 79.0233 158.359 79 158.432 79H158.892C158.972 79 159.032 79.02 159.072 79.06C159.112 79.0933 159.135 79.12 159.142 79.14L162.462 84.24V79.24C162.462 79.1667 162.482 79.11 162.522 79.07C162.562 79.0233 162.619 79 162.692 79H163.172C163.245 79 163.302 79.0233 163.342 79.07C163.389 79.11 163.412 79.1667 163.412 79.24V85.76C163.412 85.8267 163.389 85.8833 163.342 85.93C163.302 85.9767 163.249 86 163.182 86H162.702C162.629 86 162.572 85.98 162.532 85.94C162.499 85.9 162.475 85.8733 162.462 85.86L159.152 80.81V85.77C159.152 85.8367 159.129 85.8933 159.082 85.94C159.042 85.98 158.985 86 158.912 86H158.432ZM167.685 86.1C167.099 86.1 166.599 85.99 166.185 85.77C165.779 85.55 165.465 85.24 165.245 84.84C165.032 84.44 164.912 83.97 164.885 83.43C164.879 83.1367 164.875 82.8267 164.875 82.5C164.875 82.1667 164.879 81.85 164.885 81.55C164.912 81.01 165.032 80.5433 165.245 80.15C165.465 79.7567 165.782 79.45 166.195 79.23C166.609 79.01 167.105 78.9 167.685 78.9C168.159 78.9 168.569 78.9667 168.915 79.1C169.262 79.2333 169.545 79.4033 169.765 79.61C169.992 79.81 170.159 80.02 170.265 80.24C170.379 80.46 170.439 80.6533 170.445 80.82C170.452 80.88 170.435 80.93 170.395 80.97C170.355 81.0033 170.302 81.02 170.235 81.02H169.645C169.579 81.02 169.529 81.0067 169.495 80.98C169.469 80.9533 169.442 80.9067 169.415 80.84C169.355 80.6667 169.255 80.4967 169.115 80.33C168.982 80.1633 168.799 80.0267 168.565 79.92C168.339 79.8067 168.045 79.75 167.685 79.75C167.159 79.75 166.732 79.8933 166.405 80.18C166.085 80.4667 165.912 80.94 165.885 81.6C165.865 82.1933 165.865 82.7867 165.885 83.38C165.912 84.0467 166.089 84.5267 166.415 84.82C166.742 85.1067 167.169 85.25 167.695 85.25C168.049 85.25 168.362 85.1867 168.635 85.06C168.915 84.9267 169.135 84.7233 169.295 84.45C169.455 84.1767 169.535 83.83 169.535 83.41V82.99H168.035C167.969 82.99 167.912 82.97 167.865 82.93C167.825 82.8833 167.805 82.8233 167.805 82.75V82.43C167.805 82.3567 167.825 82.3 167.865 82.26C167.912 82.2133 167.969 82.19 168.035 82.19H170.295C170.369 82.19 170.425 82.2133 170.465 82.26C170.505 82.3 170.525 82.3567 170.525 82.43V83.39C170.525 83.9367 170.412 84.4133 170.185 84.82C169.965 85.2267 169.642 85.5433 169.215 85.77C168.789 85.99 168.279 86.1 167.685 86.1ZM174.838 86C174.771 86 174.714 85.98 174.668 85.94C174.628 85.8933 174.608 85.8367 174.608 85.77V81.6H173.758C173.691 81.6 173.634 81.58 173.588 81.54C173.548 81.4933 173.528 81.4367 173.528 81.37V81.03C173.528 80.9633 173.548 80.91 173.588 80.87C173.634 80.8233 173.691 80.8 173.758 80.8H174.608V80.3C174.608 79.96 174.664 79.6633 174.778 79.41C174.891 79.15 175.071 78.95 175.318 78.81C175.571 78.67 175.908 78.6 176.328 78.6H177.868C177.934 78.6 177.988 78.6233 178.028 78.67C178.074 78.71 178.098 78.7633 178.098 78.83V79.17C178.098 79.2367 178.074 79.2933 178.028 79.34C177.988 79.38 177.934 79.4 177.868 79.4H176.348C176.034 79.4 175.821 79.4833 175.708 79.65C175.594 79.81 175.538 80.0433 175.538 80.35V80.8H177.868C177.934 80.8 177.988 80.8233 178.028 80.87C178.074 80.91 178.098 80.9633 178.098 81.03V85.77C178.098 85.8367 178.074 85.8933 178.028 85.94C177.988 85.98 177.934 86 177.868 86H177.408C177.334 86 177.278 85.98 177.238 85.94C177.198 85.8933 177.178 85.8367 177.178 85.77V81.6H175.538V85.77C175.538 85.8367 175.514 85.8933 175.468 85.94C175.428 85.98 175.374 86 175.308 86H174.838ZM179.816 86C179.749 86 179.693 85.98 179.646 85.94C179.606 85.8933 179.586 85.8367 179.586 85.77V79.13C179.586 79.0633 179.606 79.01 179.646 78.97C179.693 78.9233 179.749 78.9 179.816 78.9H180.286C180.359 78.9 180.416 78.9233 180.456 78.97C180.496 79.01 180.516 79.0633 180.516 79.13V85.77C180.516 85.8367 180.496 85.8933 180.456 85.94C180.416 85.98 180.359 86 180.286 86H179.816ZM184.078 86.1C183.391 86.1 182.844 85.89 182.438 85.47C182.031 85.0433 181.808 84.4633 181.768 83.73C181.761 83.6433 181.758 83.5333 181.758 83.4C181.758 83.26 181.761 83.1467 181.768 83.06C181.794 82.5867 181.904 82.1733 182.098 81.82C182.291 81.46 182.554 81.1833 182.888 80.99C183.228 80.7967 183.624 80.7 184.078 80.7C184.584 80.7 185.008 80.8067 185.348 81.02C185.694 81.2333 185.958 81.5367 186.138 81.93C186.318 82.3233 186.408 82.7833 186.408 83.31V83.48C186.408 83.5533 186.384 83.61 186.338 83.65C186.298 83.69 186.244 83.71 186.178 83.71H182.718C182.718 83.7167 182.718 83.73 182.718 83.75C182.718 83.77 182.718 83.7867 182.718 83.8C182.731 84.0733 182.791 84.33 182.898 84.57C183.004 84.8033 183.158 84.9933 183.358 85.14C183.558 85.2867 183.798 85.36 184.078 85.36C184.318 85.36 184.518 85.3233 184.678 85.25C184.838 85.1767 184.968 85.0967 185.068 85.01C185.168 84.9167 185.234 84.8467 185.268 84.8C185.328 84.7133 185.374 84.6633 185.408 84.65C185.441 84.63 185.494 84.62 185.568 84.62H186.048C186.114 84.62 186.168 84.64 186.208 84.68C186.254 84.7133 186.274 84.7633 186.268 84.83C186.261 84.93 186.208 85.0533 186.108 85.2C186.008 85.34 185.864 85.48 185.678 85.62C185.491 85.76 185.264 85.8767 184.998 85.97C184.731 86.0567 184.424 86.1 184.078 86.1ZM182.718 83.02H185.458V82.99C185.458 82.69 185.401 82.4233 185.288 82.19C185.181 81.9567 185.024 81.7733 184.818 81.64C184.611 81.5 184.364 81.43 184.078 81.43C183.791 81.43 183.544 81.5 183.338 81.64C183.138 81.7733 182.984 81.9567 182.878 82.19C182.771 82.4233 182.718 82.69 182.718 82.99V83.02ZM189.403 86.1C189.03 86.1 188.71 86.0533 188.443 85.96C188.177 85.8667 187.96 85.7533 187.793 85.62C187.627 85.4867 187.5 85.3533 187.413 85.22C187.333 85.0867 187.29 84.98 187.283 84.9C187.277 84.8267 187.3 84.77 187.353 84.73C187.407 84.69 187.46 84.67 187.513 84.67H187.953C187.993 84.67 188.023 84.6767 188.043 84.69C188.07 84.6967 188.103 84.7233 188.143 84.77C188.23 84.8633 188.327 84.9567 188.433 85.05C188.54 85.1433 188.67 85.22 188.823 85.28C188.983 85.34 189.18 85.37 189.413 85.37C189.753 85.37 190.033 85.3067 190.253 85.18C190.473 85.0467 190.583 84.8533 190.583 84.6C190.583 84.4333 190.537 84.3 190.443 84.2C190.357 84.1 190.197 84.01 189.963 83.93C189.737 83.85 189.423 83.7667 189.023 83.68C188.623 83.5867 188.307 83.4733 188.073 83.34C187.84 83.2 187.673 83.0367 187.573 82.85C187.473 82.6567 187.423 82.44 187.423 82.2C187.423 81.9533 187.497 81.7167 187.643 81.49C187.79 81.2567 188.003 81.0667 188.283 80.92C188.57 80.7733 188.927 80.7 189.353 80.7C189.7 80.7 189.997 80.7433 190.243 80.83C190.49 80.9167 190.693 81.0267 190.853 81.16C191.013 81.2867 191.133 81.4133 191.213 81.54C191.293 81.6667 191.337 81.7733 191.343 81.86C191.35 81.9267 191.33 81.9833 191.283 82.03C191.237 82.07 191.183 82.09 191.123 82.09H190.703C190.657 82.09 190.617 82.08 190.583 82.06C190.557 82.04 190.53 82.0167 190.503 81.99C190.437 81.9033 190.357 81.8167 190.263 81.73C190.177 81.6433 190.06 81.5733 189.913 81.52C189.773 81.46 189.587 81.43 189.353 81.43C189.02 81.43 188.77 81.5 188.603 81.64C188.437 81.78 188.353 81.9567 188.353 82.17C188.353 82.2967 188.39 82.41 188.463 82.51C188.537 82.61 188.677 82.7 188.883 82.78C189.09 82.86 189.397 82.9467 189.803 83.04C190.243 83.1267 190.59 83.2433 190.843 83.39C191.097 83.5367 191.277 83.7067 191.383 83.9C191.49 84.0933 191.543 84.3167 191.543 84.57C191.543 84.85 191.46 85.1067 191.293 85.34C191.133 85.5733 190.893 85.76 190.573 85.9C190.26 86.0333 189.87 86.1 189.403 86.1Z" fill="#9FA3AD"/>
<path d="M55.1 63C55.0267 63 54.97 62.98 54.93 62.94C54.89 62.8933 54.87 62.8367 54.87 62.77V56.24C54.87 56.1667 54.89 56.11 54.93 56.07C54.97 56.0233 55.0267 56 55.1 56H57.37C58.0567 56 58.61 56.1033 59.03 56.31C59.45 56.5167 59.7567 56.8233 59.95 57.23C60.1433 57.63 60.2433 58.1233 60.25 58.71C60.2567 59.01 60.26 59.2733 60.26 59.5C60.26 59.7267 60.2567 59.9867 60.25 60.28C60.2367 60.8933 60.1333 61.4033 59.94 61.81C59.7533 62.21 59.4533 62.51 59.04 62.71C58.6333 62.9033 58.0933 63 57.42 63H55.1ZM55.85 62.15H57.37C57.83 62.15 58.1967 62.0867 58.47 61.96C58.7433 61.8333 58.94 61.63 59.06 61.35C59.1867 61.07 59.2533 60.7 59.26 60.24C59.2733 60.04 59.28 59.8667 59.28 59.72C59.28 59.5667 59.28 59.4167 59.28 59.27C59.28 59.1167 59.2733 58.9433 59.26 58.75C59.2467 58.1033 59.0933 57.6267 58.8 57.32C58.5067 57.0067 58.0133 56.85 57.32 56.85H55.85V62.15ZM61.8645 63C61.7979 63 61.7412 62.98 61.6945 62.94C61.6545 62.8933 61.6345 62.8367 61.6345 62.77V58.04C61.6345 57.9733 61.6545 57.9167 61.6945 57.87C61.7412 57.8233 61.7979 57.8 61.8645 57.8H62.3245C62.3912 57.8 62.4479 57.8233 62.4945 57.87C62.5412 57.9167 62.5645 57.9733 62.5645 58.04V58.48C62.6979 58.2533 62.8812 58.0833 63.1145 57.97C63.3479 57.8567 63.6279 57.8 63.9545 57.8H64.3545C64.4212 57.8 64.4745 57.8233 64.5145 57.87C64.5545 57.91 64.5745 57.9633 64.5745 58.03V58.44C64.5745 58.5067 64.5545 58.56 64.5145 58.6C64.4745 58.64 64.4212 58.66 64.3545 58.66H63.7545C63.3945 58.66 63.1112 58.7667 62.9045 58.98C62.6979 59.1867 62.5945 59.47 62.5945 59.83V62.77C62.5945 62.8367 62.5712 62.8933 62.5245 62.94C62.4779 62.98 62.4212 63 62.3545 63H61.8645ZM67.4657 63.1C66.959 63.1 66.5357 63.0033 66.1957 62.81C65.8557 62.6167 65.5957 62.35 65.4157 62.01C65.2357 61.6633 65.1357 61.27 65.1157 60.83C65.109 60.7167 65.1057 60.5733 65.1057 60.4C65.1057 60.22 65.109 60.0767 65.1157 59.97C65.1357 59.5233 65.2357 59.13 65.4157 58.79C65.6024 58.45 65.8657 58.1833 66.2057 57.99C66.5457 57.7967 66.9657 57.7 67.4657 57.7C67.9657 57.7 68.3857 57.7967 68.7257 57.99C69.0657 58.1833 69.3257 58.45 69.5057 58.79C69.6924 59.13 69.7957 59.5233 69.8157 59.97C69.8224 60.0767 69.8257 60.22 69.8257 60.4C69.8257 60.5733 69.8224 60.7167 69.8157 60.83C69.7957 61.27 69.6957 61.6633 69.5157 62.01C69.3357 62.35 69.0757 62.6167 68.7357 62.81C68.3957 63.0033 67.9724 63.1 67.4657 63.1ZM67.4657 62.33C67.879 62.33 68.209 62.2 68.4557 61.94C68.7024 61.6733 68.8357 61.2867 68.8557 60.78C68.8624 60.68 68.8657 60.5533 68.8657 60.4C68.8657 60.2467 68.8624 60.12 68.8557 60.02C68.8357 59.5133 68.7024 59.13 68.4557 58.87C68.209 58.6033 67.879 58.47 67.4657 58.47C67.0524 58.47 66.719 58.6033 66.4657 58.87C66.219 59.13 66.089 59.5133 66.0757 60.02C66.069 60.12 66.0657 60.2467 66.0657 60.4C66.0657 60.5533 66.069 60.68 66.0757 60.78C66.089 61.2867 66.219 61.6733 66.4657 61.94C66.719 62.2 67.0524 62.33 67.4657 62.33ZM71.3179 64.9C71.2512 64.9 71.1946 64.8767 71.1479 64.83C71.1079 64.79 71.0879 64.7367 71.0879 64.67V58.03C71.0879 57.9633 71.1079 57.91 71.1479 57.87C71.1946 57.8233 71.2512 57.8 71.3179 57.8H71.7779C71.8446 57.8 71.8979 57.8233 71.9379 57.87C71.9846 57.91 72.0079 57.9633 72.0079 58.03V58.47C72.1679 58.25 72.3812 58.0667 72.6479 57.92C72.9146 57.7733 73.2479 57.7 73.6479 57.7C74.0212 57.7 74.3379 57.7633 74.5979 57.89C74.8646 58.0167 75.0812 58.19 75.2479 58.41C75.4212 58.63 75.5512 58.88 75.6379 59.16C75.7246 59.44 75.7712 59.74 75.7779 60.06C75.7846 60.1667 75.7879 60.28 75.7879 60.4C75.7879 60.52 75.7846 60.6333 75.7779 60.74C75.7712 61.0533 75.7246 61.3533 75.6379 61.64C75.5512 61.92 75.4212 62.17 75.2479 62.39C75.0812 62.6033 74.8646 62.7767 74.5979 62.91C74.3379 63.0367 74.0212 63.1 73.6479 63.1C73.2612 63.1 72.9346 63.03 72.6679 62.89C72.4079 62.7433 72.1946 62.5633 72.0279 62.35V64.67C72.0279 64.7367 72.0079 64.79 71.9679 64.83C71.9279 64.8767 71.8712 64.9 71.7979 64.9H71.3179ZM73.4379 62.29C73.7846 62.29 74.0546 62.2167 74.2479 62.07C74.4479 61.9167 74.5912 61.72 74.6779 61.48C74.7646 61.2333 74.8146 60.97 74.8279 60.69C74.8346 60.4967 74.8346 60.3033 74.8279 60.11C74.8146 59.83 74.7646 59.57 74.6779 59.33C74.5912 59.0833 74.4479 58.8867 74.2479 58.74C74.0546 58.5867 73.7846 58.51 73.4379 58.51C73.1112 58.51 72.8446 58.5867 72.6379 58.74C72.4379 58.8933 72.2879 59.09 72.1879 59.33C72.0946 59.5633 72.0412 59.8033 72.0279 60.05C72.0212 60.1567 72.0179 60.2833 72.0179 60.43C72.0179 60.5767 72.0212 60.7067 72.0279 60.82C72.0346 61.0533 72.0879 61.2833 72.1879 61.51C72.2946 61.7367 72.4512 61.9233 72.6579 62.07C72.8646 62.2167 73.1246 62.29 73.4379 62.29ZM80.1227 64.9C80.0693 64.9 80.0227 64.88 79.9827 64.84C79.9427 64.8 79.9227 64.7533 79.9227 64.7C79.9227 64.6733 79.926 64.6467 79.9327 64.62C79.9393 64.5933 79.9527 64.56 79.9727 64.52L80.7427 62.69L78.8327 58.18C78.7993 58.1 78.7827 58.0433 78.7827 58.01C78.7827 57.95 78.8027 57.9 78.8427 57.86C78.8827 57.82 78.9327 57.8 78.9927 57.8H79.4827C79.5493 57.8 79.6027 57.8167 79.6427 57.85C79.6827 57.8833 79.7093 57.9233 79.7227 57.97L81.2427 61.61L82.8027 57.97C82.8227 57.9233 82.8493 57.8833 82.8827 57.85C82.9227 57.8167 82.9793 57.8 83.0527 57.8H83.5227C83.5827 57.8 83.6327 57.82 83.6727 57.86C83.7127 57.9 83.7327 57.9467 83.7327 58C83.7327 58.0333 83.716 58.0933 83.6827 58.18L80.8427 64.73C80.8227 64.7767 80.7927 64.8167 80.7527 64.85C80.7193 64.8833 80.666 64.9 80.5927 64.9H80.1227ZM86.6747 63.1C86.168 63.1 85.7447 63.0033 85.4047 62.81C85.0647 62.6167 84.8047 62.35 84.6247 62.01C84.4447 61.6633 84.3447 61.27 84.3247 60.83C84.318 60.7167 84.3147 60.5733 84.3147 60.4C84.3147 60.22 84.318 60.0767 84.3247 59.97C84.3447 59.5233 84.4447 59.13 84.6247 58.79C84.8114 58.45 85.0747 58.1833 85.4147 57.99C85.7547 57.7967 86.1747 57.7 86.6747 57.7C87.1747 57.7 87.5947 57.7967 87.9347 57.99C88.2747 58.1833 88.5347 58.45 88.7147 58.79C88.9014 59.13 89.0047 59.5233 89.0247 59.97C89.0314 60.0767 89.0347 60.22 89.0347 60.4C89.0347 60.5733 89.0314 60.7167 89.0247 60.83C89.0047 61.27 88.9047 61.6633 88.7247 62.01C88.5447 62.35 88.2847 62.6167 87.9447 62.81C87.6047 63.0033 87.1814 63.1 86.6747 63.1ZM86.6747 62.33C87.088 62.33 87.418 62.2 87.6647 61.94C87.9114 61.6733 88.0447 61.2867 88.0647 60.78C88.0714 60.68 88.0747 60.5533 88.0747 60.4C88.0747 60.2467 88.0714 60.12 88.0647 60.02C88.0447 59.5133 87.9114 59.13 87.6647 58.87C87.418 58.6033 87.088 58.47 86.6747 58.47C86.2614 58.47 85.928 58.6033 85.6747 58.87C85.428 59.13 85.298 59.5133 85.2847 60.02C85.278 60.12 85.2747 60.2467 85.2747 60.4C85.2747 60.5533 85.278 60.68 85.2847 60.78C85.298 61.2867 85.428 61.6733 85.6747 61.94C85.928 62.2 86.2614 62.33 86.6747 62.33ZM92.2269 63.1C91.8002 63.1 91.4369 63.0067 91.1369 62.82C90.8435 62.6267 90.6202 62.36 90.4669 62.02C90.3135 61.68 90.2369 61.29 90.2369 60.85V58.03C90.2369 57.9633 90.2569 57.91 90.2969 57.87C90.3435 57.8233 90.4002 57.8 90.4669 57.8H90.9669C91.0335 57.8 91.0869 57.8233 91.1269 57.87C91.1735 57.91 91.1969 57.9633 91.1969 58.03V60.8C91.1969 61.7933 91.6302 62.29 92.4969 62.29C92.9102 62.29 93.2402 62.16 93.4869 61.9C93.7402 61.6333 93.8669 61.2667 93.8669 60.8V58.03C93.8669 57.9633 93.8869 57.91 93.9269 57.87C93.9735 57.8233 94.0302 57.8 94.0969 57.8H94.5869C94.6602 57.8 94.7169 57.8233 94.7569 57.87C94.7969 57.91 94.8169 57.9633 94.8169 58.03V62.77C94.8169 62.8367 94.7969 62.8933 94.7569 62.94C94.7169 62.98 94.6602 63 94.5869 63H94.1269C94.0602 63 94.0035 62.98 93.9569 62.94C93.9169 62.8933 93.8969 62.8367 93.8969 62.77V62.33C93.7169 62.5633 93.4969 62.75 93.2369 62.89C92.9835 63.03 92.6469 63.1 92.2269 63.1ZM96.5325 63C96.4658 63 96.4092 62.98 96.3625 62.94C96.3225 62.8933 96.3025 62.8367 96.3025 62.77V58.04C96.3025 57.9733 96.3225 57.9167 96.3625 57.87C96.4092 57.8233 96.4658 57.8 96.5325 57.8H96.9925C97.0592 57.8 97.1158 57.8233 97.1625 57.87C97.2092 57.9167 97.2325 57.9733 97.2325 58.04V58.48C97.3658 58.2533 97.5492 58.0833 97.7825 57.97C98.0158 57.8567 98.2958 57.8 98.6225 57.8H99.0225C99.0892 57.8 99.1425 57.8233 99.1825 57.87C99.2225 57.91 99.2425 57.9633 99.2425 58.03V58.44C99.2425 58.5067 99.2225 58.56 99.1825 58.6C99.1425 58.64 99.0892 58.66 99.0225 58.66H98.4225C98.0625 58.66 97.7792 58.7667 97.5725 58.98C97.3658 59.1867 97.2625 59.47 97.2625 59.83V62.77C97.2625 62.8367 97.2392 62.8933 97.1925 62.94C97.1458 62.98 97.0892 63 97.0225 63H96.5325ZM102.883 63C102.816 63 102.759 62.98 102.713 62.94C102.673 62.8933 102.653 62.8367 102.653 62.77V58.6H101.803C101.736 58.6 101.679 58.58 101.633 58.54C101.593 58.4933 101.573 58.4367 101.573 58.37V58.03C101.573 57.9633 101.593 57.91 101.633 57.87C101.679 57.8233 101.736 57.8 101.803 57.8H102.653V57.3C102.653 56.96 102.709 56.6633 102.823 56.41C102.936 56.15 103.116 55.95 103.363 55.81C103.616 55.67 103.953 55.6 104.373 55.6H104.973C105.039 55.6 105.093 55.6233 105.133 55.67C105.173 55.71 105.193 55.7633 105.193 55.83V56.17C105.193 56.2367 105.173 56.2933 105.133 56.34C105.093 56.38 105.039 56.4 104.973 56.4H104.393C104.079 56.4 103.866 56.4833 103.753 56.65C103.639 56.81 103.583 57.0433 103.583 57.35V57.8H104.873C104.939 57.8 104.993 57.8233 105.033 57.87C105.073 57.91 105.093 57.9633 105.093 58.03V58.37C105.093 58.4367 105.073 58.4933 105.033 58.54C104.993 58.58 104.939 58.6 104.873 58.6H103.583V62.77C103.583 62.8367 103.559 62.8933 103.513 62.94C103.473 62.98 103.419 63 103.353 63H102.883ZM107.362 63.1C107.029 63.1 106.725 63.0333 106.452 62.9C106.179 62.7667 105.959 62.5867 105.792 62.36C105.625 62.1333 105.542 61.8767 105.542 61.59C105.542 61.13 105.729 60.7633 106.102 60.49C106.475 60.2167 106.962 60.0367 107.562 59.95L109.052 59.74V59.45C109.052 59.13 108.959 58.88 108.772 58.7C108.592 58.52 108.295 58.43 107.882 58.43C107.582 58.43 107.339 58.49 107.152 58.61C106.972 58.73 106.845 58.8833 106.772 59.07C106.732 59.17 106.662 59.22 106.562 59.22H106.112C106.039 59.22 105.982 59.2 105.942 59.16C105.909 59.1133 105.892 59.06 105.892 59C105.892 58.9 105.929 58.7767 106.002 58.63C106.082 58.4833 106.202 58.34 106.362 58.2C106.522 58.06 106.725 57.9433 106.972 57.85C107.225 57.75 107.532 57.7 107.892 57.7C108.292 57.7 108.629 57.7533 108.902 57.86C109.175 57.96 109.389 58.0967 109.542 58.27C109.702 58.4433 109.815 58.64 109.882 58.86C109.955 59.08 109.992 59.3033 109.992 59.53V62.77C109.992 62.8367 109.969 62.8933 109.922 62.94C109.882 62.98 109.829 63 109.762 63H109.302C109.229 63 109.172 62.98 109.132 62.94C109.092 62.8933 109.072 62.8367 109.072 62.77V62.34C108.985 62.46 108.869 62.58 108.722 62.7C108.575 62.8133 108.392 62.91 108.172 62.99C107.952 63.0633 107.682 63.1 107.362 63.1ZM107.572 62.35C107.845 62.35 108.095 62.2933 108.322 62.18C108.549 62.06 108.725 61.8767 108.852 61.63C108.985 61.3833 109.052 61.0733 109.052 60.7V60.42L107.892 60.59C107.419 60.6567 107.062 60.77 106.822 60.93C106.582 61.0833 106.462 61.28 106.462 61.52C106.462 61.7067 106.515 61.8633 106.622 61.99C106.735 62.11 106.875 62.2 107.042 62.26C107.215 62.32 107.392 62.35 107.572 62.35ZM113.142 63C113.042 63 112.962 62.9767 112.902 62.93C112.848 62.8833 112.805 62.8233 112.772 62.75L110.922 58.11C110.908 58.0767 110.902 58.0433 110.902 58.01C110.902 57.95 110.922 57.9 110.962 57.86C111.002 57.82 111.052 57.8 111.112 57.8H111.592C111.665 57.8 111.722 57.82 111.762 57.86C111.802 57.9 111.825 57.9367 111.832 57.97L113.362 61.91L114.882 57.97C114.895 57.9367 114.918 57.9 114.952 57.86C114.992 57.82 115.048 57.8 115.122 57.8H115.612C115.665 57.8 115.712 57.82 115.752 57.86C115.798 57.9 115.822 57.95 115.822 58.01C115.822 58.0433 115.815 58.0767 115.802 58.11L113.942 62.75C113.915 62.8233 113.872 62.8833 113.812 62.93C113.758 62.9767 113.678 63 113.572 63H113.142ZM117.099 63C117.032 63 116.976 62.98 116.929 62.94C116.889 62.8933 116.869 62.8367 116.869 62.77V58.03C116.869 57.9633 116.889 57.91 116.929 57.87C116.976 57.8233 117.032 57.8 117.099 57.8H117.579C117.646 57.8 117.699 57.8233 117.739 57.87C117.779 57.91 117.799 57.9633 117.799 58.03V62.77C117.799 62.8367 117.779 62.8933 117.739 62.94C117.699 62.98 117.646 63 117.579 63H117.099ZM117.019 56.83C116.952 56.83 116.896 56.81 116.849 56.77C116.809 56.7233 116.789 56.6667 116.789 56.6V56.06C116.789 55.9933 116.809 55.94 116.849 55.9C116.896 55.8533 116.952 55.83 117.019 55.83H117.649C117.716 55.83 117.769 55.8533 117.809 55.9C117.856 55.94 117.879 55.9933 117.879 56.06V56.6C117.879 56.6667 117.856 56.7233 117.809 56.77C117.769 56.81 117.716 56.83 117.649 56.83H117.019ZM121.41 63.1C120.937 63.1 120.527 63.01 120.18 62.83C119.84 62.6433 119.577 62.38 119.39 62.04C119.204 61.6933 119.104 61.28 119.09 60.8C119.084 60.7 119.08 60.5667 119.08 60.4C119.08 60.2333 119.084 60.1 119.09 60C119.104 59.52 119.204 59.11 119.39 58.77C119.577 58.4233 119.84 58.16 120.18 57.98C120.527 57.7933 120.937 57.7 121.41 57.7C121.797 57.7 122.127 57.7533 122.4 57.86C122.68 57.9667 122.91 58.1033 123.09 58.27C123.27 58.4367 123.404 58.6167 123.49 58.81C123.584 59.0033 123.634 59.1867 123.64 59.36C123.647 59.4267 123.627 59.48 123.58 59.52C123.534 59.56 123.477 59.58 123.41 59.58H122.93C122.864 59.58 122.814 59.5667 122.78 59.54C122.747 59.5067 122.714 59.4533 122.68 59.38C122.56 59.0533 122.397 58.8233 122.19 58.69C121.984 58.5567 121.727 58.49 121.42 58.49C121.02 58.49 120.694 58.6133 120.44 58.86C120.194 59.1067 120.06 59.5033 120.04 60.05C120.034 60.29 120.034 60.5233 120.04 60.75C120.06 61.3033 120.194 61.7033 120.44 61.95C120.694 62.19 121.02 62.31 121.42 62.31C121.727 62.31 121.984 62.2433 122.19 62.11C122.397 61.9767 122.56 61.7467 122.68 61.42C122.714 61.3467 122.747 61.2967 122.78 61.27C122.814 61.2367 122.864 61.22 122.93 61.22H123.41C123.477 61.22 123.534 61.24 123.58 61.28C123.627 61.32 123.647 61.3733 123.64 61.44C123.634 61.58 123.604 61.7233 123.55 61.87C123.497 62.0167 123.41 62.1667 123.29 62.32C123.177 62.4667 123.034 62.6 122.86 62.72C122.687 62.8333 122.477 62.9267 122.23 63C121.99 63.0667 121.717 63.1 121.41 63.1ZM126.958 63.1C126.451 63.1 126.028 63.0033 125.688 62.81C125.348 62.6167 125.088 62.35 124.908 62.01C124.728 61.6633 124.628 61.27 124.608 60.83C124.601 60.7167 124.598 60.5733 124.598 60.4C124.598 60.22 124.601 60.0767 124.608 59.97C124.628 59.5233 124.728 59.13 124.908 58.79C125.095 58.45 125.358 58.1833 125.698 57.99C126.038 57.7967 126.458 57.7 126.958 57.7C127.458 57.7 127.878 57.7967 128.218 57.99C128.558 58.1833 128.818 58.45 128.998 58.79C129.185 59.13 129.288 59.5233 129.308 59.97C129.315 60.0767 129.318 60.22 129.318 60.4C129.318 60.5733 129.315 60.7167 129.308 60.83C129.288 61.27 129.188 61.6633 129.008 62.01C128.828 62.35 128.568 62.6167 128.228 62.81C127.888 63.0033 127.465 63.1 126.958 63.1ZM126.958 62.33C127.371 62.33 127.701 62.2 127.948 61.94C128.195 61.6733 128.328 61.2867 128.348 60.78C128.355 60.68 128.358 60.5533 128.358 60.4C128.358 60.2467 128.355 60.12 128.348 60.02C128.328 59.5133 128.195 59.13 127.948 58.87C127.701 58.6033 127.371 58.47 126.958 58.47C126.545 58.47 126.211 58.6033 125.958 58.87C125.711 59.13 125.581 59.5133 125.568 60.02C125.561 60.12 125.558 60.2467 125.558 60.4C125.558 60.5533 125.561 60.68 125.568 60.78C125.581 61.2867 125.711 61.6733 125.958 61.94C126.211 62.2 126.545 62.33 126.958 62.33ZM130.8 63C130.733 63 130.677 62.98 130.63 62.94C130.59 62.8933 130.57 62.8367 130.57 62.77V58.03C130.57 57.9633 130.59 57.91 130.63 57.87C130.677 57.8233 130.733 57.8 130.8 57.8H131.27C131.337 57.8 131.39 57.8233 131.43 57.87C131.477 57.91 131.5 57.9633 131.5 58.03V58.47C131.673 58.2433 131.89 58.06 132.15 57.92C132.417 57.7733 132.757 57.7 133.17 57.7C133.603 57.7 133.97 57.7967 134.27 57.99C134.577 58.1767 134.807 58.44 134.96 58.78C135.113 59.1133 135.19 59.5033 135.19 59.95V62.77C135.19 62.8367 135.17 62.8933 135.13 62.94C135.09 62.98 135.037 63 134.97 63H134.47C134.403 63 134.347 62.98 134.3 62.94C134.26 62.8933 134.24 62.8367 134.24 62.77V60C134.24 59.5333 134.127 59.17 133.9 58.91C133.673 58.6433 133.34 58.51 132.9 58.51C132.487 58.51 132.153 58.6433 131.9 58.91C131.653 59.17 131.53 59.5333 131.53 60V62.77C131.53 62.8367 131.507 62.8933 131.46 62.94C131.42 62.98 131.367 63 131.3 63H130.8ZM139.326 63C139.259 63 139.202 62.98 139.156 62.94C139.116 62.8933 139.096 62.8367 139.096 62.77V56.13C139.096 56.0633 139.116 56.01 139.156 55.97C139.202 55.9233 139.259 55.9 139.326 55.9H139.826C139.899 55.9 139.956 55.9233 139.996 55.97C140.036 56.01 140.056 56.0633 140.056 56.13V58.46C140.236 58.2333 140.456 58.05 140.716 57.91C140.976 57.77 141.306 57.7 141.706 57.7C142.139 57.7 142.506 57.7967 142.806 57.99C143.112 58.1767 143.342 58.44 143.496 58.78C143.656 59.1133 143.736 59.5033 143.736 59.95V62.77C143.736 62.8367 143.716 62.8933 143.676 62.94C143.636 62.98 143.579 63 143.506 63H143.006C142.939 63 142.882 62.98 142.836 62.94C142.796 62.8933 142.776 62.8367 142.776 62.77V60C142.776 59.5333 142.662 59.17 142.436 58.91C142.209 58.6433 141.876 58.51 141.436 58.51C141.022 58.51 140.689 58.6433 140.436 58.91C140.182 59.17 140.056 59.5333 140.056 60V62.77C140.056 62.8367 140.036 62.8933 139.996 62.94C139.956 62.98 139.899 63 139.826 63H139.326ZM147.249 63.1C146.563 63.1 146.016 62.89 145.609 62.47C145.203 62.0433 144.979 61.4633 144.939 60.73C144.933 60.6433 144.929 60.5333 144.929 60.4C144.929 60.26 144.933 60.1467 144.939 60.06C144.966 59.5867 145.076 59.1733 145.269 58.82C145.463 58.46 145.726 58.1833 146.059 57.99C146.399 57.7967 146.796 57.7 147.249 57.7C147.756 57.7 148.179 57.8067 148.519 58.02C148.866 58.2333 149.129 58.5367 149.309 58.93C149.489 59.3233 149.579 59.7833 149.579 60.31V60.48C149.579 60.5533 149.556 60.61 149.509 60.65C149.469 60.69 149.416 60.71 149.349 60.71H145.889C145.889 60.7167 145.889 60.73 145.889 60.75C145.889 60.77 145.889 60.7867 145.889 60.8C145.903 61.0733 145.963 61.33 146.069 61.57C146.176 61.8033 146.329 61.9933 146.529 62.14C146.729 62.2867 146.969 62.36 147.249 62.36C147.489 62.36 147.689 62.3233 147.849 62.25C148.009 62.1767 148.139 62.0967 148.239 62.01C148.339 61.9167 148.406 61.8467 148.439 61.8C148.499 61.7133 148.546 61.6633 148.579 61.65C148.613 61.63 148.666 61.62 148.739 61.62H149.219C149.286 61.62 149.339 61.64 149.379 61.68C149.426 61.7133 149.446 61.7633 149.439 61.83C149.433 61.93 149.379 62.0533 149.279 62.2C149.179 62.34 149.036 62.48 148.849 62.62C148.663 62.76 148.436 62.8767 148.169 62.97C147.903 63.0567 147.596 63.1 147.249 63.1ZM145.889 60.02H148.629V59.99C148.629 59.69 148.573 59.4233 148.459 59.19C148.353 58.9567 148.196 58.7733 147.989 58.64C147.783 58.5 147.536 58.43 147.249 58.43C146.963 58.43 146.716 58.5 146.509 58.64C146.309 58.7733 146.156 58.9567 146.049 59.19C145.943 59.4233 145.889 59.69 145.889 59.99V60.02ZM151.005 63C150.938 63 150.882 62.98 150.835 62.94C150.795 62.8933 150.775 62.8367 150.775 62.77V58.04C150.775 57.9733 150.795 57.9167 150.835 57.87C150.882 57.8233 150.938 57.8 151.005 57.8H151.465C151.532 57.8 151.588 57.8233 151.635 57.87C151.682 57.9167 151.705 57.9733 151.705 58.04V58.48C151.838 58.2533 152.022 58.0833 152.255 57.97C152.488 57.8567 152.768 57.8 153.095 57.8H153.495C153.562 57.8 153.615 57.8233 153.655 57.87C153.695 57.91 153.715 57.9633 153.715 58.03V58.44C153.715 58.5067 153.695 58.56 153.655 58.6C153.615 58.64 153.562 58.66 153.495 58.66H152.895C152.535 58.66 152.252 58.7667 152.045 58.98C151.838 59.1867 151.735 59.47 151.735 59.83V62.77C151.735 62.8367 151.712 62.8933 151.665 62.94C151.618 62.98 151.562 63 151.495 63H151.005ZM156.546 63.1C155.86 63.1 155.313 62.89 154.906 62.47C154.5 62.0433 154.276 61.4633 154.236 60.73C154.23 60.6433 154.226 60.5333 154.226 60.4C154.226 60.26 154.23 60.1467 154.236 60.06C154.263 59.5867 154.373 59.1733 154.566 58.82C154.76 58.46 155.023 58.1833 155.356 57.99C155.696 57.7967 156.093 57.7 156.546 57.7C157.053 57.7 157.476 57.8067 157.816 58.02C158.163 58.2333 158.426 58.5367 158.606 58.93C158.786 59.3233 158.876 59.7833 158.876 60.31V60.48C158.876 60.5533 158.853 60.61 158.806 60.65C158.766 60.69 158.713 60.71 158.646 60.71H155.186C155.186 60.7167 155.186 60.73 155.186 60.75C155.186 60.77 155.186 60.7867 155.186 60.8C155.2 61.0733 155.26 61.33 155.366 61.57C155.473 61.8033 155.626 61.9933 155.826 62.14C156.026 62.2867 156.266 62.36 156.546 62.36C156.786 62.36 156.986 62.3233 157.146 62.25C157.306 62.1767 157.436 62.0967 157.536 62.01C157.636 61.9167 157.703 61.8467 157.736 61.8C157.796 61.7133 157.843 61.6633 157.876 61.65C157.91 61.63 157.963 61.62 158.036 61.62H158.516C158.583 61.62 158.636 61.64 158.676 61.68C158.723 61.7133 158.743 61.7633 158.736 61.83C158.73 61.93 158.676 62.0533 158.576 62.2C158.476 62.34 158.333 62.48 158.146 62.62C157.96 62.76 157.733 62.8767 157.466 62.97C157.2 63.0567 156.893 63.1 156.546 63.1ZM155.186 60.02H157.926V59.99C157.926 59.69 157.87 59.4233 157.756 59.19C157.65 58.9567 157.493 58.7733 157.286 58.64C157.08 58.5 156.833 58.43 156.546 58.43C156.26 58.43 156.013 58.5 155.806 58.64C155.606 58.7733 155.453 58.9567 155.346 59.19C155.24 59.4233 155.186 59.69 155.186 59.99V60.02ZM160.002 63.75C159.949 63.75 159.905 63.73 159.872 63.69C159.845 63.65 159.835 63.6 159.842 63.54L160.072 62.11C160.085 62.03 160.112 61.9633 160.152 61.91C160.199 61.85 160.265 61.82 160.352 61.82H161.022C161.069 61.82 161.105 61.8367 161.132 61.87C161.165 61.9033 161.182 61.9433 161.182 61.99C161.182 62.0433 161.169 62.0967 161.142 62.15L160.622 63.52C160.595 63.5867 160.559 63.64 160.512 63.68C160.472 63.7267 160.412 63.75 160.332 63.75H160.002ZM167.143 63.1C166.637 63.1 166.213 63.0033 165.873 62.81C165.533 62.6167 165.273 62.35 165.093 62.01C164.913 61.6633 164.813 61.27 164.793 60.83C164.787 60.7167 164.783 60.5733 164.783 60.4C164.783 60.22 164.787 60.0767 164.793 59.97C164.813 59.5233 164.913 59.13 165.093 58.79C165.28 58.45 165.543 58.1833 165.883 57.99C166.223 57.7967 166.643 57.7 167.143 57.7C167.643 57.7 168.063 57.7967 168.403 57.99C168.743 58.1833 169.003 58.45 169.183 58.79C169.37 59.13 169.473 59.5233 169.493 59.97C169.5 60.0767 169.503 60.22 169.503 60.4C169.503 60.5733 169.5 60.7167 169.493 60.83C169.473 61.27 169.373 61.6633 169.193 62.01C169.013 62.35 168.753 62.6167 168.413 62.81C168.073 63.0033 167.65 63.1 167.143 63.1ZM167.143 62.33C167.557 62.33 167.887 62.2 168.133 61.94C168.38 61.6733 168.513 61.2867 168.533 60.78C168.54 60.68 168.543 60.5533 168.543 60.4C168.543 60.2467 168.54 60.12 168.533 60.02C168.513 59.5133 168.38 59.13 168.133 58.87C167.887 58.6033 167.557 58.47 167.143 58.47C166.73 58.47 166.397 58.6033 166.143 58.87C165.897 59.13 165.767 59.5133 165.753 60.02C165.747 60.12 165.743 60.2467 165.743 60.4C165.743 60.5533 165.747 60.68 165.753 60.78C165.767 61.2867 165.897 61.6733 166.143 61.94C166.397 62.2 166.73 62.33 167.143 62.33ZM170.986 63C170.919 63 170.862 62.98 170.816 62.94C170.776 62.8933 170.756 62.8367 170.756 62.77V58.04C170.756 57.9733 170.776 57.9167 170.816 57.87C170.862 57.8233 170.919 57.8 170.986 57.8H171.446C171.512 57.8 171.569 57.8233 171.616 57.87C171.662 57.9167 171.686 57.9733 171.686 58.04V58.48C171.819 58.2533 172.002 58.0833 172.236 57.97C172.469 57.8567 172.749 57.8 173.076 57.8H173.476C173.542 57.8 173.596 57.8233 173.636 57.87C173.676 57.91 173.696 57.9633 173.696 58.03V58.44C173.696 58.5067 173.676 58.56 173.636 58.6C173.596 58.64 173.542 58.66 173.476 58.66H172.876C172.516 58.66 172.232 58.7667 172.026 58.98C171.819 59.1867 171.716 59.47 171.716 59.83V62.77C171.716 62.8367 171.692 62.8933 171.646 62.94C171.599 62.98 171.542 63 171.476 63H170.986ZM179.341 63.1C178.941 63.1 178.608 63.03 178.341 62.89C178.075 62.7433 177.861 62.5633 177.701 62.35V62.77C177.701 62.8367 177.678 62.8933 177.631 62.94C177.591 62.98 177.538 63 177.471 63H177.011C176.945 63 176.888 62.98 176.841 62.94C176.801 62.8933 176.781 62.8367 176.781 62.77V56.13C176.781 56.0633 176.801 56.01 176.841 55.97C176.888 55.9233 176.945 55.9 177.011 55.9H177.491C177.565 55.9 177.621 55.9233 177.661 55.97C177.701 56.01 177.721 56.0633 177.721 56.13V58.43C177.888 58.2233 178.101 58.05 178.361 57.91C178.628 57.77 178.955 57.7 179.341 57.7C179.715 57.7 180.031 57.7667 180.291 57.9C180.558 58.0267 180.775 58.2033 180.941 58.43C181.115 58.6567 181.245 58.9133 181.331 59.2C181.418 59.4867 181.465 59.7867 181.471 60.1C181.478 60.2067 181.481 60.3067 181.481 60.4C181.481 60.4933 181.478 60.5933 181.471 60.7C181.465 61.02 181.418 61.3233 181.331 61.61C181.245 61.8967 181.115 62.1533 180.941 62.38C180.775 62.6 180.558 62.7767 180.291 62.91C180.031 63.0367 179.715 63.1 179.341 63.1ZM179.131 62.29C179.478 62.29 179.748 62.2167 179.941 62.07C180.141 61.9167 180.285 61.72 180.371 61.48C180.458 61.2333 180.508 60.97 180.521 60.69C180.528 60.4967 180.528 60.3033 180.521 60.11C180.508 59.83 180.458 59.57 180.371 59.33C180.285 59.0833 180.141 58.8867 179.941 58.74C179.748 58.5867 179.478 58.51 179.131 58.51C178.818 58.51 178.558 58.5833 178.351 58.73C178.145 58.8767 177.988 59.0633 177.881 59.29C177.781 59.5167 177.728 59.7467 177.721 59.98C177.715 60.0867 177.711 60.2167 177.711 60.37C177.711 60.5167 177.715 60.6433 177.721 60.75C177.735 60.9967 177.788 61.24 177.881 61.48C177.981 61.7133 178.131 61.9067 178.331 62.06C178.538 62.2133 178.805 62.29 179.131 62.29ZM182.949 63C182.882 63 182.825 62.98 182.779 62.94C182.739 62.8933 182.719 62.8367 182.719 62.77V58.04C182.719 57.9733 182.739 57.9167 182.779 57.87C182.825 57.8233 182.882 57.8 182.949 57.8H183.409C183.475 57.8 183.532 57.8233 183.579 57.87C183.625 57.9167 183.649 57.9733 183.649 58.04V58.48C183.782 58.2533 183.965 58.0833 184.199 57.97C184.432 57.8567 184.712 57.8 185.039 57.8H185.439C185.505 57.8 185.559 57.8233 185.599 57.87C185.639 57.91 185.659 57.9633 185.659 58.03V58.44C185.659 58.5067 185.639 58.56 185.599 58.6C185.559 58.64 185.505 58.66 185.439 58.66H184.839C184.479 58.66 184.195 58.7667 183.989 58.98C183.782 59.1867 183.679 59.47 183.679 59.83V62.77C183.679 62.8367 183.655 62.8933 183.609 62.94C183.562 62.98 183.505 63 183.439 63H182.949ZM188.55 63.1C188.043 63.1 187.62 63.0033 187.28 62.81C186.94 62.6167 186.68 62.35 186.5 62.01C186.32 61.6633 186.22 61.27 186.2 60.83C186.193 60.7167 186.19 60.5733 186.19 60.4C186.19 60.22 186.193 60.0767 186.2 59.97C186.22 59.5233 186.32 59.13 186.5 58.79C186.686 58.45 186.95 58.1833 187.29 57.99C187.63 57.7967 188.05 57.7 188.55 57.7C189.05 57.7 189.47 57.7967 189.81 57.99C190.15 58.1833 190.41 58.45 190.59 58.79C190.776 59.13 190.88 59.5233 190.9 59.97C190.906 60.0767 190.91 60.22 190.91 60.4C190.91 60.5733 190.906 60.7167 190.9 60.83C190.88 61.27 190.78 61.6633 190.6 62.01C190.42 62.35 190.16 62.6167 189.82 62.81C189.48 63.0033 189.056 63.1 188.55 63.1ZM188.55 62.33C188.963 62.33 189.293 62.2 189.54 61.94C189.786 61.6733 189.92 61.2867 189.94 60.78C189.946 60.68 189.95 60.5533 189.95 60.4C189.95 60.2467 189.946 60.12 189.94 60.02C189.92 59.5133 189.786 59.13 189.54 58.87C189.293 58.6033 188.963 58.47 188.55 58.47C188.136 58.47 187.803 58.6033 187.55 58.87C187.303 59.13 187.173 59.5133 187.16 60.02C187.153 60.12 187.15 60.2467 187.15 60.4C187.15 60.5533 187.153 60.68 187.16 60.78C187.173 61.2867 187.303 61.6733 187.55 61.94C187.803 62.2 188.136 62.33 188.55 62.33ZM193.405 63C193.318 63 193.252 62.98 193.205 62.94C193.158 62.8933 193.118 62.83 193.085 62.75L191.665 58.11C191.652 58.0767 191.645 58.0433 191.645 58.01C191.645 57.95 191.665 57.9 191.705 57.86C191.752 57.82 191.802 57.8 191.855 57.8H192.295C192.368 57.8 192.425 57.82 192.465 57.86C192.505 57.9 192.532 57.9367 192.545 57.97L193.655 61.74L194.845 58.01C194.858 57.9633 194.885 57.9167 194.925 57.87C194.972 57.8233 195.038 57.8 195.125 57.8H195.465C195.552 57.8 195.618 57.8233 195.665 57.87C195.712 57.9167 195.738 57.9633 195.745 58.01L196.935 61.74L198.045 57.97C198.052 57.9367 198.075 57.9 198.115 57.86C198.155 57.82 198.212 57.8 198.285 57.8H198.725C198.785 57.8 198.835 57.82 198.875 57.86C198.915 57.9 198.935 57.95 198.935 58.01C198.935 58.0433 198.928 58.0767 198.915 58.11L197.495 62.75C197.475 62.83 197.438 62.8933 197.385 62.94C197.338 62.98 197.268 63 197.175 63H196.785C196.698 63 196.625 62.98 196.565 62.94C196.512 62.8933 196.475 62.83 196.455 62.75L195.295 59.17L194.135 62.75C194.108 62.83 194.068 62.8933 194.015 62.94C193.962 62.98 193.888 63 193.795 63H193.405ZM201.716 63.1C201.342 63.1 201.022 63.0533 200.756 62.96C200.489 62.8667 200.272 62.7533 200.106 62.62C199.939 62.4867 199.812 62.3533 199.726 62.22C199.646 62.0867 199.602 61.98 199.596 61.9C199.589 61.8267 199.612 61.77 199.666 61.73C199.719 61.69 199.772 61.67 199.826 61.67H200.266C200.306 61.67 200.336 61.6767 200.356 61.69C200.382 61.6967 200.416 61.7233 200.456 61.77C200.542 61.8633 200.639 61.9567 200.746 62.05C200.852 62.1433 200.982 62.22 201.136 62.28C201.296 62.34 201.492 62.37 201.726 62.37C202.066 62.37 202.346 62.3067 202.566 62.18C202.786 62.0467 202.896 61.8533 202.896 61.6C202.896 61.4333 202.849 61.3 202.756 61.2C202.669 61.1 202.509 61.01 202.276 60.93C202.049 60.85 201.736 60.7667 201.336 60.68C200.936 60.5867 200.619 60.4733 200.386 60.34C200.152 60.2 199.986 60.0367 199.886 59.85C199.786 59.6567 199.736 59.44 199.736 59.2C199.736 58.9533 199.809 58.7167 199.956 58.49C200.102 58.2567 200.316 58.0667 200.596 57.92C200.882 57.7733 201.239 57.7 201.666 57.7C202.012 57.7 202.309 57.7433 202.556 57.83C202.802 57.9167 203.006 58.0267 203.166 58.16C203.326 58.2867 203.446 58.4133 203.526 58.54C203.606 58.6667 203.649 58.7733 203.656 58.86C203.662 58.9267 203.642 58.9833 203.596 59.03C203.549 59.07 203.496 59.09 203.436 59.09H203.016C202.969 59.09 202.929 59.08 202.896 59.06C202.869 59.04 202.842 59.0167 202.816 58.99C202.749 58.9033 202.669 58.8167 202.576 58.73C202.489 58.6433 202.372 58.5733 202.226 58.52C202.086 58.46 201.899 58.43 201.666 58.43C201.332 58.43 201.082 58.5 200.916 58.64C200.749 58.78 200.666 58.9567 200.666 59.17C200.666 59.2967 200.702 59.41 200.776 59.51C200.849 59.61 200.989 59.7 201.196 59.78C201.402 59.86 201.709 59.9467 202.116 60.04C202.556 60.1267 202.902 60.2433 203.156 60.39C203.409 60.5367 203.589 60.7067 203.696 60.9C203.802 61.0933 203.856 61.3167 203.856 61.57C203.856 61.85 203.772 62.1067 203.606 62.34C203.446 62.5733 203.206 62.76 202.886 62.9C202.572 63.0333 202.182 63.1 201.716 63.1ZM207.083 63.1C206.397 63.1 205.85 62.89 205.443 62.47C205.037 62.0433 204.813 61.4633 204.773 60.73C204.767 60.6433 204.763 60.5333 204.763 60.4C204.763 60.26 204.767 60.1467 204.773 60.06C204.8 59.5867 204.91 59.1733 205.103 58.82C205.297 58.46 205.56 58.1833 205.893 57.99C206.233 57.7967 206.63 57.7 207.083 57.7C207.59 57.7 208.013 57.8067 208.353 58.02C208.7 58.2333 208.963 58.5367 209.143 58.93C209.323 59.3233 209.413 59.7833 209.413 60.31V60.48C209.413 60.5533 209.39 60.61 209.343 60.65C209.303 60.69 209.25 60.71 209.183 60.71H205.723C205.723 60.7167 205.723 60.73 205.723 60.75C205.723 60.77 205.723 60.7867 205.723 60.8C205.737 61.0733 205.797 61.33 205.903 61.57C206.01 61.8033 206.163 61.9933 206.363 62.14C206.563 62.2867 206.803 62.36 207.083 62.36C207.323 62.36 207.523 62.3233 207.683 62.25C207.843 62.1767 207.973 62.0967 208.073 62.01C208.173 61.9167 208.24 61.8467 208.273 61.8C208.333 61.7133 208.38 61.6633 208.413 61.65C208.447 61.63 208.5 61.62 208.573 61.62H209.053C209.12 61.62 209.173 61.64 209.213 61.68C209.26 61.7133 209.28 61.7633 209.273 61.83C209.267 61.93 209.213 62.0533 209.113 62.2C209.013 62.34 208.87 62.48 208.683 62.62C208.497 62.76 208.27 62.8767 208.003 62.97C207.737 63.0567 207.43 63.1 207.083 63.1ZM205.723 60.02H208.463V59.99C208.463 59.69 208.407 59.4233 208.293 59.19C208.187 58.9567 208.03 58.7733 207.823 58.64C207.617 58.5 207.37 58.43 207.083 58.43C206.797 58.43 206.55 58.5 206.343 58.64C206.143 58.7733 205.99 58.9567 205.883 59.19C205.777 59.4233 205.723 59.69 205.723 59.99V60.02Z" fill="#3B7580"/>
<defs>
<clipPath id="clip0_251_4753">
<rect width="23" height="23" fill="white" transform="translate(121 19)"/>
</clipPath>
</defs>
</svg>
