<svg width="15" height="15" viewBox="0 0 15 15" fill="none" xmlns="http://www.w3.org/2000/svg">
<path d="M11.875 10.625V11.875H4.375V10.625C4.375 10.625 4.375 8.125 8.125 8.125C11.875 8.125 11.875 10.625 11.875 10.625ZM10 5C10 4.62916 9.89003 4.26665 9.68401 3.95831C9.47798 3.64996 9.18514 3.40964 8.84253 3.26773C8.49992 3.12581 8.12292 3.08868 7.75921 3.16103C7.39549 3.23338 7.0614 3.41195 6.79917 3.67418C6.53695 3.9364 6.35837 4.27049 6.28603 4.63421C6.21368 4.99792 6.25081 5.37492 6.39273 5.71753C6.53464 6.06014 6.77496 6.35298 7.08331 6.55901C7.39165 6.76503 7.75416 6.875 8.125 6.875C8.62228 6.875 9.09919 6.67746 9.45083 6.32583C9.80246 5.9742 10 5.49728 10 5ZM12 8.1625C12.3416 8.47769 12.6171 8.85778 12.8102 9.28057C13.0034 9.70337 13.1104 10.1604 13.125 10.625V11.875H15V10.625C15 10.625 15 8.46875 12 8.1625ZM11.25 3.125C11.0612 3.12511 10.8735 3.15463 10.6938 3.2125C11.0594 3.73686 11.2555 4.36074 11.2555 5C11.2555 5.63926 11.0594 6.26314 10.6938 6.7875C10.8735 6.84537 11.0612 6.87489 11.25 6.875C11.7473 6.875 12.2242 6.67746 12.5758 6.32583C12.9275 5.9742 13.125 5.49728 13.125 5C13.125 4.50272 12.9275 4.02581 12.5758 3.67418C12.2242 3.32254 11.7473 3.125 11.25 3.125ZM5 6.25H3.125V4.375H1.875V6.25H0V7.5H1.875V9.375H3.125V7.5H5V6.25Z" fill="#2D464B"/>
</svg>
